%TF.GenerationSoftware,KiCad,Pcbnew,8.0.1*%
%TF.CreationDate,2024-04-23T13:44:49-04:00*%
%TF.ProjectId,HearingProbeBoard,48656172-696e-4675-9072-6f6265426f61,rev?*%
%TF.SameCoordinates,Original*%
%TF.FileFunction,Paste,Top*%
%TF.FilePolarity,Positive*%
%FSLAX46Y46*%
G04 Gerber Fmt 4.6, Leading zero omitted, Abs format (unit mm)*
G04 Created by KiCad (PCBNEW 8.0.1) date 2024-04-23 13:44:49*
%MOMM*%
%LPD*%
G01*
G04 APERTURE LIST*
%ADD10C,0.500000*%
G04 APERTURE END LIST*
D10*
%TO.C,J2*%
X133850000Y-111800000D02*
X133850000Y-110600000D01*
X135050000Y-110600000D02*
X135050000Y-111800000D01*
X141150000Y-111800000D02*
X141150000Y-110600000D01*
X142350000Y-110600000D02*
X142350000Y-111800000D01*
X133850000Y-110600000D02*
G75*
G02*
X134450000Y-110000000I600000J0D01*
G01*
X134450000Y-110000000D02*
G75*
G02*
X135050000Y-110600000I0J-600000D01*
G01*
X134450000Y-112400000D02*
G75*
G02*
X133850000Y-111800000I0J600000D01*
G01*
X135050000Y-111800000D02*
G75*
G02*
X134450000Y-112400000I-600000J0D01*
G01*
X141150000Y-110600000D02*
G75*
G02*
X141750000Y-110000000I600000J0D01*
G01*
X141750000Y-110000000D02*
G75*
G02*
X142350000Y-110600000I0J-600000D01*
G01*
X141750000Y-112400000D02*
G75*
G02*
X141150000Y-111800000I0J600000D01*
G01*
X142350000Y-111800000D02*
G75*
G02*
X141750000Y-112400000I-600000J0D01*
G01*
%TO.C,J1*%
X120850000Y-111800000D02*
X120850000Y-110600000D01*
X122050000Y-110600000D02*
X122050000Y-111800000D01*
X128150000Y-111800000D02*
X128150000Y-110600000D01*
X129350000Y-110600000D02*
X129350000Y-111800000D01*
X120850000Y-110600000D02*
G75*
G02*
X121450000Y-110000000I600000J0D01*
G01*
X121450000Y-110000000D02*
G75*
G02*
X122050000Y-110600000I0J-600000D01*
G01*
X121450000Y-112400000D02*
G75*
G02*
X120850000Y-111800000I0J600000D01*
G01*
X122050000Y-111800000D02*
G75*
G02*
X121450000Y-112400000I-600000J0D01*
G01*
X128150000Y-110600000D02*
G75*
G02*
X128750000Y-110000000I600000J0D01*
G01*
X128750000Y-110000000D02*
G75*
G02*
X129350000Y-110600000I0J-600000D01*
G01*
X128750000Y-112400000D02*
G75*
G02*
X128150000Y-111800000I0J600000D01*
G01*
X129350000Y-111800000D02*
G75*
G02*
X128750000Y-112400000I-600000J0D01*
G01*
%TD*%
M02*
