M48
; DRILL file {KiCad 8.0.1} date 2024-04-23T13:44:58-0400
; FORMAT={-:-/ absolute / inch / decimal}
; #@! TF.CreationDate,2024-04-23T13:44:58-04:00
; #@! TF.GenerationSoftware,Kicad,Pcbnew,8.0.1
; #@! TF.FileFunction,Plated,1,2,PTH
FMAT,2
INCH
; #@! TA.AperFunction,Plated,PTH,ViaDrill
T1C0.0157
; #@! TA.AperFunction,Plated,PTH,ComponentDrill
T2C0.0276
; #@! TA.AperFunction,Plated,PTH,ComponentDrill
T3C0.0315
; #@! TA.AperFunction,Plated,PTH,ComponentDrill
T4C0.0394
%
G90
G05
T1
X5.0039Y-3.9606
X5.1299Y-3.8898
X5.1693Y-3.9173
X5.315Y-4.2421
X5.3268Y-3.9606
X5.3819Y-3.9606
X5.4764Y-3.9606
X5.5945Y-3.9724
T2
X4.8622Y-4.1791
X4.8937Y-4.2264
X4.9252Y-4.1791
X4.9567Y-4.2264
X4.9882Y-4.1791
X5.374Y-4.1791
X5.4055Y-4.2264
X5.437Y-4.1791
X5.4685Y-4.2264
X5.5Y-4.1791
T3
X5.0728Y-4.0512
X5.1516Y-4.0512
X5.315Y-4.0512
X5.3937Y-4.0512
T4
X4.7874Y-3.8386
X4.7874Y-3.9961
X4.8874Y-3.8386
X4.8874Y-3.9961
T2
G00X4.7815Y-4.4016
M15
G01X4.7815Y-4.3543
M16
G05
G00X5.0689Y-4.4016
M15
G01X5.0689Y-4.3543
M16
G05
G00X5.2933Y-4.4016
M15
G01X5.2933Y-4.3543
M16
G05
G00X5.5807Y-4.4016
M15
G01X5.5807Y-4.3543
M16
G05
M30
