%TF.GenerationSoftware,KiCad,Pcbnew,8.0.1*%
%TF.CreationDate,2024-04-23T13:44:49-04:00*%
%TF.ProjectId,HearingProbeBoard,48656172-696e-4675-9072-6f6265426f61,rev?*%
%TF.SameCoordinates,Original*%
%TF.FileFunction,Copper,L2,Bot*%
%TF.FilePolarity,Positive*%
%FSLAX46Y46*%
G04 Gerber Fmt 4.6, Leading zero omitted, Abs format (unit mm)*
G04 Created by KiCad (PCBNEW 8.0.1) date 2024-04-23 13:44:49*
%MOMM*%
%LPD*%
G01*
G04 APERTURE LIST*
G04 Aperture macros list*
%AMFreePoly0*
4,1,59,-0.604057,1.010209,-0.410836,0.951596,-0.232763,0.856414,-0.076680,0.728320,0.051414,0.572237,0.146596,0.394164,0.205209,0.200943,0.225000,0.000000,0.205209,-0.200943,0.146596,-0.394164,0.051414,-0.572237,-0.076680,-0.728320,-0.232763,-0.856414,-0.410836,-0.951596,-0.604057,-1.010209,-0.805000,-1.030000,-1.005943,-1.010209,-1.199164,-0.951596,-1.377237,-0.856414,-1.533320,-0.728320,
-1.661414,-0.572237,-1.756596,-0.394164,-1.815209,-0.200943,-1.835000,0.000000,-1.390005,0.000000,-1.370071,-0.151410,-1.311629,-0.292503,-1.218661,-0.413661,-1.097503,-0.506629,-0.956410,-0.565071,-0.805000,-0.585005,-0.653590,-0.565071,-0.512497,-0.506629,-0.391339,-0.413661,-0.298371,-0.292503,-0.239929,-0.151410,-0.219995,0.000000,-0.239929,0.151410,-0.298371,0.292502,-0.391339,0.413661,
-0.512497,0.506629,-0.653590,0.565071,-0.805000,0.585005,-0.956410,0.565071,-1.097502,0.506629,-1.218661,0.413661,-1.311629,0.292502,-1.370071,0.151410,-1.390005,0.000000,-1.835000,0.000000,-1.815209,0.200943,-1.756596,0.394164,-1.661414,0.572237,-1.533320,0.728320,-1.377237,0.856414,-1.199164,0.951596,-1.005943,1.010209,-0.805000,1.030000,-0.604057,1.010209,-0.604057,1.010209,
$1*%
G04 Aperture macros list end*
%TA.AperFunction,EtchedComponent*%
%ADD10C,0.500000*%
%TD*%
%TA.AperFunction,ComponentPad*%
%ADD11R,1.700000X1.700000*%
%TD*%
%TA.AperFunction,ComponentPad*%
%ADD12O,1.700000X1.700000*%
%TD*%
%TA.AperFunction,ComponentPad*%
%ADD13R,1.350000X1.350000*%
%TD*%
%TA.AperFunction,ComponentPad*%
%ADD14O,1.350000X1.350000*%
%TD*%
%TA.AperFunction,SMDPad,CuDef*%
%ADD15R,0.750000X0.450000*%
%TD*%
%TA.AperFunction,SMDPad,CuDef*%
%ADD16FreePoly0,90.000000*%
%TD*%
%TA.AperFunction,ComponentPad*%
%ADD17O,0.900000X1.800000*%
%TD*%
%TA.AperFunction,ComponentPad*%
%ADD18O,1.700000X2.900000*%
%TD*%
%TA.AperFunction,ComponentPad*%
%ADD19O,1.750000X2.950000*%
%TD*%
%TA.AperFunction,ViaPad*%
%ADD20C,0.800000*%
%TD*%
%TA.AperFunction,Conductor*%
%ADD21C,0.250000*%
%TD*%
%TA.AperFunction,Conductor*%
%ADD22C,0.500000*%
%TD*%
G04 APERTURE END LIST*
D10*
%TO.C,J2*%
X133850000Y-111800000D02*
X133850000Y-110600000D01*
X135050000Y-110600000D02*
X135050000Y-111800000D01*
X141175736Y-111824264D02*
X141175736Y-110624264D01*
X142375736Y-110624264D02*
X142375736Y-111824264D01*
X133850000Y-110600000D02*
G75*
G02*
X134450000Y-110000000I600000J0D01*
G01*
X134450000Y-110000000D02*
G75*
G02*
X135050000Y-110600000I0J-600000D01*
G01*
X134450000Y-112400000D02*
G75*
G02*
X133850000Y-111800000I0J600000D01*
G01*
X135050000Y-111800000D02*
G75*
G02*
X134450000Y-112400000I-600004J4D01*
G01*
X141175736Y-110624264D02*
G75*
G02*
X141775736Y-110024264I600000J0D01*
G01*
X141775736Y-110024264D02*
G75*
G02*
X142375736Y-110624264I0J-600000D01*
G01*
X141775736Y-112424264D02*
G75*
G02*
X141175736Y-111824264I0J600000D01*
G01*
X142375736Y-111824264D02*
G75*
G02*
X141775736Y-112424264I-600004J4D01*
G01*
%TO.C,J1*%
X120850000Y-111800000D02*
X120850000Y-110600000D01*
X122050000Y-110600000D02*
X122050000Y-111800000D01*
X128175736Y-111824264D02*
X128175736Y-110624264D01*
X129375736Y-110624264D02*
X129375736Y-111824264D01*
X120850000Y-110600000D02*
G75*
G02*
X121450000Y-110000000I600000J0D01*
G01*
X121450000Y-110000000D02*
G75*
G02*
X122050000Y-110600000I0J-600000D01*
G01*
X121450000Y-112400000D02*
G75*
G02*
X120850000Y-111800000I0J600000D01*
G01*
X122050000Y-111800000D02*
G75*
G02*
X121450000Y-112400000I-600004J4D01*
G01*
X128175736Y-110624264D02*
G75*
G02*
X128775736Y-110024264I600000J0D01*
G01*
X128775736Y-110024264D02*
G75*
G02*
X129375736Y-110624264I0J-600000D01*
G01*
X128775736Y-112424264D02*
G75*
G02*
X128175736Y-111824264I0J600000D01*
G01*
X129375736Y-111824264D02*
G75*
G02*
X128775736Y-112424264I-600004J4D01*
G01*
%TD*%
D11*
%TO.P,J3,1,Pin_1*%
%TO.N,/SPK1+*%
X121600000Y-101500000D03*
D12*
%TO.P,J3,2,Pin_2*%
%TO.N,/SPK1-*%
X124140000Y-101500000D03*
%TD*%
D13*
%TO.P,J6,1,Pin_1*%
%TO.N,/SPK2+*%
X135000000Y-102900000D03*
D14*
%TO.P,J6,2,Pin_2*%
%TO.N,/SPK2-*%
X137000000Y-102900000D03*
%TD*%
D13*
%TO.P,J5,1,Pin_1*%
%TO.N,/SPK1+*%
X128850000Y-102900000D03*
D14*
%TO.P,J5,2,Pin_2*%
%TO.N,/SPK1-*%
X130850000Y-102900000D03*
%TD*%
D11*
%TO.P,J4,1,Pin_1*%
%TO.N,/SPK2+*%
X121600000Y-97500000D03*
D12*
%TO.P,J4,2,Pin_2*%
%TO.N,/SPK2-*%
X124140000Y-97500000D03*
%TD*%
D15*
%TO.P,MIC3,1,DATA*%
%TO.N,/DAT_2*%
X137950000Y-99480000D03*
%TO.P,MIC3,2,VDD*%
%TO.N,VDD*%
X137950000Y-98780000D03*
%TO.P,MIC3,3,CLK*%
%TO.N,/CLK_2*%
X136250000Y-99480000D03*
%TO.P,MIC3,4,SELECT*%
%TO.N,VDD*%
X136250000Y-98780000D03*
D16*
%TO.P,MIC3,5,GND*%
%TO.N,GND*%
X137100000Y-96495000D03*
%TD*%
D15*
%TO.P,MIC1,1,DATA*%
%TO.N,/DAT_1*%
X128850000Y-99480000D03*
%TO.P,MIC1,2,VDD*%
%TO.N,VDD*%
X128850000Y-98780000D03*
%TO.P,MIC1,3,CLK*%
%TO.N,/CLK_1*%
X127150000Y-99480000D03*
%TO.P,MIC1,4,SELECT*%
%TO.N,VDD*%
X127150000Y-98780000D03*
D16*
%TO.P,MIC1,5,GND*%
%TO.N,GND*%
X128000000Y-96495000D03*
%TD*%
D15*
%TO.P,MIC2,1,DATA*%
%TO.N,/DAT_1*%
X134350000Y-99480000D03*
%TO.P,MIC2,2,VDD*%
%TO.N,VDD*%
X134350000Y-98780000D03*
%TO.P,MIC2,3,CLK*%
%TO.N,/CLK_1*%
X132650000Y-99480000D03*
%TO.P,MIC2,4,SELECT*%
%TO.N,GND*%
X132650000Y-98780000D03*
D16*
%TO.P,MIC2,5,GND*%
X133500000Y-96495000D03*
%TD*%
D17*
%TO.P,J2,1,VBUS*%
%TO.N,VDD*%
X139700000Y-105850000D03*
%TO.P,J2,2,D-*%
%TO.N,/CLK_2*%
X138900000Y-107650000D03*
%TO.P,J2,3,D+*%
%TO.N,/DAT_2*%
X138100000Y-105850000D03*
%TO.P,J2,4,ID*%
%TO.N,/SPK2+*%
X137300000Y-107650000D03*
%TO.P,J2,5,GND*%
%TO.N,GND*%
X136500000Y-105850000D03*
D18*
%TO.P,J2,6,Shield*%
%TO.N,/SPK2-*%
X134450000Y-111200000D03*
D19*
X141775000Y-111225000D03*
%TD*%
D17*
%TO.P,J1,1,VBUS*%
%TO.N,VDD*%
X126700000Y-105850000D03*
%TO.P,J1,2,D-*%
%TO.N,/CLK_1*%
X125900000Y-107650000D03*
%TO.P,J1,3,D+*%
%TO.N,/DAT_1*%
X125100000Y-105850000D03*
%TO.P,J1,4,ID*%
%TO.N,/SPK1+*%
X124300000Y-107650000D03*
%TO.P,J1,5,GND*%
%TO.N,GND*%
X123500000Y-105850000D03*
D18*
%TO.P,J1,6,Shield*%
%TO.N,/SPK1-*%
X121450000Y-111200000D03*
D19*
X128750000Y-111200000D03*
%TD*%
D15*
%TO.P,MIC4,1,DATA*%
%TO.N,/DAT_2*%
X141850000Y-99480000D03*
%TO.P,MIC4,2,VDD*%
%TO.N,VDD*%
X141850000Y-98780000D03*
%TO.P,MIC4,3,CLK*%
%TO.N,/CLK_2*%
X140150000Y-99480000D03*
%TO.P,MIC4,4,SELECT*%
%TO.N,GND*%
X140150000Y-98780000D03*
D16*
%TO.P,MIC4,5,GND*%
X141000000Y-96495000D03*
%TD*%
D20*
%TO.N,VDD*%
X135300000Y-100600000D03*
X130300000Y-98800000D03*
X142100000Y-100900000D03*
%TO.N,/CLK_1*%
X127100000Y-100600000D03*
X131300000Y-99500000D03*
%TO.N,/CLK_2*%
X139100000Y-100600000D03*
X136700000Y-100600000D03*
%TO.N,/SPK2+*%
X135000000Y-107750000D03*
%TD*%
D21*
%TO.N,VDD*%
X135300000Y-99105000D02*
X135300000Y-100600000D01*
X136250000Y-98780000D02*
X135625000Y-98780000D01*
X142100000Y-100900000D02*
X142650000Y-100350000D01*
X134975000Y-98780000D02*
X135300000Y-99105000D01*
X127150000Y-98780000D02*
X128850000Y-98780000D01*
X134350000Y-98780000D02*
X134975000Y-98780000D01*
X130280000Y-98780000D02*
X128850000Y-98780000D01*
X137950000Y-98780000D02*
X136250000Y-98780000D01*
X130300000Y-98800000D02*
X130280000Y-98780000D01*
X142650000Y-99030000D02*
X142400000Y-98780000D01*
X135625000Y-98780000D02*
X135300000Y-99105000D01*
X142400000Y-98780000D02*
X141850000Y-98780000D01*
X142650000Y-100350000D02*
X142650000Y-99030000D01*
%TO.N,/CLK_1*%
X132630000Y-99500000D02*
X132650000Y-99480000D01*
X127150000Y-99480000D02*
X127150000Y-100550000D01*
X131300000Y-99500000D02*
X132630000Y-99500000D01*
X127150000Y-100550000D02*
X127100000Y-100600000D01*
%TO.N,/DAT_1*%
X128850000Y-100000000D02*
X128850000Y-99480000D01*
X129400000Y-100600000D02*
X133800000Y-100600000D01*
X134350000Y-100050000D02*
X134350000Y-99480000D01*
X128850000Y-99480000D02*
X128850000Y-100050000D01*
X133800000Y-100600000D02*
X134350000Y-100050000D01*
X125100000Y-103750000D02*
X128850000Y-100000000D01*
X128850000Y-100050000D02*
X129400000Y-100600000D01*
X125100000Y-106150000D02*
X125100000Y-103750000D01*
%TO.N,/SPK1+*%
X121600000Y-106550000D02*
X121600000Y-101500000D01*
X124300000Y-107350000D02*
X123950000Y-107700000D01*
X124300000Y-107350000D02*
X124300000Y-108650000D01*
X123950000Y-107700000D02*
X122750000Y-107700000D01*
X122750000Y-107700000D02*
X121600000Y-106550000D01*
X124300000Y-108650000D02*
X124750000Y-109100000D01*
X126500000Y-109100000D02*
X128850000Y-106750000D01*
X124750000Y-109100000D02*
X126500000Y-109100000D01*
X128850000Y-106750000D02*
X128850000Y-102900000D01*
%TO.N,/SPK1-*%
X121450000Y-110622502D02*
X121430036Y-110602538D01*
X121450000Y-111200000D02*
X121450000Y-110622502D01*
%TO.N,GND*%
X140003984Y-97200000D02*
X140708984Y-96495000D01*
D22*
X128996016Y-97200000D02*
X132503984Y-97200000D01*
D21*
X133208984Y-96495000D02*
X133500000Y-96495000D01*
X137391016Y-96495000D02*
X138096016Y-97200000D01*
X137100000Y-96495000D02*
X137391016Y-96495000D01*
X128291016Y-96495000D02*
X128996016Y-97200000D01*
D22*
X138096016Y-97200000D02*
X140003984Y-97200000D01*
D21*
X128000000Y-96495000D02*
X128291016Y-96495000D01*
X140708984Y-96495000D02*
X141000000Y-96495000D01*
X132503984Y-97200000D02*
X133208984Y-96495000D01*
%TO.N,/CLK_2*%
X139100000Y-100600000D02*
X139100000Y-100530000D01*
X139100000Y-100530000D02*
X140150000Y-99480000D01*
X136250000Y-100150000D02*
X136250000Y-99480000D01*
X136700000Y-100600000D02*
X136250000Y-100150000D01*
%TO.N,/DAT_2*%
X138400000Y-105000000D02*
X138900000Y-104500000D01*
X137950000Y-100700000D02*
X137950000Y-99480000D01*
X138400000Y-105850000D02*
X138400000Y-105000000D01*
X138900000Y-104500000D02*
X138900000Y-101650000D01*
X139680000Y-101650000D02*
X138900000Y-101650000D01*
X138900000Y-101650000D02*
X137950000Y-100700000D01*
X138100000Y-106150000D02*
X138400000Y-105850000D01*
X141850000Y-99480000D02*
X139680000Y-101650000D01*
%TO.N,/SPK2+*%
X126700000Y-110300000D02*
X123600000Y-110300000D01*
X123600000Y-110300000D02*
X120000000Y-106700000D01*
X135000000Y-102900000D02*
X135000000Y-107750000D01*
X120000000Y-99100000D02*
X121600000Y-97500000D01*
X135000000Y-107750000D02*
X129250000Y-107750000D01*
X120000000Y-106700000D02*
X120000000Y-99100000D01*
X129250000Y-107750000D02*
X126700000Y-110300000D01*
%TD*%
%TA.AperFunction,Conductor*%
%TO.N,GND*%
G36*
X143459191Y-95018907D02*
G01*
X143495155Y-95068407D01*
X143500000Y-95099000D01*
X143500000Y-112901000D01*
X143481093Y-112959191D01*
X143431593Y-112995155D01*
X143401000Y-113000000D01*
X142250289Y-113000000D01*
X142192098Y-112981093D01*
X142156134Y-112931593D01*
X142156134Y-112870407D01*
X142192098Y-112820907D01*
X142205335Y-112812794D01*
X142338685Y-112744850D01*
X142475641Y-112645346D01*
X142595346Y-112525641D01*
X142694850Y-112388685D01*
X142771705Y-112237849D01*
X142824018Y-112076847D01*
X142824019Y-112076842D01*
X142850500Y-111909647D01*
X142850500Y-110540352D01*
X142824019Y-110373157D01*
X142807834Y-110323343D01*
X142771705Y-110212151D01*
X142694850Y-110061315D01*
X142595346Y-109924359D01*
X142475641Y-109804654D01*
X142338685Y-109705150D01*
X142338684Y-109705149D01*
X142338682Y-109705148D01*
X142235489Y-109652569D01*
X142187849Y-109628295D01*
X142187846Y-109628294D01*
X142187844Y-109628293D01*
X142026842Y-109575980D01*
X141859647Y-109549500D01*
X141859644Y-109549500D01*
X141690356Y-109549500D01*
X141690353Y-109549500D01*
X141523157Y-109575980D01*
X141362155Y-109628293D01*
X141211317Y-109705148D01*
X141142837Y-109754902D01*
X141074359Y-109804654D01*
X140954654Y-109924359D01*
X140925715Y-109964190D01*
X140855148Y-110061317D01*
X140778293Y-110212155D01*
X140725980Y-110373157D01*
X140699500Y-110540352D01*
X140699500Y-111909647D01*
X140725980Y-112076842D01*
X140760428Y-112182859D01*
X140778295Y-112237849D01*
X140808738Y-112297596D01*
X140839434Y-112357842D01*
X140855150Y-112388685D01*
X140954654Y-112525641D01*
X141074359Y-112645346D01*
X141211315Y-112744850D01*
X141344657Y-112812791D01*
X141387920Y-112856055D01*
X141397492Y-112916487D01*
X141369715Y-112971003D01*
X141315198Y-112998781D01*
X141299711Y-113000000D01*
X134795739Y-113000000D01*
X134737548Y-112981093D01*
X134701584Y-112931593D01*
X134701584Y-112870407D01*
X134737548Y-112820907D01*
X134757849Y-112809537D01*
X134828861Y-112780122D01*
X134832853Y-112778570D01*
X134895656Y-112755713D01*
X134910010Y-112747424D01*
X134921609Y-112741705D01*
X134947598Y-112730941D01*
X135002339Y-112694363D01*
X135007823Y-112690952D01*
X135054844Y-112663806D01*
X135077175Y-112645068D01*
X135085795Y-112638600D01*
X135119655Y-112615977D01*
X135157342Y-112578288D01*
X135163686Y-112572475D01*
X135195653Y-112545653D01*
X135222475Y-112513686D01*
X135228293Y-112507338D01*
X135265977Y-112469655D01*
X135288600Y-112435795D01*
X135295071Y-112427171D01*
X135295817Y-112426281D01*
X135313806Y-112404844D01*
X135340952Y-112357823D01*
X135344365Y-112352337D01*
X135380935Y-112297607D01*
X135380935Y-112297606D01*
X135380941Y-112297598D01*
X135391705Y-112271609D01*
X135397430Y-112260001D01*
X135405713Y-112245656D01*
X135428570Y-112182853D01*
X135430122Y-112178861D01*
X135460130Y-112106420D01*
X135463156Y-112091202D01*
X135467231Y-112076635D01*
X135468581Y-112072928D01*
X135482363Y-111994757D01*
X135482754Y-111992675D01*
X135482757Y-111992660D01*
X135500500Y-111903465D01*
X135500500Y-110496535D01*
X135482752Y-110407315D01*
X135482356Y-110405198D01*
X135468581Y-110327072D01*
X135467227Y-110323353D01*
X135463157Y-110308802D01*
X135460130Y-110293582D01*
X135460130Y-110293580D01*
X135430125Y-110221144D01*
X135428569Y-110217143D01*
X135405713Y-110154344D01*
X135405710Y-110154339D01*
X135405708Y-110154334D01*
X135397430Y-110139997D01*
X135391703Y-110128385D01*
X135380941Y-110102402D01*
X135344364Y-110047660D01*
X135340944Y-110042161D01*
X135313806Y-109995156D01*
X135313805Y-109995155D01*
X135295065Y-109972821D01*
X135288603Y-109964208D01*
X135265977Y-109930345D01*
X135228292Y-109892660D01*
X135222469Y-109886305D01*
X135195653Y-109854347D01*
X135163706Y-109827540D01*
X135157338Y-109821706D01*
X135119656Y-109784024D01*
X135085803Y-109761404D01*
X135085799Y-109761401D01*
X135077171Y-109754928D01*
X135054846Y-109736196D01*
X135054845Y-109736195D01*
X135054844Y-109736194D01*
X135007847Y-109709060D01*
X135002348Y-109705640D01*
X134947599Y-109669059D01*
X134947596Y-109669057D01*
X134921612Y-109658294D01*
X134910001Y-109652569D01*
X134895656Y-109644287D01*
X134895654Y-109644286D01*
X134832859Y-109621430D01*
X134828834Y-109619865D01*
X134756423Y-109589871D01*
X134756421Y-109589870D01*
X134756420Y-109589870D01*
X134756417Y-109589869D01*
X134756412Y-109589868D01*
X134741191Y-109586840D01*
X134726655Y-109582775D01*
X134722936Y-109581422D01*
X134722938Y-109581422D01*
X134722928Y-109581419D01*
X134722925Y-109581418D01*
X134722924Y-109581418D01*
X134644781Y-109567639D01*
X134642660Y-109567241D01*
X134553469Y-109549500D01*
X134553465Y-109549500D01*
X134346535Y-109549500D01*
X134346530Y-109549500D01*
X134257354Y-109567238D01*
X134255234Y-109567636D01*
X134212813Y-109575116D01*
X134177072Y-109581419D01*
X134177069Y-109581420D01*
X134177068Y-109581420D01*
X134173343Y-109582776D01*
X134158808Y-109586840D01*
X134143586Y-109589868D01*
X134143582Y-109589869D01*
X134143580Y-109589870D01*
X134074995Y-109618278D01*
X134071144Y-109619874D01*
X134067120Y-109621438D01*
X134004341Y-109644288D01*
X133989992Y-109652572D01*
X133978385Y-109658296D01*
X133952400Y-109669060D01*
X133897663Y-109705633D01*
X133892166Y-109709051D01*
X133858682Y-109728384D01*
X133845156Y-109736194D01*
X133845155Y-109736195D01*
X133822823Y-109754932D01*
X133814195Y-109761404D01*
X133780344Y-109784023D01*
X133742663Y-109821703D01*
X133736299Y-109827535D01*
X133704350Y-109854344D01*
X133704344Y-109854350D01*
X133677535Y-109886299D01*
X133671703Y-109892663D01*
X133634023Y-109930344D01*
X133611404Y-109964195D01*
X133604932Y-109972823D01*
X133586195Y-109995155D01*
X133559051Y-110042166D01*
X133555633Y-110047663D01*
X133519060Y-110102400D01*
X133508296Y-110128385D01*
X133502572Y-110139992D01*
X133494288Y-110154341D01*
X133471438Y-110217120D01*
X133469874Y-110221144D01*
X133439868Y-110293586D01*
X133436840Y-110308808D01*
X133432776Y-110323343D01*
X133431420Y-110327071D01*
X133417636Y-110405234D01*
X133417238Y-110407354D01*
X133399500Y-110496530D01*
X133399500Y-111903469D01*
X133417241Y-111992660D01*
X133417639Y-111994781D01*
X133431418Y-112072924D01*
X133431422Y-112072936D01*
X133432775Y-112076655D01*
X133436840Y-112091191D01*
X133439868Y-112106412D01*
X133439871Y-112106423D01*
X133469865Y-112178834D01*
X133471430Y-112182859D01*
X133494286Y-112245654D01*
X133494287Y-112245656D01*
X133502569Y-112260001D01*
X133508294Y-112271612D01*
X133519057Y-112297596D01*
X133519059Y-112297599D01*
X133555640Y-112352348D01*
X133559060Y-112357847D01*
X133586193Y-112404842D01*
X133586196Y-112404846D01*
X133604928Y-112427171D01*
X133611401Y-112435799D01*
X133634022Y-112469654D01*
X133634024Y-112469656D01*
X133671706Y-112507338D01*
X133677540Y-112513706D01*
X133687555Y-112525642D01*
X133704347Y-112545653D01*
X133736297Y-112572462D01*
X133742660Y-112578292D01*
X133780345Y-112615977D01*
X133814208Y-112638603D01*
X133822821Y-112645065D01*
X133823156Y-112645346D01*
X133845156Y-112663806D01*
X133892161Y-112690944D01*
X133897660Y-112694364D01*
X133952402Y-112730941D01*
X133978388Y-112741704D01*
X133989997Y-112747430D01*
X134004334Y-112755708D01*
X134004339Y-112755710D01*
X134004344Y-112755713D01*
X134067143Y-112778569D01*
X134071146Y-112780125D01*
X134142147Y-112809536D01*
X134188673Y-112849273D01*
X134202956Y-112908768D01*
X134179541Y-112965296D01*
X134127371Y-112997265D01*
X134104261Y-113000000D01*
X129178508Y-113000000D01*
X129120317Y-112981093D01*
X129084353Y-112931593D01*
X129084353Y-112870407D01*
X129120317Y-112820907D01*
X129144642Y-112807973D01*
X129183090Y-112793975D01*
X129221429Y-112780019D01*
X129380616Y-112688100D01*
X129521423Y-112569934D01*
X129639572Y-112429113D01*
X129731473Y-112269914D01*
X129794332Y-112097176D01*
X129826242Y-111916147D01*
X129826236Y-111824237D01*
X129826236Y-110690164D01*
X129826238Y-110690119D01*
X129826237Y-110683550D01*
X129826239Y-110683546D01*
X129826236Y-110624237D01*
X129826236Y-110564955D01*
X129826236Y-110557581D01*
X129826231Y-110557533D01*
X129826231Y-110532334D01*
X129826230Y-110532332D01*
X129825877Y-110528293D01*
X129825500Y-110519659D01*
X129825500Y-110515352D01*
X129799019Y-110348157D01*
X129790957Y-110323343D01*
X129746705Y-110187151D01*
X129669850Y-110036315D01*
X129570346Y-109899359D01*
X129450641Y-109779654D01*
X129313685Y-109680150D01*
X129313684Y-109680149D01*
X129313682Y-109680148D01*
X129211910Y-109628293D01*
X129162849Y-109603295D01*
X129162846Y-109603294D01*
X129162844Y-109603293D01*
X129001842Y-109550980D01*
X128834647Y-109524500D01*
X128834644Y-109524500D01*
X128665356Y-109524500D01*
X128665353Y-109524500D01*
X128498157Y-109550980D01*
X128337155Y-109603293D01*
X128186317Y-109680148D01*
X128117837Y-109729902D01*
X128049359Y-109779654D01*
X127929654Y-109899359D01*
X127896128Y-109945504D01*
X127830148Y-110036317D01*
X127753293Y-110187155D01*
X127700980Y-110348157D01*
X127674500Y-110515352D01*
X127674500Y-111884647D01*
X127700980Y-112051842D01*
X127743551Y-112182859D01*
X127753295Y-112212849D01*
X127794594Y-112293903D01*
X127827172Y-112357842D01*
X127830150Y-112363685D01*
X127929654Y-112500641D01*
X128049359Y-112620346D01*
X128186315Y-112719850D01*
X128337151Y-112796705D01*
X128368359Y-112806845D01*
X128417859Y-112842809D01*
X128436766Y-112901000D01*
X128417859Y-112959191D01*
X128368359Y-112995155D01*
X128337766Y-113000000D01*
X121795739Y-113000000D01*
X121737548Y-112981093D01*
X121701584Y-112931593D01*
X121701584Y-112870407D01*
X121737548Y-112820907D01*
X121757849Y-112809537D01*
X121828861Y-112780122D01*
X121832853Y-112778570D01*
X121895656Y-112755713D01*
X121910010Y-112747424D01*
X121921609Y-112741705D01*
X121947598Y-112730941D01*
X122002339Y-112694363D01*
X122007823Y-112690952D01*
X122054844Y-112663806D01*
X122077175Y-112645068D01*
X122085795Y-112638600D01*
X122119655Y-112615977D01*
X122157342Y-112578288D01*
X122163686Y-112572475D01*
X122195653Y-112545653D01*
X122222475Y-112513686D01*
X122228293Y-112507338D01*
X122265977Y-112469655D01*
X122288600Y-112435795D01*
X122295071Y-112427171D01*
X122295817Y-112426281D01*
X122313806Y-112404844D01*
X122340952Y-112357823D01*
X122344365Y-112352337D01*
X122380935Y-112297607D01*
X122380935Y-112297606D01*
X122380941Y-112297598D01*
X122391705Y-112271609D01*
X122397430Y-112260001D01*
X122405713Y-112245656D01*
X122428570Y-112182853D01*
X122430122Y-112178861D01*
X122460130Y-112106420D01*
X122463156Y-112091202D01*
X122467231Y-112076635D01*
X122468581Y-112072928D01*
X122482363Y-111994757D01*
X122482754Y-111992675D01*
X122482757Y-111992660D01*
X122500500Y-111903465D01*
X122500500Y-110496535D01*
X122482752Y-110407315D01*
X122482356Y-110405198D01*
X122468581Y-110327072D01*
X122467227Y-110323353D01*
X122463157Y-110308802D01*
X122460130Y-110293582D01*
X122460130Y-110293580D01*
X122430125Y-110221144D01*
X122428569Y-110217143D01*
X122405713Y-110154344D01*
X122405710Y-110154339D01*
X122405708Y-110154334D01*
X122397430Y-110139997D01*
X122391703Y-110128385D01*
X122380941Y-110102402D01*
X122344364Y-110047660D01*
X122340944Y-110042161D01*
X122313806Y-109995156D01*
X122313805Y-109995155D01*
X122295065Y-109972821D01*
X122288603Y-109964208D01*
X122265977Y-109930345D01*
X122228292Y-109892660D01*
X122222469Y-109886305D01*
X122195653Y-109854347D01*
X122163706Y-109827540D01*
X122157338Y-109821706D01*
X122119656Y-109784024D01*
X122085803Y-109761404D01*
X122085799Y-109761401D01*
X122077171Y-109754928D01*
X122054846Y-109736196D01*
X122054845Y-109736195D01*
X122054844Y-109736194D01*
X122007847Y-109709060D01*
X122002348Y-109705640D01*
X121947599Y-109669059D01*
X121947596Y-109669057D01*
X121921612Y-109658294D01*
X121910001Y-109652569D01*
X121895656Y-109644287D01*
X121895654Y-109644286D01*
X121832859Y-109621430D01*
X121828834Y-109619865D01*
X121756423Y-109589871D01*
X121756421Y-109589870D01*
X121756420Y-109589870D01*
X121756417Y-109589869D01*
X121756412Y-109589868D01*
X121741191Y-109586840D01*
X121726655Y-109582775D01*
X121722936Y-109581422D01*
X121722938Y-109581422D01*
X121722928Y-109581419D01*
X121722925Y-109581418D01*
X121722924Y-109581418D01*
X121644781Y-109567639D01*
X121642660Y-109567241D01*
X121553469Y-109549500D01*
X121553465Y-109549500D01*
X121346535Y-109549500D01*
X121346530Y-109549500D01*
X121257354Y-109567238D01*
X121255234Y-109567636D01*
X121212813Y-109575116D01*
X121177072Y-109581419D01*
X121177069Y-109581420D01*
X121177068Y-109581420D01*
X121173343Y-109582776D01*
X121158808Y-109586840D01*
X121143586Y-109589868D01*
X121143582Y-109589869D01*
X121143580Y-109589870D01*
X121074995Y-109618278D01*
X121071144Y-109619874D01*
X121067120Y-109621438D01*
X121004341Y-109644288D01*
X120989992Y-109652572D01*
X120978385Y-109658296D01*
X120952400Y-109669060D01*
X120897663Y-109705633D01*
X120892166Y-109709051D01*
X120858682Y-109728384D01*
X120845156Y-109736194D01*
X120845155Y-109736195D01*
X120822823Y-109754932D01*
X120814195Y-109761404D01*
X120780344Y-109784023D01*
X120742663Y-109821703D01*
X120736299Y-109827535D01*
X120704350Y-109854344D01*
X120704344Y-109854350D01*
X120677535Y-109886299D01*
X120671703Y-109892663D01*
X120634023Y-109930344D01*
X120611404Y-109964195D01*
X120604932Y-109972823D01*
X120586195Y-109995155D01*
X120559051Y-110042166D01*
X120555633Y-110047663D01*
X120519060Y-110102400D01*
X120508296Y-110128385D01*
X120502572Y-110139992D01*
X120494288Y-110154341D01*
X120471438Y-110217120D01*
X120469874Y-110221144D01*
X120439868Y-110293586D01*
X120436840Y-110308808D01*
X120432776Y-110323343D01*
X120431420Y-110327071D01*
X120417636Y-110405234D01*
X120417238Y-110407354D01*
X120399500Y-110496530D01*
X120399500Y-111903469D01*
X120417241Y-111992660D01*
X120417639Y-111994781D01*
X120431418Y-112072924D01*
X120431422Y-112072936D01*
X120432775Y-112076655D01*
X120436840Y-112091191D01*
X120439868Y-112106412D01*
X120439871Y-112106423D01*
X120469865Y-112178834D01*
X120471430Y-112182859D01*
X120494286Y-112245654D01*
X120494287Y-112245656D01*
X120502569Y-112260001D01*
X120508294Y-112271612D01*
X120519057Y-112297596D01*
X120519059Y-112297599D01*
X120555640Y-112352348D01*
X120559060Y-112357847D01*
X120586193Y-112404842D01*
X120586196Y-112404846D01*
X120604928Y-112427171D01*
X120611401Y-112435799D01*
X120634022Y-112469654D01*
X120634024Y-112469656D01*
X120671706Y-112507338D01*
X120677540Y-112513706D01*
X120687555Y-112525642D01*
X120704347Y-112545653D01*
X120736297Y-112572462D01*
X120742660Y-112578292D01*
X120780345Y-112615977D01*
X120814208Y-112638603D01*
X120822821Y-112645065D01*
X120823156Y-112645346D01*
X120845156Y-112663806D01*
X120892161Y-112690944D01*
X120897660Y-112694364D01*
X120952402Y-112730941D01*
X120978388Y-112741704D01*
X120989997Y-112747430D01*
X121004334Y-112755708D01*
X121004339Y-112755710D01*
X121004344Y-112755713D01*
X121067143Y-112778569D01*
X121071146Y-112780125D01*
X121142147Y-112809536D01*
X121188673Y-112849273D01*
X121202956Y-112908768D01*
X121179541Y-112965296D01*
X121127371Y-112997265D01*
X121104261Y-113000000D01*
X119599000Y-113000000D01*
X119540809Y-112981093D01*
X119504845Y-112931593D01*
X119500000Y-112901000D01*
X119500000Y-106843590D01*
X119518907Y-106785399D01*
X119568407Y-106749435D01*
X119629593Y-106749435D01*
X119679093Y-106785399D01*
X119694626Y-106817966D01*
X119696682Y-106825639D01*
X119696683Y-106825642D01*
X119739531Y-106899857D01*
X119739533Y-106899859D01*
X119739535Y-106899862D01*
X123339533Y-110499859D01*
X123339535Y-110499862D01*
X123400138Y-110560465D01*
X123407915Y-110564955D01*
X123433363Y-110579648D01*
X123433368Y-110579650D01*
X123474357Y-110603316D01*
X123474358Y-110603316D01*
X123474361Y-110603318D01*
X123557147Y-110625500D01*
X123557149Y-110625500D01*
X126742851Y-110625500D01*
X126742853Y-110625500D01*
X126825639Y-110603318D01*
X126825641Y-110603316D01*
X126825643Y-110603316D01*
X126899857Y-110560468D01*
X126899857Y-110560467D01*
X126899862Y-110560465D01*
X129355830Y-108104495D01*
X129410347Y-108076719D01*
X129425834Y-108075500D01*
X134444030Y-108075500D01*
X134502221Y-108094407D01*
X134522572Y-108114233D01*
X134560810Y-108164067D01*
X134571718Y-108178282D01*
X134697159Y-108274536D01*
X134697160Y-108274536D01*
X134697161Y-108274537D01*
X134843233Y-108335042D01*
X134843238Y-108335044D01*
X134960809Y-108350522D01*
X134999999Y-108355682D01*
X135000000Y-108355682D01*
X135000001Y-108355682D01*
X135031352Y-108351554D01*
X135156762Y-108335044D01*
X135302841Y-108274536D01*
X135428282Y-108178282D01*
X135524536Y-108052841D01*
X135585044Y-107906762D01*
X135605682Y-107750000D01*
X135585044Y-107593238D01*
X135524537Y-107447161D01*
X135524537Y-107447160D01*
X135454275Y-107355593D01*
X135428282Y-107321718D01*
X135364232Y-107272570D01*
X135329577Y-107222145D01*
X135325500Y-107194028D01*
X135325500Y-105599999D01*
X135850000Y-105599999D01*
X135850001Y-105600000D01*
X136249999Y-105600000D01*
X136250000Y-105599999D01*
X136250000Y-104799998D01*
X136750000Y-104799998D01*
X136750000Y-105599999D01*
X136750001Y-105600000D01*
X137149999Y-105600000D01*
X137150000Y-105599999D01*
X137150000Y-105335982D01*
X137149999Y-105335978D01*
X137125021Y-105210404D01*
X137125019Y-105210398D01*
X137076022Y-105092110D01*
X137004890Y-104985652D01*
X136914347Y-104895109D01*
X136807895Y-104823981D01*
X136807890Y-104823978D01*
X136750000Y-104799998D01*
X136250000Y-104799998D01*
X136249999Y-104799998D01*
X136192109Y-104823978D01*
X136192104Y-104823981D01*
X136085652Y-104895109D01*
X135995109Y-104985652D01*
X135923977Y-105092110D01*
X135874980Y-105210398D01*
X135874978Y-105210404D01*
X135850000Y-105335978D01*
X135850000Y-105599999D01*
X135325500Y-105599999D01*
X135325500Y-103874500D01*
X135344407Y-103816309D01*
X135393907Y-103780345D01*
X135424500Y-103775500D01*
X135694747Y-103775500D01*
X135694748Y-103775500D01*
X135753231Y-103763867D01*
X135819552Y-103719552D01*
X135863867Y-103653231D01*
X135875500Y-103594748D01*
X135875500Y-102900000D01*
X136119678Y-102900000D01*
X136138916Y-103083034D01*
X136195784Y-103258054D01*
X136195790Y-103258068D01*
X136268893Y-103384684D01*
X136287805Y-103417440D01*
X136410950Y-103554207D01*
X136559839Y-103662381D01*
X136559843Y-103662383D01*
X136559845Y-103662384D01*
X136615485Y-103687156D01*
X136727966Y-103737236D01*
X136907981Y-103775500D01*
X136907983Y-103775500D01*
X137092017Y-103775500D01*
X137092019Y-103775500D01*
X137272034Y-103737236D01*
X137440161Y-103662381D01*
X137589050Y-103554207D01*
X137712195Y-103417440D01*
X137804214Y-103258059D01*
X137861085Y-103083029D01*
X137880322Y-102900000D01*
X137861085Y-102716971D01*
X137804214Y-102541941D01*
X137804211Y-102541936D01*
X137804209Y-102541931D01*
X137738561Y-102428227D01*
X137712195Y-102382560D01*
X137589050Y-102245793D01*
X137440161Y-102137619D01*
X137440157Y-102137617D01*
X137440154Y-102137615D01*
X137272036Y-102062765D01*
X137272034Y-102062764D01*
X137272031Y-102062763D01*
X137272030Y-102062763D01*
X137225135Y-102052795D01*
X137092019Y-102024500D01*
X136907981Y-102024500D01*
X136810797Y-102045157D01*
X136727969Y-102062763D01*
X136727963Y-102062765D01*
X136559845Y-102137615D01*
X136559842Y-102137617D01*
X136410948Y-102245794D01*
X136287803Y-102382562D01*
X136287803Y-102382563D01*
X136195790Y-102541931D01*
X136195784Y-102541945D01*
X136138916Y-102716965D01*
X136119678Y-102900000D01*
X135875500Y-102900000D01*
X135875500Y-102205252D01*
X135863867Y-102146769D01*
X135819552Y-102080448D01*
X135819548Y-102080445D01*
X135753233Y-102036134D01*
X135753231Y-102036133D01*
X135753228Y-102036132D01*
X135753227Y-102036132D01*
X135694758Y-102024501D01*
X135694748Y-102024500D01*
X134305252Y-102024500D01*
X134305251Y-102024500D01*
X134305241Y-102024501D01*
X134246772Y-102036132D01*
X134246766Y-102036134D01*
X134180451Y-102080445D01*
X134180445Y-102080451D01*
X134136134Y-102146766D01*
X134136132Y-102146772D01*
X134124501Y-102205241D01*
X134124500Y-102205253D01*
X134124500Y-103594746D01*
X134124501Y-103594758D01*
X134136132Y-103653227D01*
X134136134Y-103653233D01*
X134142249Y-103662384D01*
X134180448Y-103719552D01*
X134246769Y-103763867D01*
X134291231Y-103772711D01*
X134305241Y-103775498D01*
X134305246Y-103775498D01*
X134305252Y-103775500D01*
X134575500Y-103775500D01*
X134633691Y-103794407D01*
X134669655Y-103843907D01*
X134674500Y-103874500D01*
X134674500Y-107194028D01*
X134655593Y-107252219D01*
X134635768Y-107272570D01*
X134571718Y-107321717D01*
X134522572Y-107385767D01*
X134472148Y-107420423D01*
X134444030Y-107424500D01*
X129298932Y-107424500D01*
X129298916Y-107424499D01*
X129292853Y-107424499D01*
X129207148Y-107424499D01*
X129207145Y-107424499D01*
X129124365Y-107446680D01*
X129050135Y-107489537D01*
X128989534Y-107550137D01*
X128989535Y-107550138D01*
X126594169Y-109945504D01*
X126539652Y-109973281D01*
X126524165Y-109974500D01*
X123775834Y-109974500D01*
X123717643Y-109955593D01*
X123705830Y-109945504D01*
X120354496Y-106594169D01*
X120326719Y-106539652D01*
X120325500Y-106524165D01*
X120325500Y-102369746D01*
X120549500Y-102369746D01*
X120549501Y-102369758D01*
X120561132Y-102428227D01*
X120561134Y-102428233D01*
X120605445Y-102494548D01*
X120605448Y-102494552D01*
X120671769Y-102538867D01*
X120716231Y-102547711D01*
X120730241Y-102550498D01*
X120730246Y-102550498D01*
X120730252Y-102550500D01*
X121175500Y-102550500D01*
X121233691Y-102569407D01*
X121269655Y-102618907D01*
X121274500Y-102649500D01*
X121274500Y-106507147D01*
X121274500Y-106592853D01*
X121280481Y-106615173D01*
X121296683Y-106675643D01*
X121339531Y-106749857D01*
X121339533Y-106749859D01*
X121339535Y-106749862D01*
X122489533Y-107899859D01*
X122489535Y-107899862D01*
X122550138Y-107960465D01*
X122584317Y-107980198D01*
X122611790Y-107996060D01*
X122611793Y-107996061D01*
X122611796Y-107996063D01*
X122624362Y-108003318D01*
X122707144Y-108025500D01*
X122707146Y-108025501D01*
X122707147Y-108025501D01*
X122798916Y-108025501D01*
X122798932Y-108025500D01*
X123550500Y-108025500D01*
X123608691Y-108044407D01*
X123644655Y-108093907D01*
X123649500Y-108124500D01*
X123649500Y-108164069D01*
X123674499Y-108289742D01*
X123674500Y-108289747D01*
X123723534Y-108408125D01*
X123723538Y-108408133D01*
X123762595Y-108466585D01*
X123794724Y-108514669D01*
X123794727Y-108514672D01*
X123794731Y-108514677D01*
X123885331Y-108605276D01*
X123934380Y-108638049D01*
X123972260Y-108686099D01*
X123975006Y-108694742D01*
X123996683Y-108775643D01*
X124039531Y-108849857D01*
X124039533Y-108849859D01*
X124039535Y-108849862D01*
X124550138Y-109360465D01*
X124550140Y-109360466D01*
X124550142Y-109360468D01*
X124624357Y-109403316D01*
X124624355Y-109403316D01*
X124624359Y-109403317D01*
X124624361Y-109403318D01*
X124707147Y-109425500D01*
X124707149Y-109425500D01*
X126542851Y-109425500D01*
X126542853Y-109425500D01*
X126625639Y-109403318D01*
X126625641Y-109403316D01*
X126625643Y-109403316D01*
X126699857Y-109360468D01*
X126699857Y-109360467D01*
X126699862Y-109360465D01*
X129110465Y-106949862D01*
X129152841Y-106876465D01*
X129153316Y-106875643D01*
X129153316Y-106875641D01*
X129153318Y-106875639D01*
X129175500Y-106792853D01*
X129175500Y-106707147D01*
X129175500Y-103874500D01*
X129194407Y-103816309D01*
X129243907Y-103780345D01*
X129274500Y-103775500D01*
X129544747Y-103775500D01*
X129544748Y-103775500D01*
X129603231Y-103763867D01*
X129669552Y-103719552D01*
X129713867Y-103653231D01*
X129725500Y-103594748D01*
X129725500Y-102900000D01*
X129969678Y-102900000D01*
X129988916Y-103083034D01*
X130045784Y-103258054D01*
X130045790Y-103258068D01*
X130118893Y-103384684D01*
X130137805Y-103417440D01*
X130260950Y-103554207D01*
X130409839Y-103662381D01*
X130409843Y-103662383D01*
X130409845Y-103662384D01*
X130465485Y-103687156D01*
X130577966Y-103737236D01*
X130757981Y-103775500D01*
X130757983Y-103775500D01*
X130942017Y-103775500D01*
X130942019Y-103775500D01*
X131122034Y-103737236D01*
X131290161Y-103662381D01*
X131439050Y-103554207D01*
X131562195Y-103417440D01*
X131654214Y-103258059D01*
X131711085Y-103083029D01*
X131730322Y-102900000D01*
X131711085Y-102716971D01*
X131654214Y-102541941D01*
X131654211Y-102541936D01*
X131654209Y-102541931D01*
X131588561Y-102428227D01*
X131562195Y-102382560D01*
X131439050Y-102245793D01*
X131290161Y-102137619D01*
X131290157Y-102137617D01*
X131290154Y-102137615D01*
X131122036Y-102062765D01*
X131122034Y-102062764D01*
X131122031Y-102062763D01*
X131122030Y-102062763D01*
X131075135Y-102052795D01*
X130942019Y-102024500D01*
X130757981Y-102024500D01*
X130660797Y-102045157D01*
X130577969Y-102062763D01*
X130577963Y-102062765D01*
X130409845Y-102137615D01*
X130409842Y-102137617D01*
X130260948Y-102245794D01*
X130137803Y-102382562D01*
X130137803Y-102382563D01*
X130045790Y-102541931D01*
X130045784Y-102541945D01*
X129988916Y-102716965D01*
X129969678Y-102900000D01*
X129725500Y-102900000D01*
X129725500Y-102205252D01*
X129713867Y-102146769D01*
X129669552Y-102080448D01*
X129669548Y-102080445D01*
X129603233Y-102036134D01*
X129603231Y-102036133D01*
X129603228Y-102036132D01*
X129603227Y-102036132D01*
X129544758Y-102024501D01*
X129544748Y-102024500D01*
X128155252Y-102024500D01*
X128155251Y-102024500D01*
X128155241Y-102024501D01*
X128096772Y-102036132D01*
X128096766Y-102036134D01*
X128030451Y-102080445D01*
X128030445Y-102080451D01*
X127986134Y-102146766D01*
X127986132Y-102146772D01*
X127974501Y-102205241D01*
X127974500Y-102205253D01*
X127974500Y-103594746D01*
X127974501Y-103594758D01*
X127986132Y-103653227D01*
X127986134Y-103653233D01*
X127992249Y-103662384D01*
X128030448Y-103719552D01*
X128096769Y-103763867D01*
X128141231Y-103772711D01*
X128155241Y-103775498D01*
X128155246Y-103775498D01*
X128155252Y-103775500D01*
X128425500Y-103775500D01*
X128483691Y-103794407D01*
X128519655Y-103843907D01*
X128524500Y-103874500D01*
X128524500Y-106574165D01*
X128505593Y-106632356D01*
X128495504Y-106644169D01*
X126648028Y-108491644D01*
X126593511Y-108519421D01*
X126533079Y-108509850D01*
X126489814Y-108466585D01*
X126480243Y-108406153D01*
X126486558Y-108383758D01*
X126525501Y-108289744D01*
X126550500Y-108164069D01*
X126550500Y-107135931D01*
X126537149Y-107068813D01*
X126544340Y-107008054D01*
X126585873Y-106963123D01*
X126634247Y-106950500D01*
X126764068Y-106950500D01*
X126764069Y-106950500D01*
X126889744Y-106925501D01*
X127008127Y-106876465D01*
X127114669Y-106805276D01*
X127205276Y-106714669D01*
X127276465Y-106608127D01*
X127325501Y-106489744D01*
X127350500Y-106364069D01*
X127350500Y-105335931D01*
X127325501Y-105210256D01*
X127276465Y-105091873D01*
X127276463Y-105091870D01*
X127276461Y-105091866D01*
X127247717Y-105048848D01*
X127205276Y-104985331D01*
X127114669Y-104894724D01*
X127069497Y-104864541D01*
X127008133Y-104823538D01*
X127008125Y-104823534D01*
X126889747Y-104774500D01*
X126889745Y-104774499D01*
X126889744Y-104774499D01*
X126764069Y-104749500D01*
X126635931Y-104749500D01*
X126635930Y-104749500D01*
X126614158Y-104753831D01*
X126510256Y-104774499D01*
X126510255Y-104774499D01*
X126510252Y-104774500D01*
X126391874Y-104823534D01*
X126391866Y-104823538D01*
X126285331Y-104894724D01*
X126285327Y-104894727D01*
X126194727Y-104985327D01*
X126194724Y-104985331D01*
X126123538Y-105091866D01*
X126123534Y-105091874D01*
X126074500Y-105210252D01*
X126074500Y-105210253D01*
X126074499Y-105210256D01*
X126049500Y-105335931D01*
X126049500Y-106364069D01*
X126059665Y-106415173D01*
X126062851Y-106431185D01*
X126055660Y-106491946D01*
X126014127Y-106536877D01*
X125965753Y-106549500D01*
X125834247Y-106549500D01*
X125776056Y-106530593D01*
X125740092Y-106481093D01*
X125737149Y-106431185D01*
X125737371Y-106430070D01*
X125750500Y-106364069D01*
X125750500Y-105335931D01*
X125725501Y-105210256D01*
X125676465Y-105091873D01*
X125676463Y-105091870D01*
X125676461Y-105091866D01*
X125647717Y-105048848D01*
X125605276Y-104985331D01*
X125514669Y-104894724D01*
X125469496Y-104864540D01*
X125431618Y-104816490D01*
X125425500Y-104782226D01*
X125425500Y-103925835D01*
X125444407Y-103867644D01*
X125454496Y-103855831D01*
X128754996Y-100555331D01*
X128809513Y-100527554D01*
X128869945Y-100537125D01*
X128895004Y-100555331D01*
X129139535Y-100799862D01*
X129139534Y-100799862D01*
X129178149Y-100838476D01*
X129200138Y-100860465D01*
X129274362Y-100903318D01*
X129357147Y-100925500D01*
X129357149Y-100925500D01*
X133842851Y-100925500D01*
X133842853Y-100925500D01*
X133925639Y-100903318D01*
X133925641Y-100903316D01*
X133925643Y-100903316D01*
X133999857Y-100860468D01*
X133999857Y-100860467D01*
X133999862Y-100860465D01*
X134573651Y-100286675D01*
X134628164Y-100258901D01*
X134688596Y-100268472D01*
X134731861Y-100311737D01*
X134741432Y-100372169D01*
X134735116Y-100394566D01*
X134714956Y-100443236D01*
X134714955Y-100443241D01*
X134694318Y-100599999D01*
X134694318Y-100600000D01*
X134714955Y-100756758D01*
X134714957Y-100756766D01*
X134775462Y-100902838D01*
X134775462Y-100902839D01*
X134871713Y-101028276D01*
X134871718Y-101028282D01*
X134997159Y-101124536D01*
X135143238Y-101185044D01*
X135260809Y-101200522D01*
X135299999Y-101205682D01*
X135300000Y-101205682D01*
X135300001Y-101205682D01*
X135331352Y-101201554D01*
X135456762Y-101185044D01*
X135602841Y-101124536D01*
X135728282Y-101028282D01*
X135824536Y-100902841D01*
X135885044Y-100756762D01*
X135901847Y-100629130D01*
X135928188Y-100573905D01*
X135981959Y-100544710D01*
X136042621Y-100552696D01*
X136087003Y-100594813D01*
X136098153Y-100629130D01*
X136114955Y-100756758D01*
X136114957Y-100756766D01*
X136175462Y-100902838D01*
X136175462Y-100902839D01*
X136271713Y-101028276D01*
X136271718Y-101028282D01*
X136397159Y-101124536D01*
X136543238Y-101185044D01*
X136660809Y-101200522D01*
X136699999Y-101205682D01*
X136700000Y-101205682D01*
X136700001Y-101205682D01*
X136731352Y-101201554D01*
X136856762Y-101185044D01*
X137002841Y-101124536D01*
X137128282Y-101028282D01*
X137224536Y-100902841D01*
X137285044Y-100756762D01*
X137305682Y-100600000D01*
X137285044Y-100443238D01*
X137231908Y-100314956D01*
X137224537Y-100297161D01*
X137224537Y-100297160D01*
X137128286Y-100171723D01*
X137128285Y-100171722D01*
X137128282Y-100171718D01*
X137128277Y-100171714D01*
X137128276Y-100171713D01*
X137014012Y-100084036D01*
X137002841Y-100075464D01*
X137002840Y-100075463D01*
X137002838Y-100075462D01*
X136856766Y-100014957D01*
X136856759Y-100014955D01*
X136832569Y-100011771D01*
X136777345Y-99985430D01*
X136748150Y-99931659D01*
X136756136Y-99870997D01*
X136765108Y-99858309D01*
X136764135Y-99857659D01*
X136785623Y-99825500D01*
X136813867Y-99783231D01*
X136825500Y-99724748D01*
X136825500Y-99235252D01*
X136823225Y-99223814D01*
X136830417Y-99163053D01*
X136871949Y-99118123D01*
X136920323Y-99105500D01*
X137279677Y-99105500D01*
X137337868Y-99124407D01*
X137373832Y-99173907D01*
X137376775Y-99223814D01*
X137374500Y-99235249D01*
X137374500Y-99724746D01*
X137374501Y-99724758D01*
X137386132Y-99783227D01*
X137386134Y-99783233D01*
X137430445Y-99849548D01*
X137430448Y-99849552D01*
X137496769Y-99893867D01*
X137544816Y-99903424D01*
X137598198Y-99933320D01*
X137623814Y-99988885D01*
X137624500Y-100000521D01*
X137624500Y-100657147D01*
X137624500Y-100742853D01*
X137628226Y-100756758D01*
X137646683Y-100825643D01*
X137689531Y-100899857D01*
X137689533Y-100899859D01*
X137689535Y-100899862D01*
X138545505Y-101755832D01*
X138573281Y-101810347D01*
X138574500Y-101825834D01*
X138574500Y-104324165D01*
X138555593Y-104382356D01*
X138545504Y-104394169D01*
X138219169Y-104720504D01*
X138164652Y-104748281D01*
X138149165Y-104749500D01*
X138035930Y-104749500D01*
X138014158Y-104753831D01*
X137910256Y-104774499D01*
X137910255Y-104774499D01*
X137910252Y-104774500D01*
X137791874Y-104823534D01*
X137791866Y-104823538D01*
X137685331Y-104894724D01*
X137685327Y-104894727D01*
X137594727Y-104985327D01*
X137594724Y-104985331D01*
X137523538Y-105091866D01*
X137523534Y-105091874D01*
X137474500Y-105210252D01*
X137474500Y-105210253D01*
X137474499Y-105210256D01*
X137449500Y-105335931D01*
X137449500Y-106364069D01*
X137459665Y-106415173D01*
X137462851Y-106431185D01*
X137455660Y-106491946D01*
X137414127Y-106536877D01*
X137365753Y-106549500D01*
X137233738Y-106549500D01*
X137175547Y-106530593D01*
X137139583Y-106481093D01*
X137136640Y-106431186D01*
X137149999Y-106364022D01*
X137150000Y-106364017D01*
X137150000Y-106100001D01*
X137149999Y-106100000D01*
X136848949Y-106100000D01*
X136826148Y-106014905D01*
X136780070Y-105935095D01*
X136714905Y-105869930D01*
X136635095Y-105823852D01*
X136546078Y-105800000D01*
X136453922Y-105800000D01*
X136364905Y-105823852D01*
X136285095Y-105869930D01*
X136219930Y-105935095D01*
X136173852Y-106014905D01*
X136151051Y-106100000D01*
X135850001Y-106100000D01*
X135850000Y-106100001D01*
X135850000Y-106364021D01*
X135874978Y-106489595D01*
X135874980Y-106489601D01*
X135923977Y-106607889D01*
X135995109Y-106714347D01*
X136085652Y-106804890D01*
X136192112Y-106876023D01*
X136249999Y-106900000D01*
X136250000Y-106900000D01*
X136250000Y-106394975D01*
X136285095Y-106430070D01*
X136364905Y-106476148D01*
X136453922Y-106500000D01*
X136546078Y-106500000D01*
X136635095Y-106476148D01*
X136714905Y-106430070D01*
X136750000Y-106394975D01*
X136750000Y-106822233D01*
X136733317Y-106877233D01*
X136723534Y-106891874D01*
X136674500Y-107010252D01*
X136674499Y-107010257D01*
X136649500Y-107135930D01*
X136649500Y-108164069D01*
X136674499Y-108289742D01*
X136674500Y-108289747D01*
X136723534Y-108408125D01*
X136723538Y-108408133D01*
X136762595Y-108466585D01*
X136794724Y-108514669D01*
X136885331Y-108605276D01*
X136948848Y-108647717D01*
X136991866Y-108676461D01*
X136991870Y-108676463D01*
X136991873Y-108676465D01*
X137110256Y-108725501D01*
X137235931Y-108750500D01*
X137235932Y-108750500D01*
X137364068Y-108750500D01*
X137364069Y-108750500D01*
X137489744Y-108725501D01*
X137608127Y-108676465D01*
X137714669Y-108605276D01*
X137805276Y-108514669D01*
X137876465Y-108408127D01*
X137925501Y-108289744D01*
X137950500Y-108164069D01*
X137950500Y-107135931D01*
X137937149Y-107068813D01*
X137944340Y-107008054D01*
X137985873Y-106963123D01*
X138034247Y-106950500D01*
X138165753Y-106950500D01*
X138223944Y-106969407D01*
X138259908Y-107018907D01*
X138262851Y-107068815D01*
X138249500Y-107135930D01*
X138249500Y-108164069D01*
X138274499Y-108289742D01*
X138274500Y-108289747D01*
X138323534Y-108408125D01*
X138323538Y-108408133D01*
X138362595Y-108466585D01*
X138394724Y-108514669D01*
X138485331Y-108605276D01*
X138548848Y-108647717D01*
X138591866Y-108676461D01*
X138591870Y-108676463D01*
X138591873Y-108676465D01*
X138710256Y-108725501D01*
X138835931Y-108750500D01*
X138835932Y-108750500D01*
X138964068Y-108750500D01*
X138964069Y-108750500D01*
X139089744Y-108725501D01*
X139208127Y-108676465D01*
X139314669Y-108605276D01*
X139405276Y-108514669D01*
X139476465Y-108408127D01*
X139525501Y-108289744D01*
X139550500Y-108164069D01*
X139550500Y-107135931D01*
X139537149Y-107068813D01*
X139544340Y-107008054D01*
X139585873Y-106963123D01*
X139634247Y-106950500D01*
X139764068Y-106950500D01*
X139764069Y-106950500D01*
X139889744Y-106925501D01*
X140008127Y-106876465D01*
X140114669Y-106805276D01*
X140205276Y-106714669D01*
X140276465Y-106608127D01*
X140325501Y-106489744D01*
X140350500Y-106364069D01*
X140350500Y-105335931D01*
X140325501Y-105210256D01*
X140276465Y-105091873D01*
X140276463Y-105091870D01*
X140276461Y-105091866D01*
X140247717Y-105048848D01*
X140205276Y-104985331D01*
X140114669Y-104894724D01*
X140069497Y-104864541D01*
X140008133Y-104823538D01*
X140008125Y-104823534D01*
X139889747Y-104774500D01*
X139889745Y-104774499D01*
X139889744Y-104774499D01*
X139764069Y-104749500D01*
X139635931Y-104749500D01*
X139635930Y-104749500D01*
X139614158Y-104753831D01*
X139510256Y-104774499D01*
X139510255Y-104774499D01*
X139510252Y-104774500D01*
X139391874Y-104823534D01*
X139391866Y-104823538D01*
X139285331Y-104894724D01*
X139285327Y-104894727D01*
X139194727Y-104985327D01*
X139194724Y-104985331D01*
X139123538Y-105091866D01*
X139123534Y-105091874D01*
X139074500Y-105210252D01*
X139074500Y-105210253D01*
X139074499Y-105210256D01*
X139049500Y-105335931D01*
X139049500Y-106364069D01*
X139059665Y-106415173D01*
X139062851Y-106431185D01*
X139055660Y-106491946D01*
X139014127Y-106536877D01*
X138965753Y-106549500D01*
X138834247Y-106549500D01*
X138776056Y-106530593D01*
X138740092Y-106481093D01*
X138737149Y-106431185D01*
X138737371Y-106430070D01*
X138750500Y-106364069D01*
X138750500Y-105335931D01*
X138727401Y-105219811D01*
X138725500Y-105200499D01*
X138725500Y-105175832D01*
X138744407Y-105117641D01*
X138754490Y-105105835D01*
X139099859Y-104760466D01*
X139099862Y-104760465D01*
X139160465Y-104699862D01*
X139181891Y-104662750D01*
X139203318Y-104625639D01*
X139225500Y-104542853D01*
X139225500Y-104457147D01*
X139225500Y-102074500D01*
X139244407Y-102016309D01*
X139293907Y-101980345D01*
X139324500Y-101975500D01*
X139722851Y-101975500D01*
X139722853Y-101975500D01*
X139805639Y-101953318D01*
X139805641Y-101953316D01*
X139805643Y-101953316D01*
X139879857Y-101910468D01*
X139879857Y-101910467D01*
X139879862Y-101910465D01*
X141855831Y-99934496D01*
X141910348Y-99906719D01*
X141925835Y-99905500D01*
X142225500Y-99905500D01*
X142283691Y-99924407D01*
X142319655Y-99973907D01*
X142324500Y-100004500D01*
X142324500Y-100174165D01*
X142305593Y-100232356D01*
X142295502Y-100244170D01*
X142262964Y-100276707D01*
X142208448Y-100304483D01*
X142180040Y-100304855D01*
X142100001Y-100294318D01*
X142099999Y-100294318D01*
X141943241Y-100314955D01*
X141943233Y-100314957D01*
X141797161Y-100375462D01*
X141797160Y-100375462D01*
X141671723Y-100471713D01*
X141671713Y-100471723D01*
X141575462Y-100597160D01*
X141575462Y-100597161D01*
X141514957Y-100743233D01*
X141514955Y-100743241D01*
X141494318Y-100899999D01*
X141494318Y-100900000D01*
X141514955Y-101056758D01*
X141514957Y-101056766D01*
X141575462Y-101202838D01*
X141575462Y-101202839D01*
X141668816Y-101324500D01*
X141671718Y-101328282D01*
X141797159Y-101424536D01*
X141943238Y-101485044D01*
X142060809Y-101500522D01*
X142099999Y-101505682D01*
X142100000Y-101505682D01*
X142100001Y-101505682D01*
X142131352Y-101501554D01*
X142256762Y-101485044D01*
X142402841Y-101424536D01*
X142528282Y-101328282D01*
X142624536Y-101202841D01*
X142685044Y-101056762D01*
X142705682Y-100900000D01*
X142695143Y-100819956D01*
X142706292Y-100759799D01*
X142723289Y-100737036D01*
X142910465Y-100549862D01*
X142946673Y-100487147D01*
X142953318Y-100475638D01*
X142975500Y-100392853D01*
X142975500Y-98987147D01*
X142953318Y-98904362D01*
X142910465Y-98830138D01*
X142880325Y-98799998D01*
X142849863Y-98769535D01*
X142599862Y-98519535D01*
X142599857Y-98519531D01*
X142525642Y-98476683D01*
X142525644Y-98476683D01*
X142442846Y-98454498D01*
X142439220Y-98454021D01*
X142436858Y-98452894D01*
X142436585Y-98452821D01*
X142436598Y-98452770D01*
X142383997Y-98427675D01*
X142369836Y-98410873D01*
X142369554Y-98410451D01*
X142369552Y-98410448D01*
X142311597Y-98371723D01*
X142303233Y-98366134D01*
X142303231Y-98366133D01*
X142303228Y-98366132D01*
X142303227Y-98366132D01*
X142244758Y-98354501D01*
X142244748Y-98354500D01*
X141936713Y-98354500D01*
X141878522Y-98335593D01*
X141842558Y-98286093D01*
X141842558Y-98224907D01*
X141866709Y-98185496D01*
X141890315Y-98161889D01*
X142019021Y-98005061D01*
X142041352Y-97971641D01*
X142136994Y-97792708D01*
X142152370Y-97755586D01*
X142152377Y-97755567D01*
X142211270Y-97561423D01*
X142219110Y-97522007D01*
X142238997Y-97320091D01*
X142238997Y-97279908D01*
X142219110Y-97077992D01*
X142211270Y-97038576D01*
X142152377Y-96844432D01*
X142152370Y-96844413D01*
X142136994Y-96807291D01*
X142041352Y-96628358D01*
X142019021Y-96594938D01*
X141890315Y-96438110D01*
X141861889Y-96409684D01*
X141705061Y-96280978D01*
X141671641Y-96258647D01*
X141492708Y-96163005D01*
X141492709Y-96163005D01*
X141455586Y-96147629D01*
X141455567Y-96147622D01*
X141261423Y-96088729D01*
X141222007Y-96080889D01*
X141020091Y-96061003D01*
X140979909Y-96061003D01*
X140777992Y-96080889D01*
X140738576Y-96088729D01*
X140544432Y-96147622D01*
X140544413Y-96147629D01*
X140507291Y-96163005D01*
X140328358Y-96258647D01*
X140294938Y-96280978D01*
X140138110Y-96409684D01*
X140109684Y-96438110D01*
X139980978Y-96594938D01*
X139958647Y-96628358D01*
X139863005Y-96807291D01*
X139847629Y-96844413D01*
X139847622Y-96844432D01*
X139788729Y-97038576D01*
X139780889Y-97077992D01*
X139761003Y-97279908D01*
X139761003Y-97320091D01*
X139780889Y-97522007D01*
X139788729Y-97561423D01*
X139847622Y-97755567D01*
X139847629Y-97755586D01*
X139863005Y-97792708D01*
X139958647Y-97971641D01*
X139980978Y-98005061D01*
X140109684Y-98161889D01*
X140133791Y-98185996D01*
X140161568Y-98240513D01*
X140151997Y-98300945D01*
X140108732Y-98344210D01*
X140063787Y-98355000D01*
X139755299Y-98355000D01*
X139696963Y-98366603D01*
X139630810Y-98410806D01*
X139630806Y-98410810D01*
X139586603Y-98476963D01*
X139575000Y-98535299D01*
X139575000Y-98554999D01*
X139575001Y-98555000D01*
X140724998Y-98555000D01*
X140729312Y-98550686D01*
X140783829Y-98522908D01*
X140809021Y-98522166D01*
X140979901Y-98538996D01*
X140979905Y-98538996D01*
X140997349Y-98537894D01*
X141016063Y-98538485D01*
X141020095Y-98538996D01*
X141165796Y-98524646D01*
X141225560Y-98537758D01*
X141266202Y-98583495D01*
X141274500Y-98623169D01*
X141274500Y-99024746D01*
X141274501Y-99024758D01*
X141286132Y-99083230D01*
X141289814Y-99092119D01*
X141294611Y-99153116D01*
X141289814Y-99167881D01*
X141286132Y-99176769D01*
X141274501Y-99235241D01*
X141274500Y-99235253D01*
X141274500Y-99554165D01*
X141255593Y-99612356D01*
X141245504Y-99624169D01*
X139574169Y-101295504D01*
X139519652Y-101323281D01*
X139504165Y-101324500D01*
X139417792Y-101324500D01*
X139359601Y-101305593D01*
X139323637Y-101256093D01*
X139323637Y-101194907D01*
X139359601Y-101145407D01*
X139379907Y-101134036D01*
X139394324Y-101128063D01*
X139402841Y-101124536D01*
X139528282Y-101028282D01*
X139624536Y-100902841D01*
X139685044Y-100756762D01*
X139705682Y-100600000D01*
X139687000Y-100458099D01*
X139698150Y-100397942D01*
X139715150Y-100375176D01*
X140155832Y-99934496D01*
X140210348Y-99906719D01*
X140225835Y-99905500D01*
X140544747Y-99905500D01*
X140544748Y-99905500D01*
X140603231Y-99893867D01*
X140669552Y-99849552D01*
X140713867Y-99783231D01*
X140725500Y-99724748D01*
X140725500Y-99235252D01*
X140713867Y-99176769D01*
X140713863Y-99176764D01*
X140710134Y-99167757D01*
X140713855Y-99166215D01*
X140702401Y-99125525D01*
X140709860Y-99091571D01*
X140713396Y-99083033D01*
X140724999Y-99024700D01*
X140725000Y-99024697D01*
X140725000Y-99005001D01*
X140724999Y-99005000D01*
X139575001Y-99005000D01*
X139575000Y-99005001D01*
X139575000Y-99024700D01*
X139586604Y-99083038D01*
X139590140Y-99091574D01*
X139594942Y-99152570D01*
X139588540Y-99167215D01*
X139589863Y-99167764D01*
X139586132Y-99176768D01*
X139574500Y-99235249D01*
X139574500Y-99554165D01*
X139555593Y-99612356D01*
X139545503Y-99624169D01*
X139201109Y-99968562D01*
X139146593Y-99996339D01*
X139118188Y-99996712D01*
X139107614Y-99995320D01*
X139100000Y-99994318D01*
X139099999Y-99994318D01*
X139099998Y-99994318D01*
X138943241Y-100014955D01*
X138943233Y-100014957D01*
X138797161Y-100075462D01*
X138797160Y-100075462D01*
X138671723Y-100171713D01*
X138671713Y-100171723D01*
X138575462Y-100297160D01*
X138575462Y-100297161D01*
X138514957Y-100443233D01*
X138514955Y-100443240D01*
X138499116Y-100563551D01*
X138472775Y-100618775D01*
X138419004Y-100647970D01*
X138358342Y-100639984D01*
X138330959Y-100620632D01*
X138304496Y-100594169D01*
X138276719Y-100539652D01*
X138275500Y-100524165D01*
X138275500Y-100000521D01*
X138294407Y-99942330D01*
X138343907Y-99906366D01*
X138355173Y-99903426D01*
X138403231Y-99893867D01*
X138469552Y-99849552D01*
X138513867Y-99783231D01*
X138525500Y-99724748D01*
X138525500Y-99235252D01*
X138513867Y-99176769D01*
X138513864Y-99176765D01*
X138510187Y-99167887D01*
X138505386Y-99106890D01*
X138510187Y-99092113D01*
X138513863Y-99083236D01*
X138513867Y-99083231D01*
X138525500Y-99024748D01*
X138525500Y-98535252D01*
X138513867Y-98476769D01*
X138469552Y-98410448D01*
X138411597Y-98371723D01*
X138403233Y-98366134D01*
X138403231Y-98366133D01*
X138403228Y-98366132D01*
X138403227Y-98366132D01*
X138344758Y-98354501D01*
X138344748Y-98354500D01*
X138036713Y-98354500D01*
X137978522Y-98335593D01*
X137942558Y-98286093D01*
X137942558Y-98224907D01*
X137966709Y-98185496D01*
X137990315Y-98161889D01*
X138119021Y-98005061D01*
X138141352Y-97971641D01*
X138236994Y-97792708D01*
X138252370Y-97755586D01*
X138252377Y-97755567D01*
X138311270Y-97561423D01*
X138319110Y-97522007D01*
X138338997Y-97320091D01*
X138338997Y-97279908D01*
X138319110Y-97077992D01*
X138311270Y-97038576D01*
X138252377Y-96844432D01*
X138252370Y-96844413D01*
X138236994Y-96807291D01*
X138141352Y-96628358D01*
X138119021Y-96594938D01*
X137990315Y-96438110D01*
X137961889Y-96409684D01*
X137805061Y-96280978D01*
X137771641Y-96258647D01*
X137592708Y-96163005D01*
X137592709Y-96163005D01*
X137555586Y-96147629D01*
X137555567Y-96147622D01*
X137361423Y-96088729D01*
X137322007Y-96080889D01*
X137120091Y-96061003D01*
X137079909Y-96061003D01*
X136877992Y-96080889D01*
X136838576Y-96088729D01*
X136644432Y-96147622D01*
X136644413Y-96147629D01*
X136607291Y-96163005D01*
X136428358Y-96258647D01*
X136394938Y-96280978D01*
X136238110Y-96409684D01*
X136209684Y-96438110D01*
X136080978Y-96594938D01*
X136058647Y-96628358D01*
X135963005Y-96807291D01*
X135947629Y-96844413D01*
X135947622Y-96844432D01*
X135888729Y-97038576D01*
X135880889Y-97077992D01*
X135861003Y-97279908D01*
X135861003Y-97320091D01*
X135880889Y-97522007D01*
X135888729Y-97561423D01*
X135947622Y-97755567D01*
X135947629Y-97755586D01*
X135963005Y-97792708D01*
X136058647Y-97971641D01*
X136080978Y-98005061D01*
X136209684Y-98161889D01*
X136233291Y-98185496D01*
X136261068Y-98240013D01*
X136251497Y-98300445D01*
X136208232Y-98343710D01*
X136163287Y-98354500D01*
X135855252Y-98354500D01*
X135855251Y-98354500D01*
X135855241Y-98354501D01*
X135796772Y-98366132D01*
X135796766Y-98366134D01*
X135730451Y-98410445D01*
X135730447Y-98410449D01*
X135730413Y-98410501D01*
X135730332Y-98410564D01*
X135723554Y-98417343D01*
X135722751Y-98416540D01*
X135682363Y-98448381D01*
X135648097Y-98454500D01*
X135582147Y-98454500D01*
X135499362Y-98476682D01*
X135499361Y-98476682D01*
X135499359Y-98476683D01*
X135470083Y-98493585D01*
X135463895Y-98497159D01*
X135425145Y-98519531D01*
X135425135Y-98519537D01*
X135370003Y-98574669D01*
X135315486Y-98602446D01*
X135255054Y-98592874D01*
X135229997Y-98574669D01*
X135174862Y-98519535D01*
X135174857Y-98519531D01*
X135100642Y-98476683D01*
X135100644Y-98476683D01*
X135068521Y-98468076D01*
X135017853Y-98454500D01*
X135017851Y-98454500D01*
X134951903Y-98454500D01*
X134893712Y-98435593D01*
X134869587Y-98410501D01*
X134869552Y-98410448D01*
X134811597Y-98371723D01*
X134803233Y-98366134D01*
X134803231Y-98366133D01*
X134803228Y-98366132D01*
X134803227Y-98366132D01*
X134744758Y-98354501D01*
X134744748Y-98354500D01*
X134436713Y-98354500D01*
X134378522Y-98335593D01*
X134342558Y-98286093D01*
X134342558Y-98224907D01*
X134366709Y-98185496D01*
X134390315Y-98161889D01*
X134519021Y-98005061D01*
X134541352Y-97971641D01*
X134636994Y-97792708D01*
X134652370Y-97755586D01*
X134652377Y-97755567D01*
X134711270Y-97561423D01*
X134719110Y-97522007D01*
X134738997Y-97320091D01*
X134738997Y-97279908D01*
X134719110Y-97077992D01*
X134711270Y-97038576D01*
X134652377Y-96844432D01*
X134652370Y-96844413D01*
X134636994Y-96807291D01*
X134541352Y-96628358D01*
X134519021Y-96594938D01*
X134390315Y-96438110D01*
X134361889Y-96409684D01*
X134205061Y-96280978D01*
X134171641Y-96258647D01*
X133992708Y-96163005D01*
X133992709Y-96163005D01*
X133955586Y-96147629D01*
X133955567Y-96147622D01*
X133761423Y-96088729D01*
X133722007Y-96080889D01*
X133520091Y-96061003D01*
X133479909Y-96061003D01*
X133277992Y-96080889D01*
X133238576Y-96088729D01*
X133044432Y-96147622D01*
X133044413Y-96147629D01*
X133007291Y-96163005D01*
X132828358Y-96258647D01*
X132794938Y-96280978D01*
X132638110Y-96409684D01*
X132609684Y-96438110D01*
X132480978Y-96594938D01*
X132458647Y-96628358D01*
X132363005Y-96807291D01*
X132347629Y-96844413D01*
X132347622Y-96844432D01*
X132288729Y-97038576D01*
X132280889Y-97077992D01*
X132261003Y-97279908D01*
X132261003Y-97320091D01*
X132280889Y-97522007D01*
X132288729Y-97561423D01*
X132347622Y-97755567D01*
X132347629Y-97755586D01*
X132363005Y-97792708D01*
X132458647Y-97971641D01*
X132480978Y-98005061D01*
X132609684Y-98161889D01*
X132633791Y-98185996D01*
X132661568Y-98240513D01*
X132651997Y-98300945D01*
X132608732Y-98344210D01*
X132563787Y-98355000D01*
X132255299Y-98355000D01*
X132196963Y-98366603D01*
X132130810Y-98410806D01*
X132130806Y-98410810D01*
X132086603Y-98476963D01*
X132075000Y-98535299D01*
X132075000Y-98554999D01*
X132075001Y-98555000D01*
X133224998Y-98555000D01*
X133229312Y-98550686D01*
X133283829Y-98522908D01*
X133309021Y-98522166D01*
X133479901Y-98538996D01*
X133479905Y-98538996D01*
X133497349Y-98537894D01*
X133516063Y-98538485D01*
X133520095Y-98538996D01*
X133665796Y-98524646D01*
X133725560Y-98537758D01*
X133766202Y-98583495D01*
X133774500Y-98623169D01*
X133774500Y-99024746D01*
X133774501Y-99024758D01*
X133786132Y-99083230D01*
X133789814Y-99092119D01*
X133794611Y-99153116D01*
X133789814Y-99167881D01*
X133786132Y-99176769D01*
X133774501Y-99235241D01*
X133774500Y-99235253D01*
X133774500Y-99724746D01*
X133774501Y-99724758D01*
X133786132Y-99783227D01*
X133786134Y-99783233D01*
X133830445Y-99849548D01*
X133830448Y-99849552D01*
X133830451Y-99849554D01*
X133885808Y-99886543D01*
X133923687Y-99934593D01*
X133926089Y-99995731D01*
X133900810Y-100038861D01*
X133694169Y-100245503D01*
X133639652Y-100273281D01*
X133624165Y-100274500D01*
X131497081Y-100274500D01*
X131438890Y-100255593D01*
X131402926Y-100206093D01*
X131402926Y-100144907D01*
X131438890Y-100095407D01*
X131459196Y-100084036D01*
X131568257Y-100038861D01*
X131602841Y-100024536D01*
X131728282Y-99928282D01*
X131777428Y-99864232D01*
X131827852Y-99829577D01*
X131855970Y-99825500D01*
X132065389Y-99825500D01*
X132123580Y-99844407D01*
X132126570Y-99846961D01*
X132185808Y-99886543D01*
X132196769Y-99893867D01*
X132241231Y-99902711D01*
X132255241Y-99905498D01*
X132255246Y-99905498D01*
X132255252Y-99905500D01*
X132255253Y-99905500D01*
X133044747Y-99905500D01*
X133044748Y-99905500D01*
X133103231Y-99893867D01*
X133169552Y-99849552D01*
X133213867Y-99783231D01*
X133225500Y-99724748D01*
X133225500Y-99235252D01*
X133213867Y-99176769D01*
X133213863Y-99176764D01*
X133210134Y-99167757D01*
X133213855Y-99166215D01*
X133202401Y-99125525D01*
X133209860Y-99091571D01*
X133213396Y-99083033D01*
X133224999Y-99024700D01*
X133225000Y-99024697D01*
X133225000Y-99005001D01*
X133224999Y-99005000D01*
X132075001Y-99005000D01*
X132075000Y-99005001D01*
X132075000Y-99024700D01*
X132081263Y-99056186D01*
X132074071Y-99116948D01*
X132032538Y-99161877D01*
X131984165Y-99174500D01*
X131855970Y-99174500D01*
X131797779Y-99155593D01*
X131777428Y-99135767D01*
X131763889Y-99118123D01*
X131728282Y-99071718D01*
X131728277Y-99071714D01*
X131728276Y-99071713D01*
X131618068Y-98987148D01*
X131602841Y-98975464D01*
X131602840Y-98975463D01*
X131602838Y-98975462D01*
X131456766Y-98914957D01*
X131456758Y-98914955D01*
X131300001Y-98894318D01*
X131299999Y-98894318D01*
X131143241Y-98914955D01*
X131143232Y-98914957D01*
X131034392Y-98960040D01*
X130973395Y-98964840D01*
X130921226Y-98932871D01*
X130897812Y-98876343D01*
X130898353Y-98855664D01*
X130905682Y-98800000D01*
X130885044Y-98643238D01*
X130846630Y-98550498D01*
X130824537Y-98497161D01*
X130824536Y-98497159D01*
X130728286Y-98371723D01*
X130728285Y-98371722D01*
X130728282Y-98371718D01*
X130728277Y-98371714D01*
X130728276Y-98371713D01*
X130657104Y-98317101D01*
X130602841Y-98275464D01*
X130602840Y-98275463D01*
X130602838Y-98275462D01*
X130456766Y-98214957D01*
X130456758Y-98214955D01*
X130300001Y-98194318D01*
X130299999Y-98194318D01*
X130143241Y-98214955D01*
X130143233Y-98214957D01*
X129997161Y-98275462D01*
X129997160Y-98275462D01*
X129871723Y-98371713D01*
X129871713Y-98371723D01*
X129837918Y-98415767D01*
X129787494Y-98450423D01*
X129759376Y-98454500D01*
X129451903Y-98454500D01*
X129393712Y-98435593D01*
X129369587Y-98410501D01*
X129369552Y-98410448D01*
X129311597Y-98371723D01*
X129303233Y-98366134D01*
X129303231Y-98366133D01*
X129303228Y-98366132D01*
X129303227Y-98366132D01*
X129244758Y-98354501D01*
X129244748Y-98354500D01*
X128936713Y-98354500D01*
X128878522Y-98335593D01*
X128842558Y-98286093D01*
X128842558Y-98224907D01*
X128866709Y-98185496D01*
X128890315Y-98161889D01*
X129019021Y-98005061D01*
X129041352Y-97971641D01*
X129136994Y-97792708D01*
X129152370Y-97755586D01*
X129152377Y-97755567D01*
X129211270Y-97561423D01*
X129219110Y-97522007D01*
X129238997Y-97320091D01*
X129238997Y-97279908D01*
X129219110Y-97077992D01*
X129211270Y-97038576D01*
X129152377Y-96844432D01*
X129152370Y-96844413D01*
X129136994Y-96807291D01*
X129041352Y-96628358D01*
X129019021Y-96594938D01*
X128890315Y-96438110D01*
X128861889Y-96409684D01*
X128705061Y-96280978D01*
X128671641Y-96258647D01*
X128492708Y-96163005D01*
X128492709Y-96163005D01*
X128455586Y-96147629D01*
X128455567Y-96147622D01*
X128261423Y-96088729D01*
X128222007Y-96080889D01*
X128020091Y-96061003D01*
X127979909Y-96061003D01*
X127777992Y-96080889D01*
X127738576Y-96088729D01*
X127544432Y-96147622D01*
X127544413Y-96147629D01*
X127507291Y-96163005D01*
X127328358Y-96258647D01*
X127294938Y-96280978D01*
X127138110Y-96409684D01*
X127109684Y-96438110D01*
X126980978Y-96594938D01*
X126958647Y-96628358D01*
X126863005Y-96807291D01*
X126847629Y-96844413D01*
X126847622Y-96844432D01*
X126788729Y-97038576D01*
X126780889Y-97077992D01*
X126761003Y-97279908D01*
X126761003Y-97320091D01*
X126780889Y-97522007D01*
X126788729Y-97561423D01*
X126847622Y-97755567D01*
X126847629Y-97755586D01*
X126863005Y-97792708D01*
X126958647Y-97971641D01*
X126980978Y-98005061D01*
X127109684Y-98161889D01*
X127133291Y-98185496D01*
X127161068Y-98240013D01*
X127151497Y-98300445D01*
X127108232Y-98343710D01*
X127063287Y-98354500D01*
X126755252Y-98354500D01*
X126755251Y-98354500D01*
X126755241Y-98354501D01*
X126696772Y-98366132D01*
X126696766Y-98366134D01*
X126630451Y-98410445D01*
X126630445Y-98410451D01*
X126586134Y-98476766D01*
X126586132Y-98476772D01*
X126574501Y-98535241D01*
X126574500Y-98535253D01*
X126574500Y-99024746D01*
X126574501Y-99024758D01*
X126586132Y-99083230D01*
X126589814Y-99092119D01*
X126594611Y-99153116D01*
X126589814Y-99167881D01*
X126586132Y-99176769D01*
X126574501Y-99235241D01*
X126574500Y-99235253D01*
X126574500Y-99724746D01*
X126574501Y-99724758D01*
X126586132Y-99783227D01*
X126586134Y-99783233D01*
X126630445Y-99849548D01*
X126630448Y-99849552D01*
X126696769Y-99893867D01*
X126744816Y-99903424D01*
X126798198Y-99933320D01*
X126823814Y-99988885D01*
X126824500Y-100000521D01*
X126824500Y-100005662D01*
X126805593Y-100063853D01*
X126785768Y-100084204D01*
X126671720Y-100171716D01*
X126671713Y-100171723D01*
X126575462Y-100297160D01*
X126575462Y-100297161D01*
X126514957Y-100443233D01*
X126514955Y-100443241D01*
X126494318Y-100599999D01*
X126494318Y-100600000D01*
X126514955Y-100756758D01*
X126514957Y-100756766D01*
X126575462Y-100902838D01*
X126575462Y-100902839D01*
X126671713Y-101028276D01*
X126671718Y-101028282D01*
X126797159Y-101124536D01*
X126943238Y-101185044D01*
X126975183Y-101189249D01*
X127030407Y-101215589D01*
X127059603Y-101269359D01*
X127051618Y-101330021D01*
X127032265Y-101357406D01*
X124839532Y-103550141D01*
X124839531Y-103550142D01*
X124796683Y-103624357D01*
X124796682Y-103624359D01*
X124786494Y-103662379D01*
X124786495Y-103662380D01*
X124774500Y-103707147D01*
X124774500Y-104782226D01*
X124755593Y-104840417D01*
X124730503Y-104864541D01*
X124685327Y-104894727D01*
X124594727Y-104985327D01*
X124594724Y-104985331D01*
X124523538Y-105091866D01*
X124523534Y-105091874D01*
X124474500Y-105210252D01*
X124474500Y-105210253D01*
X124474499Y-105210256D01*
X124449500Y-105335931D01*
X124449500Y-106364069D01*
X124459665Y-106415173D01*
X124462851Y-106431185D01*
X124455660Y-106491946D01*
X124414127Y-106536877D01*
X124365753Y-106549500D01*
X124233738Y-106549500D01*
X124175547Y-106530593D01*
X124139583Y-106481093D01*
X124136640Y-106431186D01*
X124149999Y-106364022D01*
X124150000Y-106364017D01*
X124150000Y-106100001D01*
X124149999Y-106100000D01*
X123848949Y-106100000D01*
X123826148Y-106014905D01*
X123780070Y-105935095D01*
X123714905Y-105869930D01*
X123635095Y-105823852D01*
X123546078Y-105800000D01*
X123453922Y-105800000D01*
X123364905Y-105823852D01*
X123285095Y-105869930D01*
X123219930Y-105935095D01*
X123173852Y-106014905D01*
X123151051Y-106100000D01*
X122850001Y-106100000D01*
X122850000Y-106100001D01*
X122850000Y-106364021D01*
X122874978Y-106489595D01*
X122874980Y-106489601D01*
X122923977Y-106607889D01*
X122995109Y-106714347D01*
X123085652Y-106804890D01*
X123192112Y-106876023D01*
X123249999Y-106900000D01*
X123250000Y-106900000D01*
X123250000Y-106394975D01*
X123285095Y-106430070D01*
X123364905Y-106476148D01*
X123453922Y-106500000D01*
X123546078Y-106500000D01*
X123635095Y-106476148D01*
X123714905Y-106430070D01*
X123750000Y-106394975D01*
X123750000Y-106822233D01*
X123733317Y-106877233D01*
X123723534Y-106891874D01*
X123674500Y-107010252D01*
X123674499Y-107010257D01*
X123649500Y-107135930D01*
X123649500Y-107275500D01*
X123630593Y-107333691D01*
X123581093Y-107369655D01*
X123550500Y-107374500D01*
X122925834Y-107374500D01*
X122867643Y-107355593D01*
X122855830Y-107345504D01*
X121954496Y-106444169D01*
X121926719Y-106389652D01*
X121925500Y-106374165D01*
X121925500Y-105599999D01*
X122850000Y-105599999D01*
X122850001Y-105600000D01*
X123249999Y-105600000D01*
X123250000Y-105599999D01*
X123250000Y-104799998D01*
X123750000Y-104799998D01*
X123750000Y-105599999D01*
X123750001Y-105600000D01*
X124149999Y-105600000D01*
X124150000Y-105599999D01*
X124150000Y-105335982D01*
X124149999Y-105335978D01*
X124125021Y-105210404D01*
X124125019Y-105210398D01*
X124076022Y-105092110D01*
X124004890Y-104985652D01*
X123914347Y-104895109D01*
X123807895Y-104823981D01*
X123807890Y-104823978D01*
X123750000Y-104799998D01*
X123250000Y-104799998D01*
X123249999Y-104799998D01*
X123192109Y-104823978D01*
X123192104Y-104823981D01*
X123085652Y-104895109D01*
X122995109Y-104985652D01*
X122923977Y-105092110D01*
X122874980Y-105210398D01*
X122874978Y-105210404D01*
X122850000Y-105335978D01*
X122850000Y-105599999D01*
X121925500Y-105599999D01*
X121925500Y-102649500D01*
X121944407Y-102591309D01*
X121993907Y-102555345D01*
X122024500Y-102550500D01*
X122469747Y-102550500D01*
X122469748Y-102550500D01*
X122528231Y-102538867D01*
X122594552Y-102494552D01*
X122638867Y-102428231D01*
X122650500Y-102369748D01*
X122650500Y-101500003D01*
X123084417Y-101500003D01*
X123104698Y-101705929D01*
X123104699Y-101705934D01*
X123164768Y-101903954D01*
X123262316Y-102086452D01*
X123393084Y-102245793D01*
X123393590Y-102246410D01*
X123393595Y-102246414D01*
X123553547Y-102377683D01*
X123553548Y-102377683D01*
X123553550Y-102377685D01*
X123736046Y-102475232D01*
X123873997Y-102517078D01*
X123934065Y-102535300D01*
X123934070Y-102535301D01*
X124139997Y-102555583D01*
X124140000Y-102555583D01*
X124140003Y-102555583D01*
X124345929Y-102535301D01*
X124345934Y-102535300D01*
X124543954Y-102475232D01*
X124726450Y-102377685D01*
X124886410Y-102246410D01*
X125017685Y-102086450D01*
X125115232Y-101903954D01*
X125175300Y-101705934D01*
X125175301Y-101705929D01*
X125195583Y-101500003D01*
X125195583Y-101499996D01*
X125175301Y-101294070D01*
X125175300Y-101294065D01*
X125157078Y-101233997D01*
X125115232Y-101096046D01*
X125017685Y-100913550D01*
X125009286Y-100903316D01*
X124901153Y-100771555D01*
X124886410Y-100753590D01*
X124873327Y-100742853D01*
X124726452Y-100622316D01*
X124543954Y-100524768D01*
X124345934Y-100464699D01*
X124345929Y-100464698D01*
X124140003Y-100444417D01*
X124139997Y-100444417D01*
X123934070Y-100464698D01*
X123934065Y-100464699D01*
X123736045Y-100524768D01*
X123553547Y-100622316D01*
X123393595Y-100753585D01*
X123393585Y-100753595D01*
X123262316Y-100913547D01*
X123164768Y-101096045D01*
X123104699Y-101294065D01*
X123104698Y-101294070D01*
X123084417Y-101499996D01*
X123084417Y-101500003D01*
X122650500Y-101500003D01*
X122650500Y-100630252D01*
X122648921Y-100622316D01*
X122643918Y-100597161D01*
X122638867Y-100571769D01*
X122594552Y-100505448D01*
X122594548Y-100505445D01*
X122528233Y-100461134D01*
X122528231Y-100461133D01*
X122528228Y-100461132D01*
X122528227Y-100461132D01*
X122469758Y-100449501D01*
X122469748Y-100449500D01*
X120730252Y-100449500D01*
X120730251Y-100449500D01*
X120730241Y-100449501D01*
X120671772Y-100461132D01*
X120671766Y-100461134D01*
X120605451Y-100505445D01*
X120605445Y-100505451D01*
X120561134Y-100571766D01*
X120561132Y-100571772D01*
X120549501Y-100630241D01*
X120549500Y-100630253D01*
X120549500Y-102369746D01*
X120325500Y-102369746D01*
X120325500Y-99275834D01*
X120344407Y-99217643D01*
X120354496Y-99205830D01*
X120980831Y-98579496D01*
X121035348Y-98551719D01*
X121050835Y-98550500D01*
X122469747Y-98550500D01*
X122469748Y-98550500D01*
X122528231Y-98538867D01*
X122594552Y-98494552D01*
X122638867Y-98428231D01*
X122650500Y-98369748D01*
X122650500Y-97500003D01*
X123084417Y-97500003D01*
X123104698Y-97705929D01*
X123104699Y-97705934D01*
X123164768Y-97903954D01*
X123262316Y-98086452D01*
X123367777Y-98214957D01*
X123393590Y-98246410D01*
X123393595Y-98246414D01*
X123553547Y-98377683D01*
X123553548Y-98377683D01*
X123553550Y-98377685D01*
X123736046Y-98475232D01*
X123873997Y-98517078D01*
X123934065Y-98535300D01*
X123934070Y-98535301D01*
X124139997Y-98555583D01*
X124140000Y-98555583D01*
X124140003Y-98555583D01*
X124345929Y-98535301D01*
X124345934Y-98535300D01*
X124346128Y-98535241D01*
X124543954Y-98475232D01*
X124726450Y-98377685D01*
X124886410Y-98246410D01*
X125017685Y-98086450D01*
X125115232Y-97903954D01*
X125175300Y-97705934D01*
X125175301Y-97705929D01*
X125195583Y-97500003D01*
X125195583Y-97499996D01*
X125175301Y-97294070D01*
X125175300Y-97294065D01*
X125157078Y-97233997D01*
X125115232Y-97096046D01*
X125017685Y-96913550D01*
X124994526Y-96885331D01*
X124886414Y-96753595D01*
X124886410Y-96753590D01*
X124790037Y-96674499D01*
X124726452Y-96622316D01*
X124543954Y-96524768D01*
X124345934Y-96464699D01*
X124345929Y-96464698D01*
X124140003Y-96444417D01*
X124139997Y-96444417D01*
X123934070Y-96464698D01*
X123934065Y-96464699D01*
X123736045Y-96524768D01*
X123553547Y-96622316D01*
X123393595Y-96753585D01*
X123393585Y-96753595D01*
X123262316Y-96913547D01*
X123164768Y-97096045D01*
X123104699Y-97294065D01*
X123104698Y-97294070D01*
X123084417Y-97499996D01*
X123084417Y-97500003D01*
X122650500Y-97500003D01*
X122650500Y-96630252D01*
X122648921Y-96622316D01*
X122647711Y-96616231D01*
X122638867Y-96571769D01*
X122594552Y-96505448D01*
X122594548Y-96505445D01*
X122528233Y-96461134D01*
X122528231Y-96461133D01*
X122528228Y-96461132D01*
X122528227Y-96461132D01*
X122469758Y-96449501D01*
X122469748Y-96449500D01*
X120730252Y-96449500D01*
X120730251Y-96449500D01*
X120730241Y-96449501D01*
X120671772Y-96461132D01*
X120671766Y-96461134D01*
X120605451Y-96505445D01*
X120605445Y-96505451D01*
X120561134Y-96571766D01*
X120561132Y-96571772D01*
X120549501Y-96630241D01*
X120549500Y-96630253D01*
X120549500Y-98049165D01*
X120530593Y-98107356D01*
X120520504Y-98119169D01*
X119739531Y-98900142D01*
X119696683Y-98974357D01*
X119696682Y-98974360D01*
X119694626Y-98982033D01*
X119661301Y-99033347D01*
X119604179Y-99055272D01*
X119545079Y-99039435D01*
X119506575Y-98991884D01*
X119500000Y-98956408D01*
X119500000Y-95099000D01*
X119518907Y-95040809D01*
X119568407Y-95004845D01*
X119599000Y-95000000D01*
X143401000Y-95000000D01*
X143459191Y-95018907D01*
G37*
%TD.AperFunction*%
%TD*%
M02*
