%TF.GenerationSoftware,KiCad,Pcbnew,8.0.1*%
%TF.CreationDate,2024-04-23T13:44:48-04:00*%
%TF.ProjectId,HearingProbeBoard,48656172-696e-4675-9072-6f6265426f61,rev?*%
%TF.SameCoordinates,Original*%
%TF.FileFunction,Copper,L1,Top*%
%TF.FilePolarity,Positive*%
%FSLAX46Y46*%
G04 Gerber Fmt 4.6, Leading zero omitted, Abs format (unit mm)*
G04 Created by KiCad (PCBNEW 8.0.1) date 2024-04-23 13:44:48*
%MOMM*%
%LPD*%
G01*
G04 APERTURE LIST*
%TA.AperFunction,ComponentPad*%
%ADD10R,1.700000X1.700000*%
%TD*%
%TA.AperFunction,ComponentPad*%
%ADD11O,1.700000X1.700000*%
%TD*%
%TA.AperFunction,ComponentPad*%
%ADD12R,1.350000X1.350000*%
%TD*%
%TA.AperFunction,ComponentPad*%
%ADD13O,1.350000X1.350000*%
%TD*%
%TA.AperFunction,ComponentPad*%
%ADD14O,0.900000X1.800000*%
%TD*%
%TA.AperFunction,ComponentPad*%
%ADD15O,1.700000X2.900000*%
%TD*%
%TA.AperFunction,ComponentPad*%
%ADD16O,1.750000X2.950000*%
%TD*%
%TA.AperFunction,ViaPad*%
%ADD17C,0.800000*%
%TD*%
%TA.AperFunction,Conductor*%
%ADD18C,0.250000*%
%TD*%
G04 APERTURE END LIST*
D10*
%TO.P,J3,1,Pin_1*%
%TO.N,/SPK1+*%
X121600000Y-101500000D03*
D11*
%TO.P,J3,2,Pin_2*%
%TO.N,/SPK1-*%
X124140000Y-101500000D03*
%TD*%
D12*
%TO.P,J6,1,Pin_1*%
%TO.N,/SPK2+*%
X135000000Y-102900000D03*
D13*
%TO.P,J6,2,Pin_2*%
%TO.N,/SPK2-*%
X137000000Y-102900000D03*
%TD*%
D12*
%TO.P,J5,1,Pin_1*%
%TO.N,/SPK1+*%
X128850000Y-102900000D03*
D13*
%TO.P,J5,2,Pin_2*%
%TO.N,/SPK1-*%
X130850000Y-102900000D03*
%TD*%
D10*
%TO.P,J4,1,Pin_1*%
%TO.N,/SPK2+*%
X121600000Y-97500000D03*
D11*
%TO.P,J4,2,Pin_2*%
%TO.N,/SPK2-*%
X124140000Y-97500000D03*
%TD*%
D14*
%TO.P,J2,1,VBUS*%
%TO.N,VDD*%
X139700000Y-105850000D03*
%TO.P,J2,2,D-*%
%TO.N,/CLK_2*%
X138900000Y-107650000D03*
%TO.P,J2,3,D+*%
%TO.N,/DAT_2*%
X138100000Y-105850000D03*
%TO.P,J2,4,ID*%
%TO.N,/SPK2+*%
X137300000Y-107650000D03*
%TO.P,J2,5,GND*%
%TO.N,GND*%
X136500000Y-105850000D03*
D15*
%TO.P,J2,6,Shield*%
%TO.N,/SPK2-*%
X134450000Y-111200000D03*
D16*
X141775000Y-111225000D03*
%TD*%
D14*
%TO.P,J1,1,VBUS*%
%TO.N,VDD*%
X126700000Y-105850000D03*
%TO.P,J1,2,D-*%
%TO.N,/CLK_1*%
X125900000Y-107650000D03*
%TO.P,J1,3,D+*%
%TO.N,/DAT_1*%
X125100000Y-105850000D03*
%TO.P,J1,4,ID*%
%TO.N,/SPK1+*%
X124300000Y-107650000D03*
%TO.P,J1,5,GND*%
%TO.N,GND*%
X123500000Y-105850000D03*
D15*
%TO.P,J1,6,Shield*%
%TO.N,/SPK1-*%
X121450000Y-111200000D03*
D16*
X128750000Y-111200000D03*
%TD*%
D17*
%TO.N,VDD*%
X135300000Y-100600000D03*
X130300000Y-98800000D03*
X142100000Y-100900000D03*
%TO.N,/CLK_1*%
X127100000Y-100600000D03*
X131300000Y-99500000D03*
%TO.N,/CLK_2*%
X139100000Y-100600000D03*
X136700000Y-100600000D03*
%TO.N,/SPK2+*%
X135000000Y-107750000D03*
%TD*%
D18*
%TO.N,/CLK_1*%
X130200000Y-100600000D02*
X131300000Y-99500000D01*
X127100000Y-100600000D02*
X130200000Y-100600000D01*
X125900000Y-101800000D02*
X127100000Y-100600000D01*
X125900000Y-107350000D02*
X125900000Y-101800000D01*
%TO.N,/SPK1-*%
X121450000Y-111200000D02*
X128750000Y-111200000D01*
X130850000Y-109100000D02*
X130850000Y-102900000D01*
X128750000Y-111200000D02*
X130850000Y-109100000D01*
X124140000Y-102960000D02*
X124140000Y-101500000D01*
X121450000Y-105650000D02*
X124140000Y-102960000D01*
X121450000Y-111200000D02*
X121450000Y-105650000D01*
%TO.N,/CLK_2*%
X139250000Y-107700000D02*
X140400000Y-107700000D01*
X140400000Y-107700000D02*
X141200000Y-106900000D01*
X138900000Y-107350000D02*
X139250000Y-107700000D01*
X141200000Y-102700000D02*
X139100000Y-100600000D01*
X139100000Y-100600000D02*
X136700000Y-100600000D01*
X141200000Y-106900000D02*
X141200000Y-102700000D01*
%TO.N,/SPK2+*%
X137300000Y-107350000D02*
X136900000Y-107750000D01*
X136900000Y-107750000D02*
X135000000Y-107750000D01*
%TO.N,/SPK2-*%
X141750000Y-111200000D02*
X134450000Y-111200000D01*
X134450000Y-111200000D02*
X133200000Y-109950000D01*
X133200000Y-99400000D02*
X129800000Y-96000000D01*
X129800000Y-96000000D02*
X125300000Y-96000000D01*
X137000000Y-102900000D02*
X137000000Y-103250000D01*
X125300000Y-96000000D02*
X124140000Y-97160000D01*
X137000000Y-103250000D02*
X136100000Y-104150000D01*
X133200000Y-109950000D02*
X133200000Y-104150000D01*
X133200000Y-104150000D02*
X133200000Y-99400000D01*
X124140000Y-97160000D02*
X124140000Y-97500000D01*
X136100000Y-104150000D02*
X133200000Y-104150000D01*
%TD*%
%TA.AperFunction,Conductor*%
%TO.N,VDD*%
G36*
X143459191Y-95018907D02*
G01*
X143495155Y-95068407D01*
X143500000Y-95099000D01*
X143500000Y-112901000D01*
X143481093Y-112959191D01*
X143431593Y-112995155D01*
X143401000Y-113000000D01*
X142250289Y-113000000D01*
X142192098Y-112981093D01*
X142156134Y-112931593D01*
X142156134Y-112870407D01*
X142192098Y-112820907D01*
X142205335Y-112812794D01*
X142338685Y-112744850D01*
X142475641Y-112645346D01*
X142595346Y-112525641D01*
X142694850Y-112388685D01*
X142771705Y-112237849D01*
X142824018Y-112076847D01*
X142827978Y-112051847D01*
X142850500Y-111909647D01*
X142850500Y-110540352D01*
X142824019Y-110373157D01*
X142771706Y-110212155D01*
X142771705Y-110212151D01*
X142694850Y-110061315D01*
X142595346Y-109924359D01*
X142475641Y-109804654D01*
X142338685Y-109705150D01*
X142338684Y-109705149D01*
X142338682Y-109705148D01*
X142267851Y-109669058D01*
X142187849Y-109628295D01*
X142187846Y-109628294D01*
X142187844Y-109628293D01*
X142026842Y-109575980D01*
X141859647Y-109549500D01*
X141859644Y-109549500D01*
X141690356Y-109549500D01*
X141690353Y-109549500D01*
X141523157Y-109575980D01*
X141362155Y-109628293D01*
X141211317Y-109705148D01*
X141142837Y-109754902D01*
X141074359Y-109804654D01*
X140954654Y-109924359D01*
X140952721Y-109927020D01*
X140855148Y-110061317D01*
X140778293Y-110212155D01*
X140725980Y-110373157D01*
X140699500Y-110540352D01*
X140699500Y-110775500D01*
X140680593Y-110833691D01*
X140631093Y-110869655D01*
X140600500Y-110874500D01*
X135599500Y-110874500D01*
X135541309Y-110855593D01*
X135505345Y-110806093D01*
X135500500Y-110775500D01*
X135500500Y-110496536D01*
X135500499Y-110496532D01*
X135475958Y-110373157D01*
X135460130Y-110293580D01*
X135380941Y-110102402D01*
X135265977Y-109930345D01*
X135119655Y-109784023D01*
X135119651Y-109784020D01*
X134947597Y-109669058D01*
X134756418Y-109589869D01*
X134553467Y-109549500D01*
X134553465Y-109549500D01*
X134346535Y-109549500D01*
X134346532Y-109549500D01*
X134143581Y-109589869D01*
X133952402Y-109669058D01*
X133780345Y-109784022D01*
X133707350Y-109857016D01*
X133652833Y-109884793D01*
X133592401Y-109875221D01*
X133567343Y-109857016D01*
X133554496Y-109844169D01*
X133526719Y-109789652D01*
X133525500Y-109774165D01*
X133525500Y-107750000D01*
X134394318Y-107750000D01*
X134414955Y-107906758D01*
X134414957Y-107906766D01*
X134475462Y-108052838D01*
X134475462Y-108052839D01*
X134560810Y-108164067D01*
X134571718Y-108178282D01*
X134697159Y-108274536D01*
X134697160Y-108274536D01*
X134697161Y-108274537D01*
X134843233Y-108335042D01*
X134843238Y-108335044D01*
X134960809Y-108350522D01*
X134999999Y-108355682D01*
X135000000Y-108355682D01*
X135000001Y-108355682D01*
X135031352Y-108351554D01*
X135156762Y-108335044D01*
X135302841Y-108274536D01*
X135428282Y-108178282D01*
X135477428Y-108114232D01*
X135527852Y-108079577D01*
X135555970Y-108075500D01*
X136551048Y-108075500D01*
X136609239Y-108094407D01*
X136645203Y-108143907D01*
X136648426Y-108159322D01*
X136648551Y-108159298D01*
X136674499Y-108289742D01*
X136674500Y-108289747D01*
X136723534Y-108408125D01*
X136723538Y-108408133D01*
X136766365Y-108472226D01*
X136794724Y-108514669D01*
X136885331Y-108605276D01*
X136948848Y-108647717D01*
X136991866Y-108676461D01*
X136991870Y-108676463D01*
X136991873Y-108676465D01*
X137110256Y-108725501D01*
X137235931Y-108750500D01*
X137235932Y-108750500D01*
X137364068Y-108750500D01*
X137364069Y-108750500D01*
X137489744Y-108725501D01*
X137608127Y-108676465D01*
X137714669Y-108605276D01*
X137805276Y-108514669D01*
X137876465Y-108408127D01*
X137925501Y-108289744D01*
X137950500Y-108164069D01*
X137950500Y-107135931D01*
X137937149Y-107068813D01*
X137944340Y-107008054D01*
X137985873Y-106963123D01*
X138034247Y-106950500D01*
X138165753Y-106950500D01*
X138223944Y-106969407D01*
X138259908Y-107018907D01*
X138262851Y-107068815D01*
X138249500Y-107135930D01*
X138249500Y-108164069D01*
X138274499Y-108289742D01*
X138274500Y-108289747D01*
X138323534Y-108408125D01*
X138323538Y-108408133D01*
X138366365Y-108472226D01*
X138394724Y-108514669D01*
X138485331Y-108605276D01*
X138548848Y-108647717D01*
X138591866Y-108676461D01*
X138591870Y-108676463D01*
X138591873Y-108676465D01*
X138710256Y-108725501D01*
X138835931Y-108750500D01*
X138835932Y-108750500D01*
X138964068Y-108750500D01*
X138964069Y-108750500D01*
X139089744Y-108725501D01*
X139208127Y-108676465D01*
X139314669Y-108605276D01*
X139405276Y-108514669D01*
X139476465Y-108408127D01*
X139525501Y-108289744D01*
X139550500Y-108164069D01*
X139550500Y-108124500D01*
X139569407Y-108066309D01*
X139618907Y-108030345D01*
X139649500Y-108025500D01*
X140442851Y-108025500D01*
X140442853Y-108025500D01*
X140525639Y-108003318D01*
X140525641Y-108003316D01*
X140525643Y-108003316D01*
X140599857Y-107960468D01*
X140599857Y-107960467D01*
X140599862Y-107960465D01*
X141460465Y-107099862D01*
X141503318Y-107025639D01*
X141525500Y-106942853D01*
X141525500Y-106857147D01*
X141525500Y-102657147D01*
X141503318Y-102574362D01*
X141460465Y-102500138D01*
X141435556Y-102475229D01*
X141399862Y-102439534D01*
X141399862Y-102439535D01*
X139723292Y-100762965D01*
X139695515Y-100708448D01*
X139695143Y-100680045D01*
X139705682Y-100600000D01*
X139685044Y-100443238D01*
X139624537Y-100297161D01*
X139624537Y-100297160D01*
X139528286Y-100171723D01*
X139528285Y-100171722D01*
X139528282Y-100171718D01*
X139528277Y-100171714D01*
X139528276Y-100171713D01*
X139402838Y-100075462D01*
X139256766Y-100014957D01*
X139256758Y-100014955D01*
X139100001Y-99994318D01*
X139099999Y-99994318D01*
X138943241Y-100014955D01*
X138943233Y-100014957D01*
X138797161Y-100075462D01*
X138797160Y-100075462D01*
X138671723Y-100171713D01*
X138671714Y-100171722D01*
X138622572Y-100235767D01*
X138572148Y-100270423D01*
X138544030Y-100274500D01*
X137255970Y-100274500D01*
X137197779Y-100255593D01*
X137177428Y-100235767D01*
X137128285Y-100171722D01*
X137128282Y-100171718D01*
X137128277Y-100171714D01*
X137128276Y-100171713D01*
X137002838Y-100075462D01*
X136856766Y-100014957D01*
X136856758Y-100014955D01*
X136700001Y-99994318D01*
X136699999Y-99994318D01*
X136543241Y-100014955D01*
X136543233Y-100014957D01*
X136397161Y-100075462D01*
X136397160Y-100075462D01*
X136271723Y-100171713D01*
X136271713Y-100171723D01*
X136175462Y-100297160D01*
X136175462Y-100297161D01*
X136114957Y-100443233D01*
X136114955Y-100443241D01*
X136094318Y-100599999D01*
X136094318Y-100600000D01*
X136114955Y-100756758D01*
X136114957Y-100756766D01*
X136175462Y-100902838D01*
X136175462Y-100902839D01*
X136271713Y-101028276D01*
X136271718Y-101028282D01*
X136397159Y-101124536D01*
X136543238Y-101185044D01*
X136660809Y-101200522D01*
X136699999Y-101205682D01*
X136700000Y-101205682D01*
X136700001Y-101205682D01*
X136731352Y-101201554D01*
X136856762Y-101185044D01*
X137002841Y-101124536D01*
X137128282Y-101028282D01*
X137177428Y-100964232D01*
X137227852Y-100929577D01*
X137255970Y-100925500D01*
X138544030Y-100925500D01*
X138602221Y-100944407D01*
X138622570Y-100964231D01*
X138671718Y-101028282D01*
X138797159Y-101124536D01*
X138943238Y-101185044D01*
X139100000Y-101205682D01*
X139180041Y-101195143D01*
X139240198Y-101206292D01*
X139262965Y-101223292D01*
X140845504Y-102805831D01*
X140873281Y-102860348D01*
X140874500Y-102875835D01*
X140874500Y-106724165D01*
X140855593Y-106782356D01*
X140845504Y-106794169D01*
X140294169Y-107345504D01*
X140239652Y-107373281D01*
X140224165Y-107374500D01*
X139649500Y-107374500D01*
X139591309Y-107355593D01*
X139555345Y-107306093D01*
X139550500Y-107275500D01*
X139550500Y-107135932D01*
X139550500Y-107135931D01*
X139525501Y-107010256D01*
X139476465Y-106891873D01*
X139466683Y-106877233D01*
X139450000Y-106822233D01*
X139450000Y-106394975D01*
X139485095Y-106430070D01*
X139564905Y-106476148D01*
X139653922Y-106500000D01*
X139746078Y-106500000D01*
X139835095Y-106476148D01*
X139914905Y-106430070D01*
X139950000Y-106394975D01*
X139950000Y-106900000D01*
X140007887Y-106876023D01*
X140114347Y-106804890D01*
X140204890Y-106714347D01*
X140276022Y-106607889D01*
X140325019Y-106489601D01*
X140325021Y-106489595D01*
X140349999Y-106364021D01*
X140350000Y-106364017D01*
X140350000Y-106100001D01*
X140349999Y-106100000D01*
X140048949Y-106100000D01*
X140026148Y-106014905D01*
X139980070Y-105935095D01*
X139914905Y-105869930D01*
X139835095Y-105823852D01*
X139746078Y-105800000D01*
X139653922Y-105800000D01*
X139564905Y-105823852D01*
X139485095Y-105869930D01*
X139419930Y-105935095D01*
X139373852Y-106014905D01*
X139351051Y-106100000D01*
X139050001Y-106100000D01*
X139050000Y-106100001D01*
X139050000Y-106364022D01*
X139063360Y-106431186D01*
X139056168Y-106491948D01*
X139014635Y-106536877D01*
X138966262Y-106549500D01*
X138834247Y-106549500D01*
X138776056Y-106530593D01*
X138740092Y-106481093D01*
X138737149Y-106431185D01*
X138737371Y-106430070D01*
X138750500Y-106364069D01*
X138750500Y-105599999D01*
X139050000Y-105599999D01*
X139050001Y-105600000D01*
X139449999Y-105600000D01*
X139450000Y-105599999D01*
X139450000Y-104799998D01*
X139950000Y-104799998D01*
X139950000Y-105599999D01*
X139950001Y-105600000D01*
X140349999Y-105600000D01*
X140350000Y-105599999D01*
X140350000Y-105335982D01*
X140349999Y-105335978D01*
X140325021Y-105210404D01*
X140325019Y-105210398D01*
X140276022Y-105092110D01*
X140204890Y-104985652D01*
X140114347Y-104895109D01*
X140007895Y-104823981D01*
X140007890Y-104823978D01*
X139950000Y-104799998D01*
X139450000Y-104799998D01*
X139449999Y-104799998D01*
X139392109Y-104823978D01*
X139392104Y-104823981D01*
X139285652Y-104895109D01*
X139195109Y-104985652D01*
X139123977Y-105092110D01*
X139074980Y-105210398D01*
X139074978Y-105210404D01*
X139050000Y-105335978D01*
X139050000Y-105599999D01*
X138750500Y-105599999D01*
X138750500Y-105335931D01*
X138725501Y-105210256D01*
X138676465Y-105091873D01*
X138676463Y-105091870D01*
X138676461Y-105091866D01*
X138647717Y-105048848D01*
X138605276Y-104985331D01*
X138514669Y-104894724D01*
X138472226Y-104866365D01*
X138408133Y-104823538D01*
X138408125Y-104823534D01*
X138289747Y-104774500D01*
X138289745Y-104774499D01*
X138289744Y-104774499D01*
X138164069Y-104749500D01*
X138035931Y-104749500D01*
X138035930Y-104749500D01*
X137973093Y-104761999D01*
X137910256Y-104774499D01*
X137910255Y-104774499D01*
X137910252Y-104774500D01*
X137791874Y-104823534D01*
X137791866Y-104823538D01*
X137685331Y-104894724D01*
X137685327Y-104894727D01*
X137594727Y-104985327D01*
X137594724Y-104985331D01*
X137523538Y-105091866D01*
X137523534Y-105091874D01*
X137474500Y-105210252D01*
X137474499Y-105210257D01*
X137449500Y-105335930D01*
X137449500Y-106364069D01*
X137462851Y-106431185D01*
X137455660Y-106491946D01*
X137414127Y-106536877D01*
X137365753Y-106549500D01*
X137234247Y-106549500D01*
X137176056Y-106530593D01*
X137140092Y-106481093D01*
X137137149Y-106431185D01*
X137137371Y-106430070D01*
X137150500Y-106364069D01*
X137150500Y-105335931D01*
X137125501Y-105210256D01*
X137076465Y-105091873D01*
X137076463Y-105091870D01*
X137076461Y-105091866D01*
X137047717Y-105048848D01*
X137005276Y-104985331D01*
X136914669Y-104894724D01*
X136872226Y-104866365D01*
X136808133Y-104823538D01*
X136808125Y-104823534D01*
X136689747Y-104774500D01*
X136689745Y-104774499D01*
X136689744Y-104774499D01*
X136564069Y-104749500D01*
X136435931Y-104749500D01*
X136435930Y-104749500D01*
X136373093Y-104761999D01*
X136310256Y-104774499D01*
X136310255Y-104774499D01*
X136310252Y-104774500D01*
X136191874Y-104823534D01*
X136191866Y-104823538D01*
X136085331Y-104894724D01*
X136085327Y-104894727D01*
X135994727Y-104985327D01*
X135994724Y-104985331D01*
X135923538Y-105091866D01*
X135923534Y-105091874D01*
X135874500Y-105210252D01*
X135874499Y-105210255D01*
X135874499Y-105210256D01*
X135849500Y-105335931D01*
X135849500Y-106364069D01*
X135874469Y-106489595D01*
X135874499Y-106489742D01*
X135874500Y-106489747D01*
X135923534Y-106608125D01*
X135923538Y-106608133D01*
X135933830Y-106623535D01*
X135994724Y-106714669D01*
X136085331Y-106805276D01*
X136148848Y-106847717D01*
X136191866Y-106876461D01*
X136191870Y-106876463D01*
X136191873Y-106876465D01*
X136310256Y-106925501D01*
X136435931Y-106950500D01*
X136435932Y-106950500D01*
X136565753Y-106950500D01*
X136623944Y-106969407D01*
X136659908Y-107018907D01*
X136662851Y-107068815D01*
X136649500Y-107135930D01*
X136649500Y-107325500D01*
X136630593Y-107383691D01*
X136581093Y-107419655D01*
X136550500Y-107424500D01*
X135555970Y-107424500D01*
X135497779Y-107405593D01*
X135477428Y-107385767D01*
X135446533Y-107345504D01*
X135428282Y-107321718D01*
X135428277Y-107321714D01*
X135428276Y-107321713D01*
X135302838Y-107225462D01*
X135156766Y-107164957D01*
X135156758Y-107164955D01*
X135000001Y-107144318D01*
X134999999Y-107144318D01*
X134843241Y-107164955D01*
X134843233Y-107164957D01*
X134697161Y-107225462D01*
X134697160Y-107225462D01*
X134571723Y-107321713D01*
X134571713Y-107321723D01*
X134475462Y-107447160D01*
X134475462Y-107447161D01*
X134414957Y-107593233D01*
X134414955Y-107593241D01*
X134394318Y-107749999D01*
X134394318Y-107750000D01*
X133525500Y-107750000D01*
X133525500Y-104574500D01*
X133544407Y-104516309D01*
X133593907Y-104480345D01*
X133624500Y-104475500D01*
X136142851Y-104475500D01*
X136142853Y-104475500D01*
X136225639Y-104453318D01*
X136225641Y-104453316D01*
X136225643Y-104453316D01*
X136299857Y-104410468D01*
X136299857Y-104410467D01*
X136299862Y-104410465D01*
X136905831Y-103804496D01*
X136960348Y-103776719D01*
X136975835Y-103775500D01*
X137092017Y-103775500D01*
X137092019Y-103775500D01*
X137272034Y-103737236D01*
X137440161Y-103662381D01*
X137589050Y-103554207D01*
X137712195Y-103417440D01*
X137804214Y-103258059D01*
X137861085Y-103083029D01*
X137880322Y-102900000D01*
X137861085Y-102716971D01*
X137804214Y-102541941D01*
X137804211Y-102541936D01*
X137804209Y-102541931D01*
X137756935Y-102460052D01*
X137712195Y-102382560D01*
X137589050Y-102245793D01*
X137440161Y-102137619D01*
X137440157Y-102137617D01*
X137440154Y-102137615D01*
X137272036Y-102062765D01*
X137272034Y-102062764D01*
X137272031Y-102062763D01*
X137272030Y-102062763D01*
X137225135Y-102052795D01*
X137092019Y-102024500D01*
X136907981Y-102024500D01*
X136810797Y-102045157D01*
X136727969Y-102062763D01*
X136727963Y-102062765D01*
X136559845Y-102137615D01*
X136559842Y-102137617D01*
X136410948Y-102245794D01*
X136287803Y-102382562D01*
X136287803Y-102382563D01*
X136195790Y-102541931D01*
X136195784Y-102541945D01*
X136138916Y-102716965D01*
X136138915Y-102716969D01*
X136138915Y-102716971D01*
X136127543Y-102825173D01*
X136119678Y-102900000D01*
X136138916Y-103083034D01*
X136195784Y-103258054D01*
X136195790Y-103258068D01*
X136280724Y-103405176D01*
X136293446Y-103465024D01*
X136268560Y-103520920D01*
X136264992Y-103524680D01*
X136023058Y-103766614D01*
X135968541Y-103794391D01*
X135908109Y-103784820D01*
X135864844Y-103741555D01*
X135855273Y-103681123D01*
X135861592Y-103658719D01*
X135863860Y-103653240D01*
X135863867Y-103653231D01*
X135875500Y-103594748D01*
X135875500Y-102205252D01*
X135863867Y-102146769D01*
X135819552Y-102080448D01*
X135793088Y-102062765D01*
X135753233Y-102036134D01*
X135753231Y-102036133D01*
X135753228Y-102036132D01*
X135753227Y-102036132D01*
X135694758Y-102024501D01*
X135694748Y-102024500D01*
X134305252Y-102024500D01*
X134305251Y-102024500D01*
X134305241Y-102024501D01*
X134246772Y-102036132D01*
X134246766Y-102036134D01*
X134180451Y-102080445D01*
X134180445Y-102080451D01*
X134136134Y-102146766D01*
X134136132Y-102146772D01*
X134124501Y-102205241D01*
X134124500Y-102205253D01*
X134124500Y-103594746D01*
X134124501Y-103594758D01*
X134136131Y-103653223D01*
X134136133Y-103653231D01*
X134147671Y-103670499D01*
X134164280Y-103729385D01*
X134143103Y-103786789D01*
X134092230Y-103820783D01*
X134065356Y-103824500D01*
X133624500Y-103824500D01*
X133566309Y-103805593D01*
X133530345Y-103756093D01*
X133525500Y-103725500D01*
X133525500Y-99357148D01*
X133525500Y-99357147D01*
X133503318Y-99274362D01*
X133503318Y-99274361D01*
X133503318Y-99274360D01*
X133460468Y-99200142D01*
X133460466Y-99200140D01*
X133460465Y-99200138D01*
X131624396Y-97364069D01*
X132849500Y-97364069D01*
X132874499Y-97489742D01*
X132874500Y-97489747D01*
X132923534Y-97608125D01*
X132923538Y-97608133D01*
X132966365Y-97672226D01*
X132994724Y-97714669D01*
X133085331Y-97805276D01*
X133148848Y-97847717D01*
X133191866Y-97876461D01*
X133191870Y-97876463D01*
X133191873Y-97876465D01*
X133310256Y-97925501D01*
X133435931Y-97950500D01*
X133435932Y-97950500D01*
X133564068Y-97950500D01*
X133564069Y-97950500D01*
X133689744Y-97925501D01*
X133808127Y-97876465D01*
X133914669Y-97805276D01*
X134005276Y-97714669D01*
X134076465Y-97608127D01*
X134125501Y-97489744D01*
X134150500Y-97364069D01*
X136449500Y-97364069D01*
X136474499Y-97489742D01*
X136474500Y-97489747D01*
X136523534Y-97608125D01*
X136523538Y-97608133D01*
X136566365Y-97672226D01*
X136594724Y-97714669D01*
X136685331Y-97805276D01*
X136748848Y-97847717D01*
X136791866Y-97876461D01*
X136791870Y-97876463D01*
X136791873Y-97876465D01*
X136910256Y-97925501D01*
X137035931Y-97950500D01*
X137035932Y-97950500D01*
X137164068Y-97950500D01*
X137164069Y-97950500D01*
X137289744Y-97925501D01*
X137408127Y-97876465D01*
X137514669Y-97805276D01*
X137605276Y-97714669D01*
X137676465Y-97608127D01*
X137725501Y-97489744D01*
X137750500Y-97364069D01*
X140349500Y-97364069D01*
X140374499Y-97489742D01*
X140374500Y-97489747D01*
X140423534Y-97608125D01*
X140423538Y-97608133D01*
X140466365Y-97672226D01*
X140494724Y-97714669D01*
X140585331Y-97805276D01*
X140648848Y-97847717D01*
X140691866Y-97876461D01*
X140691870Y-97876463D01*
X140691873Y-97876465D01*
X140810256Y-97925501D01*
X140935931Y-97950500D01*
X140935932Y-97950500D01*
X141064068Y-97950500D01*
X141064069Y-97950500D01*
X141189744Y-97925501D01*
X141308127Y-97876465D01*
X141414669Y-97805276D01*
X141505276Y-97714669D01*
X141576465Y-97608127D01*
X141625501Y-97489744D01*
X141650500Y-97364069D01*
X141650500Y-97235931D01*
X141625501Y-97110256D01*
X141576465Y-96991873D01*
X141576463Y-96991870D01*
X141576461Y-96991866D01*
X141524129Y-96913547D01*
X141505276Y-96885331D01*
X141414669Y-96794724D01*
X141353108Y-96753590D01*
X141308133Y-96723538D01*
X141308125Y-96723534D01*
X141189747Y-96674500D01*
X141189745Y-96674499D01*
X141189744Y-96674499D01*
X141064069Y-96649500D01*
X140935931Y-96649500D01*
X140935930Y-96649500D01*
X140873093Y-96661999D01*
X140810256Y-96674499D01*
X140810255Y-96674499D01*
X140810252Y-96674500D01*
X140691874Y-96723534D01*
X140691866Y-96723538D01*
X140585331Y-96794724D01*
X140585327Y-96794727D01*
X140494727Y-96885327D01*
X140494724Y-96885331D01*
X140423538Y-96991866D01*
X140423534Y-96991874D01*
X140374500Y-97110252D01*
X140374499Y-97110257D01*
X140349500Y-97235930D01*
X140349500Y-97364069D01*
X137750500Y-97364069D01*
X137750500Y-97235931D01*
X137725501Y-97110256D01*
X137676465Y-96991873D01*
X137676463Y-96991870D01*
X137676461Y-96991866D01*
X137624129Y-96913547D01*
X137605276Y-96885331D01*
X137514669Y-96794724D01*
X137453108Y-96753590D01*
X137408133Y-96723538D01*
X137408125Y-96723534D01*
X137289747Y-96674500D01*
X137289745Y-96674499D01*
X137289744Y-96674499D01*
X137164069Y-96649500D01*
X137035931Y-96649500D01*
X137035930Y-96649500D01*
X136973093Y-96661999D01*
X136910256Y-96674499D01*
X136910255Y-96674499D01*
X136910252Y-96674500D01*
X136791874Y-96723534D01*
X136791866Y-96723538D01*
X136685331Y-96794724D01*
X136685327Y-96794727D01*
X136594727Y-96885327D01*
X136594724Y-96885331D01*
X136523538Y-96991866D01*
X136523534Y-96991874D01*
X136474500Y-97110252D01*
X136474499Y-97110257D01*
X136449500Y-97235930D01*
X136449500Y-97364069D01*
X134150500Y-97364069D01*
X134150500Y-97235931D01*
X134125501Y-97110256D01*
X134076465Y-96991873D01*
X134076463Y-96991870D01*
X134076461Y-96991866D01*
X134024129Y-96913547D01*
X134005276Y-96885331D01*
X133914669Y-96794724D01*
X133853108Y-96753590D01*
X133808133Y-96723538D01*
X133808125Y-96723534D01*
X133689747Y-96674500D01*
X133689745Y-96674499D01*
X133689744Y-96674499D01*
X133564069Y-96649500D01*
X133435931Y-96649500D01*
X133435930Y-96649500D01*
X133373093Y-96661999D01*
X133310256Y-96674499D01*
X133310255Y-96674499D01*
X133310252Y-96674500D01*
X133191874Y-96723534D01*
X133191866Y-96723538D01*
X133085331Y-96794724D01*
X133085327Y-96794727D01*
X132994727Y-96885327D01*
X132994724Y-96885331D01*
X132923538Y-96991866D01*
X132923534Y-96991874D01*
X132874500Y-97110252D01*
X132874499Y-97110257D01*
X132849500Y-97235930D01*
X132849500Y-97364069D01*
X131624396Y-97364069D01*
X129999862Y-95739535D01*
X129999859Y-95739533D01*
X129999857Y-95739531D01*
X129925642Y-95696683D01*
X129925644Y-95696683D01*
X129893521Y-95688076D01*
X129842853Y-95674500D01*
X129842851Y-95674500D01*
X125348932Y-95674500D01*
X125348916Y-95674499D01*
X125342853Y-95674499D01*
X125257147Y-95674499D01*
X125257144Y-95674499D01*
X125174361Y-95696681D01*
X125150834Y-95710265D01*
X125137250Y-95718108D01*
X125113721Y-95731692D01*
X125100137Y-95739535D01*
X125039534Y-95800137D01*
X125039535Y-95800138D01*
X125039533Y-95800140D01*
X125039532Y-95800140D01*
X124405476Y-96434194D01*
X124350960Y-96461971D01*
X124325769Y-96462713D01*
X124140003Y-96444417D01*
X124139997Y-96444417D01*
X123934070Y-96464698D01*
X123934065Y-96464699D01*
X123736045Y-96524768D01*
X123553547Y-96622316D01*
X123393595Y-96753585D01*
X123393585Y-96753595D01*
X123262316Y-96913547D01*
X123164768Y-97096045D01*
X123104699Y-97294065D01*
X123104698Y-97294070D01*
X123084417Y-97499996D01*
X123084417Y-97500003D01*
X123104698Y-97705929D01*
X123104699Y-97705934D01*
X123164768Y-97903954D01*
X123262316Y-98086452D01*
X123393585Y-98246404D01*
X123393590Y-98246410D01*
X123393595Y-98246414D01*
X123553547Y-98377683D01*
X123553548Y-98377683D01*
X123553550Y-98377685D01*
X123736046Y-98475232D01*
X123873997Y-98517078D01*
X123934065Y-98535300D01*
X123934070Y-98535301D01*
X124139997Y-98555583D01*
X124140000Y-98555583D01*
X124140003Y-98555583D01*
X124345929Y-98535301D01*
X124345934Y-98535300D01*
X124543954Y-98475232D01*
X124726450Y-98377685D01*
X124886410Y-98246410D01*
X125017685Y-98086450D01*
X125115232Y-97903954D01*
X125175300Y-97705934D01*
X125175301Y-97705929D01*
X125195583Y-97500003D01*
X125195583Y-97499996D01*
X125182195Y-97364069D01*
X127349500Y-97364069D01*
X127374499Y-97489742D01*
X127374500Y-97489747D01*
X127423534Y-97608125D01*
X127423538Y-97608133D01*
X127466365Y-97672226D01*
X127494724Y-97714669D01*
X127585331Y-97805276D01*
X127648848Y-97847717D01*
X127691866Y-97876461D01*
X127691870Y-97876463D01*
X127691873Y-97876465D01*
X127810256Y-97925501D01*
X127935931Y-97950500D01*
X127935932Y-97950500D01*
X128064068Y-97950500D01*
X128064069Y-97950500D01*
X128189744Y-97925501D01*
X128308127Y-97876465D01*
X128414669Y-97805276D01*
X128505276Y-97714669D01*
X128576465Y-97608127D01*
X128625501Y-97489744D01*
X128650500Y-97364069D01*
X128650500Y-97235931D01*
X128625501Y-97110256D01*
X128576465Y-96991873D01*
X128576463Y-96991870D01*
X128576461Y-96991866D01*
X128524129Y-96913547D01*
X128505276Y-96885331D01*
X128414669Y-96794724D01*
X128353108Y-96753590D01*
X128308133Y-96723538D01*
X128308125Y-96723534D01*
X128189747Y-96674500D01*
X128189745Y-96674499D01*
X128189744Y-96674499D01*
X128064069Y-96649500D01*
X127935931Y-96649500D01*
X127935930Y-96649500D01*
X127873093Y-96661999D01*
X127810256Y-96674499D01*
X127810255Y-96674499D01*
X127810252Y-96674500D01*
X127691874Y-96723534D01*
X127691866Y-96723538D01*
X127585331Y-96794724D01*
X127585327Y-96794727D01*
X127494727Y-96885327D01*
X127494724Y-96885331D01*
X127423538Y-96991866D01*
X127423534Y-96991874D01*
X127374500Y-97110252D01*
X127374499Y-97110257D01*
X127349500Y-97235930D01*
X127349500Y-97364069D01*
X125182195Y-97364069D01*
X125175301Y-97294070D01*
X125175300Y-97294065D01*
X125157078Y-97233997D01*
X125115232Y-97096046D01*
X125017685Y-96913550D01*
X124997569Y-96889038D01*
X124975270Y-96832061D01*
X124990719Y-96772859D01*
X125004095Y-96756230D01*
X125405831Y-96354496D01*
X125460347Y-96326719D01*
X125475834Y-96325500D01*
X129624165Y-96325500D01*
X129682356Y-96344407D01*
X129694169Y-96354496D01*
X132845504Y-99505831D01*
X132873281Y-99560348D01*
X132874500Y-99575835D01*
X132874500Y-104107147D01*
X132874500Y-109907147D01*
X132874500Y-109992853D01*
X132886146Y-110036317D01*
X132896683Y-110075643D01*
X132939531Y-110149857D01*
X132939533Y-110149859D01*
X132939535Y-110149862D01*
X133370505Y-110580832D01*
X133398281Y-110635347D01*
X133399500Y-110650834D01*
X133399500Y-111903467D01*
X133439869Y-112106418D01*
X133519058Y-112297597D01*
X133579919Y-112388682D01*
X133634023Y-112469655D01*
X133780345Y-112615977D01*
X133952402Y-112730941D01*
X134142147Y-112809536D01*
X134188672Y-112849273D01*
X134202956Y-112908767D01*
X134179541Y-112965295D01*
X134127372Y-112997265D01*
X134104261Y-113000000D01*
X129162234Y-113000000D01*
X129104043Y-112981093D01*
X129068079Y-112931593D01*
X129068079Y-112870407D01*
X129104043Y-112820907D01*
X129131641Y-112806845D01*
X129162849Y-112796705D01*
X129313685Y-112719850D01*
X129450641Y-112620346D01*
X129570346Y-112500641D01*
X129669850Y-112363685D01*
X129746705Y-112212849D01*
X129799018Y-112051847D01*
X129821540Y-111909647D01*
X129825500Y-111884647D01*
X129825500Y-110625834D01*
X129844407Y-110567643D01*
X129854490Y-110555836D01*
X131110465Y-109299862D01*
X131153317Y-109225639D01*
X131153318Y-109225638D01*
X131175500Y-109142853D01*
X131175500Y-103777722D01*
X131194407Y-103719531D01*
X131234230Y-103687282D01*
X131290161Y-103662381D01*
X131439050Y-103554207D01*
X131562195Y-103417440D01*
X131654214Y-103258059D01*
X131711085Y-103083029D01*
X131730322Y-102900000D01*
X131711085Y-102716971D01*
X131654214Y-102541941D01*
X131654211Y-102541936D01*
X131654209Y-102541931D01*
X131606935Y-102460052D01*
X131562195Y-102382560D01*
X131439050Y-102245793D01*
X131290161Y-102137619D01*
X131290157Y-102137617D01*
X131290154Y-102137615D01*
X131122036Y-102062765D01*
X131122034Y-102062764D01*
X131122031Y-102062763D01*
X131122030Y-102062763D01*
X131075135Y-102052795D01*
X130942019Y-102024500D01*
X130757981Y-102024500D01*
X130660797Y-102045157D01*
X130577969Y-102062763D01*
X130577963Y-102062765D01*
X130409845Y-102137615D01*
X130409842Y-102137617D01*
X130260948Y-102245794D01*
X130137803Y-102382562D01*
X130137803Y-102382563D01*
X130045790Y-102541931D01*
X130045784Y-102541945D01*
X129988916Y-102716965D01*
X129988915Y-102716969D01*
X129988915Y-102716971D01*
X129977543Y-102825173D01*
X129969678Y-102900000D01*
X129988916Y-103083034D01*
X130045784Y-103258054D01*
X130045790Y-103258068D01*
X130118893Y-103384684D01*
X130137805Y-103417440D01*
X130260950Y-103554207D01*
X130409839Y-103662381D01*
X130465768Y-103687282D01*
X130511236Y-103728221D01*
X130524500Y-103777722D01*
X130524500Y-108924164D01*
X130505593Y-108982355D01*
X130495504Y-108994168D01*
X129650333Y-109839339D01*
X129595816Y-109867116D01*
X129535384Y-109857545D01*
X129510328Y-109839341D01*
X129450641Y-109779654D01*
X129313685Y-109680150D01*
X129313684Y-109680149D01*
X129313682Y-109680148D01*
X129211910Y-109628293D01*
X129162849Y-109603295D01*
X129162846Y-109603294D01*
X129162844Y-109603293D01*
X129001842Y-109550980D01*
X128834647Y-109524500D01*
X128834644Y-109524500D01*
X128665356Y-109524500D01*
X128665353Y-109524500D01*
X128498157Y-109550980D01*
X128337155Y-109603293D01*
X128186317Y-109680148D01*
X128151908Y-109705148D01*
X128049359Y-109779654D01*
X127929654Y-109899359D01*
X127879902Y-109967837D01*
X127830148Y-110036317D01*
X127753293Y-110187155D01*
X127700980Y-110348157D01*
X127674500Y-110515352D01*
X127674500Y-110775500D01*
X127655593Y-110833691D01*
X127606093Y-110869655D01*
X127575500Y-110874500D01*
X122599500Y-110874500D01*
X122541309Y-110855593D01*
X122505345Y-110806093D01*
X122500500Y-110775500D01*
X122500500Y-110496536D01*
X122500499Y-110496532D01*
X122475958Y-110373157D01*
X122460130Y-110293580D01*
X122380941Y-110102402D01*
X122265977Y-109930345D01*
X122119655Y-109784023D01*
X122119651Y-109784020D01*
X121947597Y-109669058D01*
X121836614Y-109623087D01*
X121790088Y-109583350D01*
X121775500Y-109531623D01*
X121775500Y-106364069D01*
X122849500Y-106364069D01*
X122874469Y-106489595D01*
X122874499Y-106489742D01*
X122874500Y-106489747D01*
X122923534Y-106608125D01*
X122923538Y-106608133D01*
X122933830Y-106623535D01*
X122994724Y-106714669D01*
X123085331Y-106805276D01*
X123148848Y-106847717D01*
X123191866Y-106876461D01*
X123191870Y-106876463D01*
X123191873Y-106876465D01*
X123310256Y-106925501D01*
X123435931Y-106950500D01*
X123435932Y-106950500D01*
X123565753Y-106950500D01*
X123623944Y-106969407D01*
X123659908Y-107018907D01*
X123662851Y-107068815D01*
X123649500Y-107135930D01*
X123649500Y-108164069D01*
X123674499Y-108289742D01*
X123674500Y-108289747D01*
X123723534Y-108408125D01*
X123723538Y-108408133D01*
X123766365Y-108472226D01*
X123794724Y-108514669D01*
X123885331Y-108605276D01*
X123948848Y-108647717D01*
X123991866Y-108676461D01*
X123991870Y-108676463D01*
X123991873Y-108676465D01*
X124110256Y-108725501D01*
X124235931Y-108750500D01*
X124235932Y-108750500D01*
X124364068Y-108750500D01*
X124364069Y-108750500D01*
X124489744Y-108725501D01*
X124608127Y-108676465D01*
X124714669Y-108605276D01*
X124805276Y-108514669D01*
X124876465Y-108408127D01*
X124925501Y-108289744D01*
X124950500Y-108164069D01*
X124950500Y-107135931D01*
X124937149Y-107068813D01*
X124944340Y-107008054D01*
X124985873Y-106963123D01*
X125034247Y-106950500D01*
X125165753Y-106950500D01*
X125223944Y-106969407D01*
X125259908Y-107018907D01*
X125262851Y-107068815D01*
X125249500Y-107135930D01*
X125249500Y-108164069D01*
X125274499Y-108289742D01*
X125274500Y-108289747D01*
X125323534Y-108408125D01*
X125323538Y-108408133D01*
X125366365Y-108472226D01*
X125394724Y-108514669D01*
X125485331Y-108605276D01*
X125548848Y-108647717D01*
X125591866Y-108676461D01*
X125591870Y-108676463D01*
X125591873Y-108676465D01*
X125710256Y-108725501D01*
X125835931Y-108750500D01*
X125835932Y-108750500D01*
X125964068Y-108750500D01*
X125964069Y-108750500D01*
X126089744Y-108725501D01*
X126208127Y-108676465D01*
X126314669Y-108605276D01*
X126405276Y-108514669D01*
X126476465Y-108408127D01*
X126525501Y-108289744D01*
X126550500Y-108164069D01*
X126550500Y-107135931D01*
X126525501Y-107010256D01*
X126476465Y-106891873D01*
X126466683Y-106877233D01*
X126450000Y-106822233D01*
X126450000Y-106394975D01*
X126485095Y-106430070D01*
X126564905Y-106476148D01*
X126653922Y-106500000D01*
X126746078Y-106500000D01*
X126835095Y-106476148D01*
X126914905Y-106430070D01*
X126950000Y-106394975D01*
X126950000Y-106900000D01*
X127007887Y-106876023D01*
X127114347Y-106804890D01*
X127204890Y-106714347D01*
X127276022Y-106607889D01*
X127325019Y-106489601D01*
X127325021Y-106489595D01*
X127349999Y-106364021D01*
X127350000Y-106364017D01*
X127350000Y-106100001D01*
X127349999Y-106100000D01*
X127048949Y-106100000D01*
X127026148Y-106014905D01*
X126980070Y-105935095D01*
X126914905Y-105869930D01*
X126835095Y-105823852D01*
X126746078Y-105800000D01*
X126653922Y-105800000D01*
X126564905Y-105823852D01*
X126485095Y-105869930D01*
X126450000Y-105905025D01*
X126450000Y-104799998D01*
X126950000Y-104799998D01*
X126950000Y-105599999D01*
X126950001Y-105600000D01*
X127349999Y-105600000D01*
X127350000Y-105599999D01*
X127350000Y-105335982D01*
X127349999Y-105335978D01*
X127325021Y-105210404D01*
X127325019Y-105210398D01*
X127276022Y-105092110D01*
X127204890Y-104985652D01*
X127114347Y-104895109D01*
X127007895Y-104823981D01*
X127007890Y-104823978D01*
X126950000Y-104799998D01*
X126450000Y-104799998D01*
X126449999Y-104799998D01*
X126392109Y-104823978D01*
X126392105Y-104823980D01*
X126379500Y-104832403D01*
X126320611Y-104849010D01*
X126263208Y-104827831D01*
X126229216Y-104776957D01*
X126225500Y-104750086D01*
X126225500Y-103594746D01*
X127974500Y-103594746D01*
X127974501Y-103594758D01*
X127986132Y-103653227D01*
X127986134Y-103653233D01*
X127992249Y-103662384D01*
X128030448Y-103719552D01*
X128096769Y-103763867D01*
X128141231Y-103772711D01*
X128155241Y-103775498D01*
X128155246Y-103775498D01*
X128155252Y-103775500D01*
X128155253Y-103775500D01*
X129544747Y-103775500D01*
X129544748Y-103775500D01*
X129603231Y-103763867D01*
X129669552Y-103719552D01*
X129713867Y-103653231D01*
X129725500Y-103594748D01*
X129725500Y-102205252D01*
X129713867Y-102146769D01*
X129669552Y-102080448D01*
X129643088Y-102062765D01*
X129603233Y-102036134D01*
X129603231Y-102036133D01*
X129603228Y-102036132D01*
X129603227Y-102036132D01*
X129544758Y-102024501D01*
X129544748Y-102024500D01*
X128155252Y-102024500D01*
X128155251Y-102024500D01*
X128155241Y-102024501D01*
X128096772Y-102036132D01*
X128096766Y-102036134D01*
X128030451Y-102080445D01*
X128030445Y-102080451D01*
X127986134Y-102146766D01*
X127986132Y-102146772D01*
X127974501Y-102205241D01*
X127974500Y-102205253D01*
X127974500Y-103594746D01*
X126225500Y-103594746D01*
X126225500Y-101975834D01*
X126244407Y-101917643D01*
X126254490Y-101905836D01*
X126937035Y-101223290D01*
X126991550Y-101195515D01*
X127019953Y-101195143D01*
X127100000Y-101205682D01*
X127256762Y-101185044D01*
X127402841Y-101124536D01*
X127528282Y-101028282D01*
X127577428Y-100964232D01*
X127627852Y-100929577D01*
X127655970Y-100925500D01*
X130242851Y-100925500D01*
X130242853Y-100925500D01*
X130325639Y-100903318D01*
X130325641Y-100903316D01*
X130325643Y-100903316D01*
X130399857Y-100860468D01*
X130399857Y-100860467D01*
X130399862Y-100860465D01*
X131137035Y-100123290D01*
X131191550Y-100095515D01*
X131219953Y-100095143D01*
X131300000Y-100105682D01*
X131456762Y-100085044D01*
X131602841Y-100024536D01*
X131728282Y-99928282D01*
X131824536Y-99802841D01*
X131885044Y-99656762D01*
X131905682Y-99500000D01*
X131885044Y-99343238D01*
X131824537Y-99197161D01*
X131824537Y-99197160D01*
X131728286Y-99071723D01*
X131728285Y-99071722D01*
X131728282Y-99071718D01*
X131728277Y-99071714D01*
X131728276Y-99071713D01*
X131602838Y-98975462D01*
X131456766Y-98914957D01*
X131456758Y-98914955D01*
X131300001Y-98894318D01*
X131299999Y-98894318D01*
X131143241Y-98914955D01*
X131143233Y-98914957D01*
X130997161Y-98975462D01*
X130997160Y-98975462D01*
X130871723Y-99071713D01*
X130871713Y-99071723D01*
X130775462Y-99197160D01*
X130775462Y-99197161D01*
X130714957Y-99343233D01*
X130714955Y-99343241D01*
X130694318Y-99499999D01*
X130694318Y-99500000D01*
X130704855Y-99580039D01*
X130693705Y-99640200D01*
X130676706Y-99662964D01*
X130094169Y-100245503D01*
X130039652Y-100273281D01*
X130024165Y-100274500D01*
X127655970Y-100274500D01*
X127597779Y-100255593D01*
X127577428Y-100235767D01*
X127528285Y-100171722D01*
X127528282Y-100171718D01*
X127528277Y-100171714D01*
X127528276Y-100171713D01*
X127402838Y-100075462D01*
X127256766Y-100014957D01*
X127256758Y-100014955D01*
X127100001Y-99994318D01*
X127099999Y-99994318D01*
X126943241Y-100014955D01*
X126943233Y-100014957D01*
X126797161Y-100075462D01*
X126797160Y-100075462D01*
X126671723Y-100171713D01*
X126671713Y-100171723D01*
X126575462Y-100297160D01*
X126575462Y-100297161D01*
X126514957Y-100443233D01*
X126514955Y-100443241D01*
X126494318Y-100599999D01*
X126494318Y-100600000D01*
X126504855Y-100680039D01*
X126493705Y-100740200D01*
X126476706Y-100762964D01*
X125639535Y-101600137D01*
X125639531Y-101600142D01*
X125596682Y-101674360D01*
X125596681Y-101674360D01*
X125596682Y-101674361D01*
X125574500Y-101757147D01*
X125574500Y-104749485D01*
X125555593Y-104807676D01*
X125506093Y-104843640D01*
X125444907Y-104843640D01*
X125420499Y-104831801D01*
X125408132Y-104823537D01*
X125408125Y-104823534D01*
X125289747Y-104774500D01*
X125289745Y-104774499D01*
X125289744Y-104774499D01*
X125164069Y-104749500D01*
X125035931Y-104749500D01*
X125035930Y-104749500D01*
X124973093Y-104761999D01*
X124910256Y-104774499D01*
X124910255Y-104774499D01*
X124910252Y-104774500D01*
X124791874Y-104823534D01*
X124791866Y-104823538D01*
X124685331Y-104894724D01*
X124685327Y-104894727D01*
X124594727Y-104985327D01*
X124594724Y-104985331D01*
X124523538Y-105091866D01*
X124523534Y-105091874D01*
X124474500Y-105210252D01*
X124474499Y-105210257D01*
X124449500Y-105335930D01*
X124449500Y-106364069D01*
X124462851Y-106431185D01*
X124455660Y-106491946D01*
X124414127Y-106536877D01*
X124365753Y-106549500D01*
X124234247Y-106549500D01*
X124176056Y-106530593D01*
X124140092Y-106481093D01*
X124137149Y-106431185D01*
X124137371Y-106430070D01*
X124150500Y-106364069D01*
X124150500Y-105335931D01*
X124125501Y-105210256D01*
X124076465Y-105091873D01*
X124076463Y-105091870D01*
X124076461Y-105091866D01*
X124047717Y-105048848D01*
X124005276Y-104985331D01*
X123914669Y-104894724D01*
X123872226Y-104866365D01*
X123808133Y-104823538D01*
X123808125Y-104823534D01*
X123689747Y-104774500D01*
X123689745Y-104774499D01*
X123689744Y-104774499D01*
X123564069Y-104749500D01*
X123435931Y-104749500D01*
X123435930Y-104749500D01*
X123373093Y-104761999D01*
X123310256Y-104774499D01*
X123310255Y-104774499D01*
X123310252Y-104774500D01*
X123191874Y-104823534D01*
X123191866Y-104823538D01*
X123085331Y-104894724D01*
X123085327Y-104894727D01*
X122994727Y-104985327D01*
X122994724Y-104985331D01*
X122923538Y-105091866D01*
X122923534Y-105091874D01*
X122874500Y-105210252D01*
X122874499Y-105210255D01*
X122874499Y-105210256D01*
X122849500Y-105335931D01*
X122849500Y-106364069D01*
X121775500Y-106364069D01*
X121775500Y-105825834D01*
X121794407Y-105767643D01*
X121804490Y-105755836D01*
X124400465Y-103159862D01*
X124443317Y-103085639D01*
X124443318Y-103085638D01*
X124465500Y-103002853D01*
X124465500Y-102572453D01*
X124484407Y-102514262D01*
X124533907Y-102478298D01*
X124535633Y-102477755D01*
X124543954Y-102475232D01*
X124726450Y-102377685D01*
X124886410Y-102246410D01*
X125017685Y-102086450D01*
X125115232Y-101903954D01*
X125175300Y-101705934D01*
X125175301Y-101705929D01*
X125195583Y-101500003D01*
X125195583Y-101499996D01*
X125175301Y-101294070D01*
X125175300Y-101294065D01*
X125142228Y-101185042D01*
X125115232Y-101096046D01*
X125017685Y-100913550D01*
X125009286Y-100903316D01*
X124886414Y-100753595D01*
X124886410Y-100753590D01*
X124870094Y-100740200D01*
X124726452Y-100622316D01*
X124543954Y-100524768D01*
X124345934Y-100464699D01*
X124345929Y-100464698D01*
X124140003Y-100444417D01*
X124139997Y-100444417D01*
X123934070Y-100464698D01*
X123934065Y-100464699D01*
X123736045Y-100524768D01*
X123553547Y-100622316D01*
X123393595Y-100753585D01*
X123393585Y-100753595D01*
X123262316Y-100913547D01*
X123164768Y-101096045D01*
X123104699Y-101294065D01*
X123104698Y-101294070D01*
X123084417Y-101499996D01*
X123084417Y-101500003D01*
X123104698Y-101705929D01*
X123104699Y-101705934D01*
X123164768Y-101903954D01*
X123262316Y-102086452D01*
X123393084Y-102245793D01*
X123393590Y-102246410D01*
X123393595Y-102246414D01*
X123553547Y-102377683D01*
X123553548Y-102377683D01*
X123553550Y-102377685D01*
X123736046Y-102475232D01*
X123744236Y-102477716D01*
X123794431Y-102512697D01*
X123814481Y-102570504D01*
X123814500Y-102572453D01*
X123814500Y-102784165D01*
X123795593Y-102842356D01*
X123785504Y-102854169D01*
X121189531Y-105450142D01*
X121146682Y-105524360D01*
X121146681Y-105524360D01*
X121146682Y-105524361D01*
X121124500Y-105607147D01*
X121124500Y-109531623D01*
X121105593Y-109589814D01*
X121063386Y-109623087D01*
X120952402Y-109669058D01*
X120780348Y-109784020D01*
X120634020Y-109930348D01*
X120519058Y-110102402D01*
X120439869Y-110293581D01*
X120399500Y-110496532D01*
X120399500Y-111903467D01*
X120439869Y-112106418D01*
X120519058Y-112297597D01*
X120579919Y-112388682D01*
X120634023Y-112469655D01*
X120780345Y-112615977D01*
X120952402Y-112730941D01*
X121142147Y-112809536D01*
X121188672Y-112849273D01*
X121202956Y-112908767D01*
X121179541Y-112965295D01*
X121127372Y-112997265D01*
X121104261Y-113000000D01*
X119599000Y-113000000D01*
X119540809Y-112981093D01*
X119504845Y-112931593D01*
X119500000Y-112901000D01*
X119500000Y-102369746D01*
X120549500Y-102369746D01*
X120549501Y-102369758D01*
X120561132Y-102428227D01*
X120561134Y-102428233D01*
X120594197Y-102477714D01*
X120605448Y-102494552D01*
X120671769Y-102538867D01*
X120716231Y-102547711D01*
X120730241Y-102550498D01*
X120730246Y-102550498D01*
X120730252Y-102550500D01*
X120730253Y-102550500D01*
X122469747Y-102550500D01*
X122469748Y-102550500D01*
X122528231Y-102538867D01*
X122594552Y-102494552D01*
X122638867Y-102428231D01*
X122650500Y-102369748D01*
X122650500Y-100630252D01*
X122648921Y-100622316D01*
X122644482Y-100599998D01*
X122638867Y-100571769D01*
X122594552Y-100505448D01*
X122594548Y-100505445D01*
X122528233Y-100461134D01*
X122528231Y-100461133D01*
X122528228Y-100461132D01*
X122528227Y-100461132D01*
X122469758Y-100449501D01*
X122469748Y-100449500D01*
X120730252Y-100449500D01*
X120730251Y-100449500D01*
X120730241Y-100449501D01*
X120671772Y-100461132D01*
X120671766Y-100461134D01*
X120605451Y-100505445D01*
X120605445Y-100505451D01*
X120561134Y-100571766D01*
X120561132Y-100571772D01*
X120549501Y-100630241D01*
X120549500Y-100630253D01*
X120549500Y-102369746D01*
X119500000Y-102369746D01*
X119500000Y-98369746D01*
X120549500Y-98369746D01*
X120549501Y-98369758D01*
X120561132Y-98428227D01*
X120561134Y-98428233D01*
X120605445Y-98494548D01*
X120605448Y-98494552D01*
X120671769Y-98538867D01*
X120716231Y-98547711D01*
X120730241Y-98550498D01*
X120730246Y-98550498D01*
X120730252Y-98550500D01*
X120730253Y-98550500D01*
X122469747Y-98550500D01*
X122469748Y-98550500D01*
X122528231Y-98538867D01*
X122594552Y-98494552D01*
X122638867Y-98428231D01*
X122650500Y-98369748D01*
X122650500Y-96630252D01*
X122648921Y-96622316D01*
X122647711Y-96616231D01*
X122638867Y-96571769D01*
X122594552Y-96505448D01*
X122594548Y-96505445D01*
X122528233Y-96461134D01*
X122528231Y-96461133D01*
X122528228Y-96461132D01*
X122528227Y-96461132D01*
X122469758Y-96449501D01*
X122469748Y-96449500D01*
X120730252Y-96449500D01*
X120730251Y-96449500D01*
X120730241Y-96449501D01*
X120671772Y-96461132D01*
X120671766Y-96461134D01*
X120605451Y-96505445D01*
X120605445Y-96505451D01*
X120561134Y-96571766D01*
X120561132Y-96571772D01*
X120549501Y-96630241D01*
X120549500Y-96630253D01*
X120549500Y-98369746D01*
X119500000Y-98369746D01*
X119500000Y-95099000D01*
X119518907Y-95040809D01*
X119568407Y-95004845D01*
X119599000Y-95000000D01*
X143401000Y-95000000D01*
X143459191Y-95018907D01*
G37*
%TD.AperFunction*%
%TD*%
M02*
