%TF.GenerationSoftware,KiCad,Pcbnew,8.0.1*%
%TF.CreationDate,2024-04-23T13:44:49-04:00*%
%TF.ProjectId,HearingProbeBoard,48656172-696e-4675-9072-6f6265426f61,rev?*%
%TF.SameCoordinates,Original*%
%TF.FileFunction,Legend,Bot*%
%TF.FilePolarity,Positive*%
%FSLAX46Y46*%
G04 Gerber Fmt 4.6, Leading zero omitted, Abs format (unit mm)*
G04 Created by KiCad (PCBNEW 8.0.1) date 2024-04-23 13:44:49*
%MOMM*%
%LPD*%
G01*
G04 APERTURE LIST*
%ADD10C,0.150000*%
%ADD11C,0.100000*%
%ADD12C,0.200000*%
G04 APERTURE END LIST*
D10*
X121136779Y-99611133D02*
X121898684Y-99611133D01*
X121517731Y-99230180D02*
X121517731Y-99992085D01*
X123898684Y-99611133D02*
X124660589Y-99611133D01*
X133484649Y-108319819D02*
X133084649Y-108319819D01*
X133284649Y-109319819D02*
X133284649Y-108319819D01*
X132717983Y-108843628D02*
X132717983Y-109319819D01*
X132951316Y-108319819D02*
X132717983Y-108843628D01*
X132717983Y-108843628D02*
X132484649Y-108319819D01*
X132251316Y-109319819D02*
X132251316Y-108319819D01*
X132251316Y-108319819D02*
X132017983Y-109034104D01*
X132017983Y-109034104D02*
X131784649Y-108319819D01*
X131784649Y-108319819D02*
X131784649Y-109319819D01*
X131451316Y-109319819D02*
X131451316Y-108319819D01*
X131451316Y-108319819D02*
X131184649Y-108319819D01*
X131184649Y-108319819D02*
X131117983Y-108367438D01*
X131117983Y-108367438D02*
X131084649Y-108415057D01*
X131084649Y-108415057D02*
X131051316Y-108510295D01*
X131051316Y-108510295D02*
X131051316Y-108653152D01*
X131051316Y-108653152D02*
X131084649Y-108748390D01*
X131084649Y-108748390D02*
X131117983Y-108796009D01*
X131117983Y-108796009D02*
X131184649Y-108843628D01*
X131184649Y-108843628D02*
X131451316Y-108843628D01*
X130784649Y-109034104D02*
X130451316Y-109034104D01*
X130851316Y-109319819D02*
X130617983Y-108319819D01*
X130617983Y-108319819D02*
X130384649Y-109319819D01*
X130151316Y-109319819D02*
X130151316Y-108319819D01*
X130151316Y-108319819D02*
X129751316Y-109319819D01*
X129751316Y-109319819D02*
X129751316Y-108319819D01*
X128536779Y-101361133D02*
X129298684Y-101361133D01*
X128917731Y-100980180D02*
X128917731Y-101742085D01*
X130536779Y-101361133D02*
X131298684Y-101361133D01*
X134636779Y-101261133D02*
X135398684Y-101261133D01*
X135017731Y-100880180D02*
X135017731Y-101642085D01*
X136636779Y-101261133D02*
X137398684Y-101261133D01*
D11*
%TO.C,MIC3*%
X135600000Y-95980000D02*
X135600000Y-99980000D01*
X135600000Y-99980000D02*
X138600000Y-99980000D01*
X138600000Y-95980000D02*
X135600000Y-95980000D01*
X138600000Y-99980000D02*
X138600000Y-95980000D01*
%TO.C,MIC1*%
X126500000Y-95980000D02*
X126500000Y-99980000D01*
X126500000Y-99980000D02*
X129500000Y-99980000D01*
X129500000Y-95980000D02*
X126500000Y-95980000D01*
X129500000Y-99980000D02*
X129500000Y-95980000D01*
%TO.C,MIC2*%
X132000000Y-95980000D02*
X132000000Y-99980000D01*
X132000000Y-99980000D02*
X135000000Y-99980000D01*
X135000000Y-95980000D02*
X132000000Y-95980000D01*
X135000000Y-99980000D02*
X135000000Y-95980000D01*
D12*
%TO.C,J2*%
X134250000Y-105950000D02*
X134250000Y-109650000D01*
X134250000Y-105950000D02*
X135850000Y-105950000D01*
X140350000Y-105950000D02*
X141950000Y-105950000D01*
X141950000Y-105950000D02*
X141950000Y-109650000D01*
%TO.C,J1*%
X121250000Y-105950000D02*
X121250000Y-109650000D01*
X121250000Y-105950000D02*
X122850000Y-105950000D01*
X127350000Y-105950000D02*
X128950000Y-105950000D01*
X128950000Y-105950000D02*
X128950000Y-109650000D01*
D11*
%TO.C,MIC4*%
X139500000Y-95980000D02*
X139500000Y-99980000D01*
X139500000Y-99980000D02*
X142500000Y-99980000D01*
X142500000Y-95980000D02*
X139500000Y-95980000D01*
X142500000Y-99980000D02*
X142500000Y-95980000D01*
%TD*%
M02*
