  0
SECTION
  2
HEADER
  9
$ACADVER
  1
AC1015
  9
$ACADMAINTVER
 70
     6
  9
$DWGCODEPAGE
  3
ANSI_1252
  9
$INSBASE
 10
0.0
 20
0.0
 30
0.0
  9
$EXTMIN
 10
0.0
 20
0.0
 30
0.0
  9
$EXTMAX
 10
22.0
 20
17.0
 30
0.0
  9
$LIMMIN
 10
0.0
 20
0.0
  9
$LIMMAX
 10
22.0
 20
17.0
  9
$ORTHOMODE
 70
     0
  9
$REGENMODE
 70
     1
  9
$FILLMODE
 70
     1
  9
$QTEXTMODE
 70
     0
  9
$MIRRTEXT
 70
     1
  9
$LTSCALE
 40
1.0
  9
$ATTMODE
 70
     1
  9
$TEXTSIZE
 40
0.1377952756
  9
$TRACEWID
 40
0.05
  9
$TEXTSTYLE
  7
Standard
  9
$CLAYER
  8
0
  9
$CELTYPE
  6
ByLayer
  9
$CECOLOR
 62
   256
  9
$CELTSCALE
 40
1.0
  9
$DISPSILH
 70
     0
  9
$DIMSCALE
 40
1.0
  9
$DIMASZ
 40
0.13
  9
$DIMEXO
 40
0.05
  9
$DIMDLI
 40
0.38
  9
$DIMRND
 40
0.0
  9
$DIMDLE
 40
0.0
  9
$DIMEXE
 40
0.125
  9
$DIMTP
 40
0.0
  9
$DIMTM
 40
0.0
  9
$DIMTXT
 40
0.1377952756
  9
$DIMCEN
 40
0.09
  9
$DIMTSZ
 40
0.0
  9
$DIMTOL
 70
     0
  9
$DIMLIM
 70
     0
  9
$DIMTIH
 70
     1
  9
$DIMTOH
 70
     1
  9
$DIMSE1
 70
     0
  9
$DIMSE2
 70
     0
  9
$DIMTAD
 70
     1
  9
$DIMZIN
 70
     1
  9
$DIMBLK
  1

  9
$DIMASO
 70
     1
  9
$DIMSHO
 70
     1
  9
$DIMPOST
  1

  9
$DIMAPOST
  1

  9
$DIMALT
 70
     0
  9
$DIMALTD
 70
     2
  9
$DIMALTF
 40
25.4
  9
$DIMLFAC
 40
0.125
  9
$DIMTOFL
 70
     0
  9
$DIMTVP
 40
0.0
  9
$DIMTIX
 70
     0
  9
$DIMSOXD
 70
     0
  9
$DIMSAH
 70
     0
  9
$DIMBLK1
  1

  9
$DIMBLK2
  1

  9
$DIMSTYLE
  2
Standard
  9
$DIMCLRD
 70
     0
  9
$DIMCLRE
 70
     0
  9
$DIMCLRT
 70
     0
  9
$DIMTFAC
 40
1.0
  9
$DIMGAP
 40
0.06
  9
$DIMJUST
 70
     0
  9
$DIMSD1
 70
     0
  9
$DIMSD2
 70
     0
  9
$DIMTOLJ
 70
     1
  9
$DIMTZIN
 70
     1
  9
$DIMALTZ
 70
     0
  9
$DIMALTTZ
 70
     0
  9
$DIMUPT
 70
     0
  9
$DIMDEC
 70
     2
  9
$DIMTDEC
 70
     2
  9
$DIMALTU
 70
     2
  9
$DIMALTTD
 70
     2
  9
$DIMTXSTY
  7
Standard
  9
$DIMAUNIT
 70
     0
  9
$DIMADEC
 70
     2
  9
$DIMALTRND
 40
0.0
  9
$DIMAZIN
 70
     0
  9
$DIMDSEP
 70
    46
  9
$DIMATFIT
 70
     3
  9
$DIMFRAC
 70
     0
  9
$DIMLDRBLK
  1

  9
$DIMLUNIT
 70
     2
  9
$DIMLWD
 70
    -2
  9
$DIMLWE
 70
    -2
  9
$DIMTMOVE
 70
     0
  9
$LUNITS
 70
     2
  9
$LUPREC
 70
     3
  9
$SKETCHINC
 40
0.1
  9
$FILLETRAD
 40
0.0
  9
$AUNITS
 70
     0
  9
$AUPREC
 70
     2
  9
$MENU
  1
.
  9
$ELEVATION
 40
0.0
  9
$PELEVATION
 40
0.0
  9
$THICKNESS
 40
0.0
  9
$LIMCHECK
 70
     0
  9
$CHAMFERA
 40
0.0
  9
$CHAMFERB
 40
0.0
  9
$CHAMFERC
 40
0.0
  9
$CHAMFERD
 40
0.0
  9
$SKPOLY
 70
     0
  9
$TDCREATE
 40
2460935.65514956
  9
$TDUCREATE
 40
2460935.821816227
  9
$TDUPDATE
 40
2460935.655152338
  9
$TDUUPDATE
 40
2460935.821819005
  9
$TDINDWG
 40
0.0000000116
  9
$TDUSRTIMER
 40
0.0000000116
  9
$USRTIMER
 70
     1
  9
$ANGBASE
 50
0.0
  9
$ANGDIR
 70
     0
  9
$PDMODE
 70
     0
  9
$PDSIZE
 40
-1.0
  9
$PLINEWID
 40
0.0
  9
$SPLFRAME
 70
     0
  9
$SPLINETYPE
 70
     6
  9
$SPLINESEGS
 70
     8
  9
$HANDSEED
  5
28F
  9
$SURFTAB1
 70
     6
  9
$SURFTAB2
 70
     6
  9
$SURFTYPE
 70
     6
  9
$SURFU
 70
     6
  9
$SURFV
 70
     6
  9
$UCSBASE
  2

  9
$UCSNAME
  2

  9
$UCSORG
 10
0.0
 20
0.0
 30
0.0
  9
$UCSXDIR
 10
1.0
 20
0.0
 30
0.0
  9
$UCSYDIR
 10
0.0
 20
1.0
 30
0.0
  9
$UCSORTHOREF
  2

  9
$UCSORTHOVIEW
 70
     0
  9
$UCSORGTOP
 10
0.0
 20
0.0
 30
0.0
  9
$UCSORGBOTTOM
 10
0.0
 20
0.0
 30
0.0
  9
$UCSORGLEFT
 10
0.0
 20
0.0
 30
0.0
  9
$UCSORGRIGHT
 10
0.0
 20
0.0
 30
0.0
  9
$UCSORGFRONT
 10
0.0
 20
0.0
 30
0.0
  9
$UCSORGBACK
 10
0.0
 20
0.0
 30
0.0
  9
$PUCSBASE
  2

  9
$PUCSNAME
  2

  9
$PUCSORG
 10
0.0
 20
0.0
 30
0.0
  9
$PUCSXDIR
 10
1.0
 20
0.0
 30
0.0
  9
$PUCSYDIR
 10
0.0
 20
1.0
 30
0.0
  9
$PUCSORTHOREF
  2

  9
$PUCSORTHOVIEW
 70
     0
  9
$PUCSORGTOP
 10
0.0
 20
0.0
 30
0.0
  9
$PUCSORGBOTTOM
 10
0.0
 20
0.0
 30
0.0
  9
$PUCSORGLEFT
 10
0.0
 20
0.0
 30
0.0
  9
$PUCSORGRIGHT
 10
0.0
 20
0.0
 30
0.0
  9
$PUCSORGFRONT
 10
0.0
 20
0.0
 30
0.0
  9
$PUCSORGBACK
 10
0.0
 20
0.0
 30
0.0
  9
$USERI1
 70
     0
  9
$USERI2
 70
     0
  9
$USERI3
 70
     0
  9
$USERI4
 70
     0
  9
$USERI5
 70
     0
  9
$USERR1
 40
0.0
  9
$USERR2
 40
0.0
  9
$USERR3
 40
0.0
  9
$USERR4
 40
0.0
  9
$USERR5
 40
0.0
  9
$WORLDVIEW
 70
     1
  9
$SHADEDGE
 70
     3
  9
$SHADEDIF
 70
    70
  9
$TILEMODE
 70
     1
  9
$MAXACTVP
 70
    64
  9
$PINSBASE
 10
0.0
 20
0.0
 30
0.0
  9
$PLIMCHECK
 70
     0
  9
$PEXTMIN
 10
1.0000000000E+20
 20
1.0000000000E+20
 30
1.0000000000E+20
  9
$PEXTMAX
 10
-1.0000000000E+20
 20
-1.0000000000E+20
 30
-1.0000000000E+20
  9
$PLIMMIN
 10
0.0
 20
0.0
  9
$PLIMMAX
 10
12.0
 20
9.0
  9
$UNITMODE
 70
     0
  9
$VISRETAIN
 70
     1
  9
$PLINEGEN
 70
     0
  9
$PSLTSCALE
 70
     1
  9
$TREEDEPTH
 70
  3020
  9
$CMLSTYLE
  2
Standard
  9
$CMLJUST
 70
     0
  9
$CMLSCALE
 40
1.0
  9
$PROXYGRAPHICS
 70
     1
  9
$MEASUREMENT
 70
     0
  9
$CELWEIGHT
370
    -1
  9
$ENDCAPS
280
     0
  9
$JOINSTYLE
280
     0
  9
$LWDISPLAY
290
     1
  9
$INSUNITS
 70
     1
  9
$HYPERLINKBASE
  1

  9
$STYLESHEET
  1

  9
$XEDIT
290
     1
  9
$CEPSNTYPE
380
     0
  9
$PSTYLEMODE
290
     1
  9
$FINGERPRINTGUID
  2
{48b370fb-954a-4d71-bd68-3d5b1f45e00a}
  9
$VERSIONGUID
  2
{FAEB1C32-E019-11D5-929B-00C0DF256EC4}
  9
$EXTNAMES
290
     1
  9
$PSVPSCALE
 40
0.0
  9
$OLESTARTUP
290
     0
  0
ENDSEC
  0
SECTION
  2
CLASSES
  0
CLASS
  1
ACDBDICTIONARYWDFLT
  2
AcDbDictionaryWithDefault
  3
ObjectDBX Classes
 90
        0
280
     0
281
     0
  0
CLASS
  1
VISUALSTYLE
  2
AcDbVisualStyle
  3
ObjectDBX Classes
 90
     4095
280
     0
281
     0
  0
CLASS
  1
MATERIAL
  2
AcDbMaterial
  3
ObjectDBX Classes
 90
     1153
280
     0
281
     0
  0
CLASS
  1
SCALE
  2
AcDbScale
  3
ObjectDBX Classes
 90
     1153
280
     0
281
     0
  0
CLASS
  1
TABLESTYLE
  2
AcDbTableStyle
  3
ObjectDBX Classes
 90
     4095
280
     0
281
     0
  0
CLASS
  1
MLEADERSTYLE
  2
AcDbMLeaderStyle
  3
ACDB_MLEADERSTYLE_CLASS
 90
     4095
280
     0
281
     0
  0
CLASS
  1
SUN
  2
AcDbSun
  3
SCENEOE
 90
     1153
280
     0
281
     0
  0
CLASS
  1
ACDBPLACEHOLDER
  2
AcDbPlaceHolder
  3
ObjectDBX Classes
 90
        0
280
     0
281
     0
  0
CLASS
  1
LAYOUT
  2
AcDbLayout
  3
ObjectDBX Classes
 90
        0
280
     0
281
     0
  0
ENDSEC
  0
SECTION
  2
TABLES
  0
TABLE
  2
VPORT
  5
8
330
0
100
AcDbSymbolTable
 70
     1
  0
VPORT
  5
29
330
8
100
AcDbSymbolTableRecord
100
AcDbViewportTableRecord
  2
*Active
 70
     0
 10
0.0
 20
0.0
 11
1.0
 21
1.0
 12
11.0
 22
8.5
 13
0.0
 23
0.0
 14
0.5
 24
0.5
 15
0.5
 25
0.5
 16
0.0
 26
0.0
 36
1.0
 17
0.0
 27
0.0
 37
0.0
 40
17.0
 41
1.2941176471
 42
50.0
 43
0.0
 44
0.0
 50
0.0
 51
0.0
 71
     0
 72
  2000
 73
     1
 74
     3
 75
     0
 76
     0
 77
     0
 78
     0
281
     0
 65
     1
110
0.0
120
0.0
130
0.0
111
1.0
121
0.0
131
0.0
112
0.0
122
1.0
132
0.0
 79
     0
146
0.0
  0
ENDTAB
  0
TABLE
  2
LTYPE
  5
5
330
0
100
AcDbSymbolTable
 70
     6
  0
LTYPE
  5
14
330
5
100
AcDbSymbolTableRecord
100
AcDbLinetypeTableRecord
  2
ByBlock
 70
     0
  3

 72
    65
 73
     0
 40
0.0
  0
LTYPE
  5
15
330
5
100
AcDbSymbolTableRecord
100
AcDbLinetypeTableRecord
  2
ByLayer
 70
     0
  3

 72
    65
 73
     0
 40
0.0
  0
LTYPE
  5
16
330
5
100
AcDbSymbolTableRecord
100
AcDbLinetypeTableRecord
  2
Continuous
 70
     0
  3
Solid line
 72
    65
 73
     0
 40
0.0
  0
LTYPE
  5
5E
330
5
100
AcDbSymbolTableRecord
100
AcDbLinetypeTableRecord
  2
HIDDEN
 70
     0
  3
Hidden __ __ __ __ __ __ __ __ __ __ __ __ __ __
 72
    65
 73
     2
 40
0.075
 49
0.05
 74
     0
 49
-0.025
 74
     0
  0
LTYPE
  5
5F
330
5
100
AcDbSymbolTableRecord
100
AcDbLinetypeTableRecord
  2
PHANTOM
 70
     0
  3
Phantom ______  __  __  ______  __  __  ______
 72
    65
 73
     6
 40
0.5
 49
0.25
 74
     0
 49
-0.05
 74
     0
 49
0.05
 74
     0
 49
-0.05
 74
     0
 49
0.05
 74
     0
 49
-0.05
 74
     0
  0
LTYPE
  5
60
330
5
100
AcDbSymbolTableRecord
100
AcDbLinetypeTableRecord
  2
CENTER
 70
     0
  3
Center ____ _ ____ _ ____ _ ____ _ ____ _ ____
 72
    65
 73
     4
 40
0.4
 49
0.25
 74
     0
 49
-0.05
 74
     0
 49
0.05
 74
     0
 49
-0.05
 74
     0
  0
LTYPE
  5
61
330
5
100
AcDbSymbolTableRecord
100
AcDbLinetypeTableRecord
  2
CENTERX2
 70
     0
  3
Center (2x) ________  __  ________  __  _____
 72
    65
 73
     4
 40
0.8
 49
0.5
 74
     0
 49
-0.1
 74
     0
 49
0.1
 74
     0
 49
-0.1
 74
     0
  0
LTYPE
  5
62
330
5
100
AcDbSymbolTableRecord
100
AcDbLinetypeTableRecord
  2
DOT2
 70
     0
  3
Dot (.5x) ........................................
 72
    65
 73
     2
 40
0.025
 49
0.0
 74
     0
 49
-0.025
 74
     0
  0
ENDTAB
  0
TABLE
  2
LAYER
  5
2
330
0
100
AcDbSymbolTable
 70
     4
  0
LAYER
  5
10
330
2
100
AcDbSymbolTableRecord
100
AcDbLayerTableRecord
  2
0
 70
     0
 62
     7
  6
Continuous
370
    -3
390
F
  0
LAYER
  5
63
330
2
100
AcDbSymbolTableRecord
100
AcDbLayerTableRecord
  2
FORMAT
 70
     0
 62
     7
  6
Continuous
370
    -3
390
F
  0
LAYER
  5
64
330
2
100
AcDbSymbolTableRecord
100
AcDbLayerTableRecord
  2
SLD-0
 70
     0
 62
   179
  6
Continuous
370
    -3
390
F
  0
LAYER
  5
65
330
2
100
AcDbSymbolTableRecord
100
AcDbLayerTableRecord
  2
AM_VIS
 70
     0
 62
   179
  6
Continuous
370
    35
390
F
  0
ENDTAB
  0
TABLE
  2
STYLE
  5
3
330
0
100
AcDbSymbolTable
 70
     3
  0
STYLE
  5
11
330
3
100
AcDbSymbolTableRecord
100
AcDbTextStyleTableRecord
  2
Standard
 70
     0
 40
0.0
 41
1.0
 50
0.0
 71
     0
 42
0.1377952756
  3
txt
  4

  0
STYLE
  5
79
330
3
100
AcDbSymbolTableRecord
100
AcDbTextStyleTableRecord
  2
SLDTEXTSTYLE0
 70
     0
 40
0.0
 41
0.605
 50
0.0
 71
     0
 42
0.1377952756
  3
TXT
  4

  0
STYLE
  5
BA
330
3
100
AcDbSymbolTableRecord
100
AcDbTextStyleTableRecord
  2
SLDTEXTSTYLE1
 70
     0
 40
0.0
 41
0.75
 50
0.0
 71
     0
 42
0.1377952756
  3
TXT
  4

  0
ENDTAB
  0
TABLE
  2
VIEW
  5
6
330
0
100
AcDbSymbolTable
 70
     0
  0
ENDTAB
  0
TABLE
  2
UCS
  5
7
330
0
100
AcDbSymbolTable
 70
     0
  0
ENDTAB
  0
TABLE
  2
APPID
  5
9
330
0
100
AcDbSymbolTable
 70
     1
  0
APPID
  5
12
330
9
100
AcDbSymbolTableRecord
100
AcDbRegAppTableRecord
  2
ACAD
 70
     0
  0
ENDTAB
  0
TABLE
  2
DIMSTYLE
  5
A
330
0
100
AcDbSymbolTable
 70
     5
100
AcDbDimStyleTable
  0
DIMSTYLE
105
27
330
A
100
AcDbSymbolTableRecord
100
AcDbDimStyleTableRecord
  2
Standard
 70
     0
178
     0
340
11
  0
DIMSTYLE
105
103
102
{ACAD_REACTORS
330
102
330
10C
330
12B
330
135
330
13F
330
149
330
15F
330
169
330
173
330
193
330
19B
330
1B8
102
}
330
A
100
AcDbSymbolTableRecord
100
AcDbDimStyleTableRecord
  2
SLDDIMSTYLE0
 70
     0
 41
0.13
 44
0.0
 45
0.000000001
 73
     0
 74
     0
 77
     1
 78
     8
 79
     2
140
0.1377952756
144
0.125
147
0.0344488189
173
     1
178
     0
271
     3
272
     3
276
     2
284
    12
340
BA
  0
DIMSTYLE
105
117
102
{ACAD_REACTORS
330
116
330
153
102
}
330
A
100
AcDbSymbolTableRecord
100
AcDbDimStyleTableRecord
  2
SLDDIMSTYLE1
 70
     0
 41
0.13
 44
0.0
 45
0.000000001
 73
     0
 74
     0
 77
     1
140
0.1377952756
144
0.125
147
0.0344488189
172
     1
173
     1
178
     0
271
     3
272
     3
276
     2
284
    12
289
     0
340
BA
  0
DIMSTYLE
105
121
102
{ACAD_REACTORS
330
120
330
1A4
330
1AE
102
}
330
A
100
AcDbSymbolTableRecord
100
AcDbDimStyleTableRecord
  2
SLDDIMSTYLE2
 70
     0
 41
0.13
 44
0.0
 45
0.000000001
 73
     0
 74
     0
 77
     1
140
0.1377952756
144
0.125
147
0.0344488189
173
     1
178
     0
271
     3
272
     3
276
     2
284
    12
340
BA
  0
DIMSTYLE
105
17E
102
{ACAD_REACTORS
330
17D
330
18A
102
}
330
A
100
AcDbSymbolTableRecord
100
AcDbDimStyleTableRecord
  2
SLDDIMSTYLE3
 70
     0
 41
0.13
 44
0.0
 45
0.000000001
 73
     0
 74
     0
 77
     1
 78
     8
 79
     2
140
0.1377952756
141
0.0
144
0.125
147
0.0344488189
172
     1
173
     1
178
     0
271
     3
272
     3
276
     2
284
    12
340
BA
341
17F
343
17F
  0
ENDTAB
  0
TABLE
  2
BLOCK_RECORD
  5
1
330
0
100
AcDbSymbolTable
 70
    39
  0
BLOCK_RECORD
  5
1F
330
1
100
AcDbSymbolTableRecord
100
AcDbBlockTableRecord
  2
*Model_Space
340
22
  0
BLOCK_RECORD
  5
1B
330
1
100
AcDbSymbolTableRecord
100
AcDbBlockTableRecord
  2
*Paper_Space
340
1E
  0
BLOCK_RECORD
  5
23
330
1
100
AcDbSymbolTableRecord
100
AcDbBlockTableRecord
  2
*Paper_Space0
340
26
  0
BLOCK_RECORD
  5
66
330
1
100
AcDbSymbolTableRecord
100
AcDbBlockTableRecord
  2
Creare Cont. Sheet2
340
0
102
{BLKREFS
331
B8
102
}
  0
BLOCK_RECORD
  5
76
330
1
100
AcDbSymbolTableRecord
100
AcDbBlockTableRecord
  2
SW_NOTE_0
340
0
102
{BLKREFS
331
7B
102
}
  0
BLOCK_RECORD
  5
7C
330
1
100
AcDbSymbolTableRecord
100
AcDbBlockTableRecord
  2
SW_NOTE_0_1
340
0
102
{BLKREFS
331
80
102
}
  0
BLOCK_RECORD
  5
81
330
1
100
AcDbSymbolTableRecord
100
AcDbBlockTableRecord
  2
SW_NOTE_0_2
340
0
102
{BLKREFS
331
85
102
}
  0
BLOCK_RECORD
  5
86
330
1
100
AcDbSymbolTableRecord
100
AcDbBlockTableRecord
  2
SW_NOTE_0_3
340
0
102
{BLKREFS
331
8A
102
}
  0
BLOCK_RECORD
  5
8B
330
1
100
AcDbSymbolTableRecord
100
AcDbBlockTableRecord
  2
SW_NOTE_0_4
340
0
102
{BLKREFS
331
8F
102
}
  0
BLOCK_RECORD
  5
90
330
1
100
AcDbSymbolTableRecord
100
AcDbBlockTableRecord
  2
SW_NOTE_0_5
340
0
102
{BLKREFS
331
94
102
}
  0
BLOCK_RECORD
  5
95
330
1
100
AcDbSymbolTableRecord
100
AcDbBlockTableRecord
  2
SW_NOTE_0_6
340
0
102
{BLKREFS
331
99
102
}
  0
BLOCK_RECORD
  5
104
330
1
100
AcDbSymbolTableRecord
100
AcDbBlockTableRecord
  2
_D
340
0
  0
BLOCK_RECORD
  5
10D
330
1
100
AcDbSymbolTableRecord
100
AcDbBlockTableRecord
  2
_D_1
340
0
  0
BLOCK_RECORD
  5
118
330
1
100
AcDbSymbolTableRecord
100
AcDbBlockTableRecord
  2
_D_2
340
0
  0
BLOCK_RECORD
  5
122
330
1
100
AcDbSymbolTableRecord
100
AcDbBlockTableRecord
  2
_D_3
340
0
  0
BLOCK_RECORD
  5
12C
330
1
100
AcDbSymbolTableRecord
100
AcDbBlockTableRecord
  2
_D_4
340
0
  0
BLOCK_RECORD
  5
136
330
1
100
AcDbSymbolTableRecord
100
AcDbBlockTableRecord
  2
_D_5
340
0
  0
BLOCK_RECORD
  5
140
330
1
100
AcDbSymbolTableRecord
100
AcDbBlockTableRecord
  2
_D_6
340
0
  0
BLOCK_RECORD
  5
14A
330
1
100
AcDbSymbolTableRecord
100
AcDbBlockTableRecord
  2
_D_7
340
0
  0
BLOCK_RECORD
  5
154
330
1
100
AcDbSymbolTableRecord
100
AcDbBlockTableRecord
  2
_D_8
340
0
  0
BLOCK_RECORD
  5
160
330
1
100
AcDbSymbolTableRecord
100
AcDbBlockTableRecord
  2
_D_9
340
0
  0
BLOCK_RECORD
  5
16A
330
1
100
AcDbSymbolTableRecord
100
AcDbBlockTableRecord
  2
_D_10
340
0
  0
BLOCK_RECORD
  5
174
330
1
100
AcDbSymbolTableRecord
100
AcDbBlockTableRecord
  2
_D_11
340
0
  0
BLOCK_RECORD
  5
17F
330
1
100
AcDbSymbolTableRecord
100
AcDbBlockTableRecord
  2
_None
340
0
  0
BLOCK_RECORD
  5
182
330
1
100
AcDbSymbolTableRecord
100
AcDbBlockTableRecord
  2
_D_12
340
0
  0
BLOCK_RECORD
  5
18B
330
1
100
AcDbSymbolTableRecord
100
AcDbBlockTableRecord
  2
_D_13
340
0
  0
BLOCK_RECORD
  5
194
330
1
100
AcDbSymbolTableRecord
100
AcDbBlockTableRecord
  2
_D_14
340
0
  0
BLOCK_RECORD
  5
19C
330
1
100
AcDbSymbolTableRecord
100
AcDbBlockTableRecord
  2
_D_15
340
0
  0
BLOCK_RECORD
  5
1A5
330
1
100
AcDbSymbolTableRecord
100
AcDbBlockTableRecord
  2
_D_16
340
0
  0
BLOCK_RECORD
  5
1AF
330
1
100
AcDbSymbolTableRecord
100
AcDbBlockTableRecord
  2
_D_17
340
0
  0
BLOCK_RECORD
  5
1B9
330
1
100
AcDbSymbolTableRecord
100
AcDbBlockTableRecord
  2
_D_18
340
0
  0
BLOCK_RECORD
  5
1C3
330
1
100
AcDbSymbolTableRecord
100
AcDbBlockTableRecord
  2
SW_CENTERMARKSYMBOL_0
340
0
102
{BLKREFS
331
1CE
102
}
  0
BLOCK_RECORD
  5
1CF
330
1
100
AcDbSymbolTableRecord
100
AcDbBlockTableRecord
  2
SW_CENTERMARKSYMBOL_1
340
0
102
{BLKREFS
331
1DA
102
}
  0
BLOCK_RECORD
  5
1DB
330
1
100
AcDbSymbolTableRecord
100
AcDbBlockTableRecord
  2
SW_CENTERMARKSYMBOL_2
340
0
102
{BLKREFS
331
1E6
102
}
  0
BLOCK_RECORD
  5
1E7
330
1
100
AcDbSymbolTableRecord
100
AcDbBlockTableRecord
  2
SW_CENTERMARKSYMBOL_3
340
0
102
{BLKREFS
331
1F2
102
}
  0
BLOCK_RECORD
  5
1F3
330
1
100
AcDbSymbolTableRecord
100
AcDbBlockTableRecord
  2
SW_CENTERMARKSYMBOL_4
340
0
102
{BLKREFS
331
1FE
102
}
  0
BLOCK_RECORD
  5
1FF
330
1
100
AcDbSymbolTableRecord
100
AcDbBlockTableRecord
  2
SW_CENTERMARKSYMBOL_5
340
0
102
{BLKREFS
331
20A
102
}
  0
BLOCK_RECORD
  5
20B
330
1
100
AcDbSymbolTableRecord
100
AcDbBlockTableRecord
  2
SW_CENTERMARKSYMBOL_6
340
0
102
{BLKREFS
331
216
102
}
  0
BLOCK_RECORD
  5
217
330
1
100
AcDbSymbolTableRecord
100
AcDbBlockTableRecord
  2
SW_CENTERMARKSYMBOL_7
340
0
102
{BLKREFS
331
222
102
}
  0
BLOCK_RECORD
  5
223
330
1
100
AcDbSymbolTableRecord
100
AcDbBlockTableRecord
  2
SW_CENTERMARKSYMBOL_8
340
0
102
{BLKREFS
331
22E
102
}
  0
BLOCK_RECORD
  5
22F
330
1
100
AcDbSymbolTableRecord
100
AcDbBlockTableRecord
  2
SW_CENTERMARKSYMBOL_9
340
0
102
{BLKREFS
331
23A
102
}
  0
ENDTAB
  0
ENDSEC
  0
SECTION
  2
BLOCKS
  0
BLOCK
  5
20
330
1F
100
AcDbEntity
  8
0
100
AcDbBlockBegin
  2
*Model_Space
 70
     0
 10
0.0
 20
0.0
 30
0.0
  3
*Model_Space
  1

  0
ENDBLK
  5
21
330
1F
100
AcDbEntity
  8
0
100
AcDbBlockEnd
  0
BLOCK
  5
1C
330
1B
100
AcDbEntity
 67
     1
  8
0
100
AcDbBlockBegin
  2
*Paper_Space
 70
     0
 10
0.0
 20
0.0
 30
0.0
  3
*Paper_Space
  1

  0
ENDBLK
  5
1D
330
1B
100
AcDbEntity
 67
     1
  8
0
100
AcDbBlockEnd
  0
BLOCK
  5
24
330
23
100
AcDbEntity
  8
0
100
AcDbBlockBegin
  2
*Paper_Space0
 70
     0
 10
0.0
 20
0.0
 30
0.0
  3
*Paper_Space0
  1

  0
ENDBLK
  5
25
330
23
100
AcDbEntity
  8
0
100
AcDbBlockEnd
  0
BLOCK
  5
67
330
66
100
AcDbEntity
  8
0
100
AcDbBlockBegin
  2
Creare Cont. Sheet2
 70
     2
 10
0.0
 20
0.0
 30
0.0
  3
Creare Cont. Sheet2
  1

  0
LINE
  5
69
330
66
100
AcDbEntity
  8
FORMAT
100
AcDbLine
 10
15.0085257409
 20
0.875
 30
0.0
 11
15.0085257409
 21
0.5
 31
0.0
  0
LINE
  5
6A
330
66
100
AcDbEntity
  8
FORMAT
100
AcDbLine
 10
15.6217077481
 20
0.875
 30
0.0
 11
15.6217077481
 21
0.5
 31
0.0
  0
LINE
  5
6B
330
66
100
AcDbEntity
  8
FORMAT
100
AcDbLine
 10
17.2585257409
 20
0.7128858394
 30
0.0
 11
21.5
 21
0.7128858394
 31
0.0
  0
LINE
  5
6C
330
66
100
AcDbEntity
  8
FORMAT
100
AcDbLine
 10
17.2585257409
 20
1.2198630749
 30
0.0
 11
21.5
 21
1.2198630749
 31
0.0
  0
LINE
  5
6D
330
66
100
AcDbEntity
  8
FORMAT
100
AcDbLine
 10
16.5002001397
 20
0.875
 30
0.0
 11
16.5002001397
 21
0.5
 31
0.0
  0
LINE
  5
6E
330
66
100
AcDbEntity
  8
FORMAT
100
AcDbLine
 10
17.6929403045
 20
1.2198630749
 30
0.0
 11
17.6929403045
 21
0.7128858394
 31
0.0
  0
LINE
  5
6F
330
66
100
AcDbEntity
  8
FORMAT
100
AcDbLine
 10
18.0744870565
 20
0.7128858394
 30
0.0
 11
18.0744870565
 21
0.5
 31
0.0
  0
LINE
  5
70
330
66
100
AcDbEntity
  8
FORMAT
100
AcDbLine
 10
20.9360876961
 20
1.2198630749
 30
0.0
 11
20.9360876961
 21
0.7128858394
 31
0.0
  0
LINE
  5
71
330
66
100
AcDbEntity
  8
FORMAT
100
AcDbLine
 10
20.3056863926
 20
0.7128858394
 30
0.0
 11
20.3056863926
 21
0.5
 31
0.0
  0
LINE
  5
72
330
66
100
AcDbEntity
  8
FORMAT
100
AcDbLine
 10
17.2585257409
 20
1.2198630749
 30
0.0
 11
17.2585257409
 21
0.5
 31
0.0
  0
LINE
  5
73
330
66
100
AcDbEntity
  8
FORMAT
100
AcDbLine
 10
17.2585257409
 20
0.6875
 30
0.0
 11
15.0085257409
 21
0.6875
 31
0.0
  0
LINE
  5
74
330
66
100
AcDbEntity
  8
FORMAT
100
AcDbLine
 10
17.2585257409
 20
0.875
 30
0.0
 11
15.0085257409
 21
0.875
 31
0.0
  0
LINE
  5
75
330
66
100
AcDbEntity
  8
FORMAT
100
AcDbLine
 10
18.5662684041
 20
1.2198630749
 30
0.0
 11
18.5662684041
 21
0.7128858394
 31
0.0
  0
INSERT
  5
7B
330
66
100
AcDbEntity
  8
0
  6
Continuous
 62
     7
370
     0
100
AcDbBlockReference
  2
SW_NOTE_0
 10
18.3292296618
 20
0.5141425881
 30
0.0
  0
INSERT
  5
80
330
66
100
AcDbEntity
  8
0
  6
Continuous
 62
     7
370
     0
100
AcDbBlockReference
  2
SW_NOTE_0_1
 10
17.721387315
 20
1.0719196885
 30
0.0
  0
INSERT
  5
85
330
66
100
AcDbEntity
  8
0
  6
Continuous
 62
     7
370
     0
100
AcDbBlockReference
  2
SW_NOTE_0_2
 10
21.0978310983
 20
1.0753564347
 30
0.0
  0
INSERT
  5
8A
330
66
100
AcDbEntity
  8
0
  6
Continuous
 62
     7
370
     0
100
AcDbBlockReference
  2
SW_NOTE_0_3
 10
18.5935071247
 20
1.0792626651
 30
0.0
  0
INSERT
  5
8F
330
66
100
AcDbEntity
  8
0
  6
Continuous
 62
     7
370
     0
100
AcDbBlockReference
  2
SW_NOTE_0_4
 10
17.3351955021
 20
1.0781515587
 30
0.0
  0
INSERT
  5
94
330
66
100
AcDbEntity
  8
0
  6
Continuous
 62
     7
370
     0
100
AcDbBlockReference
  2
SW_NOTE_0_5
 10
15.0212085938
 20
0.5726515454
 30
0.0
  0
INSERT
  5
99
330
66
100
AcDbEntity
  8
0
  6
Continuous
 62
     7
370
     0
100
AcDbBlockReference
  2
SW_NOTE_0_6
 10
15.0347262995
 20
0.7528156956
 30
0.0
  0
ATTDEF
  5
9A
330
66
100
AcDbEntity
  8
0
  6
Continuous
 62
     7
370
     0
100
AcDbText
 10
0.0
 20
0.0
 30
0.0
 40
0.1377952756
  1

100
AcDbAttributeDefinition
  3

  2
AUTOATTR8
 70
     0
  0
ATTDEF
  5
9B
330
66
100
AcDbEntity
  8
0
  6
Continuous
 62
     7
370
     0
100
AcDbText
 10
0.0
 20
0.0
 30
0.0
 40
0.1377952756
  1

100
AcDbAttributeDefinition
  3

  2
AUTOATTR9
 70
     0
  0
ATTDEF
  5
9C
330
66
100
AcDbEntity
  8
0
  6
Continuous
 62
     7
370
     0
100
AcDbText
 10
21.1804115031
 20
0.8055032036
 30
0.0
 40
0.1666666667
  1
1
 41
0.605
  7
SLDTEXTSTYLE0
 72
     1
 11
21.2140394197
 21
0.9721698703
 31
0.0
100
AcDbAttributeDefinition
  3

  2
AUTOATTR7
 70
     0
 74
     3
  0
ATTDEF
  5
9D
330
66
100
AcDbEntity
  8
0
  6
Continuous
 62
     7
370
     0
100
AcDbText
 10
0.0
 20
0.0
 30
0.0
 40
0.1377952756
  1

100
AcDbAttributeDefinition
  3

  2
AUTOATTR6
 70
     0
  0
ATTDEF
  5
9E
330
66
100
AcDbEntity
  8
0
  6
Continuous
 62
     7
370
     0
100
AcDbText
 10
0.0
 20
0.0
 30
0.0
 40
0.1377952756
  1

100
AcDbAttributeDefinition
  3

  2
AUTOATTR4
 70
     0
  0
ATTDEF
  5
9F
330
66
100
AcDbEntity
  8
0
  6
Continuous
 62
     7
370
     0
100
AcDbText
 10
0.0
 20
0.0
 30
0.0
 40
0.1377952756
  1

100
AcDbAttributeDefinition
  3

  2
AUTOATTR1
 70
     0
  0
ATTDEF
  5
A0
330
66
100
AcDbEntity
  8
FORMAT
 62
     7
100
AcDbText
 10
0.0
 20
0.0
 30
0.0
 40
0.1377952756
  1

100
AcDbAttributeDefinition
  3

  2
AUTOATTR2
 70
     0
  0
ATTDEF
  5
A1
330
66
100
AcDbEntity
  8
FORMAT
 62
     7
100
AcDbText
 10
20.4725346067
 20
0.5603507779
 30
0.0
 40
0.1
  1
SHEET 1 OF 1
 41
0.605
  7
SLDTEXTSTYLE0
 11
20.4725346067
 21
0.6603507779
 31
0.0
100
AcDbAttributeDefinition
  3

  2
AUTOATTR16
 70
     0
 74
     3
  0
ATTDEF
  5
A2
330
66
100
AcDbEntity
  8
0
  6
Continuous
 62
     7
370
     0
100
AcDbText
 10
0.0
 20
0.0
 30
0.0
 40
0.1377952756
  1

100
AcDbAttributeDefinition
  3

  2
AUTOATTR15
 70
     0
  0
ATTDEF
  5
A3
330
66
100
AcDbEntity
  8
FORMAT
 62
     7
100
AcDbText
 10
17.3361658468
 20
0.5566031591
 30
0.0
 40
0.1
  1
SCALE: 8:1
 41
0.605
  7
SLDTEXTSTYLE0
 11
17.3361658468
 21
0.6566031591
 31
0.0
100
AcDbAttributeDefinition
  3

  2
AUTOATTR5
 70
     0
 74
     3
  0
ATTDEF
  5
A4
330
66
100
AcDbEntity
  8
FORMAT
 62
     7
100
AcDbText
 10
17.395733706
 20
0.805622678
 30
0.0
 40
0.1875
  1
C
 41
0.605
  7
SLDTEXTSTYLE0
 11
17.395733706
 21
0.993122678
 31
0.0
100
AcDbAttributeDefinition
  3

  2
AUTOATTR3
 70
     0
 74
     3
  0
ENDBLK
  5
68
330
66
100
AcDbEntity
  8
0
100
AcDbBlockEnd
  0
BLOCK
  5
77
330
76
100
AcDbEntity
  8
0
100
AcDbBlockBegin
  2
SW_NOTE_0
 70
     0
 10
0.0
 20
0.0
 30
0.0
  3
SW_NOTE_0
  1

  0
MTEXT
  5
7A
330
76
100
AcDbEntity
  8
0
  6
Continuous
 62
     0
370
     0
100
AcDbMText
 10
0.8805338542
 20
0.1342778896
 30
0.0
 40
0.1041666667
 41
0.0
 71
     2
 72
     1
  1
DO NOT SCALE DRAWING
  7
SLDTEXTSTYLE0
 73
     1
 44
1.0
  0
ENDBLK
  5
78
330
76
100
AcDbEntity
  8
0
100
AcDbBlockEnd
  0
BLOCK
  5
7D
330
7C
100
AcDbEntity
  8
0
100
AcDbBlockBegin
  2
SW_NOTE_0_1
 70
     0
 10
0.0
 20
0.0
 30
0.0
  3
SW_NOTE_0_1
  1

  0
MTEXT
  5
7F
330
7C
100
AcDbEntity
  8
0
  6
Continuous
 62
     0
370
     0
100
AcDbMText
 10
0.0
 20
0.1208501006
 30
0.0
 40
0.09375
 41
0.0
 71
     1
 72
     1
  1
CAGE CODE
  7
SLDTEXTSTYLE0
 73
     1
 44
1.0
  0
ENDBLK
  5
7E
330
7C
100
AcDbEntity
  8
0
100
AcDbBlockEnd
  0
BLOCK
  5
82
330
81
100
AcDbEntity
  8
0
100
AcDbBlockBegin
  2
SW_NOTE_0_2
 70
     0
 10
0.0
 20
0.0
 30
0.0
  3
SW_NOTE_0_2
  1

  0
MTEXT
  5
84
330
81
100
AcDbEntity
  8
0
  6
Continuous
 62
     0
370
     0
100
AcDbMText
 10
0.0
 20
0.1208501006
 30
0.0
 40
0.09375
 41
0.0
 71
     1
 72
     1
  1
REV
  7
SLDTEXTSTYLE0
 73
     1
 44
1.0
  0
ENDBLK
  5
83
330
81
100
AcDbEntity
  8
0
100
AcDbBlockEnd
  0
BLOCK
  5
87
330
86
100
AcDbEntity
  8
0
100
AcDbBlockBegin
  2
SW_NOTE_0_3
 70
     0
 10
0.0
 20
0.0
 30
0.0
  3
SW_NOTE_0_3
  1

  0
MTEXT
  5
89
330
86
100
AcDbEntity
  8
0
  6
Continuous
 62
     0
370
     0
100
AcDbMText
 10
0.0
 20
0.1208501006
 30
0.0
 40
0.09375
 41
0.0
 71
     1
 72
     1
  1
DWG.  NO.
  7
SLDTEXTSTYLE0
 73
     1
 44
1.0
  0
ENDBLK
  5
88
330
86
100
AcDbEntity
  8
0
100
AcDbBlockEnd
  0
BLOCK
  5
8C
330
8B
100
AcDbEntity
  8
0
100
AcDbBlockBegin
  2
SW_NOTE_0_4
 70
     0
 10
0.0
 20
0.0
 30
0.0
  3
SW_NOTE_0_4
  1

  0
MTEXT
  5
8E
330
8B
100
AcDbEntity
  8
0
  6
Continuous
 62
     0
370
     0
100
AcDbMText
 10
0.0
 20
0.1208501006
 30
0.0
 40
0.09375
 41
0.0
 71
     1
 72
     1
  1
SIZE
  7
SLDTEXTSTYLE0
 73
     1
 44
1.0
  0
ENDBLK
  5
8D
330
8B
100
AcDbEntity
  8
0
100
AcDbBlockEnd
  0
BLOCK
  5
91
330
90
100
AcDbEntity
  8
0
100
AcDbBlockBegin
  2
SW_NOTE_0_5
 70
     0
 10
0.0
 20
0.0
 30
0.0
  3
SW_NOTE_0_5
  1

  0
MTEXT
  5
93
330
90
100
AcDbEntity
  8
0
  6
Continuous
 62
     0
370
     0
100
AcDbMText
 10
0.0
 20
0.0837894031
 30
0.0
 40
0.065
 41
0.0
 71
     1
 72
     1
  1
ENG. APR.
  7
SLDTEXTSTYLE0
 73
     1
 44
1.0
  0
ENDBLK
  5
92
330
90
100
AcDbEntity
  8
0
100
AcDbBlockEnd
  0
BLOCK
  5
96
330
95
100
AcDbEntity
  8
0
100
AcDbBlockBegin
  2
SW_NOTE_0_6
 70
     0
 10
0.0
 20
0.0
 30
0.0
  3
SW_NOTE_0_6
  1

  0
MTEXT
  5
98
330
95
100
AcDbEntity
  8
0
  6
Continuous
 62
     0
370
     0
100
AcDbMText
 10
0.0
 20
0.0837894031
 30
0.0
 40
0.065
 41
0.0
 71
     1
 72
     1
  1
DRAWN
  7
SLDTEXTSTYLE0
 73
     1
 44
1.0
  0
ENDBLK
  5
97
330
95
100
AcDbEntity
  8
0
100
AcDbBlockEnd
  0
BLOCK
  5
105
330
104
100
AcDbEntity
  8
0
100
AcDbBlockBegin
  2
_D
 70
     0
 10
0.0
 20
0.0
 30
0.0
  3
_D
  1

  0
SOLID
  5
107
330
104
100
AcDbEntity
  8
0
  6
Continuous
 62
     7
370
    18
100
AcDbTrace
 10
11.9413435583
 20
2.7195185712
 30
0.0
 11
11.8113435583
 21
2.7395185712
 31
0.0
 12
11.8113435583
 22
2.6995185712
 32
0.0
 13
11.8113435583
 23
2.6995185712
 33
0.0
  0
SOLID
  5
108
330
104
100
AcDbEntity
  8
0
  6
Continuous
 62
     7
370
    18
100
AcDbTrace
 10
4.2453435583
 20
2.7195185712
 30
0.0
 11
4.3753435583
 21
2.6995185712
 31
0.0
 12
4.3753435583
 22
2.7395185712
 32
0.0
 13
4.3753435583
 23
2.7395185712
 33
0.0
  0
LINE
  5
109
330
104
100
AcDbEntity
  8
0
  6
Continuous
 62
     7
370
     0
100
AcDbLine
 10
11.9413435583
 20
5.0781881472
 30
0.0
 11
11.9413435583
 21
2.5945185712
 31
0.0
  0
LINE
  5
10A
330
104
100
AcDbEntity
  8
0
  6
Continuous
 62
     7
370
     0
100
AcDbLine
 10
11.9413435583
 20
2.7195185712
 30
0.0
 11
4.2453435583
 21
2.7195185712
 31
0.0
  0
MTEXT
  5
10B
330
104
100
AcDbEntity
  8
0
  6
Continuous
 62
     7
370
    18
100
AcDbMText
 10
7.5093169841
 20
2.8971460088
 30
0.0
 40
0.1377952756
 41
0.0
 71
     1
 72
     1
  1
0.962
  7
SLDTEXTSTYLE1
 73
     1
 44
1.0
  0
ENDBLK
  5
106
330
104
100
AcDbEntity
  8
0
100
AcDbBlockEnd
  0
BLOCK
  5
10E
330
10D
100
AcDbEntity
  8
0
100
AcDbBlockBegin
  2
_D_1
 70
     0
 10
0.0
 20
0.0
 30
0.0
  3
_D_1
  1

  0
SOLID
  5
110
330
10D
100
AcDbEntity
  8
0
  6
Continuous
 62
     7
370
    18
100
AcDbTrace
 10
8.0853435583
 20
2.5029948874
 30
0.0
 11
8.2153435583
 21
2.4829948874
 31
0.0
 12
8.2153435583
 22
2.5229948874
 32
0.0
 13
8.2153435583
 23
2.5229948874
 33
0.0
  0
SOLID
  5
111
330
10D
100
AcDbEntity
  8
0
  6
Continuous
 62
     7
370
    18
100
AcDbTrace
 10
11.9413435583
 20
2.5029948874
 30
0.0
 11
11.8113435583
 21
2.5229948874
 31
0.0
 12
11.8113435583
 22
2.4829948874
 32
0.0
 13
11.8113435583
 23
2.4829948874
 33
0.0
  0
LINE
  5
112
330
10D
100
AcDbEntity
  8
0
  6
Continuous
 62
     7
370
     0
100
AcDbLine
 10
8.0853435583
 20
3.8781881472
 30
0.0
 11
8.0853435583
 21
2.3779948874
 31
0.0
  0
LINE
  5
113
330
10D
100
AcDbEntity
  8
0
  6
Continuous
 62
     7
370
     0
100
AcDbLine
 10
11.9413435583
 20
5.0781881472
 30
0.0
 11
11.9413435583
 21
2.3779948874
 31
0.0
  0
LINE
  5
114
330
10D
100
AcDbEntity
  8
0
  6
Continuous
 62
     7
370
     0
100
AcDbLine
 10
8.0853435583
 20
2.5029948874
 30
0.0
 11
11.9413435583
 21
2.5029948874
 31
0.0
  0
MTEXT
  5
115
330
10D
100
AcDbEntity
  8
0
  6
Continuous
 62
     7
370
    18
100
AcDbMText
 10
9.6767253695
 20
2.680622325
 30
0.0
 40
0.1377952756
 41
0.0
 71
     1
 72
     1
  1
0.482
  7
SLDTEXTSTYLE1
 73
     1
 44
1.0
  0
ENDBLK
  5
10F
330
10D
100
AcDbEntity
  8
0
100
AcDbBlockEnd
  0
BLOCK
  5
119
330
118
100
AcDbEntity
  8
0
100
AcDbBlockBegin
  2
_D_2
 70
     0
 10
0.0
 20
0.0
 30
0.0
  3
_D_2
  1

  0
SOLID
  5
11B
330
118
100
AcDbEntity
  8
0
  6
Continuous
 62
     7
370
    18
100
AcDbTrace
 10
7.0453435583
 20
2.8982668874
 30
0.0
 11
7.1753435583
 21
2.8782668874
 31
0.0
 12
7.1753435583
 22
2.9182668874
 32
0.0
 13
7.1753435583
 23
2.9182668874
 33
0.0
  0
SOLID
  5
11C
330
118
100
AcDbEntity
  8
0
  6
Continuous
 62
     7
370
    18
100
AcDbTrace
 10
8.0853435583
 20
2.8982668874
 30
0.0
 11
7.9553435583
 21
2.9182668874
 31
0.0
 12
7.9553435583
 22
2.8782668874
 32
0.0
 13
7.9553435583
 23
2.8782668874
 33
0.0
  0
LINE
  5
11D
330
118
100
AcDbEntity
  8
0
  6
Continuous
 62
     7
370
     0
100
AcDbLine
 10
8.0853435583
 20
3.8781881472
 30
0.0
 11
8.0853435583
 21
2.7732668874
 31
0.0
  0
LINE
  5
11E
330
118
100
AcDbEntity
  8
0
  6
Continuous
 62
     7
370
     0
100
AcDbLine
 10
7.0453435583
 20
2.8982668874
 30
0.0
 11
8.0853435583
 21
2.8982668874
 31
0.0
  0
MTEXT
  5
11F
330
118
100
AcDbEntity
  8
0
  6
Continuous
 62
     7
370
    18
100
AcDbMText
 10
7.2131372958
 20
3.075894325
 30
0.0
 40
0.1377952756
 41
0.0
 71
     1
 72
     1
  1
0.130
  7
SLDTEXTSTYLE1
 73
     1
 44
1.0
  0
ENDBLK
  5
11A
330
118
100
AcDbEntity
  8
0
100
AcDbBlockEnd
  0
BLOCK
  5
123
330
122
100
AcDbEntity
  8
0
100
AcDbBlockBegin
  2
_D_3
 70
     0
 10
0.0
 20
0.0
 30
0.0
  3
_D_3
  1

  0
SOLID
  5
125
330
122
100
AcDbEntity
  8
0
  6
Continuous
 62
     7
370
    18
100
AcDbTrace
 10
4.2453435583
 20
1.6982668874
 30
0.0
 11
4.3753435583
 21
1.6782668874
 31
0.0
 12
4.3753435583
 22
1.7182668874
 32
0.0
 13
4.3753435583
 23
1.7182668874
 33
0.0
  0
SOLID
  5
126
330
122
100
AcDbEntity
  8
0
  6
Continuous
 62
     7
370
    18
100
AcDbTrace
 10
7.0453435583
 20
1.6982668874
 30
0.0
 11
6.9153435583
 21
1.7182668874
 31
0.0
 12
6.9153435583
 22
1.6782668874
 32
0.0
 13
6.9153435583
 23
1.6782668874
 33
0.0
  0
LINE
  5
127
330
122
100
AcDbEntity
  8
0
  6
Continuous
 62
     7
370
     0
100
AcDbLine
 10
4.2453435583
 20
2.2781881472
 30
0.0
 11
4.2453435583
 21
1.5732668874
 31
0.0
  0
LINE
  5
128
330
122
100
AcDbEntity
  8
0
  6
Continuous
 62
     7
370
     0
100
AcDbLine
 10
7.0453435583
 20
2.2781881472
 30
0.0
 11
7.0453435583
 21
1.5732668874
 31
0.0
  0
LINE
  5
129
330
122
100
AcDbEntity
  8
0
  6
Continuous
 62
     7
370
     0
100
AcDbLine
 10
4.2453435583
 20
1.6982668874
 30
0.0
 11
7.0453435583
 21
1.6982668874
 31
0.0
  0
MTEXT
  5
12A
330
122
100
AcDbEntity
  8
0
  6
Continuous
 62
     7
370
    18
100
AcDbMText
 10
5.3688450634
 20
1.875894325
 30
0.0
 40
0.1377952756
 41
0.0
 71
     1
 72
     1
  1
0.350
  7
SLDTEXTSTYLE1
 73
     1
 44
1.0
  0
ENDBLK
  5
124
330
122
100
AcDbEntity
  8
0
100
AcDbBlockEnd
  0
BLOCK
  5
12D
330
12C
100
AcDbEntity
  8
0
100
AcDbBlockBegin
  2
_D_4
 70
     0
 10
0.0
 20
0.0
 30
0.0
  3
_D_4
  1

  0
SOLID
  5
12F
330
12C
100
AcDbEntity
  8
0
  6
Continuous
 62
     7
370
    18
100
AcDbTrace
 10
3.8516427709
 20
9.3329161472
 30
0.0
 11
3.8316427709
 21
9.2029161472
 31
0.0
 12
3.8716427709
 22
9.2029161472
 32
0.0
 13
3.8716427709
 23
9.2029161472
 33
0.0
  0
SOLID
  5
130
330
12C
100
AcDbEntity
  8
0
  6
Continuous
 62
     7
370
    18
100
AcDbTrace
 10
3.8516427709
 20
2.3281881472
 30
0.0
 11
3.8716427709
 21
2.4581881472
 31
0.0
 12
3.8316427709
 22
2.4581881472
 32
0.0
 13
3.8316427709
 23
2.4581881472
 33
0.0
  0
LINE
  5
131
330
12C
100
AcDbEntity
  8
0
  6
Continuous
 62
     7
370
     0
100
AcDbLine
 10
4.1953435583
 20
9.3329161472
 30
0.0
 11
3.7266427709
 21
9.3329161472
 31
0.0
  0
LINE
  5
132
330
12C
100
AcDbEntity
  8
0
  6
Continuous
 62
     7
370
     0
100
AcDbLine
 10
4.1953435583
 20
2.3281881472
 30
0.0
 11
3.7266427709
 21
2.3281881472
 31
0.0
  0
LINE
  5
133
330
12C
100
AcDbEntity
  8
0
  6
Continuous
 62
     7
370
     0
100
AcDbLine
 10
3.8516427709
 20
9.3329161472
 30
0.0
 11
3.8516427709
 21
2.3281881472
 31
0.0
  0
MTEXT
  5
134
330
12C
100
AcDbEntity
  8
0
  6
Continuous
 62
     7
370
    18
100
AcDbMText
 10
3.6740153333
 20
5.245629582
 30
0.0
 40
0.1377952756
 41
0.0
 71
     1
 72
     1
  1
0.876
  7
SLDTEXTSTYLE1
 11
-7.044195017643634E-15
 21
1.0
 31
0.0
 73
     1
 44
1.0
  0
ENDBLK
  5
12E
330
12C
100
AcDbEntity
  8
0
100
AcDbBlockEnd
  0
BLOCK
  5
137
330
136
100
AcDbEntity
  8
0
100
AcDbBlockBegin
  2
_D_5
 70
     0
 10
0.0
 20
0.0
 30
0.0
  3
_D_5
  1

  0
SOLID
  5
139
330
136
100
AcDbEntity
  8
0
  6
Continuous
 62
     7
370
    18
100
AcDbTrace
 10
12.6712412742
 20
7.3329161472
 30
0.0
 11
12.6512412742
 21
7.2029161472
 31
0.0
 12
12.6912412742
 22
7.2029161472
 32
0.0
 13
12.6912412742
 23
7.2029161472
 33
0.0
  0
SOLID
  5
13A
330
136
100
AcDbEntity
  8
0
  6
Continuous
 62
     7
370
    18
100
AcDbTrace
 10
12.6712412742
 20
5.1281881472
 30
0.0
 11
12.6912412742
 21
5.2581881472
 31
0.0
 12
12.6512412742
 22
5.2581881472
 32
0.0
 13
12.6512412742
 23
5.2581881472
 33
0.0
  0
LINE
  5
13B
330
136
100
AcDbEntity
  8
0
  6
Continuous
 62
     7
370
     0
100
AcDbLine
 10
11.9913435583
 20
7.3329161472
 30
0.0
 11
12.7962412742
 21
7.3329161472
 31
0.0
  0
LINE
  5
13C
330
136
100
AcDbEntity
  8
0
  6
Continuous
 62
     7
370
     0
100
AcDbLine
 10
11.9913435583
 20
5.1281881472
 30
0.0
 11
12.7962412742
 21
5.1281881472
 31
0.0
  0
LINE
  5
13D
330
136
100
AcDbEntity
  8
0
  6
Continuous
 62
     7
370
     0
100
AcDbLine
 10
12.6712412742
 20
7.3329161472
 30
0.0
 11
12.6712412742
 21
5.1281881472
 31
0.0
  0
MTEXT
  5
13E
330
136
100
AcDbEntity
  8
0
  6
Continuous
 62
     7
370
    18
100
AcDbMText
 10
12.4936138366
 20
6.0750305505
 30
0.0
 40
0.1377952756
 41
0.0
 71
     1
 72
     1
  1
0.276
  7
SLDTEXTSTYLE1
 11
-7.044195017643634E-15
 21
1.0
 31
0.0
 73
     1
 44
1.0
  0
ENDBLK
  5
138
330
136
100
AcDbEntity
  8
0
100
AcDbBlockEnd
  0
BLOCK
  5
141
330
140
100
AcDbEntity
  8
0
100
AcDbBlockBegin
  2
_D_6
 70
     0
 10
0.0
 20
0.0
 30
0.0
  3
_D_6
  1

  0
SOLID
  5
143
330
140
100
AcDbEntity
  8
0
  6
Continuous
 62
     7
370
    18
100
AcDbTrace
 10
13.7112412742
 20
3.7281881472
 30
0.0
 11
13.7312412742
 21
3.8581881472
 31
0.0
 12
13.6912412742
 22
3.8581881472
 32
0.0
 13
13.6912412742
 23
3.8581881472
 33
0.0
  0
SOLID
  5
144
330
140
100
AcDbEntity
  8
0
  6
Continuous
 62
     7
370
    18
100
AcDbTrace
 10
13.7112412742
 20
5.1281881472
 30
0.0
 11
13.6912412742
 21
4.9981881472
 31
0.0
 12
13.7312412742
 22
4.9981881472
 32
0.0
 13
13.7312412742
 23
4.9981881472
 33
0.0
  0
LINE
  5
145
330
140
100
AcDbEntity
  8
0
  6
Continuous
 62
     7
370
     0
100
AcDbLine
 10
7.9353435583
 20
3.7281881472
 30
0.0
 11
13.8362412742
 21
3.7281881472
 31
0.0
  0
LINE
  5
146
330
140
100
AcDbEntity
  8
0
  6
Continuous
 62
     7
370
     0
100
AcDbLine
 10
11.9913435583
 20
5.1281881472
 30
0.0
 11
13.8362412742
 21
5.1281881472
 31
0.0
  0
LINE
  5
147
330
140
100
AcDbEntity
  8
0
  6
Continuous
 62
     7
370
     0
100
AcDbLine
 10
13.7112412742
 20
3.7281881472
 30
0.0
 11
13.7112412742
 21
5.1281881472
 31
0.0
  0
MTEXT
  5
148
330
140
100
AcDbEntity
  8
0
  6
Continuous
 62
     7
370
    18
100
AcDbMText
 10
13.5336138366
 20
4.3273553129
 30
0.0
 40
0.1377952756
 41
0.0
 71
     1
 72
     1
  1
0.175
  7
SLDTEXTSTYLE1
 11
6.123233995736766E-17
 21
1.0
 31
0.0
 73
     1
 44
1.0
  0
ENDBLK
  5
142
330
140
100
AcDbEntity
  8
0
100
AcDbBlockEnd
  0
BLOCK
  5
14B
330
14A
100
AcDbEntity
  8
0
100
AcDbBlockBegin
  2
_D_7
 70
     0
 10
0.0
 20
0.0
 30
0.0
  3
_D_7
  1

  0
SOLID
  5
14D
330
14A
100
AcDbEntity
  8
0
  6
Continuous
 62
     7
370
    18
100
AcDbTrace
 10
13.4712412742
 20
2.3281881472
 30
0.0
 11
13.4912412742
 21
2.4581881472
 31
0.0
 12
13.4512412742
 22
2.4581881472
 32
0.0
 13
13.4512412742
 23
2.4581881472
 33
0.0
  0
SOLID
  5
14E
330
14A
100
AcDbEntity
  8
0
  6
Continuous
 62
     7
370
    18
100
AcDbTrace
 10
13.4712412742
 20
3.7281881472
 30
0.0
 11
13.4512412742
 21
3.5981881472
 31
0.0
 12
13.4912412742
 22
3.5981881472
 32
0.0
 13
13.4912412742
 23
3.5981881472
 33
0.0
  0
LINE
  5
14F
330
14A
100
AcDbEntity
  8
0
  6
Continuous
 62
     7
370
     0
100
AcDbLine
 10
7.0953435583
 20
2.3281881472
 30
0.0
 11
13.5962412742
 21
2.3281881472
 31
0.0
  0
LINE
  5
150
330
14A
100
AcDbEntity
  8
0
  6
Continuous
 62
     7
370
     0
100
AcDbLine
 10
7.9353435583
 20
3.7281881472
 30
0.0
 11
13.5962412742
 21
3.7281881472
 31
0.0
  0
LINE
  5
151
330
14A
100
AcDbEntity
  8
0
  6
Continuous
 62
     7
370
     0
100
AcDbLine
 10
13.4712412742
 20
2.3281881472
 30
0.0
 11
13.4712412742
 21
3.7281881472
 31
0.0
  0
MTEXT
  5
152
330
14A
100
AcDbEntity
  8
0
  6
Continuous
 62
     7
370
    18
100
AcDbMText
 10
13.2936138366
 20
2.7281197068
 30
0.0
 40
0.1377952756
 41
0.0
 71
     1
 72
     1
  1
0.175
  7
SLDTEXTSTYLE1
 11
-1.608122649676637E-16
 21
1.0
 31
0.0
 73
     1
 44
1.0
  0
ENDBLK
  5
14C
330
14A
100
AcDbEntity
  8
0
100
AcDbBlockEnd
  0
BLOCK
  5
155
330
154
100
AcDbEntity
  8
0
100
AcDbBlockBegin
  2
_D_8
 70
     0
 10
0.0
 20
0.0
 30
0.0
  3
_D_8
  1

  0
SOLID
  5
157
330
154
100
AcDbEntity
  8
0
  6
Continuous
 62
     7
370
    18
100
AcDbTrace
 10
11.9413435583
 20
8.407560111
 30
0.0
 11
12.0713435583
 21
8.387560111
 31
0.0
 12
12.0713435583
 22
8.427560111
 32
0.0
 13
12.0713435583
 23
8.427560111
 33
0.0
  0
SOLID
  5
158
330
154
100
AcDbEntity
  8
0
  6
Continuous
 62
     7
370
    18
100
AcDbTrace
 10
11.1413435583
 20
8.407560111
 30
0.0
 11
11.0113435583
 21
8.427560111
 31
0.0
 12
11.0113435583
 22
8.387560111
 32
0.0
 13
11.0113435583
 23
8.387560111
 33
0.0
  0
LINE
  5
159
330
154
100
AcDbEntity
  8
0
  6
Continuous
 62
     7
370
     0
100
AcDbLine
 10
11.9413435583
 20
7.3829161472
 30
0.0
 11
11.9413435583
 21
8.532560111
 31
0.0
  0
LINE
  5
15A
330
154
100
AcDbEntity
  8
0
  6
Continuous
 62
     7
370
     0
100
AcDbLine
 10
11.1413435583
 20
7.2205521472
 30
0.0
 11
11.1413435583
 21
8.532560111
 31
0.0
  0
LINE
  5
15B
330
154
100
AcDbEntity
  8
0
  6
Continuous
 62
     7
370
     0
100
AcDbLine
 10
11.9413435583
 20
8.407560111
 30
0.0
 11
12.1913435583
 21
8.407560111
 31
0.0
  0
LINE
  5
15C
330
154
100
AcDbEntity
  8
0
  6
Continuous
 62
     7
370
     0
100
AcDbLine
 10
11.9413435583
 20
8.407560111
 30
0.0
 11
11.1413435583
 21
8.407560111
 31
0.0
  0
LINE
  5
15D
330
154
100
AcDbEntity
  8
0
  6
Continuous
 62
     7
370
     0
100
AcDbLine
 10
11.1413435583
 20
8.407560111
 30
0.0
 11
10.8913435583
 21
8.407560111
 31
0.0
  0
MTEXT
  5
15E
330
154
100
AcDbEntity
  8
0
  6
Continuous
 62
     7
370
    18
100
AcDbMText
 10
11.2651600994
 20
8.5851875486
 30
0.0
 40
0.1377952756
 41
0.0
 71
     1
 72
     1
  1
0.100
  7
SLDTEXTSTYLE1
 73
     1
 44
1.0
  0
ENDBLK
  5
156
330
154
100
AcDbEntity
  8
0
100
AcDbBlockEnd
  0
BLOCK
  5
161
330
160
100
AcDbEntity
  8
0
100
AcDbBlockBegin
  2
_D_9
 70
     0
 10
0.0
 20
0.0
 30
0.0
  3
_D_9
  1

  0
SOLID
  5
163
330
160
100
AcDbEntity
  8
0
  6
Continuous
 62
     7
370
    18
100
AcDbTrace
 10
9.8453435583
 20
8.407560111
 30
0.0
 11
9.9753435583
 21
8.387560111
 31
0.0
 12
9.9753435583
 22
8.427560111
 32
0.0
 13
9.9753435583
 23
8.427560111
 33
0.0
  0
SOLID
  5
164
330
160
100
AcDbEntity
  8
0
  6
Continuous
 62
     7
370
    18
100
AcDbTrace
 10
11.9413435583
 20
8.407560111
 30
0.0
 11
11.8113435583
 21
8.427560111
 31
0.0
 12
11.8113435583
 22
8.387560111
 32
0.0
 13
11.8113435583
 23
8.387560111
 33
0.0
  0
LINE
  5
165
330
160
100
AcDbEntity
  8
0
  6
Continuous
 62
     7
370
     0
100
AcDbLine
 10
9.8453435583
 20
7.2205521472
 30
0.0
 11
9.8453435583
 21
8.532560111
 31
0.0
  0
LINE
  5
166
330
160
100
AcDbEntity
  8
0
  6
Continuous
 62
     7
370
     0
100
AcDbLine
 10
11.9413435583
 20
7.3829161472
 30
0.0
 11
11.9413435583
 21
8.532560111
 31
0.0
  0
LINE
  5
167
330
160
100
AcDbEntity
  8
0
  6
Continuous
 62
     7
370
     0
100
AcDbLine
 10
9.8453435583
 20
8.407560111
 30
0.0
 11
11.9413435583
 21
8.407560111
 31
0.0
  0
MTEXT
  5
168
330
160
100
AcDbEntity
  8
0
  6
Continuous
 62
     7
370
    18
100
AcDbMText
 10
10.1726298295
 20
8.5851875486
 30
0.0
 40
0.1377952756
 41
0.0
 71
     1
 72
     1
  1
0.262
  7
SLDTEXTSTYLE1
 73
     1
 44
1.0
  0
ENDBLK
  5
162
330
160
100
AcDbEntity
  8
0
100
AcDbBlockEnd
  0
BLOCK
  5
16B
330
16A
100
AcDbEntity
  8
0
100
AcDbBlockBegin
  2
_D_10
 70
     0
 10
0.0
 20
0.0
 30
0.0
  3
_D_10
  1

  0
SOLID
  5
16D
330
16A
100
AcDbEntity
  8
0
  6
Continuous
 62
     7
370
    18
100
AcDbTrace
 10
11.9413435583
 20
8.407560111
 30
0.0
 11
11.8113435583
 21
8.427560111
 31
0.0
 12
11.8113435583
 22
8.387560111
 32
0.0
 13
11.8113435583
 23
8.387560111
 33
0.0
  0
SOLID
  5
16E
330
16A
100
AcDbEntity
  8
0
  6
Continuous
 62
     7
370
    18
100
AcDbTrace
 10
8.7733435583
 20
8.407560111
 30
0.0
 11
8.9033435583
 21
8.387560111
 31
0.0
 12
8.9033435583
 22
8.427560111
 32
0.0
 13
8.9033435583
 23
8.427560111
 33
0.0
  0
LINE
  5
16F
330
16A
100
AcDbEntity
  8
0
  6
Continuous
 62
     7
370
     0
100
AcDbLine
 10
11.9413435583
 20
7.3829161472
 30
0.0
 11
11.9413435583
 21
8.532560111
 31
0.0
  0
LINE
  5
170
330
16A
100
AcDbEntity
  8
0
  6
Continuous
 62
     7
370
     0
100
AcDbLine
 10
8.7733435583
 20
7.2205521472
 30
0.0
 11
8.7733435583
 21
8.532560111
 31
0.0
  0
LINE
  5
171
330
16A
100
AcDbEntity
  8
0
  6
Continuous
 62
     7
370
     0
100
AcDbLine
 10
11.9413435583
 20
8.407560111
 30
0.0
 11
8.7733435583
 21
8.407560111
 31
0.0
  0
MTEXT
  5
172
330
16A
100
AcDbEntity
  8
0
  6
Continuous
 62
     7
370
    18
100
AcDbMText
 10
9.1277225492
 20
8.5851875486
 30
0.0
 40
0.1377952756
 41
0.0
 71
     1
 72
     1
  1
0.396
  7
SLDTEXTSTYLE1
 73
     1
 44
1.0
  0
ENDBLK
  5
16C
330
16A
100
AcDbEntity
  8
0
100
AcDbBlockEnd
  0
BLOCK
  5
175
330
174
100
AcDbEntity
  8
0
100
AcDbBlockBegin
  2
_D_11
 70
     0
 10
0.0
 20
0.0
 30
0.0
  3
_D_11
  1

  0
SOLID
  5
177
330
174
100
AcDbEntity
  8
0
  6
Continuous
 62
     7
370
    18
100
AcDbTrace
 10
7.0453435583
 20
8.407560111
 30
0.0
 11
7.1753435583
 21
8.387560111
 31
0.0
 12
7.1753435583
 22
8.427560111
 32
0.0
 13
7.1753435583
 23
8.427560111
 33
0.0
  0
SOLID
  5
178
330
174
100
AcDbEntity
  8
0
  6
Continuous
 62
     7
370
    18
100
AcDbTrace
 10
11.9413435583
 20
8.407560111
 30
0.0
 11
11.8113435583
 21
8.427560111
 31
0.0
 12
11.8113435583
 22
8.387560111
 32
0.0
 13
11.8113435583
 23
8.387560111
 33
0.0
  0
LINE
  5
179
330
174
100
AcDbEntity
  8
0
  6
Continuous
 62
     7
370
     0
100
AcDbLine
 10
7.0453435583
 20
7.2205521472
 30
0.0
 11
7.0453435583
 21
8.532560111
 31
0.0
  0
LINE
  5
17A
330
174
100
AcDbEntity
  8
0
  6
Continuous
 62
     7
370
     0
100
AcDbLine
 10
11.9413435583
 20
7.3829161472
 30
0.0
 11
11.9413435583
 21
8.532560111
 31
0.0
  0
LINE
  5
17B
330
174
100
AcDbEntity
  8
0
  6
Continuous
 62
     7
370
     0
100
AcDbLine
 10
7.0453435583
 20
8.407560111
 30
0.0
 11
11.9413435583
 21
8.407560111
 31
0.0
  0
MTEXT
  5
17C
330
174
100
AcDbEntity
  8
0
  6
Continuous
 62
     7
370
    18
100
AcDbMText
 10
7.6598102088
 20
8.5851875486
 30
0.0
 40
0.1377952756
 41
0.0
 71
     1
 72
     1
  1
0.612
  7
SLDTEXTSTYLE1
 73
     1
 44
1.0
  0
ENDBLK
  5
176
330
174
100
AcDbEntity
  8
0
100
AcDbBlockEnd
  0
BLOCK
  5
180
330
17F
100
AcDbEntity
  8
0
100
AcDbBlockBegin
  2
_None
 70
     0
 10
0.0
 20
0.0
 30
0.0
  3
_None
  1

  0
ENDBLK
  5
181
330
17F
100
AcDbEntity
  8
0
100
AcDbBlockEnd
  0
BLOCK
  5
183
330
182
100
AcDbEntity
  8
0
100
AcDbBlockBegin
  2
_D_12
 70
     0
 10
0.0
 20
0.0
 30
0.0
  3
_D_12
  1

  0
SOLID
  5
185
330
182
100
AcDbEntity
  8
0
  6
Continuous
 62
     7
370
    18
100
AcDbTrace
 10
11.228293568
 20
6.3402776949
 30
0.0
 11
11.3247079409
 21
6.4297442735
 31
0.0
 12
11.2933577844
 22
6.4545871334
 32
0.0
 13
11.2933577844
 23
6.4545871334
 33
0.0
  0
LINE
  5
186
330
182
100
AcDbEntity
  8
0
  6
Continuous
 62
     7
370
     0
100
AcDbLine
 10
11.228293568
 20
6.3402776949
 30
0.0
 11
12.8765174906
 21
8.4202345951
 31
0.0
  0
LINE
  5
187
330
182
100
AcDbEntity
  8
0
  6
Continuous
 62
     7
370
     0
100
AcDbLine
 10
11.228293568
 20
6.3402776949
 30
0.0
 11
11.0543935486
 21
6.1208265996
 31
0.0
  0
MTEXT
  5
188
330
182
100
AcDbEntity
  8
0
  6
Continuous
 62
     7
370
    18
100
AcDbMText
 10
12.3237658015
 20
8.0085192822
 30
0.0
 40
0.1377952756
 41
0.0
 71
     1
 72
     1
  1
%%c
  7
SLDTEXTSTYLE1
 11
0.6210714977751073
 21
0.7837539120485364
 31
0.0
 73
     1
 44
1.0
  0
MTEXT
  5
189
330
182
100
AcDbEntity
  8
0
  6
Continuous
 62
     7
370
    18
100
AcDbMText
 10
12.4511822579
 20
8.172700621
 30
0.0
 40
0.1377952756
 41
0.0
 71
     1
 72
     1
  1
0.035
  7
SLDTEXTSTYLE1
 11
0.6210714977751073
 21
0.7837539120485364
 31
0.0
 73
     1
 44
1.0
  0
ENDBLK
  5
184
330
182
100
AcDbEntity
  8
0
100
AcDbBlockEnd
  0
BLOCK
  5
18C
330
18B
100
AcDbEntity
  8
0
100
AcDbBlockBegin
  2
_D_13
 70
     0
 10
0.0
 20
0.0
 30
0.0
  3
_D_13
  1

  0
SOLID
  5
18E
330
18B
100
AcDbEntity
  8
0
  6
Continuous
 62
     7
370
    18
100
AcDbTrace
 10
7.4071740508
 20
8.2192711978
 30
0.0
 11
7.3439627625
 21
8.3346156083
 31
0.0
 12
7.3122158316
 22
8.3102818379
 32
0.0
 13
7.3122158316
 23
8.3102818379
 33
0.0
  0
LINE
  5
18F
330
18B
100
AcDbEntity
  8
0
  6
Continuous
 62
     7
370
     0
100
AcDbLine
 10
7.4071740508
 20
8.2192711978
 30
0.0
 11
5.9465758368
 21
10.1248332946
 31
0.0
  0
LINE
  5
190
330
18B
100
AcDbEntity
  8
0
  6
Continuous
 62
     7
370
     0
100
AcDbLine
 10
7.4071740508
 20
8.2192711978
 30
0.0
 11
7.7235130658
 21
7.8065610967
 31
0.0
  0
MTEXT
  5
191
330
18B
100
AcDbEntity
  8
0
  6
Continuous
 62
     7
370
    18
100
AcDbMText
 10
6.0874557733
 20
10.2328166471
 30
0.0
 40
0.1377952756
 41
0.0
 71
     1
 72
     1
  1
%%c
  7
SLDTEXTSTYLE1
 11
0.6083442595548475
 21
-0.793673271483086
 31
0.0
 73
     1
 44
1.0
  0
MTEXT
  5
192
330
18B
100
AcDbEntity
  8
0
  6
Continuous
 62
     7
370
    18
100
AcDbMText
 10
6.2155481563
 20
10.0691621122
 30
0.0
 40
0.1377952756
 41
0.0
 71
     1
 72
     1
  1
0.065
  7
SLDTEXTSTYLE1
 11
0.6083442595548475
 21
-0.793673271483086
 31
0.0
 73
     1
 44
1.0
  0
ENDBLK
  5
18D
330
18B
100
AcDbEntity
  8
0
100
AcDbBlockEnd
  0
BLOCK
  5
195
330
194
100
AcDbEntity
  8
0
100
AcDbBlockBegin
  2
_D_14
 70
     0
 10
0.0
 20
0.0
 30
0.0
  3
_D_14
  1

  0
SOLID
  5
197
330
194
100
AcDbEntity
  8
0
  6
Continuous
 62
     7
370
    18
100
AcDbTrace
 10
7.5653435583
 20
5.3130768047
 30
0.0
 11
7.6953435583
 21
5.2930768047
 31
0.0
 12
7.6953435583
 22
5.3330768047
 32
0.0
 13
7.6953435583
 23
5.3330768047
 33
0.0
  0
SOLID
  5
198
330
194
100
AcDbEntity
  8
0
  6
Continuous
 62
     7
370
    18
100
AcDbTrace
 10
11.9413435583
 20
5.3130768047
 30
0.0
 11
11.8113435583
 21
5.3330768047
 31
0.0
 12
11.8113435583
 22
5.2930768047
 32
0.0
 13
11.8113435583
 23
5.2930768047
 33
0.0
  0
LINE
  5
199
330
194
100
AcDbEntity
  8
0
  6
Continuous
 62
     7
370
     0
100
AcDbLine
 10
7.5653435583
 20
5.3130768047
 30
0.0
 11
11.9413435583
 21
5.3130768047
 31
0.0
  0
MTEXT
  5
19A
330
194
100
AcDbEntity
  8
0
  6
Continuous
 62
     7
370
    18
100
AcDbMText
 10
8.1523842003
 20
5.4907042423
 30
0.0
 40
0.1377952756
 41
0.0
 71
     1
 72
     1
  1
0.547
  7
SLDTEXTSTYLE1
 73
     1
 44
1.0
  0
ENDBLK
  5
196
330
194
100
AcDbEntity
  8
0
100
AcDbBlockEnd
  0
BLOCK
  5
19D
330
19C
100
AcDbEntity
  8
0
100
AcDbBlockBegin
  2
_D_15
 70
     0
 10
0.0
 20
0.0
 30
0.0
  3
_D_15
  1

  0
SOLID
  5
19F
330
19C
100
AcDbEntity
  8
0
  6
Continuous
 62
     7
370
    18
100
AcDbTrace
 10
6.4413610778
 20
4.4481881472
 30
0.0
 11
6.4613610778
 21
4.5781881472
 31
0.0
 12
6.4213610778
 22
4.5781881472
 32
0.0
 13
6.4213610778
 23
4.5781881472
 33
0.0
  0
SOLID
  5
1A0
330
19C
100
AcDbEntity
  8
0
  6
Continuous
 62
     7
370
    18
100
AcDbTrace
 10
6.4413610778
 20
6.2305521472
 30
0.0
 11
6.4213610778
 21
6.1005521472
 31
0.0
 12
6.4613610778
 22
6.1005521472
 32
0.0
 13
6.4613610778
 23
6.1005521472
 33
0.0
  0
LINE
  5
1A1
330
19C
100
AcDbEntity
  8
0
  6
Continuous
 62
     7
370
     0
100
AcDbLine
 10
6.4553435583
 20
4.4481881472
 30
0.0
 11
6.3163610778
 21
4.4481881472
 31
0.0
  0
LINE
  5
1A2
330
19C
100
AcDbEntity
  8
0
  6
Continuous
 62
     7
370
     0
100
AcDbLine
 10
6.4413610778
 20
4.4481881472
 30
0.0
 11
6.4413610778
 21
6.2305521472
 31
0.0
  0
MTEXT
  5
1A3
330
19C
100
AcDbEntity
  8
0
  6
Continuous
 62
     7
370
    18
100
AcDbMText
 10
6.2637336402
 20
5.256181224
 30
0.0
 40
0.1377952756
 41
0.0
 71
     1
 72
     1
  1
0.223
  7
SLDTEXTSTYLE1
 11
6.123233995736766E-17
 21
1.0
 31
0.0
 73
     1
 44
1.0
  0
ENDBLK
  5
19E
330
19C
100
AcDbEntity
  8
0
100
AcDbBlockEnd
  0
BLOCK
  5
1A6
330
1A5
100
AcDbEntity
  8
0
100
AcDbBlockBegin
  2
_D_16
 70
     0
 10
0.0
 20
0.0
 30
0.0
  3
_D_16
  1

  0
SOLID
  5
1A8
330
1A5
100
AcDbEntity
  8
0
  6
Continuous
 62
     7
370
    18
100
AcDbTrace
 10
3.8554222984
 20
7.3329161472
 30
0.0
 11
3.8754222984
 21
7.4629161472
 31
0.0
 12
3.8354222984
 22
7.4629161472
 32
0.0
 13
3.8354222984
 23
7.4629161472
 33
0.0
  0
SOLID
  5
1A9
330
1A5
100
AcDbEntity
  8
0
  6
Continuous
 62
     7
370
    18
100
AcDbTrace
 10
3.8554222984
 20
9.3329161472
 30
0.0
 11
3.8354222984
 21
9.2029161472
 31
0.0
 12
3.8754222984
 22
9.2029161472
 32
0.0
 13
3.8754222984
 23
9.2029161472
 33
0.0
  0
LINE
  5
1AA
330
1A5
100
AcDbEntity
  8
0
  6
Continuous
 62
     7
370
     0
100
AcDbLine
 10
8.2353435583
 20
7.3329161472
 30
0.0
 11
3.7304222984
 21
7.3329161472
 31
0.0
  0
LINE
  5
1AB
330
1A5
100
AcDbEntity
  8
0
  6
Continuous
 62
     7
370
     0
100
AcDbLine
 10
4.1953435583
 20
9.3329161472
 30
0.0
 11
3.7304222984
 21
9.3329161472
 31
0.0
  0
LINE
  5
1AC
330
1A5
100
AcDbEntity
  8
0
  6
Continuous
 62
     7
370
     0
100
AcDbLine
 10
3.8554222984
 20
7.3329161472
 30
0.0
 11
3.8554222984
 21
9.3329161472
 31
0.0
  0
MTEXT
  5
1AD
330
1A5
100
AcDbEntity
  8
0
  6
Continuous
 62
     7
370
    18
100
AcDbMText
 10
3.6777948609
 20
7.7500438912
 30
0.0
 40
0.1377952756
 41
0.0
 71
     1
 72
     1
  1
0.250
  7
SLDTEXTSTYLE1
 11
6.123233995736766E-17
 21
1.0
 31
0.0
 73
     1
 44
1.0
  0
ENDBLK
  5
1A7
330
1A5
100
AcDbEntity
  8
0
100
AcDbBlockEnd
  0
BLOCK
  5
1B0
330
1AF
100
AcDbEntity
  8
0
100
AcDbBlockBegin
  2
_D_17
 70
     0
 10
0.0
 20
0.0
 30
0.0
  3
_D_17
  1

  0
SOLID
  5
1B2
330
1AF
100
AcDbEntity
  8
0
  6
Continuous
 62
     7
370
    18
100
AcDbTrace
 10
3.6154222984
 20
2.3281881472
 30
0.0
 11
3.6354222984
 21
2.4581881472
 31
0.0
 12
3.5954222984
 22
2.4581881472
 32
0.0
 13
3.5954222984
 23
2.4581881472
 33
0.0
  0
SOLID
  5
1B3
330
1AF
100
AcDbEntity
  8
0
  6
Continuous
 62
     7
370
    18
100
AcDbTrace
 10
3.6154222984
 20
5.1281881472
 30
0.0
 11
3.5954222984
 21
4.9981881472
 31
0.0
 12
3.6354222984
 22
4.9981881472
 32
0.0
 13
3.6354222984
 23
4.9981881472
 33
0.0
  0
LINE
  5
1B4
330
1AF
100
AcDbEntity
  8
0
  6
Continuous
 62
     7
370
     0
100
AcDbLine
 10
4.1953435583
 20
2.3281881472
 30
0.0
 11
3.4904222984
 21
2.3281881472
 31
0.0
  0
LINE
  5
1B5
330
1AF
100
AcDbEntity
  8
0
  6
Continuous
 62
     7
370
     0
100
AcDbLine
 10
8.2353435583
 20
5.1281881472
 30
0.0
 11
3.4904222984
 21
5.1281881472
 31
0.0
  0
LINE
  5
1B6
330
1AF
100
AcDbEntity
  8
0
  6
Continuous
 62
     7
370
     0
100
AcDbLine
 10
3.6154222984
 20
2.3281881472
 30
0.0
 11
3.6154222984
 21
5.1281881472
 31
0.0
  0
MTEXT
  5
1B7
330
1AF
100
AcDbEntity
  8
0
  6
Continuous
 62
     7
370
    18
100
AcDbMText
 10
3.4377948609
 20
3.5737879761
 30
0.0
 40
0.1377952756
 41
0.0
 71
     1
 72
     1
  1
0.350
  7
SLDTEXTSTYLE1
 11
6.123233995736766E-17
 21
1.0
 31
0.0
 73
     1
 44
1.0
  0
ENDBLK
  5
1B1
330
1AF
100
AcDbEntity
  8
0
100
AcDbBlockEnd
  0
BLOCK
  5
1BA
330
1B9
100
AcDbEntity
  8
0
100
AcDbBlockBegin
  2
_D_18
 70
     0
 10
0.0
 20
0.0
 30
0.0
  3
_D_18
  1

  0
SOLID
  5
1BC
330
1B9
100
AcDbEntity
  8
0
  6
Continuous
 62
     7
370
    18
100
AcDbTrace
 10
8.3834558305
 20
9.3329161472
 30
0.0
 11
8.3634558305
 21
9.2029161472
 31
0.0
 12
8.4034558305
 22
9.2029161472
 32
0.0
 13
8.4034558305
 23
9.2029161472
 33
0.0
  0
SOLID
  5
1BD
330
1B9
100
AcDbEntity
  8
0
  6
Continuous
 62
     7
370
    18
100
AcDbTrace
 10
8.3834558305
 20
8.7329161472
 30
0.0
 11
8.4034558305
 21
8.8629161472
 31
0.0
 12
8.3634558305
 22
8.8629161472
 32
0.0
 13
8.3634558305
 23
8.8629161472
 33
0.0
  0
LINE
  5
1BE
330
1B9
100
AcDbEntity
  8
0
  6
Continuous
 62
     7
370
     0
100
AcDbLine
 10
7.0953435583
 20
9.3329161472
 30
0.0
 11
8.5084558305
 21
9.3329161472
 31
0.0
  0
LINE
  5
1BF
330
1B9
100
AcDbEntity
  8
0
  6
Continuous
 62
     7
370
     0
100
AcDbLine
 10
7.9353435583
 20
8.7329161472
 30
0.0
 11
8.5084558305
 21
8.7329161472
 31
0.0
  0
LINE
  5
1C0
330
1B9
100
AcDbEntity
  8
0
  6
Continuous
 62
     7
370
     0
100
AcDbLine
 10
8.3834558305
 20
9.3329161472
 30
0.0
 11
8.3834558305
 21
9.9557015899
 31
0.0
  0
LINE
  5
1C1
330
1B9
100
AcDbEntity
  8
0
  6
Continuous
 62
     7
370
     0
100
AcDbLine
 10
8.3834558305
 20
9.3329161472
 30
0.0
 11
8.3834558305
 21
8.7329161472
 31
0.0
  0
MTEXT
  5
1C2
330
1B9
100
AcDbEntity
  8
0
  6
Continuous
 62
     7
370
    18
100
AcDbMText
 10
8.2058283929
 20
9.4975322794
 30
0.0
 40
0.1377952756
 41
0.0
 71
     1
 72
     1
  1
0.075
  7
SLDTEXTSTYLE1
 11
-7.044195017643634E-15
 21
1.0
 31
0.0
 73
     1
 44
1.0
  0
ENDBLK
  5
1BB
330
1B9
100
AcDbEntity
  8
0
100
AcDbBlockEnd
  0
BLOCK
  5
1C4
330
1C3
100
AcDbEntity
  8
0
100
AcDbBlockBegin
  2
SW_CENTERMARKSYMBOL_0
 70
     0
 10
0.0
 20
0.0
 30
0.0
  3
SW_CENTERMARKSYMBOL_0
  1

  0
LINE
  5
1C6
330
1C3
100
AcDbEntity
  8
0
  6
Continuous
 62
     0
370
    18
100
AcDbLine
 10
0.0
 20
0.0
 30
0.0
 11
0.0
 21
0.8
 31
0.0
  0
LINE
  5
1C7
330
1C3
100
AcDbEntity
  8
0
  6
Continuous
 62
     0
370
    18
100
AcDbLine
 10
0.0
 20
0.0
 30
0.0
 11
-0.8
 21
0.0
 31
0.0
  0
LINE
  5
1C8
330
1C3
100
AcDbEntity
  8
0
  6
Continuous
 62
     0
370
    18
100
AcDbLine
 10
0.0
 20
0.0
 30
0.0
 11
0.0
 21
-0.8
 31
0.0
  0
LINE
  5
1C9
330
1C3
100
AcDbEntity
  8
0
  6
Continuous
 62
     0
370
    18
100
AcDbLine
 10
0.0
 20
0.0
 30
0.0
 11
0.8
 21
0.0
 31
0.0
  0
LINE
  5
1CA
330
1C3
100
AcDbEntity
  8
0
  6
Continuous
 62
     0
370
    18
100
AcDbLine
 10
0.0
 20
0.8
 30
0.0
 11
0.0
 21
0.94
 31
0.0
  0
LINE
  5
1CB
330
1C3
100
AcDbEntity
  8
0
  6
Continuous
 62
     0
370
    18
100
AcDbLine
 10
-0.8
 20
0.0
 30
0.0
 11
-0.94
 21
0.0
 31
0.0
  0
LINE
  5
1CC
330
1C3
100
AcDbEntity
  8
0
  6
Continuous
 62
     0
370
    18
100
AcDbLine
 10
0.0
 20
-0.8
 30
0.0
 11
0.0
 21
-0.94
 31
0.0
  0
LINE
  5
1CD
330
1C3
100
AcDbEntity
  8
0
  6
Continuous
 62
     0
370
    18
100
AcDbLine
 10
0.8
 20
0.0
 30
0.0
 11
0.94
 21
0.0
 31
0.0
  0
ENDBLK
  5
1C5
330
1C3
100
AcDbEntity
  8
0
100
AcDbBlockEnd
  0
BLOCK
  5
1D0
330
1CF
100
AcDbEntity
  8
0
100
AcDbBlockBegin
  2
SW_CENTERMARKSYMBOL_1
 70
     0
 10
0.0
 20
0.0
 30
0.0
  3
SW_CENTERMARKSYMBOL_1
  1

  0
LINE
  5
1D2
330
1CF
100
AcDbEntity
  8
0
  6
Continuous
 62
     0
370
    18
100
AcDbLine
 10
0.0
 20
0.0
 30
0.0
 11
0.0
 21
0.8
 31
0.0
  0
LINE
  5
1D3
330
1CF
100
AcDbEntity
  8
0
  6
Continuous
 62
     0
370
    18
100
AcDbLine
 10
0.0
 20
0.0
 30
0.0
 11
-0.8
 21
0.0
 31
0.0
  0
LINE
  5
1D4
330
1CF
100
AcDbEntity
  8
0
  6
Continuous
 62
     0
370
    18
100
AcDbLine
 10
0.0
 20
0.0
 30
0.0
 11
0.0
 21
-0.8
 31
0.0
  0
LINE
  5
1D5
330
1CF
100
AcDbEntity
  8
0
  6
Continuous
 62
     0
370
    18
100
AcDbLine
 10
0.0
 20
0.0
 30
0.0
 11
0.8
 21
0.0
 31
0.0
  0
LINE
  5
1D6
330
1CF
100
AcDbEntity
  8
0
  6
Continuous
 62
     0
370
    18
100
AcDbLine
 10
0.0
 20
0.8
 30
0.0
 11
0.0
 21
0.94
 31
0.0
  0
LINE
  5
1D7
330
1CF
100
AcDbEntity
  8
0
  6
Continuous
 62
     0
370
    18
100
AcDbLine
 10
-0.8
 20
0.0
 30
0.0
 11
-0.94
 21
0.0
 31
0.0
  0
LINE
  5
1D8
330
1CF
100
AcDbEntity
  8
0
  6
Continuous
 62
     0
370
    18
100
AcDbLine
 10
0.0
 20
-0.8
 30
0.0
 11
0.0
 21
-0.94
 31
0.0
  0
LINE
  5
1D9
330
1CF
100
AcDbEntity
  8
0
  6
Continuous
 62
     0
370
    18
100
AcDbLine
 10
0.8
 20
0.0
 30
0.0
 11
0.94
 21
0.0
 31
0.0
  0
ENDBLK
  5
1D1
330
1CF
100
AcDbEntity
  8
0
100
AcDbBlockEnd
  0
BLOCK
  5
1DC
330
1DB
100
AcDbEntity
  8
0
100
AcDbBlockBegin
  2
SW_CENTERMARKSYMBOL_2
 70
     0
 10
0.0
 20
0.0
 30
0.0
  3
SW_CENTERMARKSYMBOL_2
  1

  0
LINE
  5
1DE
330
1DB
100
AcDbEntity
  8
0
  6
Continuous
 62
     0
370
    18
100
AcDbLine
 10
0.0
 20
0.0
 30
0.0
 11
0.0
 21
0.8
 31
0.0
  0
LINE
  5
1DF
330
1DB
100
AcDbEntity
  8
0
  6
Continuous
 62
     0
370
    18
100
AcDbLine
 10
0.0
 20
0.0
 30
0.0
 11
-0.8
 21
0.0
 31
0.0
  0
LINE
  5
1E0
330
1DB
100
AcDbEntity
  8
0
  6
Continuous
 62
     0
370
    18
100
AcDbLine
 10
0.0
 20
0.0
 30
0.0
 11
0.0
 21
-0.8
 31
0.0
  0
LINE
  5
1E1
330
1DB
100
AcDbEntity
  8
0
  6
Continuous
 62
     0
370
    18
100
AcDbLine
 10
0.0
 20
0.0
 30
0.0
 11
0.8
 21
0.0
 31
0.0
  0
LINE
  5
1E2
330
1DB
100
AcDbEntity
  8
0
  6
Continuous
 62
     0
370
    18
100
AcDbLine
 10
0.0
 20
0.8
 30
0.0
 11
0.0
 21
0.94
 31
0.0
  0
LINE
  5
1E3
330
1DB
100
AcDbEntity
  8
0
  6
Continuous
 62
     0
370
    18
100
AcDbLine
 10
-0.8
 20
0.0
 30
0.0
 11
-0.94
 21
0.0
 31
0.0
  0
LINE
  5
1E4
330
1DB
100
AcDbEntity
  8
0
  6
Continuous
 62
     0
370
    18
100
AcDbLine
 10
0.0
 20
-0.8
 30
0.0
 11
0.0
 21
-0.94
 31
0.0
  0
LINE
  5
1E5
330
1DB
100
AcDbEntity
  8
0
  6
Continuous
 62
     0
370
    18
100
AcDbLine
 10
0.8
 20
0.0
 30
0.0
 11
0.94
 21
0.0
 31
0.0
  0
ENDBLK
  5
1DD
330
1DB
100
AcDbEntity
  8
0
100
AcDbBlockEnd
  0
BLOCK
  5
1E8
330
1E7
100
AcDbEntity
  8
0
100
AcDbBlockBegin
  2
SW_CENTERMARKSYMBOL_3
 70
     0
 10
0.0
 20
0.0
 30
0.0
  3
SW_CENTERMARKSYMBOL_3
  1

  0
LINE
  5
1EA
330
1E7
100
AcDbEntity
  8
0
  6
Continuous
 62
     0
370
    18
100
AcDbLine
 10
0.0
 20
0.0
 30
0.0
 11
0.0
 21
0.8
 31
0.0
  0
LINE
  5
1EB
330
1E7
100
AcDbEntity
  8
0
  6
Continuous
 62
     0
370
    18
100
AcDbLine
 10
0.0
 20
0.0
 30
0.0
 11
-0.8
 21
0.0
 31
0.0
  0
LINE
  5
1EC
330
1E7
100
AcDbEntity
  8
0
  6
Continuous
 62
     0
370
    18
100
AcDbLine
 10
0.0
 20
0.0
 30
0.0
 11
0.0
 21
-0.8
 31
0.0
  0
LINE
  5
1ED
330
1E7
100
AcDbEntity
  8
0
  6
Continuous
 62
     0
370
    18
100
AcDbLine
 10
0.0
 20
0.0
 30
0.0
 11
0.8
 21
0.0
 31
0.0
  0
LINE
  5
1EE
330
1E7
100
AcDbEntity
  8
0
  6
Continuous
 62
     0
370
    18
100
AcDbLine
 10
0.0
 20
0.8
 30
0.0
 11
0.0
 21
0.94
 31
0.0
  0
LINE
  5
1EF
330
1E7
100
AcDbEntity
  8
0
  6
Continuous
 62
     0
370
    18
100
AcDbLine
 10
-0.8
 20
0.0
 30
0.0
 11
-0.94
 21
0.0
 31
0.0
  0
LINE
  5
1F0
330
1E7
100
AcDbEntity
  8
0
  6
Continuous
 62
     0
370
    18
100
AcDbLine
 10
0.0
 20
-0.8
 30
0.0
 11
0.0
 21
-0.94
 31
0.0
  0
LINE
  5
1F1
330
1E7
100
AcDbEntity
  8
0
  6
Continuous
 62
     0
370
    18
100
AcDbLine
 10
0.8
 20
0.0
 30
0.0
 11
0.94
 21
0.0
 31
0.0
  0
ENDBLK
  5
1E9
330
1E7
100
AcDbEntity
  8
0
100
AcDbBlockEnd
  0
BLOCK
  5
1F4
330
1F3
100
AcDbEntity
  8
0
100
AcDbBlockBegin
  2
SW_CENTERMARKSYMBOL_4
 70
     0
 10
0.0
 20
0.0
 30
0.0
  3
SW_CENTERMARKSYMBOL_4
  1

  0
LINE
  5
1F6
330
1F3
100
AcDbEntity
  8
0
  6
Continuous
 62
     0
370
    18
100
AcDbLine
 10
0.0
 20
0.0
 30
0.0
 11
0.0
 21
0.8
 31
0.0
  0
LINE
  5
1F7
330
1F3
100
AcDbEntity
  8
0
  6
Continuous
 62
     0
370
    18
100
AcDbLine
 10
0.0
 20
0.0
 30
0.0
 11
-0.8
 21
0.0
 31
0.0
  0
LINE
  5
1F8
330
1F3
100
AcDbEntity
  8
0
  6
Continuous
 62
     0
370
    18
100
AcDbLine
 10
0.0
 20
0.0
 30
0.0
 11
0.0
 21
-0.8
 31
0.0
  0
LINE
  5
1F9
330
1F3
100
AcDbEntity
  8
0
  6
Continuous
 62
     0
370
    18
100
AcDbLine
 10
0.0
 20
0.0
 30
0.0
 11
0.8
 21
0.0
 31
0.0
  0
LINE
  5
1FA
330
1F3
100
AcDbEntity
  8
0
  6
Continuous
 62
     0
370
    18
100
AcDbLine
 10
0.0
 20
0.8
 30
0.0
 11
0.0
 21
1.0
 31
0.0
  0
LINE
  5
1FB
330
1F3
100
AcDbEntity
  8
0
  6
Continuous
 62
     0
370
    18
100
AcDbLine
 10
-0.8
 20
0.0
 30
0.0
 11
-1.0
 21
0.0
 31
0.0
  0
LINE
  5
1FC
330
1F3
100
AcDbEntity
  8
0
  6
Continuous
 62
     0
370
    18
100
AcDbLine
 10
0.0
 20
-0.8
 30
0.0
 11
0.0
 21
-1.0
 31
0.0
  0
LINE
  5
1FD
330
1F3
100
AcDbEntity
  8
0
  6
Continuous
 62
     0
370
    18
100
AcDbLine
 10
0.8
 20
0.0
 30
0.0
 11
1.0
 21
0.0
 31
0.0
  0
ENDBLK
  5
1F5
330
1F3
100
AcDbEntity
  8
0
100
AcDbBlockEnd
  0
BLOCK
  5
200
330
1FF
100
AcDbEntity
  8
0
100
AcDbBlockBegin
  2
SW_CENTERMARKSYMBOL_5
 70
     0
 10
0.0
 20
0.0
 30
0.0
  3
SW_CENTERMARKSYMBOL_5
  1

  0
LINE
  5
202
330
1FF
100
AcDbEntity
  8
0
  6
Continuous
 62
     0
370
    18
100
AcDbLine
 10
0.0
 20
0.0
 30
0.0
 11
0.0
 21
0.8
 31
0.0
  0
LINE
  5
203
330
1FF
100
AcDbEntity
  8
0
  6
Continuous
 62
     0
370
    18
100
AcDbLine
 10
0.0
 20
0.0
 30
0.0
 11
-0.8
 21
0.0
 31
0.0
  0
LINE
  5
204
330
1FF
100
AcDbEntity
  8
0
  6
Continuous
 62
     0
370
    18
100
AcDbLine
 10
0.0
 20
0.0
 30
0.0
 11
0.0
 21
-0.8
 31
0.0
  0
LINE
  5
205
330
1FF
100
AcDbEntity
  8
0
  6
Continuous
 62
     0
370
    18
100
AcDbLine
 10
0.0
 20
0.0
 30
0.0
 11
0.8
 21
0.0
 31
0.0
  0
LINE
  5
206
330
1FF
100
AcDbEntity
  8
0
  6
Continuous
 62
     0
370
    18
100
AcDbLine
 10
0.0
 20
0.8
 30
0.0
 11
0.0
 21
1.0
 31
0.0
  0
LINE
  5
207
330
1FF
100
AcDbEntity
  8
0
  6
Continuous
 62
     0
370
    18
100
AcDbLine
 10
-0.8
 20
0.0
 30
0.0
 11
-1.0
 21
0.0
 31
0.0
  0
LINE
  5
208
330
1FF
100
AcDbEntity
  8
0
  6
Continuous
 62
     0
370
    18
100
AcDbLine
 10
0.0
 20
-0.8
 30
0.0
 11
0.0
 21
-1.0
 31
0.0
  0
LINE
  5
209
330
1FF
100
AcDbEntity
  8
0
  6
Continuous
 62
     0
370
    18
100
AcDbLine
 10
0.8
 20
0.0
 30
0.0
 11
1.0
 21
0.0
 31
0.0
  0
ENDBLK
  5
201
330
1FF
100
AcDbEntity
  8
0
100
AcDbBlockEnd
  0
BLOCK
  5
20C
330
20B
100
AcDbEntity
  8
0
100
AcDbBlockBegin
  2
SW_CENTERMARKSYMBOL_6
 70
     0
 10
0.0
 20
0.0
 30
0.0
  3
SW_CENTERMARKSYMBOL_6
  1

  0
LINE
  5
20E
330
20B
100
AcDbEntity
  8
0
  6
Continuous
 62
     0
370
    18
100
AcDbLine
 10
0.0
 20
0.0
 30
0.0
 11
0.0
 21
0.8
 31
0.0
  0
LINE
  5
20F
330
20B
100
AcDbEntity
  8
0
  6
Continuous
 62
     0
370
    18
100
AcDbLine
 10
0.0
 20
0.0
 30
0.0
 11
-0.8
 21
0.0
 31
0.0
  0
LINE
  5
210
330
20B
100
AcDbEntity
  8
0
  6
Continuous
 62
     0
370
    18
100
AcDbLine
 10
0.0
 20
0.0
 30
0.0
 11
0.0
 21
-0.8
 31
0.0
  0
LINE
  5
211
330
20B
100
AcDbEntity
  8
0
  6
Continuous
 62
     0
370
    18
100
AcDbLine
 10
0.0
 20
0.0
 30
0.0
 11
0.8
 21
0.0
 31
0.0
  0
LINE
  5
212
330
20B
100
AcDbEntity
  8
0
  6
Continuous
 62
     0
370
    18
100
AcDbLine
 10
0.0
 20
0.8
 30
0.0
 11
0.0
 21
1.0
 31
0.0
  0
LINE
  5
213
330
20B
100
AcDbEntity
  8
0
  6
Continuous
 62
     0
370
    18
100
AcDbLine
 10
-0.8
 20
0.0
 30
0.0
 11
-1.0
 21
0.0
 31
0.0
  0
LINE
  5
214
330
20B
100
AcDbEntity
  8
0
  6
Continuous
 62
     0
370
    18
100
AcDbLine
 10
0.0
 20
-0.8
 30
0.0
 11
0.0
 21
-1.0
 31
0.0
  0
LINE
  5
215
330
20B
100
AcDbEntity
  8
0
  6
Continuous
 62
     0
370
    18
100
AcDbLine
 10
0.8
 20
0.0
 30
0.0
 11
1.0
 21
0.0
 31
0.0
  0
ENDBLK
  5
20D
330
20B
100
AcDbEntity
  8
0
100
AcDbBlockEnd
  0
BLOCK
  5
218
330
217
100
AcDbEntity
  8
0
100
AcDbBlockBegin
  2
SW_CENTERMARKSYMBOL_7
 70
     0
 10
0.0
 20
0.0
 30
0.0
  3
SW_CENTERMARKSYMBOL_7
  1

  0
LINE
  5
21A
330
217
100
AcDbEntity
  8
0
  6
Continuous
 62
     0
370
    18
100
AcDbLine
 10
0.0
 20
0.0
 30
0.0
 11
0.0
 21
0.8
 31
0.0
  0
LINE
  5
21B
330
217
100
AcDbEntity
  8
0
  6
Continuous
 62
     0
370
    18
100
AcDbLine
 10
0.0
 20
0.0
 30
0.0
 11
-0.8
 21
0.0
 31
0.0
  0
LINE
  5
21C
330
217
100
AcDbEntity
  8
0
  6
Continuous
 62
     0
370
    18
100
AcDbLine
 10
0.0
 20
0.0
 30
0.0
 11
0.0
 21
-0.8
 31
0.0
  0
LINE
  5
21D
330
217
100
AcDbEntity
  8
0
  6
Continuous
 62
     0
370
    18
100
AcDbLine
 10
0.0
 20
0.0
 30
0.0
 11
0.8
 21
0.0
 31
0.0
  0
LINE
  5
21E
330
217
100
AcDbEntity
  8
0
  6
Continuous
 62
     0
370
    18
100
AcDbLine
 10
0.0
 20
0.8
 30
0.0
 11
0.0
 21
1.0
 31
0.0
  0
LINE
  5
21F
330
217
100
AcDbEntity
  8
0
  6
Continuous
 62
     0
370
    18
100
AcDbLine
 10
-0.8
 20
0.0
 30
0.0
 11
-1.0
 21
0.0
 31
0.0
  0
LINE
  5
220
330
217
100
AcDbEntity
  8
0
  6
Continuous
 62
     0
370
    18
100
AcDbLine
 10
0.0
 20
-0.8
 30
0.0
 11
0.0
 21
-1.0
 31
0.0
  0
LINE
  5
221
330
217
100
AcDbEntity
  8
0
  6
Continuous
 62
     0
370
    18
100
AcDbLine
 10
0.8
 20
0.0
 30
0.0
 11
1.0
 21
0.0
 31
0.0
  0
ENDBLK
  5
219
330
217
100
AcDbEntity
  8
0
100
AcDbBlockEnd
  0
BLOCK
  5
224
330
223
100
AcDbEntity
  8
0
100
AcDbBlockBegin
  2
SW_CENTERMARKSYMBOL_8
 70
     0
 10
0.0
 20
0.0
 30
0.0
  3
SW_CENTERMARKSYMBOL_8
  1

  0
LINE
  5
226
330
223
100
AcDbEntity
  8
0
  6
Continuous
 62
     0
370
    18
100
AcDbLine
 10
0.0
 20
0.0
 30
0.0
 11
0.0
 21
0.8
 31
0.0
  0
LINE
  5
227
330
223
100
AcDbEntity
  8
0
  6
Continuous
 62
     0
370
    18
100
AcDbLine
 10
0.0
 20
0.0
 30
0.0
 11
-0.8
 21
0.0
 31
0.0
  0
LINE
  5
228
330
223
100
AcDbEntity
  8
0
  6
Continuous
 62
     0
370
    18
100
AcDbLine
 10
0.0
 20
0.0
 30
0.0
 11
0.0
 21
-0.8
 31
0.0
  0
LINE
  5
229
330
223
100
AcDbEntity
  8
0
  6
Continuous
 62
     0
370
    18
100
AcDbLine
 10
0.0
 20
0.0
 30
0.0
 11
0.8
 21
0.0
 31
0.0
  0
LINE
  5
22A
330
223
100
AcDbEntity
  8
0
  6
Continuous
 62
     0
370
    18
100
AcDbLine
 10
0.0
 20
0.8
 30
0.0
 11
0.0
 21
1.06
 31
0.0
  0
LINE
  5
22B
330
223
100
AcDbEntity
  8
0
  6
Continuous
 62
     0
370
    18
100
AcDbLine
 10
-0.8
 20
0.0
 30
0.0
 11
-1.06
 21
0.0
 31
0.0
  0
LINE
  5
22C
330
223
100
AcDbEntity
  8
0
  6
Continuous
 62
     0
370
    18
100
AcDbLine
 10
0.0
 20
-0.8
 30
0.0
 11
0.0
 21
-1.06
 31
0.0
  0
LINE
  5
22D
330
223
100
AcDbEntity
  8
0
  6
Continuous
 62
     0
370
    18
100
AcDbLine
 10
0.8
 20
0.0
 30
0.0
 11
1.06
 21
0.0
 31
0.0
  0
ENDBLK
  5
225
330
223
100
AcDbEntity
  8
0
100
AcDbBlockEnd
  0
BLOCK
  5
230
330
22F
100
AcDbEntity
  8
0
100
AcDbBlockBegin
  2
SW_CENTERMARKSYMBOL_9
 70
     0
 10
0.0
 20
0.0
 30
0.0
  3
SW_CENTERMARKSYMBOL_9
  1

  0
LINE
  5
232
330
22F
100
AcDbEntity
  8
0
  6
Continuous
 62
     0
370
    18
100
AcDbLine
 10
0.0
 20
0.0
 30
0.0
 11
0.0
 21
0.8
 31
0.0
  0
LINE
  5
233
330
22F
100
AcDbEntity
  8
0
  6
Continuous
 62
     0
370
    18
100
AcDbLine
 10
0.0
 20
0.0
 30
0.0
 11
-0.8
 21
0.0
 31
0.0
  0
LINE
  5
234
330
22F
100
AcDbEntity
  8
0
  6
Continuous
 62
     0
370
    18
100
AcDbLine
 10
0.0
 20
0.0
 30
0.0
 11
0.0
 21
-0.8
 31
0.0
  0
LINE
  5
235
330
22F
100
AcDbEntity
  8
0
  6
Continuous
 62
     0
370
    18
100
AcDbLine
 10
0.0
 20
0.0
 30
0.0
 11
0.8
 21
0.0
 31
0.0
  0
LINE
  5
236
330
22F
100
AcDbEntity
  8
0
  6
Continuous
 62
     0
370
    18
100
AcDbLine
 10
0.0
 20
0.8
 30
0.0
 11
0.0
 21
1.06
 31
0.0
  0
LINE
  5
237
330
22F
100
AcDbEntity
  8
0
  6
Continuous
 62
     0
370
    18
100
AcDbLine
 10
-0.8
 20
0.0
 30
0.0
 11
-1.06
 21
0.0
 31
0.0
  0
LINE
  5
238
330
22F
100
AcDbEntity
  8
0
  6
Continuous
 62
     0
370
    18
100
AcDbLine
 10
0.0
 20
-0.8
 30
0.0
 11
0.0
 21
-1.06
 31
0.0
  0
LINE
  5
239
330
22F
100
AcDbEntity
  8
0
  6
Continuous
 62
     0
370
    18
100
AcDbLine
 10
0.8
 20
0.0
 30
0.0
 11
1.06
 21
0.0
 31
0.0
  0
ENDBLK
  5
231
330
22F
100
AcDbEntity
  8
0
100
AcDbBlockEnd
  0
ENDSEC
  0
SECTION
  2
ENTITIES
  0
LINE
  5
A5
330
1F
100
AcDbEntity
  8
FORMAT
  6
Continuous
370
    50
100
AcDbLine
 10
0.5
 20
0.5
 30
0.0
 11
0.5
 21
16.5
 31
0.0
  0
LINE
  5
A6
330
1F
100
AcDbEntity
  8
FORMAT
  6
Continuous
370
    50
100
AcDbLine
 10
0.5
 20
16.5
 30
0.0
 11
21.5
 21
16.5
 31
0.0
  0
LINE
  5
A7
330
1F
100
AcDbEntity
  8
FORMAT
  6
Continuous
370
    50
100
AcDbLine
 10
21.5
 20
16.5
 30
0.0
 11
21.5
 21
0.5
 31
0.0
  0
LINE
  5
A8
330
1F
100
AcDbEntity
  8
FORMAT
  6
Continuous
370
    50
100
AcDbLine
 10
21.5
 20
0.5
 30
0.0
 11
0.5
 21
0.5
 31
0.0
  0
LINE
  5
A9
330
1F
100
AcDbEntity
  8
FORMAT
  6
Continuous
370
    25
100
AcDbLine
 10
0.1249606299
 20
8.5
 30
0.0
 11
0.5000393701
 21
8.5
 31
0.0
  0
LINE
  5
AA
330
1F
100
AcDbEntity
  8
FORMAT
  6
Continuous
370
    25
100
AcDbLine
 10
11.0
 20
16.8750393701
 30
0.0
 11
11.0
 21
16.4999606299
 31
0.0
  0
LINE
  5
AB
330
1F
100
AcDbEntity
  8
FORMAT
  6
Continuous
370
    25
100
AcDbLine
 10
21.8750393701
 20
8.5
 30
0.0
 11
21.4999606299
 21
8.5
 31
0.0
  0
LINE
  5
AC
330
1F
100
AcDbEntity
  8
FORMAT
  6
Continuous
370
    25
100
AcDbLine
 10
11.0
 20
0.1249606299
 30
0.0
 11
11.0
 21
0.5000393701
 31
0.0
  0
LINE
  5
AD
330
1F
100
AcDbEntity
  8
FORMAT
  6
Continuous
370
    25
100
AcDbLine
 10
0.5
 20
4.25
 30
0.0
 11
0.125
 21
4.25
 31
0.0
  0
LINE
  5
AE
330
1F
100
AcDbEntity
  8
FORMAT
  6
Continuous
370
    25
100
AcDbLine
 10
21.5
 20
4.25
 30
0.0
 11
21.875
 21
4.25
 31
0.0
  0
LINE
  5
AF
330
1F
100
AcDbEntity
  8
FORMAT
  6
Continuous
370
    25
100
AcDbLine
 10
0.5
 20
8.5
 30
0.0
 11
0.125
 21
8.5
 31
0.0
  0
LINE
  5
B0
330
1F
100
AcDbEntity
  8
FORMAT
  6
Continuous
370
    25
100
AcDbLine
 10
21.5
 20
8.5
 30
0.0
 11
21.875
 21
8.5
 31
0.0
  0
LINE
  5
B1
330
1F
100
AcDbEntity
  8
FORMAT
  6
Continuous
370
    25
100
AcDbLine
 10
0.5
 20
12.75
 30
0.0
 11
0.125
 21
12.75
 31
0.0
  0
LINE
  5
B2
330
1F
100
AcDbEntity
  8
FORMAT
  6
Continuous
370
    25
100
AcDbLine
 10
21.5
 20
12.75
 30
0.0
 11
21.875
 21
12.75
 31
0.0
  0
LINE
  5
B3
330
1F
100
AcDbEntity
  8
FORMAT
  6
Continuous
370
    25
100
AcDbLine
 10
5.5
 20
16.5
 30
0.0
 11
5.5
 21
16.875
 31
0.0
  0
LINE
  5
B4
330
1F
100
AcDbEntity
  8
FORMAT
  6
Continuous
370
    25
100
AcDbLine
 10
5.5
 20
0.5
 30
0.0
 11
5.5
 21
0.125
 31
0.0
  0
LINE
  5
B5
330
1F
100
AcDbEntity
  8
FORMAT
  6
Continuous
370
    25
100
AcDbLine
 10
11.0
 20
16.5
 30
0.0
 11
11.0
 21
16.875
 31
0.0
  0
LINE
  5
B6
330
1F
100
AcDbEntity
  8
FORMAT
  6
Continuous
370
    25
100
AcDbLine
 10
11.0
 20
0.5
 30
0.0
 11
11.0
 21
0.125
 31
0.0
  0
LINE
  5
B7
330
1F
100
AcDbEntity
  8
FORMAT
  6
Continuous
370
    25
100
AcDbLine
 10
16.5
 20
16.5
 30
0.0
 11
16.5
 21
16.875
 31
0.0
  0
INSERT
  5
B8
330
1F
100
AcDbEntity
  8
0
  6
Continuous
 62
     7
100
AcDbBlockReference
 66
     1
  2
Creare Cont. Sheet2
 10
-0.0005889017
 20
0.0
 30
0.0
  0
ATTRIB
  5
B9
330
B8
100
AcDbEntity
  8
0
  6
Continuous
 62
     7
370
     0
100
AcDbText
 10
18.1453522855
 20
0.8338288497
 30
0.0
 40
0.1617838542
  1

 41
0.605
  7
SLDTEXTSTYLE0
 11
18.1453522855
 21
0.7501432724
 31
0.0
100
AcDbAttribute
  2
AUTOATTR8
 70
     0
 74
     1
  0
ATTRIB
  5
BB
330
B8
100
AcDbEntity
  8
0
  6
Continuous
 62
     7
370
     0
100
AcDbText
 10
19.8177869293
 20
0.8416847082
 30
0.0
 40
0.1666666667
  1

 41
0.75
  7
SLDTEXTSTYLE1
 11
19.8177869293
 21
0.7554734092
 31
0.0
100
AcDbAttribute
  2
AUTOATTR9
 70
     0
 74
     1
  0
ATTRIB
  5
BC
330
B8
100
AcDbEntity
  8
0
  6
Continuous
 62
     7
370
     0
100
AcDbText
 10
21.150950518
 20
0.843536546
 30
0.0
 40
0.1666666667
  1
1
 41
0.605
  7
SLDTEXTSTYLE0
 11
21.150950518
 21
0.757325247
 31
0.0
100
AcDbAttribute
  2
AUTOATTR7
 70
     0
 74
     1
  0
ATTRIB
  5
BD
330
B8
100
AcDbEntity
  8
0
  6
Continuous
 62
     7
370
     0
100
AcDbText
 10
19.7707756694
 20
0.8455687559
 30
0.0
 40
0.1820068359
  1

 41
0.605
  7
SLDTEXTSTYLE0
 11
19.7707756694
 21
0.7514224814
 31
0.0
100
AcDbAttribute
  2
AUTOATTR6
 70
     0
 74
     1
  0
ATTRIB
  5
BE
330
B8
100
AcDbEntity
  8
0
  6
Continuous
 62
     7
370
     0
100
AcDbText
 10
15.6554424182
 20
0.5610896319
 30
0.0
 40
0.091003418
  1

 41
0.605
  7
SLDTEXTSTYLE0
 11
15.6554424182
 21
0.5140164946
 31
0.0
100
AcDbAttribute
  2
AUTOATTR4
 70
     0
 74
     1
  0
ATTRIB
  5
BF
330
B8
100
AcDbEntity
  8
0
  6
Continuous
 62
     7
370
     0
100
AcDbText
 10
16.5774608003
 20
0.5610896319
 30
0.0
 40
0.091003418
  1

 41
0.605
  7
SLDTEXTSTYLE0
 11
16.5774608003
 21
0.5140164946
 31
0.0
100
AcDbAttribute
  2
AUTOATTR1
 70
     0
 74
     1
  0
ATTRIB
  5
C0
330
B8
100
AcDbEntity
  8
FORMAT
 62
     7
100
AcDbText
 10
15.6512501383
 20
0.7405235198
 30
0.0
 40
0.091003418
  1

 41
0.605
  7
SLDTEXTSTYLE0
 11
15.6512501383
 21
0.6934503825
 31
0.0
100
AcDbAttribute
  2
AUTOATTR2
 70
     0
 74
     1
  0
ATTRIB
  5
C1
330
B8
100
AcDbEntity
  8
FORMAT
 62
     7
100
AcDbText
 10
20.471945705
 20
0.5831707833
 30
0.0
 40
0.1
  1
SHEET 1 OF 1
 41
0.605
  7
SLDTEXTSTYLE0
 11
20.471945705
 21
0.5314440039
 31
0.0
100
AcDbAttribute
  2
AUTOATTR16
 70
     0
 74
     1
  0
ATTRIB
  5
C2
330
B8
100
AcDbEntity
  8
0
  6
Continuous
 62
     7
370
     0
100
AcDbText
 10
16.8976622439
 20
0.7623045522
 30
0.0
 40
0.091003418
  1

 41
0.605
  7
SLDTEXTSTYLE0
 11
16.8976622439
 21
0.715231415
 31
0.0
100
AcDbAttribute
  2
AUTOATTR15
 70
     0
 74
     1
  0
ATTRIB
  5
C3
330
B8
100
AcDbEntity
  8
FORMAT
 62
     7
100
AcDbText
 10
17.3355769451
 20
0.5794231646
 30
0.0
 40
0.1
  1
SCALE: 8:1
 41
0.605
  7
SLDTEXTSTYLE0
 11
17.3355769451
 21
0.5276963852
 31
0.0
100
AcDbAttribute
  2
AUTOATTR5
 70
     0
 74
     1
  0
ATTRIB
  5
C4
330
B8
100
AcDbEntity
  8
FORMAT
 62
     7
100
AcDbText
 10
17.3951448043
 20
0.8484101882
 30
0.0
 40
0.1875
  1
C
 41
0.605
  7
SLDTEXTSTYLE0
 11
17.3951448043
 21
0.7514224768
 31
0.0
100
AcDbAttribute
  2
AUTOATTR3
 70
     0
 74
     1
  0
SEQEND
  5
C5
330
B8
100
AcDbEntity
  8
0
  6
Continuous
 62
     7
  0
MTEXT
  5
C6
330
1F
100
AcDbEntity
  8
FORMAT
100
AcDbMText
 10
0.240416667
 20
2.2475862363
 30
0.0
 40
0.24
 41
0.0
 71
     2
 72
     1
  1
A
  7
SLDTEXTSTYLE1
 73
     1
 44
1.0
  0
MTEXT
  5
C7
330
1F
100
AcDbEntity
  8
FORMAT
100
AcDbMText
 10
21.740416667
 20
2.2475862363
 30
0.0
 40
0.24
 41
0.0
 71
     2
 72
     1
  1
A
  7
SLDTEXTSTYLE1
 73
     1
 44
1.0
  0
MTEXT
  5
C8
330
1F
100
AcDbEntity
  8
FORMAT
100
AcDbMText
 10
0.2481666625
 20
6.4975862363
 30
0.0
 40
0.24
 41
0.0
 71
     2
 72
     1
  1
B
  7
SLDTEXTSTYLE1
 73
     1
 44
1.0
  0
MTEXT
  5
C9
330
1F
100
AcDbEntity
  8
FORMAT
100
AcDbMText
 10
21.7481666625
 20
6.4975862363
 30
0.0
 40
0.24
 41
0.0
 71
     2
 72
     1
  1
B
  7
SLDTEXTSTYLE1
 73
     1
 44
1.0
  0
MTEXT
  5
CA
330
1F
100
AcDbEntity
  8
FORMAT
100
AcDbMText
 10
0.2475000001
 20
10.7475862363
 30
0.0
 40
0.24
 41
0.0
 71
     2
 72
     1
  1
C
  7
SLDTEXTSTYLE1
 73
     1
 44
1.0
  0
MTEXT
  5
CB
330
1F
100
AcDbEntity
  8
FORMAT
100
AcDbMText
 10
21.7475000001
 20
10.7475862363
 30
0.0
 40
0.24
 41
0.0
 71
     2
 72
     1
  1
C
  7
SLDTEXTSTYLE1
 73
     1
 44
1.0
  0
MTEXT
  5
CC
330
1F
100
AcDbEntity
  8
FORMAT
100
AcDbMText
 10
0.2472500014
 20
14.9975862363
 30
0.0
 40
0.24
 41
0.0
 71
     2
 72
     1
  1
D
  7
SLDTEXTSTYLE1
 73
     1
 44
1.0
  0
MTEXT
  5
CD
330
1F
100
AcDbEntity
  8
FORMAT
100
AcDbMText
 10
21.7472500014
 20
14.9975862363
 30
0.0
 40
0.24
 41
0.0
 71
     2
 72
     1
  1
D
  7
SLDTEXTSTYLE1
 73
     1
 44
1.0
  0
MTEXT
  5
CE
330
1F
100
AcDbEntity
  8
FORMAT
100
AcDbMText
 10
2.7475833335
 20
0.3725862363
 30
0.0
 40
0.24
 41
0.0
 71
     2
 72
     1
  1
4
  7
SLDTEXTSTYLE1
 73
     1
 44
1.0
  0
MTEXT
  5
CF
330
1F
100
AcDbEntity
  8
FORMAT
100
AcDbMText
 10
2.7475833335
 20
16.8725862363
 30
0.0
 40
0.24
 41
0.0
 71
     2
 72
     1
  1
4
  7
SLDTEXTSTYLE1
 73
     1
 44
1.0
  0
MTEXT
  5
D0
330
1F
100
AcDbEntity
  8
FORMAT
100
AcDbMText
 10
8.2475833335
 20
0.3725862363
 30
0.0
 40
0.24
 41
0.0
 71
     2
 72
     1
  1
3
  7
SLDTEXTSTYLE1
 73
     1
 44
1.0
  0
MTEXT
  5
D1
330
1F
100
AcDbEntity
  8
FORMAT
100
AcDbMText
 10
8.2475833335
 20
16.8725862363
 30
0.0
 40
0.24
 41
0.0
 71
     2
 72
     1
  1
3
  7
SLDTEXTSTYLE1
 73
     1
 44
1.0
  0
MTEXT
  5
D2
330
1F
100
AcDbEntity
  8
FORMAT
100
AcDbMText
 10
13.7475833335
 20
0.3725862363
 30
0.0
 40
0.24
 41
0.0
 71
     2
 72
     1
  1
2
  7
SLDTEXTSTYLE1
 73
     1
 44
1.0
  0
MTEXT
  5
D3
330
1F
100
AcDbEntity
  8
FORMAT
100
AcDbMText
 10
13.7475833335
 20
16.8725862363
 30
0.0
 40
0.24
 41
0.0
 71
     2
 72
     1
  1
2
  7
SLDTEXTSTYLE1
 73
     1
 44
1.0
  0
MTEXT
  5
D4
330
1F
100
AcDbEntity
  8
FORMAT
100
AcDbMText
 10
19.2475833335
 20
0.3725862363
 30
0.0
 40
0.24
 41
0.0
 71
     2
 72
     1
  1
1
  7
SLDTEXTSTYLE1
 73
     1
 44
1.0
  0
MTEXT
  5
D5
330
1F
100
AcDbEntity
  8
FORMAT
100
AcDbMText
 10
19.2475833335
 20
16.8725862363
 30
0.0
 40
0.24
 41
0.0
 71
     2
 72
     1
  1
1
  7
SLDTEXTSTYLE1
 73
     1
 44
1.0
  0
CIRCLE
  5
D6
330
1F
100
AcDbEntity
  8
0
  6
Continuous
 62
     7
370
    25
100
AcDbCircle
 10
7.0453435583
 20
6.2305521472
 30
0.0
 40
0.1399999999999997
  0
CIRCLE
  5
D7
330
1F
100
AcDbEntity
  8
0
  6
Continuous
 62
     7
370
    25
100
AcDbCircle
 10
8.7733435583
 20
6.2305521472
 30
0.0
 40
0.1400000000000006
  0
CIRCLE
  5
D8
330
1F
100
AcDbEntity
  8
0
  6
Continuous
 62
     7
370
    25
100
AcDbCircle
 10
9.8453435583
 20
6.2305521472
 30
0.0
 40
0.1400000000000006
  0
CIRCLE
  5
D9
330
1F
100
AcDbEntity
  8
0
  6
Continuous
 62
     7
370
    25
100
AcDbCircle
 10
11.1413435583
 20
6.2305521472
 30
0.0
 40
0.1400000000000006
  0
ARC
  5
DA
330
1F
100
AcDbEntity
  8
0
  6
Continuous
 62
     7
370
    25
100
AcDbCircle
 10
7.2453435583
 20
3.5281881472
 30
0.0
 40
0.2000000000000011
100
AcDbArc
 50
90.0
 51
180.0
  0
LINE
  5
DB
330
1F
100
AcDbEntity
  8
0
  6
Continuous
 62
     7
370
    25
100
AcDbLine
 10
7.0453435583
 20
2.3281881472
 30
0.0
 11
7.0453435583
 21
3.5281881472
 31
0.0
  0
LINE
  5
DC
330
1F
100
AcDbEntity
  8
0
  6
Continuous
 62
     7
370
    25
100
AcDbLine
 10
4.2453435583
 20
2.3281881472
 30
0.0
 11
7.0453435583
 21
2.3281881472
 31
0.0
  0
LINE
  5
DD
330
1F
100
AcDbEntity
  8
0
  6
Continuous
 62
     7
370
    25
100
AcDbLine
 10
4.2453435583
 20
2.3281881472
 30
0.0
 11
4.2453435583
 21
9.3329161472
 31
0.0
  0
LINE
  5
DE
330
1F
100
AcDbEntity
  8
0
  6
Continuous
 62
     7
370
    25
100
AcDbLine
 10
7.0453435583
 20
9.3329161472
 30
0.0
 11
4.2453435583
 21
9.3329161472
 31
0.0
  0
LINE
  5
DF
330
1F
100
AcDbEntity
  8
0
  6
Continuous
 62
     7
370
    25
100
AcDbLine
 10
7.0453435583
 20
8.9329161472
 30
0.0
 11
7.0453435583
 21
9.3329161472
 31
0.0
  0
ARC
  5
E0
330
1F
100
AcDbEntity
  8
0
  6
Continuous
 62
     7
370
    25
100
AcDbCircle
 10
7.2453435583
 20
8.9329161472
 30
0.0
 40
0.2000000000000011
100
AcDbArc
 50
180.0
 51
270.0
  0
LINE
  5
E1
330
1F
100
AcDbEntity
  8
0
  6
Continuous
 62
     7
370
    25
100
AcDbLine
 10
7.8853435583
 20
8.7329161472
 30
0.0
 11
7.2453435583
 21
8.7329161472
 31
0.0
  0
ARC
  5
E2
330
1F
100
AcDbEntity
  8
0
  6
Continuous
 62
     7
370
    25
100
AcDbCircle
 10
7.8853435583
 20
8.5329161472
 30
0.0
 40
0.2000000000000002
100
AcDbArc
 50
0.0
 51
90.0
  0
LINE
  5
E3
330
1F
100
AcDbEntity
  8
0
  6
Continuous
 62
     7
370
    25
100
AcDbLine
 10
8.0853435583
 20
7.5329161472
 30
0.0
 11
8.0853435583
 21
8.5329161472
 31
0.0
  0
ARC
  5
E4
330
1F
100
AcDbEntity
  8
0
  6
Continuous
 62
     7
370
    25
100
AcDbCircle
 10
8.2853435583
 20
7.5329161472
 30
0.0
 40
0.1999999999999993
100
AcDbArc
 50
180.0
 51
270.0
  0
LINE
  5
E5
330
1F
100
AcDbEntity
  8
0
  6
Continuous
 62
     7
370
    25
100
AcDbLine
 10
11.9413435583
 20
7.3329161472
 30
0.0
 11
8.2853435583
 21
7.3329161472
 31
0.0
  0
LINE
  5
E6
330
1F
100
AcDbEntity
  8
0
  6
Continuous
 62
     7
370
    25
100
AcDbLine
 10
11.9413435583
 20
5.1281881472
 30
0.0
 11
11.9413435583
 21
7.3329161472
 31
0.0
  0
ARC
  5
E7
330
1F
100
AcDbEntity
  8
0
  6
Continuous
 62
     7
370
    25
100
AcDbCircle
 10
8.2853435583
 20
4.9281881472
 30
0.0
 40
0.2000000000000011
100
AcDbArc
 50
90.0
 51
180.0
  0
LINE
  5
E8
330
1F
100
AcDbEntity
  8
0
  6
Continuous
 62
     7
370
    25
100
AcDbLine
 10
8.0853435583
 20
3.9281881472
 30
0.0
 11
8.0853435583
 21
4.9281881472
 31
0.0
  0
ARC
  5
E9
330
1F
100
AcDbEntity
  8
0
  6
Continuous
 62
     7
370
    25
100
AcDbCircle
 10
7.8853435583
 20
3.9281881472
 30
0.0
 40
0.2000000000000002
100
AcDbArc
 50
270.0
 51
0.0
  0
LINE
  5
EA
330
1F
100
AcDbEntity
  8
0
  6
Continuous
 62
     7
370
    25
100
AcDbLine
 10
7.2453435583
 20
3.7281881472
 30
0.0
 11
7.8853435583
 21
3.7281881472
 31
0.0
  0
LINE
  5
EB
330
1F
100
AcDbEntity
  8
0
  6
Continuous
 62
     7
370
    25
100
AcDbLine
 10
4.7413435583
 20
2.8881881472
 30
0.0
 11
4.7413435583
 21
3.2881881472
 31
0.0
  0
LINE
  5
EC
330
1F
100
AcDbEntity
  8
0
  6
Continuous
 62
     7
370
    25
100
AcDbLine
 10
4.7413435583
 20
3.2881881472
 30
0.0
 11
4.6213435583
 21
3.2881881472
 31
0.0
  0
LINE
  5
ED
330
1F
100
AcDbEntity
  8
0
  6
Continuous
 62
     7
370
    25
100
AcDbLine
 10
4.6213435583
 20
3.2881881472
 30
0.0
 11
4.6213435583
 21
2.8881881472
 31
0.0
  0
LINE
  5
EE
330
1F
100
AcDbEntity
  8
0
  6
Continuous
 62
     7
370
    25
100
AcDbLine
 10
4.6213435583
 20
2.8881881472
 30
0.0
 11
4.7413435583
 21
2.8881881472
 31
0.0
  0
LINE
  5
EF
330
1F
100
AcDbEntity
  8
0
  6
Continuous
 62
     7
370
    25
100
AcDbLine
 10
6.5493435583
 20
4.4001881472
 30
0.0
 11
6.5493435583
 21
4.0001881472
 31
0.0
  0
LINE
  5
F0
330
1F
100
AcDbEntity
  8
0
  6
Continuous
 62
     7
370
    25
100
AcDbLine
 10
6.5493435583
 20
4.0001881472
 30
0.0
 11
6.6693435583
 21
4.0001881472
 31
0.0
  0
LINE
  5
F1
330
1F
100
AcDbEntity
  8
0
  6
Continuous
 62
     7
370
    25
100
AcDbLine
 10
6.6693435583
 20
4.0001881472
 30
0.0
 11
6.6693435583
 21
4.4001881472
 31
0.0
  0
LINE
  5
F2
330
1F
100
AcDbEntity
  8
0
  6
Continuous
 62
     7
370
    25
100
AcDbLine
 10
6.6693435583
 20
4.4001881472
 30
0.0
 11
6.5493435583
 21
4.4001881472
 31
0.0
  0
LINE
  5
F3
330
1F
100
AcDbEntity
  8
0
  6
Continuous
 62
     7
370
    25
100
AcDbLine
 10
6.5493435583
 20
3.2881881472
 30
0.0
 11
6.5493435583
 21
2.8881881472
 31
0.0
  0
LINE
  5
F4
330
1F
100
AcDbEntity
  8
0
  6
Continuous
 62
     7
370
    25
100
AcDbLine
 10
6.5493435583
 20
2.8881881472
 30
0.0
 11
6.6693435583
 21
2.8881881472
 31
0.0
  0
LINE
  5
F5
330
1F
100
AcDbEntity
  8
0
  6
Continuous
 62
     7
370
    25
100
AcDbLine
 10
6.6693435583
 20
2.8881881472
 30
0.0
 11
6.6693435583
 21
3.2881881472
 31
0.0
  0
LINE
  5
F6
330
1F
100
AcDbEntity
  8
0
  6
Continuous
 62
     7
370
    25
100
AcDbLine
 10
6.6693435583
 20
3.2881881472
 30
0.0
 11
6.5493435583
 21
3.2881881472
 31
0.0
  0
LINE
  5
F7
330
1F
100
AcDbEntity
  8
0
  6
Continuous
 62
     7
370
    25
100
AcDbLine
 10
4.7413435583
 20
4.0001881472
 30
0.0
 11
4.7413435583
 21
4.4001881472
 31
0.0
  0
LINE
  5
F8
330
1F
100
AcDbEntity
  8
0
  6
Continuous
 62
     7
370
    25
100
AcDbLine
 10
4.7413435583
 20
4.4001881472
 30
0.0
 11
4.6213435583
 21
4.4001881472
 31
0.0
  0
LINE
  5
F9
330
1F
100
AcDbEntity
  8
0
  6
Continuous
 62
     7
370
    25
100
AcDbLine
 10
4.6213435583
 20
4.4001881472
 30
0.0
 11
4.6213435583
 21
4.0001881472
 31
0.0
  0
LINE
  5
FA
330
1F
100
AcDbEntity
  8
0
  6
Continuous
 62
     7
370
    25
100
AcDbLine
 10
4.6213435583
 20
4.0001881472
 30
0.0
 11
4.7413435583
 21
4.0001881472
 31
0.0
  0
CIRCLE
  5
FB
330
1F
100
AcDbEntity
  8
0
  6
Continuous
 62
     7
370
    25
100
AcDbCircle
 10
4.7253435583
 20
8.8529161472
 30
0.0
 40
0.1999999999999993
  0
CIRCLE
  5
FC
330
1F
100
AcDbEntity
  8
0
  6
Continuous
 62
     7
370
    25
100
AcDbCircle
 10
6.3253435583
 20
8.0529161472
 30
0.0
 40
0.2000000000000011
  0
CIRCLE
  5
FD
330
1F
100
AcDbEntity
  8
0
  6
Continuous
 62
     7
370
    25
100
AcDbCircle
 10
6.3253435583
 20
8.8529161472
 30
0.0
 40
0.2000000000000002
  0
CIRCLE
  5
FE
330
1F
100
AcDbEntity
  8
0
  6
Continuous
 62
     7
370
    25
100
AcDbCircle
 10
4.7253435583
 20
8.0529161472
 30
0.0
 40
0.2000000000000002
  0
CIRCLE
  5
FF
330
1F
100
AcDbEntity
  8
0
  6
Continuous
 62
     7
370
    25
100
AcDbCircle
 10
7.5653435583
 20
4.4481881472
 30
0.0
 40
0.2599999999999998
  0
CIRCLE
  5
100
330
1F
100
AcDbEntity
  8
0
  6
Continuous
 62
     7
370
    25
100
AcDbCircle
 10
7.5653435583
 20
8.0129161472
 30
0.0
 40
0.2599999999999998
  0
LINE
  5
101
330
1F
100
AcDbEntity
  8
0
  6
Continuous
 62
     7
370
    25
100
AcDbLine
 10
8.2853435583
 20
5.1281881472
 30
0.0
 11
11.9413435583
 21
5.1281881472
 31
0.0
  0
DIMENSION
  5
102
330
1F
100
AcDbEntity
  8
0
  6
Continuous
 62
     7
370
    18
100
AcDbDimension
  2
_D
 10
4.2453435583
 20
2.7195185712
 30
0.0
 11
7.7384016394
 21
2.7195185712
 31
0.0
 70
   160
  1
<>
 71
     2
 42
-1.0
  3
SLDDIMSTYLE0
100
AcDbAlignedDimension
 13
11.9413435583
 23
5.1281881472
 33
0.0
 14
4.2453435583
 24
2.3281881472
 34
0.0
 50
0.0
100
AcDbRotatedDimension
  0
DIMENSION
  5
10C
330
1F
100
AcDbEntity
  8
0
  6
Continuous
 62
     7
370
    18
100
AcDbDimension
  2
_D_1
 10
11.9413435583
 20
2.5029948874
 30
0.0
 11
9.9058100247
 21
2.5029948874
 31
0.0
 70
   160
  1
<>
 71
     2
 42
-1.0
  3
SLDDIMSTYLE0
100
AcDbAlignedDimension
 13
8.0853435583
 23
3.9281881472
 33
0.0
 14
11.9413435583
 24
5.1281881472
 34
0.0
100
AcDbRotatedDimension
  0
DIMENSION
  5
116
330
1F
100
AcDbEntity
  8
0
  6
Continuous
 62
     7
370
    18
100
AcDbDimension
  2
_D_2
 10
8.0853435583
 20
2.8982668874
 30
0.0
 11
7.442221951
 21
2.8982668874
 31
0.0
 70
   160
  1
<>
 71
     2
 42
-1.0
  3
SLDDIMSTYLE1
100
AcDbAlignedDimension
 13
7.0453435583
 23
2.3281881472
 33
0.0
 14
8.0853435583
 24
3.9281881472
 34
0.0
100
AcDbRotatedDimension
  0
DIMENSION
  5
120
330
1F
100
AcDbEntity
  8
0
  6
Continuous
 62
     7
370
    18
100
AcDbDimension
  2
_D_3
 10
7.0453435583
 20
1.6982668874
 30
0.0
 11
5.5979297186
 21
1.6982668874
 31
0.0
 70
   160
  1
<>
 71
     2
 42
-1.0
  3
SLDDIMSTYLE2
100
AcDbAlignedDimension
 13
4.2453435583
 23
2.3281881472
 33
0.0
 14
7.0453435583
 24
2.3281881472
 34
0.0
100
AcDbRotatedDimension
  0
DIMENSION
  5
12B
330
1F
100
AcDbEntity
  8
0
  6
Continuous
 62
     7
370
    18
100
AcDbDimension
  2
_D_4
 10
3.8516427709
 20
2.3281881472
 30
0.0
 11
3.8516427709
 21
5.4747142372
 31
0.0
 70
   160
  1
<>
 71
     2
 42
-1.0
  3
SLDDIMSTYLE0
100
AcDbAlignedDimension
 13
4.2453435583
 23
9.3329161472
 33
0.0
 14
4.2453435583
 24
2.3281881472
 34
0.0
 50
90.0
100
AcDbRotatedDimension
  0
DIMENSION
  5
135
330
1F
100
AcDbEntity
  8
0
  6
Continuous
 62
     7
370
    18
100
AcDbDimension
  2
_D_5
 10
12.6712412742
 20
5.1281881472
 30
0.0
 11
12.6712412742
 21
6.3041152057
 31
0.0
 70
   160
  1
<>
 71
     2
 42
-1.0
  3
SLDDIMSTYLE0
100
AcDbAlignedDimension
 13
11.9413435583
 23
7.3329161472
 33
0.0
 14
11.9413435583
 24
5.1281881472
 34
0.0
 50
90.0
100
AcDbRotatedDimension
  0
DIMENSION
  5
13F
330
1F
100
AcDbEntity
  8
0
  6
Continuous
 62
     7
370
    18
100
AcDbDimension
  2
_D_6
 10
13.7112412742
 20
5.1281881472
 30
0.0
 11
13.7112412742
 21
4.5564399682
 31
0.0
 70
   160
  1
<>
 71
     2
 42
-1.0
  3
SLDDIMSTYLE0
100
AcDbAlignedDimension
 13
7.8853435583
 23
3.7281881472
 33
0.0
 14
11.9413435583
 24
5.1281881472
 34
0.0
 50
90.0
100
AcDbRotatedDimension
  0
DIMENSION
  5
149
330
1F
100
AcDbEntity
  8
0
  6
Continuous
 62
     7
370
    18
100
AcDbDimension
  2
_D_7
 10
13.4712412742
 20
3.7281881472
 30
0.0
 11
13.4712412742
 21
2.957204362
 31
0.0
 70
   160
  1
<>
 71
     2
 42
-1.0
  3
SLDDIMSTYLE0
100
AcDbAlignedDimension
 13
7.0453435583
 23
2.3281881472
 33
0.0
 14
7.8853435583
 24
3.7281881472
 34
0.0
 50
90.0
100
AcDbRotatedDimension
  0
DIMENSION
  5
153
330
1F
100
AcDbEntity
  8
0
  6
Continuous
 62
     7
370
    18
100
AcDbDimension
  2
_D_8
 10
11.1413435583
 20
8.407560111
 30
0.0
 11
11.4942447547
 21
8.407560111
 31
0.0
 70
   160
  1
<>
 71
     2
 42
-1.0
  3
SLDDIMSTYLE1
100
AcDbAlignedDimension
 13
11.9413435583
 23
7.3329161472
 33
0.0
 14
11.1413435583
 24
7.1705521472
 34
0.0
100
AcDbRotatedDimension
  0
DIMENSION
  5
15F
330
1F
100
AcDbEntity
  8
0
  6
Continuous
 62
     7
370
    18
100
AcDbDimension
  2
_D_9
 10
11.9413435583
 20
8.407560111
 30
0.0
 11
10.4017144848
 21
8.407560111
 31
0.0
 70
   160
  1
<>
 71
     2
 42
-1.0
  3
SLDDIMSTYLE0
100
AcDbAlignedDimension
 13
9.8453435583
 23
7.1705521472
 33
0.0
 14
11.9413435583
 24
7.3329161472
 34
0.0
100
AcDbRotatedDimension
  0
DIMENSION
  5
169
330
1F
100
AcDbEntity
  8
0
  6
Continuous
 62
     7
370
    18
100
AcDbDimension
  2
_D_10
 10
8.7733435583
 20
8.407560111
 30
0.0
 11
9.3568072045
 21
8.407560111
 31
0.0
 70
   160
  1
<>
 71
     2
 42
-1.0
  3
SLDDIMSTYLE0
100
AcDbAlignedDimension
 13
11.9413435583
 23
7.3329161472
 33
0.0
 14
8.7733435583
 24
7.1705521472
 34
0.0
100
AcDbRotatedDimension
  0
DIMENSION
  5
173
330
1F
100
AcDbEntity
  8
0
  6
Continuous
 62
     7
370
    18
100
AcDbDimension
  2
_D_11
 10
11.9413435583
 20
8.407560111
 30
0.0
 11
7.8888948641
 21
8.407560111
 31
0.0
 70
   160
  1
<>
 71
     2
 42
-1.0
  3
SLDDIMSTYLE0
100
AcDbAlignedDimension
 13
7.0453435583
 23
7.1705521472
 33
0.0
 14
11.9413435583
 24
7.3329161472
 34
0.0
100
AcDbRotatedDimension
  0
DIMENSION
  5
17D
330
1F
100
AcDbEntity
  8
0
  6
Continuous
 62
     7
370
    18
100
AcDbDimension
  2
_D_12
 10
11.0543935486
 20
6.1208265996
 30
0.0
 11
12.6712416679
 21
8.1611890685
 31
0.0
 70
   163
  1
<>
 71
     1
 42
-1.0
  3
SLDDIMSTYLE3
100
AcDbDiametricDimension
 15
11.228293568
 25
6.3402776949
 35
0.0
 40
0.0
  0
DIMENSION
  5
18A
330
1F
100
AcDbEntity
  8
0
  6
Continuous
 62
     7
370
    18
100
AcDbDimension
  2
_D_13
 10
7.7235130658
 20
7.8065610967
 30
0.0
 11
6.147560482
 21
9.8626205978
 31
0.0
 70
   163
  1
<>
 71
     1
 42
-1.0
  3
SLDDIMSTYLE3
100
AcDbDiametricDimension
 15
7.4071740508
 25
8.2192711978
 35
0.0
 40
0.0
  0
DIMENSION
  5
193
330
1F
100
AcDbEntity
  8
0
  6
Continuous
 62
     7
370
    18
100
AcDbDimension
  2
_D_14
 10
11.9413435583
 20
5.3130768047
 30
0.0
 11
8.3814688555
 21
5.3130768047
 31
0.0
 70
   160
  1
<>
 71
     2
 42
-1.0
  3
SLDDIMSTYLE0
100
AcDbAlignedDimension
 13
7.5653435583
 23
5.5081881472
 33
0.0
 14
11.9413435583
 24
5.1281881472
 34
0.0
100
AcDbRotatedDimension
  0
DIMENSION
  5
19B
330
1F
100
AcDbEntity
  8
0
  6
Continuous
 62
     7
370
    18
100
AcDbDimension
  2
_D_15
 10
6.4413610778
 20
6.2305521472
 30
0.0
 11
6.4413610778
 21
5.4852658792
 31
0.0
 70
   160
  1
<>
 71
     2
 42
-1.0
  3
SLDDIMSTYLE0
100
AcDbAlignedDimension
 13
6.5053435583
 23
4.4481881472
 33
0.0
 14
6.1053435583
 24
6.2305521472
 34
0.0
 50
90.0
100
AcDbRotatedDimension
  0
DIMENSION
  5
1A4
330
1F
100
AcDbEntity
  8
0
  6
Continuous
 62
     7
370
    18
100
AcDbDimension
  2
_D_16
 10
3.8554222984
 20
9.3329161472
 30
0.0
 11
3.8554222984
 21
7.9791285465
 31
0.0
 70
   160
  1
<>
 71
     2
 42
-1.0
  3
SLDDIMSTYLE2
100
AcDbAlignedDimension
 13
8.2853435583
 23
7.3329161472
 33
0.0
 14
4.2453435583
 24
9.3329161472
 34
0.0
 50
90.0
100
AcDbRotatedDimension
  0
DIMENSION
  5
1AE
330
1F
100
AcDbEntity
  8
0
  6
Continuous
 62
     7
370
    18
100
AcDbDimension
  2
_D_17
 10
3.6154222984
 20
5.1281881472
 30
0.0
 11
3.6154222984
 21
3.8028726313
 31
0.0
 70
   160
  1
<>
 71
     2
 42
-1.0
  3
SLDDIMSTYLE2
100
AcDbAlignedDimension
 13
4.2453435583
 23
2.3281881472
 33
0.0
 14
8.2853435583
 24
5.1281881472
 34
0.0
 50
90.0
100
AcDbRotatedDimension
  0
DIMENSION
  5
1B8
330
1F
100
AcDbEntity
  8
0
  6
Continuous
 62
     7
370
    18
100
AcDbDimension
  2
_D_18
 10
8.3834558305
 20
8.7329161472
 30
0.0
 11
8.3834558305
 21
9.7266169346
 31
0.0
 70
   160
  1
<>
 71
     2
 42
-1.0
  3
SLDDIMSTYLE0
100
AcDbAlignedDimension
 13
7.0453435583
 23
9.3329161472
 33
0.0
 14
7.8853435583
 24
8.7329161472
 34
0.0
 50
90.0
100
AcDbRotatedDimension
  0
INSERT
  5
1CE
330
1F
100
AcDbEntity
  8
0
  6
Continuous
 62
     7
370
     0
100
AcDbBlockReference
  2
SW_CENTERMARKSYMBOL_0
 10
11.1413435583
 20
6.2305521472
 30
0.0
  0
INSERT
  5
1DA
330
1F
100
AcDbEntity
  8
0
  6
Continuous
 62
     7
370
     0
100
AcDbBlockReference
  2
SW_CENTERMARKSYMBOL_1
 10
9.8453435583
 20
6.2305521472
 30
0.0
  0
INSERT
  5
1E6
330
1F
100
AcDbEntity
  8
0
  6
Continuous
 62
     7
370
     0
100
AcDbBlockReference
  2
SW_CENTERMARKSYMBOL_2
 10
8.7733435583
 20
6.2305521472
 30
0.0
  0
INSERT
  5
1F2
330
1F
100
AcDbEntity
  8
0
  6
Continuous
 62
     7
370
     0
100
AcDbBlockReference
  2
SW_CENTERMARKSYMBOL_3
 10
7.0453435583
 20
6.2305521472
 30
0.0
  0
INSERT
  5
1FE
330
1F
100
AcDbEntity
  8
0
  6
Continuous
 62
     7
370
     0
100
AcDbBlockReference
  2
SW_CENTERMARKSYMBOL_4
 10
4.7253435583
 20
8.8529161472
 30
0.0
  0
INSERT
  5
20A
330
1F
100
AcDbEntity
  8
0
  6
Continuous
 62
     7
370
     0
100
AcDbBlockReference
  2
SW_CENTERMARKSYMBOL_5
 10
6.3253435583
 20
8.0529161472
 30
0.0
  0
INSERT
  5
216
330
1F
100
AcDbEntity
  8
0
  6
Continuous
 62
     7
370
     0
100
AcDbBlockReference
  2
SW_CENTERMARKSYMBOL_6
 10
6.3253435583
 20
8.8529161472
 30
0.0
  0
INSERT
  5
222
330
1F
100
AcDbEntity
  8
0
  6
Continuous
 62
     7
370
     0
100
AcDbBlockReference
  2
SW_CENTERMARKSYMBOL_7
 10
4.7253435583
 20
8.0529161472
 30
0.0
  0
INSERT
  5
22E
330
1F
100
AcDbEntity
  8
0
  6
Continuous
 62
     7
370
     0
100
AcDbBlockReference
  2
SW_CENTERMARKSYMBOL_8
 10
7.5653435583
 20
4.4481881472
 30
0.0
  0
INSERT
  5
23A
330
1F
100
AcDbEntity
  8
0
  6
Continuous
 62
     7
370
     0
100
AcDbBlockReference
  2
SW_CENTERMARKSYMBOL_9
 10
7.5653435583
 20
8.0129161472
 30
0.0
  0
LINE
  5
23B
330
1F
100
AcDbEntity
  8
0
  6
CENTERX2
 62
     7
370
    18
100
AcDbLine
 10
8.0353435583
 20
6.2305521472
 30
0.0
 11
12.1913435583
 21
6.2305521472
 31
0.0
  0
LINE
  5
23C
330
1F
100
AcDbEntity
  8
0
  6
CENTERX2
 62
     7
370
    18
100
AcDbLine
 10
3.9953435583
 20
5.8305521472
 30
0.0
 11
7.2953435583
 21
5.8305521472
 31
0.0
  0
LINE
  5
23D
330
1F
100
AcDbEntity
  8
0
  6
Continuous
 62
     7
370
    25
100
AcDbLine
 10
13.9664477822
 20
10.1737037155
 30
0.0
 11
14.1432244775
 21
10.2757547295
 31
0.0
  0
LWPOLYLINE
  5
23E
330
1F
100
AcDbEntity
  8
0
  6
Continuous
 62
     7
370
    25
100
AcDbPolyline
 90
       28
 70
   128
 43
0.0
 10
13.3714811621
 20
12.512630497
 10
13.3688127404
 20
12.5405339619
 10
13.3609513307
 20
12.5700140378
 10
13.3483207436
 20
12.5994814463
 10
13.3316018973
 20
12.6273475917
 10
13.3116961091
 20
12.652110203
 10
13.2896765053
 20
12.6724343212
 10
13.2667301684
 20
12.6872242681
 10
13.2440941412
 20
12.6956827136
 10
13.2229887381
 20
12.6973536608
 10
13.2045517566
 20
12.6921470285
 10
13.1897771392
 20
12.6803435077
 10
13.1794613893
 20
12.662579429
 10
13.1741606318
 20
12.6398124588
 10
13.1741606318
 20
12.6132699701
 10
13.1794613893
 20
12.5843828755
 10
13.1897771392
 20
12.5547084857
 10
13.2045517566
 20
12.5258465547
 10
13.2229887381
 20
12.4993530366
 10
13.2440941412
 20
12.476656204
 10
13.2667301684
 20
12.4589796489
 10
13.2896765053
 20
12.447276319
 10
13.3116961091
 20
12.4421771439
 10
13.3316018973
 20
12.4439570213
 10
13.3483207436
 20
12.4525199976
 10
13.3609513307
 20
12.4674044407
 10
13.3688127404
 20
12.4878079262
 10
13.3714811621
 20
12.512630497
  0
LWPOLYLINE
  5
23F
330
1F
100
AcDbEntity
  8
0
  6
Continuous
 62
     7
370
    25
100
AcDbPolyline
 90
       28
 70
   128
 43
0.0
 10
14.59336168
 20
11.8072538884
 10
14.5906932583
 20
11.8351573532
 10
14.5828318486
 20
11.8646374292
 10
14.5702012615
 20
11.8941048377
 10
14.5534824152
 20
11.9219709831
 10
14.533576627
 20
11.9467335944
 10
14.5115570232
 20
11.9670577126
 10
14.4886106862
 20
11.9818476595
 10
14.4659746591
 20
11.990306105
 10
14.444869256
 20
11.9919770522
 10
14.4264322744
 20
11.9867704199
 10
14.411657657
 20
11.974966899
 10
14.4013419072
 20
11.9572028204
 10
14.3960411497
 20
11.9344358502
 10
14.3960411497
 20
11.9078933615
 10
14.4013419072
 20
11.8790062669
 10
14.411657657
 20
11.8493318771
 10
14.4264322744
 20
11.820469946
 10
14.444869256
 20
11.793976428
 10
14.4659746591
 20
11.7712795954
 10
14.4886106862
 20
11.7536030403
 10
14.5115570232
 20
11.7418997104
 10
14.533576627
 20
11.7368005353
 10
14.5534824152
 20
11.7385804127
 10
14.5702012615
 20
11.747143389
 10
14.5828318486
 20
11.7620278321
 10
14.5906932583
 20
11.7824313176
 10
14.59336168
 20
11.8072538884
  0
LWPOLYLINE
  5
240
330
1F
100
AcDbEntity
  8
0
  6
Continuous
 62
     7
370
    25
100
AcDbPolyline
 90
       28
 70
   128
 43
0.0
 10
15.3513801494
 20
11.3696591404
 10
15.3487117278
 20
11.3975626053
 10
15.340850318
 20
11.4270426813
 10
15.3282197309
 20
11.4565100898
 10
15.3115008846
 20
11.4843762352
 10
15.2915950965
 20
11.5091388464
 10
15.2695754926
 20
11.5294629647
 10
15.2466291557
 20
11.5442529115
 10
15.2239931286
 20
11.552711357
 10
15.2028877254
 20
11.5543823042
 10
15.1844507439
 20
11.549175672
 10
15.1696761265
 20
11.5373721511
 10
15.1593603767
 20
11.5196080725
 10
15.1540596191
 20
11.4968411022
 10
15.1540596191
 20
11.4702986136
 10
15.1593603767
 20
11.441411519
 10
15.1696761265
 20
11.4117371291
 10
15.1844507439
 20
11.3828751981
 10
15.2028877254
 20
11.3563816801
 10
15.2239931286
 20
11.3336848475
 10
15.2466291557
 20
11.3160082924
 10
15.2695754926
 20
11.3043049625
 10
15.2915950965
 20
11.2992057873
 10
15.3115008846
 20
11.3009856647
 10
15.3282197309
 20
11.3095486411
 10
15.340850318
 20
11.3244330841
 10
15.3487117278
 20
11.3448365696
 10
15.3513801494
 20
11.3696591404
  0
LWPOLYLINE
  5
241
330
1F
100
AcDbEntity
  8
0
  6
Continuous
 62
     7
370
    25
100
AcDbPolyline
 90
       28
 70
   128
 43
0.0
 10
16.2677905379
 20
10.840626684
 10
16.2651221162
 20
10.8685301488
 10
16.2572607065
 20
10.8980102248
 10
16.2446301193
 20
10.9274776333
 10
16.227911273
 20
10.9553437787
 10
16.2080054849
 20
10.98010639
 10
16.185985881
 20
11.0004305082
 10
16.1630395441
 20
11.0152204551
 10
16.140403517
 20
11.0236789006
 10
16.1192981138
 20
11.0253498478
 10
16.1008611323
 20
11.0201432155
 10
16.0860865149
 20
11.0083396946
 10
16.0757707651
 20
10.990575616
 10
16.0704700076
 20
10.9678086458
 10
16.0704700076
 20
10.9412661571
 10
16.0757707651
 20
10.9123790625
 10
16.0860865149
 20
10.8827046727
 10
16.1008611323
 20
10.8538427416
 10
16.1192981138
 20
10.8273492236
 10
16.140403517
 20
10.804652391
 10
16.1630395441
 20
10.7869758359
 10
16.185985881
 20
10.775272506
 10
16.2080054849
 20
10.7701733309
 10
16.227911273
 20
10.7719532083
 10
16.2446301193
 20
10.7805161846
 10
16.2572607065
 20
10.7954006277
 10
16.2651221162
 20
10.8158041132
 10
16.2677905379
 20
10.840626684
  0
ARC
  5
242
330
1F
100
AcDbEntity
  8
0
  6
Continuous
 62
     7
370
    25
100
AcDbCircle
 10
13.3587010862
 20
10.3771740096
 30
0.0
 40
0.0873418394856959
100
AcDbArc
 50
50.7967147643
 51
189.2140369905
  0
LINE
  5
243
330
1F
100
AcDbEntity
  8
0
  6
Continuous
 62
     7
370
    25
100
AcDbLine
 10
13.2724862127
 20
9.383339596
 30
0.0
 11
13.2724862127
 21
10.3631885702
 31
0.0
  0
LINE
  5
244
330
1F
100
AcDbEntity
  8
0
  6
Continuous
 62
     7
370
    25
100
AcDbLine
 10
11.2925872254
 20
10.5263109525
 30
0.0
 11
13.2724862127
 21
9.383339596
 31
0.0
  0
LINE
  5
245
330
1F
100
AcDbEntity
  8
0
  6
Continuous
 62
     7
370
    25
100
AcDbLine
 10
11.2925872254
 20
10.5263109525
 30
0.0
 11
11.2925872254
 21
16.2459572407
 31
0.0
  0
LINE
  5
246
330
1F
100
AcDbEntity
  8
0
  6
Continuous
 62
     7
370
    25
100
AcDbLine
 10
13.2724862127
 20
15.1029858841
 30
0.0
 11
11.2925872254
 21
16.2459572407
 31
0.0
  0
LINE
  5
247
330
1F
100
AcDbEntity
  8
0
  6
Continuous
 62
     7
370
    25
100
AcDbLine
 10
13.2724862127
 20
14.7763695594
 30
0.0
 11
13.2724862127
 21
15.1029858841
 31
0.0
  0
ARC
  5
248
330
1F
100
AcDbEntity
  8
0
  6
Continuous
 62
     7
370
    25
100
AcDbCircle
 10
13.579529433
 20
14.7903417298
 30
0.0
 40
0.3073609615144051
100
AcDbArc
 50
182.6054784857
 51
237.39452166
  0
LINE
  5
249
330
1F
100
AcDbEntity
  8
0
  6
Continuous
 62
     7
370
    25
100
AcDbLine
 10
13.8664559089
 20
14.27016999
 30
0.0
 11
13.413907569
 21
14.5314205858
 31
0.0
  0
ARC
  5
24A
330
1F
100
AcDbEntity
  8
0
  6
Continuous
 62
     7
370
    25
100
AcDbCircle
 10
13.7008340449
 20
14.011248846
 30
0.0
 40
0.307360961514424
100
AcDbArc
 50
2.6054784857
 51
57.39452166
  0
LINE
  5
24B
330
1F
100
AcDbEntity
  8
0
  6
Continuous
 62
     7
370
    25
100
AcDbLine
 10
14.0078772652
 20
13.2086802046
 30
0.0
 11
14.0078772652
 21
14.0252210165
 31
0.0
  0
ARC
  5
24C
330
1F
100
AcDbEntity
  8
0
  6
Continuous
 62
     7
370
    25
100
AcDbCircle
 10
14.3149204855
 20
13.222652375
 30
0.0
 40
0.3073609615144204
100
AcDbArc
 50
182.6054784857
 51
237.39452166
  0
LINE
  5
24D
330
1F
100
AcDbEntity
  8
0
  6
Continuous
 62
     7
370
    25
100
AcDbLine
 10
16.7344810134
 20
11.4713372026
 30
0.0
 11
14.1492986214
 21
12.963731231
 31
0.0
  0
LINE
  5
24E
330
1F
100
AcDbEntity
  8
0
  6
Continuous
 62
     7
370
    25
100
AcDbLine
 10
16.7344810134
 20
9.6710868115
 30
0.0
 11
16.7344810134
 21
11.4713372026
 31
0.0
  0
LINE
  5
24F
330
1F
100
AcDbEntity
  8
0
  6
Continuous
 62
     7
370
    25
100
AcDbLine
 10
14.1492986214
 20
11.1634808399
 30
0.0
 11
16.7344810134
 21
9.6710868115
 31
0.0
  0
ARC
  5
250
330
1F
100
AcDbEntity
  8
0
  6
Continuous
 62
     7
370
    25
100
AcDbCircle
 10
14.0940921387
 20
11.0957989281
 30
0.0
 40
0.0873418394856989
100
AcDbArc
 50
50.7967147643
 51
189.2140369905
  0
LINE
  5
251
330
1F
100
AcDbEntity
  8
0
  6
Continuous
 62
     7
370
    25
100
AcDbLine
 10
14.0078772652
 20
10.2652726768
 30
0.0
 11
14.0078772652
 21
11.0818134887
 31
0.0
  0
ARC
  5
252
330
1F
100
AcDbEntity
  8
0
  6
Continuous
 62
     7
370
    25
100
AcDbCircle
 10
13.9216623917
 20
10.2512872375
 30
0.0
 40
0.0873418394856962
100
AcDbArc
 50
230.7967147643
 51
9.2140369905
  0
LINE
  5
253
330
1F
100
AcDbEntity
  8
0
  6
Continuous
 62
     7
370
    25
100
AcDbLine
 10
13.413907569
 20
10.4448559214
 30
0.0
 11
13.8664559089
 21
10.1836053256
 31
0.0
  0
LINE
  5
254
330
1F
100
AcDbEntity
  8
0
  6
Continuous
 62
     7
370
    25
100
AcDbLine
 10
11.6433121889
 20
10.7811045954
 30
0.0
 11
11.6433121889
 21
11.1077209202
 31
0.0
  0
LINE
  5
255
330
1F
100
AcDbEntity
  8
0
  6
Continuous
 62
     7
370
    25
100
AcDbLine
 10
11.6433121889
 20
11.1077209202
 30
0.0
 11
11.5584593751
 21
11.1567054069
 31
0.0
  0
LINE
  5
256
330
1F
100
AcDbEntity
  8
0
  6
Continuous
 62
     7
370
    25
100
AcDbLine
 10
11.5584593751
 20
11.1567054069
 30
0.0
 11
11.5584593751
 21
10.8300890822
 31
0.0
  0
LINE
  5
257
330
1F
100
AcDbEntity
  8
0
  6
Continuous
 62
     7
370
    25
100
AcDbLine
 10
11.5584593751
 20
10.8300890822
 30
0.0
 11
11.6433121889
 21
10.7811045954
 31
0.0
  0
LINE
  5
258
330
1F
100
AcDbEntity
  8
0
  6
Continuous
 62
     7
370
    25
100
AcDbLine
 10
12.9217612493
 20
11.2776813699
 30
0.0
 11
12.9217612493
 21
10.9510650452
 31
0.0
  0
LINE
  5
259
330
1F
100
AcDbEntity
  8
0
  6
Continuous
 62
     7
370
    25
100
AcDbLine
 10
12.9217612493
 20
10.9510650452
 30
0.0
 11
13.006614063
 21
10.9020805585
 31
0.0
  0
LINE
  5
25A
330
1F
100
AcDbEntity
  8
0
  6
Continuous
 62
     7
370
    25
100
AcDbLine
 10
13.006614063
 20
10.9020805585
 30
0.0
 11
13.006614063
 21
11.2286968832
 31
0.0
  0
LINE
  5
25B
330
1F
100
AcDbEntity
  8
0
  6
Continuous
 62
     7
370
    25
100
AcDbLine
 10
13.006614063
 20
11.2286968832
 30
0.0
 11
12.9217612493
 21
11.2776813699
 31
0.0
  0
LINE
  5
25C
330
1F
100
AcDbEntity
  8
0
  6
Continuous
 62
     7
370
    25
100
AcDbLine
 10
12.9217612493
 20
10.3696879871
 30
0.0
 11
12.9217612493
 21
10.0430716624
 31
0.0
  0
LINE
  5
25D
330
1F
100
AcDbEntity
  8
0
  6
Continuous
 62
     7
370
    25
100
AcDbLine
 10
12.9217612493
 20
10.0430716624
 30
0.0
 11
13.006614063
 21
9.9940871756
 31
0.0
  0
LINE
  5
25E
330
1F
100
AcDbEntity
  8
0
  6
Continuous
 62
     7
370
    25
100
AcDbLine
 10
13.006614063
 20
9.9940871756
 30
0.0
 11
13.006614063
 21
10.3207035004
 31
0.0
  0
LINE
  5
25F
330
1F
100
AcDbEntity
  8
0
  6
Continuous
 62
     7
370
    25
100
AcDbLine
 10
13.006614063
 20
10.3207035004
 30
0.0
 11
12.9217612493
 21
10.3696879871
 31
0.0
  0
LINE
  5
260
330
1F
100
AcDbEntity
  8
0
  6
Continuous
 62
     7
370
    25
100
AcDbLine
 10
11.6433121889
 20
11.6890979783
 30
0.0
 11
11.6433121889
 21
12.015714303
 31
0.0
  0
LINE
  5
261
330
1F
100
AcDbEntity
  8
0
  6
Continuous
 62
     7
370
    25
100
AcDbLine
 10
11.6433121889
 20
12.015714303
 30
0.0
 11
11.5584593751
 21
12.0646987897
 31
0.0
  0
LINE
  5
262
330
1F
100
AcDbEntity
  8
0
  6
Continuous
 62
     7
370
    25
100
AcDbLine
 10
11.5584593751
 20
12.0646987897
 30
0.0
 11
11.5584593751
 21
11.738082465
 31
0.0
  0
LINE
  5
263
330
1F
100
AcDbEntity
  8
0
  6
Continuous
 62
     7
370
    25
100
AcDbLine
 10
11.5584593751
 20
11.738082465
 30
0.0
 11
11.6433121889
 21
11.6890979783
 31
0.0
  0
LWPOLYLINE
  5
264
330
1F
100
AcDbEntity
  8
0
  6
Continuous
 62
     7
370
    25
100
AcDbPolyline
 90
       34
 70
   128
 43
0.0
 10
11.7734198366
 20
15.576438893
 10
11.7708641685
 20
15.6088205217
 10
11.7632895326
 20
15.6429825057
 10
11.7509696959
 20
15.6776901417
 10
11.7343499296
 20
15.7116890054
 10
11.7140309152
 20
15.7437502894
 10
11.6907470349
 20
15.7727152151
 10
11.6653398288
 20
15.7975369148
 10
11.6387275795
 20
15.8173182675
 10
11.6118721229
 20
15.8313443237
 10
11.5857440854
 20
15.8391081451
 10
11.5612878023
 20
15.840329127
 10
11.5393871873
 20
15.8349631399
 10
11.5208337857
 20
15.8232041245
 10
11.5062981658
 20
15.8054770824
 10
11.4963056828
 20
15.782422715
 10
11.491217491
 20
15.7548742672
 10
11.491217491
 20
15.7238274116
 10
11.4963056828
 20
15.6904042627
 10
11.5062981658
 20
15.65581282
 10
11.5208337857
 20
15.6213033083
 10
11.5393871873
 20
15.5881229915
 10
11.5612878023
 20
15.5574710925
 10
11.5857440854
 20
15.5304554508
 10
11.6118721229
 20
15.5080524822
 10
11.6387275795
 20
15.4910718883
 10
11.6653398288
 20
15.480127392
 10
11.6907470349
 20
15.4756145559
 10
11.7140309152
 20
15.4776964857
 10
11.7343499296
 20
15.4862979349
 10
11.7509696959
 20
15.5011080249
 10
11.7632895326
 20
15.5215914803
 10
11.7708641685
 20
15.5470079758
 10
11.7734198366
 20
15.576438893
  0
LWPOLYLINE
  5
265
330
1F
100
AcDbEntity
  8
0
  6
Continuous
 62
     7
370
    25
100
AcDbPolyline
 90
       34
 70
   128
 43
0.0
 10
12.9047906865
 20
14.270079754
 10
12.9022350184
 20
14.3024613827
 10
12.8946603825
 20
14.3366233667
 10
12.8823405458
 20
14.3713310027
 10
12.8657207795
 20
14.4053298665
 10
12.8454017651
 20
14.4373911504
 10
12.8221178848
 20
14.4663560761
 10
12.7967106787
 20
14.4911777758
 10
12.7700984294
 20
14.5109591286
 10
12.7432429728
 20
14.5249851848
 10
12.7171149353
 20
14.5327490062
 10
12.6926586522
 20
14.533969988
 10
12.6707580371
 20
14.5286040009
 10
12.6522046356
 20
14.5168449856
 10
12.6376690157
 20
14.4991179434
 10
12.6276765327
 20
14.476063576
 10
12.6225883409
 20
14.4485151282
 10
12.6225883409
 20
14.4174682727
 10
12.6276765327
 20
14.3840451237
 10
12.6376690157
 20
14.349453681
 10
12.6522046356
 20
14.3149441694
 10
12.6707580371
 20
14.2817638525
 10
12.6926586522
 20
14.2511119535
 10
12.7171149353
 20
14.2240963119
 10
12.7432429728
 20
14.2016933433
 10
12.7700984294
 20
14.1847127493
 10
12.7967106787
 20
14.173768253
 10
12.8221178848
 20
14.1692554169
 10
12.8454017651
 20
14.1713373467
 10
12.8657207795
 20
14.179938796
 10
12.8823405458
 20
14.1947488859
 10
12.8946603825
 20
14.2152323414
 10
12.9022350184
 20
14.2406488369
 10
12.9047906865
 20
14.270079754
  0
LWPOLYLINE
  5
266
330
1F
100
AcDbEntity
  8
0
  6
Continuous
 62
     7
370
    25
100
AcDbPolyline
 90
       34
 70
   128
 43
0.0
 10
12.9047906865
 20
14.9233124035
 10
12.9022350184
 20
14.9556940323
 10
12.8946603825
 20
14.9898560162
 10
12.8823405458
 20
15.0245636523
 10
12.8657207795
 20
15.058562516
 10
12.8454017651
 20
15.0906237999
 10
12.8221178848
 20
15.1195887256
 10
12.7967106787
 20
15.1444104253
 10
12.7700984294
 20
15.1641917781
 10
12.7432429728
 20
15.1782178343
 10
12.7171149353
 20
15.1859816557
 10
12.6926586522
 20
15.1872026375
 10
12.6707580371
 20
15.1818366504
 10
12.6522046356
 20
15.1700776351
 10
12.6376690157
 20
15.1523505929
 10
12.6276765327
 20
15.1292962255
 10
12.6225883409
 20
15.1017477777
 10
12.6225883409
 20
15.0707009222
 10
12.6276765327
 20
15.0372777732
 10
12.6376690157
 20
15.0026863305
 10
12.6522046356
 20
14.9681768189
 10
12.6707580371
 20
14.934996502
 10
12.6926586522
 20
14.904344603
 10
12.7171149353
 20
14.8773289614
 10
12.7432429728
 20
14.8549259928
 10
12.7700984294
 20
14.8379453989
 10
12.7967106787
 20
14.8270009025
 10
12.8221178848
 20
14.8224880664
 10
12.8454017651
 20
14.8245699962
 10
12.8657207795
 20
14.8331714455
 10
12.8823405458
 20
14.8479815354
 10
12.8946603825
 20
14.8684649909
 10
12.9022350184
 20
14.8938814864
 10
12.9047906865
 20
14.9233124035
  0
LWPOLYLINE
  5
267
330
1F
100
AcDbEntity
  8
0
  6
Continuous
 62
     7
370
    25
100
AcDbPolyline
 90
       34
 70
   128
 43
0.0
 10
11.7734198366
 20
14.9232062434
 10
11.7708641685
 20
14.9555878722
 10
11.7632895326
 20
14.9897498562
 10
11.7509696959
 20
15.0244574922
 10
11.7343499296
 20
15.0584563559
 10
11.7140309152
 20
15.0905176398
 10
11.6907470349
 20
15.1194825656
 10
11.6653398288
 20
15.1443042653
 10
11.6387275795
 20
15.164085618
 10
11.6118721229
 20
15.1781116742
 10
11.5857440854
 20
15.1858754956
 10
11.5612878023
 20
15.1870964775
 10
11.5393871873
 20
15.1817304904
 10
11.5208337857
 20
15.169971475
 10
11.5062981658
 20
15.1522444329
 10
11.4963056828
 20
15.1291900655
 10
11.491217491
 20
15.1016416176
 10
11.491217491
 20
15.0705947621
 10
11.4963056828
 20
15.0371716132
 10
11.5062981658
 20
15.0025801704
 10
11.5208337857
 20
14.9680706588
 10
11.5393871873
 20
14.934890342
 10
11.5612878023
 20
14.904238443
 10
11.5857440854
 20
14.8772228013
 10
11.6118721229
 20
14.8548198327
 10
11.6387275795
 20
14.8378392388
 10
11.6653398288
 20
14.8268947425
 10
11.6907470349
 20
14.8223819064
 10
11.7140309152
 20
14.8244638362
 10
11.7343499296
 20
14.8330652854
 10
11.7509696959
 20
14.8478753754
 10
11.7632895326
 20
14.8683588308
 10
11.7708641685
 20
14.8937753263
 10
11.7734198366
 20
14.9232062434
  0
LWPOLYLINE
  5
268
330
1F
100
AcDbEntity
  8
0
  6
Continuous
 62
     7
370
    25
100
AcDbPolyline
 90
       38
 70
   128
 43
0.0
 10
13.8240295021
 20
10.7960069536
 10
13.8213850194
 20
10.8334125584
 10
13.8135276482
 20
10.8727953268
 10
13.8006834308
 20
10.9130222882
 10
13.783221872
 20
10.9529361863
 10
13.761645309
 20
10.9913887708
 10
13.7365744602
 20
11.0272738309
 10
13.7087305684
 20
11.0595590187
 10
13.6789146515
 20
11.0873155482
 10
13.6479844592
 20
11.1097449146
 10
13.6168297969
 20
11.1262018658
 10
13.5863469275
 20
11.1362129653
 10
13.5574127875
 20
11.139490212
 10
13.5308597596
 20
11.1359393255
 10
13.507451726
 20
11.1256624583
 10
13.4878620932
 20
11.1089552572
 10
13.4726544193
 20
11.0862983579
 10
13.4622662014
 20
11.0583435581
 10
13.4569962895
 20
11.0258950667
 10
13.4569962895
 20
10.9898863675
 10
13.4622662014
 20
10.9513533653
 10
13.4726544193
 20
10.9114045844
 10
13.4878620932
 20
10.8711892786
 10
13.507451726
 20
10.8318643689
 10
13.5308597596
 20
10.7945611613
 10
13.5574127875
 20
10.7603528013
 10
13.5863469275
 20
10.7302234012
 10
13.6168297969
 20
10.7050397287
 10
13.6479844592
 20
10.6855262725
 10
13.6789146515
 20
10.672244399
 10
13.7087305684
 20
10.6655762037
 10
13.7365744602
 20
10.6657135183
 10
13.761645309
 20
10.6726523925
 10
13.783221872
 20
10.6861932076
 10
13.8006834308
 20
10.705946419
 10
13.8135276482
 20
10.7313437627
 10
13.8213850194
 20
10.7616546035
 10
13.8240295021
 20
10.7960069536
  0
LWPOLYLINE
  5
269
330
1F
100
AcDbEntity
  8
0
  6
Continuous
 62
     7
370
    25
100
AcDbPolyline
 90
       38
 70
   128
 43
0.0
 10
13.8240295021
 20
13.7067528488
 10
13.8213850194
 20
13.7441584536
 10
13.8135276482
 20
13.783541222
 10
13.8006834308
 20
13.8237681835
 10
13.783221872
 20
13.8636820815
 10
13.761645309
 20
13.902134666
 10
13.7365744602
 20
13.9380197261
 10
13.7087305684
 20
13.970304914
 10
13.6789146515
 20
13.9980614435
 10
13.6479844592
 20
14.0204908099
 10
13.6168297969
 20
14.0369477611
 10
13.5863469275
 20
14.0469588606
 10
13.5574127875
 20
14.0502361073
 10
13.5308597596
 20
14.0466852208
 10
13.507451726
 20
14.0364083536
 10
13.4878620932
 20
14.0197011524
 10
13.4726544193
 20
13.9970442531
 10
13.4622662014
 20
13.9690894534
 10
13.4569962895
 20
13.9366409619
 10
13.4569962895
 20
13.9006322628
 10
13.4622662014
 20
13.8620992606
 10
13.4726544193
 20
13.8221504797
 10
13.4878620932
 20
13.7819351739
 10
13.507451726
 20
13.7426102641
 10
13.5308597596
 20
13.7053070566
 10
13.5574127875
 20
13.6710986966
 10
13.5863469275
 20
13.6409692964
 10
13.6168297969
 20
13.615785624
 10
13.6479844592
 20
13.5962721678
 10
13.6789146515
 20
13.5829902943
 10
13.7087305684
 20
13.576322099
 10
13.7365744602
 20
13.5764594135
 10
13.761645309
 20
13.5833982878
 10
13.783221872
 20
13.5969391029
 10
13.8006834308
 20
13.6166923143
 10
13.8135276482
 20
13.642089658
 10
13.8213850194
 20
13.6724004988
 10
13.8240295021
 20
13.7067528488
  0
LINE
  5
26A
330
1F
100
AcDbEntity
  8
0
  6
Continuous
 62
     7
370
    25
100
AcDbLine
 10
16.7344810134
 20
9.6710868115
 30
0.0
 11
16.9112577087
 21
9.7731378255
 31
0.0
  0
LINE
  5
26B
330
1F
100
AcDbEntity
  8
0
  6
Continuous
 62
     7
370
    25
100
AcDbLine
 10
16.7344810134
 20
11.4713372026
 30
0.0
 11
16.9112577087
 21
11.5733882166
 31
0.0
  0
LINE
  5
26C
330
1F
100
AcDbEntity
  8
0
  6
Continuous
 62
     7
370
    25
100
AcDbLine
 10
16.9112577087
 20
9.7731378255
 30
0.0
 11
16.9112577087
 21
11.5733882166
 31
0.0
  0
LINE
  5
26D
330
1F
100
AcDbEntity
  8
0
  6
Continuous
 62
     7
370
    25
100
AcDbLine
 10
14.3260753167
 20
13.065782245
 30
0.0
 11
14.1492986214
 21
12.963731231
 31
0.0
  0
LINE
  5
26E
330
1F
100
AcDbEntity
  8
0
  6
Continuous
 62
     7
370
    25
100
AcDbLine
 10
16.9112577087
 20
11.5733882166
 30
0.0
 11
14.3260753167
 21
13.065782245
 31
0.0
  0
LINE
  5
26F
330
1F
100
AcDbEntity
  8
0
  6
Continuous
 62
     7
370
    25
100
AcDbLine
 10
14.1846539605
 20
14.1272720304
 30
0.0
 11
14.0078772652
 21
14.0252210165
 31
0.0
  0
LINE
  5
270
330
1F
100
AcDbEntity
  8
0
  6
Continuous
 62
     7
370
    25
100
AcDbLine
 10
13.8664559089
 20
14.27016999
 30
0.0
 11
14.0432326042
 21
14.372221004
 31
0.0
  0
ARC
  5
271
330
1F
100
AcDbEntity
  8
0
  6
Continuous
 62
     7
370
    25
100
AcDbCircle
 10
13.8776107402
 20
14.11329986
 30
0.0
 40
0.3073609615144131
100
AcDbArc
 50
2.6054784857
 51
57.39452166
  0
LINE
  5
272
330
1F
100
AcDbEntity
  8
0
  6
Continuous
 62
     7
370
    25
100
AcDbLine
 10
14.0078772652
 20
13.2086802046
 30
0.0
 11
14.1846539605
 21
13.3107312186
 31
0.0
  0
LINE
  5
273
330
1F
100
AcDbEntity
  8
0
  6
Continuous
 62
     7
370
    25
100
AcDbLine
 10
14.1846539605
 20
13.3107312186
 30
0.0
 11
14.1846539605
 21
14.1272720304
 31
0.0
  0
LINE
  5
274
330
1F
100
AcDbEntity
  8
0
  6
Continuous
 62
     7
370
    25
100
AcDbLine
 10
13.5906842643
 20
14.6334715998
 30
0.0
 11
13.413907569
 21
14.5314205858
 31
0.0
  0
LINE
  5
275
330
1F
100
AcDbEntity
  8
0
  6
Continuous
 62
     7
370
    25
100
AcDbLine
 10
14.0432326042
 20
14.372221004
 30
0.0
 11
13.5906842643
 21
14.6334715998
 31
0.0
  0
LINE
  5
276
330
1F
100
AcDbEntity
  8
0
  6
Continuous
 62
     7
370
    25
100
AcDbLine
 10
13.449262908
 20
15.2050368981
 30
0.0
 11
13.2724862127
 21
15.1029858841
 31
0.0
  0
LINE
  5
277
330
1F
100
AcDbEntity
  8
0
  6
Continuous
 62
     7
370
    25
100
AcDbLine
 10
13.2724862127
 20
14.7763695594
 30
0.0
 11
13.449262908
 21
14.8784205733
 31
0.0
  0
LINE
  5
278
330
1F
100
AcDbEntity
  8
0
  6
Continuous
 62
     7
370
    25
100
AcDbLine
 10
13.449262908
 20
14.8784205733
 30
0.0
 11
13.449262908
 21
15.2050368981
 31
0.0
  0
LINE
  5
279
330
1F
100
AcDbEntity
  8
0
  6
Continuous
 62
     7
370
    25
100
AcDbLine
 10
11.4693639207
 20
16.3480082547
 30
0.0
 11
11.2925872254
 21
16.2459572407
 31
0.0
  0
LINE
  5
27A
330
1F
100
AcDbEntity
  8
0
  6
Continuous
 62
     7
370
    25
100
AcDbLine
 10
13.449262908
 20
15.2050368981
 30
0.0
 11
11.4693639207
 21
16.3480082547
 31
0.0
  0
ARC
  5
27B
330
1F
100
AcDbEntity
  8
0
  6
Continuous
 62
     7
370
    25
100
AcDbCircle
 10
13.7563061283
 20
14.8923927438
 30
0.0
 40
0.3073609615144227
100
AcDbArc
 50
182.6054784857
 51
237.39452166
  0
ARC
  5
27C
330
1F
100
AcDbEntity
  8
0
  6
Continuous
 62
     7
370
    25
100
AcDbCircle
 10
14.0242907058
 20
14.03462729
 30
0.0
 40
0.3910878090087406
100
AcDbArc
 50
180.8184375704
 51
239.1761858969
  0
ARC
  5
27D
330
1F
100
AcDbEntity
  8
0
  6
Continuous
 62
     7
370
    25
100
AcDbCircle
 10
14.4916971807
 20
13.324703389
 30
0.0
 40
0.3073609615144242
100
AcDbArc
 50
182.6054784857
 51
237.39452166
  0
ARC
  5
27E
330
1F
100
AcDbEntity
  8
0
  6
Continuous
 62
     7
370
    25
100
AcDbCircle
 10
13.1234936477
 20
15.2128485579
 30
0.0
 40
0.3274197015321704
100
AcDbArc
 50
193.3920938492
 51
226.6025296181
  0
ARC
  5
27F
330
1F
100
AcDbEntity
  8
0
  6
Continuous
 62
     7
370
    25
100
AcDbCircle
 10
13.1234936477
 20
14.5596159084
 30
0.0
 40
0.3274197015322419
100
AcDbArc
 50
193.3920938492
 51
226.6025296181
  0
ARC
  5
280
330
1F
100
AcDbEntity
  8
0
  6
Continuous
 62
     7
370
    25
100
AcDbCircle
 10
11.9921227978
 20
15.8659750474
 30
0.0
 40
0.327419701532101
100
AcDbArc
 50
193.3920938492
 51
226.6025296181
  0
ARC
  5
281
330
1F
100
AcDbEntity
  8
0
  6
Continuous
 62
     7
370
    25
100
AcDbCircle
 10
11.9921227978
 20
15.2127423979
 30
0.0
 40
0.3274197015321675
100
AcDbArc
 50
193.3920938492
 51
226.6025296181
  0
LINE
  5
282
330
1F
100
AcDbEntity
  8
0
  6
Continuous
 62
     7
370
    25
100
AcDbLine
 10
14.0078772652
 20
10.2652726768
 30
0.0
 11
14.1846539605
 21
10.3673236908
 31
0.0
  0
LINE
  5
283
330
1F
100
AcDbEntity
  8
0
  6
Continuous
 62
     7
370
    25
100
AcDbLine
 10
14.1846539605
 20
10.3673236908
 30
0.0
 11
14.1846539605
 21
11.1430706371
 31
0.0
  0
ARC
  5
284
330
1F
100
AcDbEntity
  8
0
  6
Continuous
 62
     7
370
    25
100
AcDbCircle
 10
14.0242907058
 20
11.1238813947
 30
0.0
 40
0.3910878090087258
100
AcDbArc
 50
180.8184375704
 51
239.1761858969
  0
ARC
  5
285
330
1F
100
AcDbEntity
  8
0
  6
Continuous
 62
     7
370
    25
100
AcDbCircle
 10
14.0895168493
 20
10.3552108851
 30
0.0
 40
0.0959051092875163
100
AcDbArc
 50
304.0563508332
 51
7.2558295602
  0
LINE
  5
286
330
1F
100
AcDbEntity
  8
0
  6
Continuous
 62
     7
370
    25
100
AcDbLine
 10
13.006614063
 20
11.0000495319
 30
0.0
 11
12.9217612493
 21
10.9510650452
 31
0.0
  0
LINE
  5
287
330
1F
100
AcDbEntity
  8
0
  6
Continuous
 62
     7
370
    25
100
AcDbLine
 10
13.449262908
 20
9.4853906099
 30
0.0
 11
13.2724862127
 21
9.383339596
 31
0.0
  0
LINE
  5
288
330
1F
100
AcDbEntity
  8
0
  6
Continuous
 62
     7
370
    25
100
AcDbLine
 10
13.449262908
 20
9.4853906099
 30
0.0
 11
13.449262908
 21
10.4244457186
 31
0.0
  0
LINE
  5
289
330
1F
100
AcDbEntity
  8
0
  6
Continuous
 62
     7
370
    25
100
AcDbLine
 10
13.006614063
 20
10.0920561491
 30
0.0
 11
12.9217612493
 21
10.0430716624
 31
0.0
  0
LINE
  5
28A
330
1F
100
AcDbEntity
  8
0
  6
Continuous
 62
     7
370
    25
100
AcDbLine
 10
11.6433121889
 20
11.7870669517
 30
0.0
 11
11.5584593751
 21
11.738082465
 31
0.0
  0
LINE
  5
28B
330
1F
100
AcDbEntity
  8
0
  6
Continuous
 62
     7
370
    25
100
AcDbLine
 10
11.6433121889
 20
10.8790735689
 30
0.0
 11
11.5584593751
 21
10.8300890822
 31
0.0
  0
LINE
  5
28C
330
1F
100
AcDbEntity
  8
0
  6
Continuous
 62
     7
370
    25
100
AcDbLine
 10
14.1493216082
 20
11.1634675699
 30
0.0
 11
14.0078772652
 21
11.0818134887
 31
0.0
  0
LINE
  5
28D
330
1F
100
AcDbEntity
  8
0
  6
Continuous
 62
     7
370
    25
100
AcDbLine
 10
13.4139305558
 20
10.4448426514
 30
0.0
 11
13.2724862127
 21
10.3631885702
 31
0.0
  0
ENDSEC
  0
SECTION
  2
OBJECTS
  0
DICTIONARY
  5
C
330
0
100
AcDbDictionary
281
     1
  3
ACAD_GROUP
350
D
  3
ACAD_LAYOUT
350
1A
  3
ACAD_MLINESTYLE
350
17
  3
ACAD_PLOTSETTINGS
350
19
  3
ACAD_PLOTSTYLENAME
350
E
  3
ACAD_SCALELIST
350
47
  3
DWGPROPS
350
28E
  0
DICTIONARY
  5
D
102
{ACAD_REACTORS
330
C
102
}
330
C
100
AcDbDictionary
281
     1
  0
DICTIONARY
  5
1A
102
{ACAD_REACTORS
330
C
102
}
330
C
100
AcDbDictionary
281
     1
  3
Layout1
350
1E
  3
Layout2
350
26
  3
Model
350
22
  0
DICTIONARY
  5
17
102
{ACAD_REACTORS
330
C
102
}
330
C
100
AcDbDictionary
281
     1
  3
Standard
350
18
  0
DICTIONARY
  5
19
102
{ACAD_REACTORS
330
C
102
}
330
C
100
AcDbDictionary
281
     1
  0
ACDBDICTIONARYWDFLT
  5
E
102
{ACAD_REACTORS
330
C
102
}
330
C
100
AcDbDictionary
281
     1
  3
Normal
350
F
100
AcDbDictionaryWithDefault
340
F
  0
DICTIONARY
  5
47
102
{ACAD_REACTORS
330
C
102
}
330
C
100
AcDbDictionary
281
     1
  3
A0
350
48
  3
A1
350
49
  3
A2
350
4A
  3
A3
350
4B
  3
A4
350
4C
  3
A5
350
4D
  3
A6
350
4E
  3
A7
350
4F
  3
A8
350
50
  3
A9
350
51
  3
B1
350
52
  3
B2
350
53
  3
B3
350
54
  3
B4
350
55
  3
B5
350
56
  3
B6
350
57
  3
B7
350
58
  0
XRECORD
  5
28E
102
{ACAD_REACTORS
330
C
102
}
330
C
100
AcDbXrecord
280
     1
  1
DWGPROPS COOKIE
  2

  3

  4

  6

  7

  8
cam
  9

300
=
301
=
302
=
303
=
304
=
305
=
306
=
307
=
308
=
309
=
 40
0.0
 41
2460935.821816227
 42
2460935.821819005
  1

 90
        0
  0
LAYOUT
  5
1E
102
{ACAD_REACTORS
330
1A
102
}
330
1A
100
AcDbPlotSettings
  1

  2
none_device
  4

  6

 40
0.0
 41
0.0
 42
0.0
 43
0.0
 44
0.0
 45
0.0
 46
0.0
 47
0.0
 48
0.0
 49
0.0
140
0.0
141
0.0
142
1.0
143
1.0
 70
   688
 72
     0
 73
     0
 74
     5
  7

 75
    16
147
1.0
148
0.0
149
0.0
100
AcDbLayout
  1
Layout1
 70
     1
 71
     1
 10
0.0
 20
0.0
 11
12.0
 21
9.0
 12
0.0
 22
0.0
 32
0.0
 14
1.0000000000E+20
 24
1.0000000000E+20
 34
1.0000000000E+20
 15
-1.0000000000E+20
 25
-1.0000000000E+20
 35
-1.0000000000E+20
146
0.0
 13
0.0
 23
0.0
 33
0.0
 16
1.0
 26
0.0
 36
0.0
 17
0.0
 27
1.0
 37
0.0
 76
     0
330
1B
  0
LAYOUT
  5
26
102
{ACAD_REACTORS
330
1A
102
}
330
1A
100
AcDbPlotSettings
  1

  2
none_device
  4

  6

 40
0.0
 41
0.0
 42
0.0
 43
0.0
 44
0.0
 45
0.0
 46
0.0
 47
0.0
 48
0.0
 49
0.0
140
0.0
141
0.0
142
1.0
143
1.0
 70
   688
 72
     0
 73
     0
 74
     5
  7

 75
    16
147
1.0
148
0.0
149
0.0
100
AcDbLayout
  1
Layout2
 70
     1
 71
     2
 10
0.0
 20
0.0
 11
0.0
 21
0.0
 12
0.0
 22
0.0
 32
0.0
 14
0.0
 24
0.0
 34
0.0
 15
0.0
 25
0.0
 35
0.0
146
0.0
 13
0.0
 23
0.0
 33
0.0
 16
1.0
 26
0.0
 36
0.0
 17
0.0
 27
1.0
 37
0.0
 76
     0
330
23
  0
LAYOUT
  5
22
102
{ACAD_REACTORS
330
1A
102
}
330
1A
100
AcDbPlotSettings
  1

  2
none_device
  4
Letter_(8.50_x_11.00_Inches)
  6

 40
6.35
 41
6.35
 42
6.35000508
 43
6.35000508
 44
215.9
 45
279.4
 46
0.0
 47
0.0
 48
0.0
 49
0.0
140
0.0
141
0.0
142
1.0
143
1.0
 70
  1712
 72
     0
 73
     0
 74
     0
  7

 75
     0
147
1.0
148
0.0
149
0.0
100
AcDbLayout
  1
Model
 70
     1
 71
     0
 10
0.0
 20
0.0
 11
22.0
 21
17.0
 12
0.0
 22
0.0
 32
0.0
 14
0.0
 24
0.0
 34
0.0
 15
22.0
 25
17.0
 35
0.0
146
0.0
 13
0.0
 23
0.0
 33
0.0
 16
1.0
 26
0.0
 36
0.0
 17
0.0
 27
1.0
 37
0.0
 76
     0
330
1F
331
29
  0
MLINESTYLE
  5
18
102
{ACAD_REACTORS
330
17
102
}
330
17
100
AcDbMlineStyle
  2
Standard
 70
     0
  3

 62
   256
 51
90.0
 52
90.0
 71
     2
 49
0.5
 62
   256
  6
BYLAYER
 49
-0.5
 62
   256
  6
BYLAYER
  0
ACDBPLACEHOLDER
  5
F
102
{ACAD_REACTORS
330
E
102
}
330
E
  0
SCALE
  5
48
102
{ACAD_REACTORS
330
47
102
}
330
47
100
AcDbScale
 70
     0
300
1:1
140
1.0
141
1.0
290
     1
  0
SCALE
  5
49
102
{ACAD_REACTORS
330
47
102
}
330
47
100
AcDbScale
 70
     0
300
1/128" = 1'-0"
140
0.0078125
141
12.0
290
     0
  0
SCALE
  5
4A
102
{ACAD_REACTORS
330
47
102
}
330
47
100
AcDbScale
 70
     0
300
1/64" = 1'-0"
140
0.015625
141
12.0
290
     0
  0
SCALE
  5
4B
102
{ACAD_REACTORS
330
47
102
}
330
47
100
AcDbScale
 70
     0
300
1/32" = 1'-0"
140
0.03125
141
12.0
290
     0
  0
SCALE
  5
4C
102
{ACAD_REACTORS
330
47
102
}
330
47
100
AcDbScale
 70
     0
300
1/16" = 1'-0"
140
0.0625
141
12.0
290
     0
  0
SCALE
  5
4D
102
{ACAD_REACTORS
330
47
102
}
330
47
100
AcDbScale
 70
     0
300
3/32" = 1'-0"
140
0.09375
141
12.0
290
     0
  0
SCALE
  5
4E
102
{ACAD_REACTORS
330
47
102
}
330
47
100
AcDbScale
 70
     0
300
1/8" = 1'-0"
140
0.125
141
12.0
290
     0
  0
SCALE
  5
4F
102
{ACAD_REACTORS
330
47
102
}
330
47
100
AcDbScale
 70
     0
300
3/16" = 1'-0"
140
0.1875
141
12.0
290
     0
  0
SCALE
  5
50
102
{ACAD_REACTORS
330
47
102
}
330
47
100
AcDbScale
 70
     0
300
1/4" = 1'-0"
140
0.25
141
12.0
290
     0
  0
SCALE
  5
51
102
{ACAD_REACTORS
330
47
102
}
330
47
100
AcDbScale
 70
     0
300
3/8" = 1'-0"
140
0.375
141
12.0
290
     0
  0
SCALE
  5
52
102
{ACAD_REACTORS
330
47
102
}
330
47
100
AcDbScale
 70
     0
300
1/2" = 1'-0"
140
0.5
141
12.0
290
     0
  0
SCALE
  5
53
102
{ACAD_REACTORS
330
47
102
}
330
47
100
AcDbScale
 70
     0
300
3/4" = 1'-0"
140
0.75
141
12.0
290
     0
  0
SCALE
  5
54
102
{ACAD_REACTORS
330
47
102
}
330
47
100
AcDbScale
 70
     0
300
1" = 1'-0"
140
1.0
141
12.0
290
     0
  0
SCALE
  5
55
102
{ACAD_REACTORS
330
47
102
}
330
47
100
AcDbScale
 70
     0
300
1-1/2" = 1'-0"
140
1.5
141
12.0
290
     0
  0
SCALE
  5
56
102
{ACAD_REACTORS
330
47
102
}
330
47
100
AcDbScale
 70
     0
300
3" = 1'-0"
140
3.0
141
12.0
290
     0
  0
SCALE
  5
57
102
{ACAD_REACTORS
330
47
102
}
330
47
100
AcDbScale
 70
     0
300
6" = 1'-0"
140
6.0
141
12.0
290
     0
  0
SCALE
  5
58
102
{ACAD_REACTORS
330
47
102
}
330
47
100
AcDbScale
 70
     0
300
1'-0" = 1'-0"
140
12.0
141
12.0
290
     0
  0
ENDSEC
  0
EOF
