%TF.GenerationSoftware,KiCad,Pcbnew,9.0.2*%
%TF.CreationDate,2025-09-26T11:25:47-10:00*%
%TF.ProjectId,auren-probe,61757265-6e2d-4707-926f-62652e6b6963,v2*%
%TF.SameCoordinates,Original*%
%TF.FileFunction,Copper,L2,Bot*%
%TF.FilePolarity,Positive*%
%FSLAX46Y46*%
G04 Gerber Fmt 4.6, Leading zero omitted, Abs format (unit mm)*
G04 Created by KiCad (PCBNEW 9.0.2) date 2025-09-26 11:25:47*
%MOMM*%
%LPD*%
G01*
G04 APERTURE LIST*
%TA.AperFunction,ComponentPad*%
%ADD10R,1.700000X1.700000*%
%TD*%
%TA.AperFunction,ComponentPad*%
%ADD11O,1.700000X1.700000*%
%TD*%
%TA.AperFunction,ComponentPad*%
%ADD12O,1.500000X2.550000*%
%TD*%
%TA.AperFunction,ViaPad*%
%ADD13C,0.558800*%
%TD*%
%TA.AperFunction,Conductor*%
%ADD14C,0.152400*%
%TD*%
G04 APERTURE END LIST*
D10*
%TO.P,J3,1,Pin_1*%
%TO.N,/SPK1+*%
X94327000Y-46003400D03*
D11*
%TO.P,J3,2,Pin_2*%
%TO.N,/SPK1-*%
X94327000Y-48543400D03*
%TD*%
D10*
%TO.P,J4,1,Pin_1*%
%TO.N,/SPK2+*%
X89204400Y-46000000D03*
D11*
%TO.P,J4,2,Pin_2*%
%TO.N,/SPK2-*%
X89204400Y-48540000D03*
%TD*%
D12*
%TO.P,J1,SH,Pin_20*%
%TO.N,GND*%
X88814000Y-61696400D03*
X88814000Y-65056400D03*
X95014000Y-61696400D03*
X95014000Y-65056400D03*
%TD*%
D13*
%TO.N,VDD*%
X96359000Y-50804000D03*
X93895200Y-62665800D03*
X101870800Y-50169000D03*
X106417400Y-50854800D03*
X108297000Y-50956400D03*
X88510400Y-59211400D03*
%TO.N,/CLK_1*%
X94377800Y-59871800D03*
X99635600Y-50981800D03*
X93082400Y-62640400D03*
X95520800Y-50016600D03*
%TO.N,/DAT_1*%
X95393800Y-59008200D03*
X92320400Y-62665800D03*
%TO.N,/SPK1+*%
X93514200Y-50194400D03*
%TO.N,/CLK_2*%
X104233000Y-58398600D03*
X91583800Y-62513400D03*
%TO.N,/DAT_2*%
X90821800Y-62615000D03*
X98860900Y-57674700D03*
%TO.N,/TP_2*%
X89069200Y-58398600D03*
X90085200Y-62564200D03*
%TO.N,Net-(MIC4-DATA)*%
X102455000Y-57687400D03*
X106163400Y-57662000D03*
%TD*%
D14*
%TO.N,/CLK_1*%
X93082400Y-61167200D02*
X93082400Y-62640400D01*
X94377800Y-59871800D02*
X93082400Y-61167200D01*
X99559400Y-50981800D02*
X98594200Y-50016600D01*
X98594200Y-50016600D02*
X95520800Y-50016600D01*
X99635600Y-50981800D02*
X99559400Y-50981800D01*
%TO.N,/DAT_1*%
X95393800Y-59008200D02*
X93631000Y-59008200D01*
X92320400Y-62435315D02*
X92320400Y-62665800D01*
X92304200Y-62419115D02*
X92320400Y-62435315D01*
X93631000Y-59008200D02*
X92304200Y-60335000D01*
X92304200Y-60335000D02*
X92304200Y-62419115D01*
%TO.N,/SPK1+*%
X93082400Y-49762600D02*
X93082400Y-47248000D01*
X93082400Y-47248000D02*
X94327000Y-46003400D01*
X93514200Y-50194400D02*
X93082400Y-49762600D01*
%TO.N,/CLK_2*%
X91604200Y-62493000D02*
X91583800Y-62513400D01*
X91604200Y-59985000D02*
X91604200Y-62493000D01*
X104233000Y-58398600D02*
X93190600Y-58398600D01*
X93190600Y-58398600D02*
X91604200Y-59985000D01*
%TO.N,/DAT_2*%
X98860900Y-57674700D02*
X98848200Y-57687400D01*
X90904200Y-59433800D02*
X90904200Y-62532600D01*
X98848200Y-57687400D02*
X92650600Y-57687400D01*
X90904200Y-62532600D02*
X90821800Y-62615000D01*
X92650600Y-57687400D02*
X90904200Y-59433800D01*
%TO.N,/TP_2*%
X90085200Y-62564200D02*
X90085200Y-59414600D01*
X90085200Y-59414600D02*
X89069200Y-58398600D01*
%TO.N,Net-(MIC4-DATA)*%
X106163400Y-57662000D02*
X102480400Y-57662000D01*
X102480400Y-57662000D02*
X102455000Y-57687400D01*
%TD*%
%TA.AperFunction,Conductor*%
%TO.N,VDD*%
G36*
X96369314Y-44525080D02*
G01*
X96383900Y-44560294D01*
X96383900Y-45790092D01*
X96383906Y-45790122D01*
X96383906Y-45851597D01*
X96415772Y-45991219D01*
X96425879Y-46012206D01*
X96427906Y-46016416D01*
X96429977Y-46024143D01*
X96439926Y-46041376D01*
X96440738Y-46043061D01*
X96477903Y-46120238D01*
X96477905Y-46120240D01*
X96505271Y-46154556D01*
X96513251Y-46168378D01*
X96528274Y-46183401D01*
X96530018Y-46185588D01*
X96567190Y-46232201D01*
X96567191Y-46232202D01*
X96567193Y-46232204D01*
X96615997Y-46271124D01*
X96631018Y-46286146D01*
X96644840Y-46294126D01*
X96679156Y-46321492D01*
X96758019Y-46359470D01*
X96775253Y-46369421D01*
X96782980Y-46371491D01*
X96808181Y-46383627D01*
X96947794Y-46415493D01*
X96947795Y-46415494D01*
X96947797Y-46415494D01*
X97019193Y-46415494D01*
X99573249Y-46415494D01*
X99576137Y-46415578D01*
X99582178Y-46415928D01*
X99645309Y-46419597D01*
X99651017Y-46420262D01*
X99717843Y-46432019D01*
X99723462Y-46433347D01*
X99789901Y-46453193D01*
X99792657Y-46454106D01*
X99815855Y-46462547D01*
X99816040Y-46462594D01*
X111895895Y-50848433D01*
X111924017Y-50874161D01*
X111928700Y-50895243D01*
X111928700Y-57824755D01*
X111914114Y-57859969D01*
X111895895Y-57871565D01*
X99792593Y-62265916D01*
X99789847Y-62266824D01*
X99723463Y-62286647D01*
X99717840Y-62287976D01*
X99651035Y-62299725D01*
X99645297Y-62300394D01*
X99575962Y-62304422D01*
X99573074Y-62304506D01*
X97040032Y-62304506D01*
X97040018Y-62304500D01*
X97019398Y-62304500D01*
X96947794Y-62304500D01*
X96947792Y-62304500D01*
X96808180Y-62336366D01*
X96808174Y-62336369D01*
X96787126Y-62346502D01*
X96787127Y-62346503D01*
X96782912Y-62348532D01*
X96775253Y-62350585D01*
X96758165Y-62360450D01*
X96756464Y-62361270D01*
X96679149Y-62398504D01*
X96647695Y-62423586D01*
X96647696Y-62423587D01*
X96644771Y-62425919D01*
X96631020Y-62433859D01*
X96616064Y-62448814D01*
X96613880Y-62450557D01*
X96613878Y-62450557D01*
X96613878Y-62450558D01*
X96567188Y-62487792D01*
X96567187Y-62487793D01*
X96529951Y-62534485D01*
X96528199Y-62536681D01*
X96513255Y-62551626D01*
X96505320Y-62565369D01*
X96502988Y-62568294D01*
X96502986Y-62568298D01*
X96477898Y-62599760D01*
X96440666Y-62677074D01*
X96440666Y-62677075D01*
X96439851Y-62678766D01*
X96429982Y-62695861D01*
X96427929Y-62703520D01*
X96425902Y-62707731D01*
X96415766Y-62728780D01*
X96415765Y-62728783D01*
X96415765Y-62728784D01*
X96396532Y-62813057D01*
X96383900Y-62868403D01*
X96383900Y-66699706D01*
X96369314Y-66734920D01*
X96334100Y-66749506D01*
X87544700Y-66749506D01*
X87509486Y-66734920D01*
X87494900Y-66699706D01*
X87494900Y-64447472D01*
X87961900Y-64447472D01*
X87961900Y-65665327D01*
X87994643Y-65829938D01*
X87994645Y-65829944D01*
X87994646Y-65829948D01*
X87994648Y-65829952D01*
X88058877Y-65985017D01*
X88058878Y-65985019D01*
X88152127Y-66124578D01*
X88270821Y-66243272D01*
X88354327Y-66299068D01*
X88410379Y-66336521D01*
X88565452Y-66400754D01*
X88565459Y-66400755D01*
X88565461Y-66400756D01*
X88621787Y-66411960D01*
X88730075Y-66433500D01*
X88730080Y-66433500D01*
X88897920Y-66433500D01*
X88897925Y-66433500D01*
X89062548Y-66400754D01*
X89217621Y-66336521D01*
X89357182Y-66243269D01*
X89475869Y-66124582D01*
X89569121Y-65985021D01*
X89633354Y-65829948D01*
X89666100Y-65665325D01*
X89666100Y-64447475D01*
X89666099Y-64447472D01*
X94161900Y-64447472D01*
X94161900Y-65665327D01*
X94194643Y-65829938D01*
X94194645Y-65829944D01*
X94194646Y-65829948D01*
X94194648Y-65829952D01*
X94258877Y-65985017D01*
X94258878Y-65985019D01*
X94352127Y-66124578D01*
X94470821Y-66243272D01*
X94554327Y-66299068D01*
X94610379Y-66336521D01*
X94765452Y-66400754D01*
X94765459Y-66400755D01*
X94765461Y-66400756D01*
X94821787Y-66411960D01*
X94930075Y-66433500D01*
X94930080Y-66433500D01*
X95097920Y-66433500D01*
X95097925Y-66433500D01*
X95262548Y-66400754D01*
X95417621Y-66336521D01*
X95557182Y-66243269D01*
X95675869Y-66124582D01*
X95769121Y-65985021D01*
X95833354Y-65829948D01*
X95866100Y-65665325D01*
X95866100Y-64447475D01*
X95833354Y-64282852D01*
X95769121Y-64127779D01*
X95731668Y-64071727D01*
X95675872Y-63988221D01*
X95557178Y-63869527D01*
X95445835Y-63795131D01*
X95417621Y-63776279D01*
X95417619Y-63776278D01*
X95417617Y-63776277D01*
X95340084Y-63744162D01*
X95262548Y-63712046D01*
X95262544Y-63712045D01*
X95262538Y-63712043D01*
X95097927Y-63679300D01*
X95097925Y-63679300D01*
X94930075Y-63679300D01*
X94930072Y-63679300D01*
X94765461Y-63712043D01*
X94765453Y-63712045D01*
X94765452Y-63712046D01*
X94765448Y-63712047D01*
X94765447Y-63712048D01*
X94610382Y-63776277D01*
X94610380Y-63776278D01*
X94470821Y-63869527D01*
X94470819Y-63869530D01*
X94352130Y-63988219D01*
X94352127Y-63988221D01*
X94258878Y-64127780D01*
X94258877Y-64127782D01*
X94194648Y-64282847D01*
X94194643Y-64282861D01*
X94161900Y-64447472D01*
X89666099Y-64447472D01*
X89633354Y-64282852D01*
X89569121Y-64127779D01*
X89531668Y-64071727D01*
X89475872Y-63988221D01*
X89357178Y-63869527D01*
X89245835Y-63795131D01*
X89217621Y-63776279D01*
X89217619Y-63776278D01*
X89217617Y-63776277D01*
X89140084Y-63744162D01*
X89062548Y-63712046D01*
X89062544Y-63712045D01*
X89062538Y-63712043D01*
X88897927Y-63679300D01*
X88897925Y-63679300D01*
X88730075Y-63679300D01*
X88730072Y-63679300D01*
X88565461Y-63712043D01*
X88565453Y-63712045D01*
X88565452Y-63712046D01*
X88565448Y-63712047D01*
X88565447Y-63712048D01*
X88410382Y-63776277D01*
X88410380Y-63776278D01*
X88270821Y-63869527D01*
X88270819Y-63869530D01*
X88152130Y-63988219D01*
X88152127Y-63988221D01*
X88058878Y-64127780D01*
X88058877Y-64127782D01*
X87994648Y-64282847D01*
X87994643Y-64282861D01*
X87961900Y-64447472D01*
X87494900Y-64447472D01*
X87494900Y-61087472D01*
X87961900Y-61087472D01*
X87961900Y-62305327D01*
X87994643Y-62469938D01*
X87994645Y-62469944D01*
X87994646Y-62469948D01*
X88014488Y-62517851D01*
X88058877Y-62625017D01*
X88058878Y-62625019D01*
X88152127Y-62764578D01*
X88270821Y-62883272D01*
X88354327Y-62939068D01*
X88410379Y-62976521D01*
X88565452Y-63040754D01*
X88565459Y-63040755D01*
X88565461Y-63040756D01*
X88621787Y-63051960D01*
X88730075Y-63073500D01*
X88730080Y-63073500D01*
X88897920Y-63073500D01*
X88897925Y-63073500D01*
X89062548Y-63040754D01*
X89217621Y-62976521D01*
X89357182Y-62883269D01*
X89475869Y-62764582D01*
X89569121Y-62625021D01*
X89607891Y-62531420D01*
X89634842Y-62504469D01*
X89672957Y-62504469D01*
X89699909Y-62531420D01*
X89703700Y-62550478D01*
X89703700Y-62614426D01*
X89729697Y-62711449D01*
X89729698Y-62711451D01*
X89729699Y-62711454D01*
X89744245Y-62736648D01*
X89774693Y-62789388D01*
X89779924Y-62798447D01*
X89850953Y-62869476D01*
X89937946Y-62919701D01*
X90034975Y-62945700D01*
X90135425Y-62945700D01*
X90232454Y-62919701D01*
X90319447Y-62869476D01*
X90390476Y-62798447D01*
X90395707Y-62789386D01*
X90425942Y-62766183D01*
X90463732Y-62771155D01*
X90481963Y-62789385D01*
X90505924Y-62830888D01*
X90516524Y-62849247D01*
X90587553Y-62920276D01*
X90674546Y-62970501D01*
X90771575Y-62996500D01*
X90872025Y-62996500D01*
X90969054Y-62970501D01*
X91056047Y-62920276D01*
X91127076Y-62849247D01*
X91177301Y-62762254D01*
X91180943Y-62748660D01*
X91204145Y-62718421D01*
X91241934Y-62713446D01*
X91272173Y-62736647D01*
X91278524Y-62747647D01*
X91349553Y-62818676D01*
X91436546Y-62868901D01*
X91533575Y-62894900D01*
X91634025Y-62894900D01*
X91731054Y-62868901D01*
X91818047Y-62818676D01*
X91874062Y-62762660D01*
X91909275Y-62748075D01*
X91944489Y-62762661D01*
X91957377Y-62784984D01*
X91964899Y-62813054D01*
X91975196Y-62830889D01*
X92015122Y-62900045D01*
X92015124Y-62900047D01*
X92086153Y-62971076D01*
X92173146Y-63021301D01*
X92270175Y-63047300D01*
X92370625Y-63047300D01*
X92467654Y-63021301D01*
X92554647Y-62971076D01*
X92625676Y-62900047D01*
X92665604Y-62830888D01*
X92695842Y-62807685D01*
X92733631Y-62812660D01*
X92751860Y-62830888D01*
X92774138Y-62869476D01*
X92777124Y-62874647D01*
X92848153Y-62945676D01*
X92935146Y-62995901D01*
X93032175Y-63021900D01*
X93132625Y-63021900D01*
X93229654Y-62995901D01*
X93316647Y-62945676D01*
X93387676Y-62874647D01*
X93437901Y-62787654D01*
X93463900Y-62690625D01*
X93463900Y-62590175D01*
X93437901Y-62493146D01*
X93387676Y-62406153D01*
X93316647Y-62335124D01*
X93285599Y-62317198D01*
X93262397Y-62286958D01*
X93260700Y-62274070D01*
X93260700Y-61261681D01*
X93275285Y-61226468D01*
X93414281Y-61087472D01*
X94161900Y-61087472D01*
X94161900Y-62305327D01*
X94194643Y-62469938D01*
X94194645Y-62469944D01*
X94194646Y-62469948D01*
X94214488Y-62517851D01*
X94258877Y-62625017D01*
X94258878Y-62625019D01*
X94352127Y-62764578D01*
X94470821Y-62883272D01*
X94554327Y-62939068D01*
X94610379Y-62976521D01*
X94765452Y-63040754D01*
X94765459Y-63040755D01*
X94765461Y-63040756D01*
X94821787Y-63051960D01*
X94930075Y-63073500D01*
X94930080Y-63073500D01*
X95097920Y-63073500D01*
X95097925Y-63073500D01*
X95262548Y-63040754D01*
X95417621Y-62976521D01*
X95557182Y-62883269D01*
X95675869Y-62764582D01*
X95769121Y-62625021D01*
X95833354Y-62469948D01*
X95866100Y-62305325D01*
X95866100Y-61087475D01*
X95833354Y-60922852D01*
X95769121Y-60767779D01*
X95727499Y-60705488D01*
X95675872Y-60628221D01*
X95557178Y-60509527D01*
X95445835Y-60435131D01*
X95417621Y-60416279D01*
X95417619Y-60416278D01*
X95417617Y-60416277D01*
X95340084Y-60384162D01*
X95262548Y-60352046D01*
X95262544Y-60352045D01*
X95262538Y-60352043D01*
X95097927Y-60319300D01*
X95097925Y-60319300D01*
X94930075Y-60319300D01*
X94930072Y-60319300D01*
X94765461Y-60352043D01*
X94765453Y-60352045D01*
X94765452Y-60352046D01*
X94765448Y-60352047D01*
X94765447Y-60352048D01*
X94610382Y-60416277D01*
X94610380Y-60416278D01*
X94470821Y-60509527D01*
X94470819Y-60509530D01*
X94352130Y-60628219D01*
X94352127Y-60628221D01*
X94258878Y-60767780D01*
X94258877Y-60767782D01*
X94194648Y-60922847D01*
X94194643Y-60922861D01*
X94161900Y-61087472D01*
X93414281Y-61087472D01*
X94244843Y-60256909D01*
X94280056Y-60242324D01*
X94292946Y-60244021D01*
X94327575Y-60253300D01*
X94428025Y-60253300D01*
X94525054Y-60227301D01*
X94612047Y-60177076D01*
X94683076Y-60106047D01*
X94733301Y-60019054D01*
X94755070Y-59937810D01*
X97158300Y-59937810D01*
X97158300Y-60110589D01*
X97192003Y-60280031D01*
X97192006Y-60280041D01*
X97258123Y-60439662D01*
X97354108Y-60583315D01*
X97476284Y-60705491D01*
X97562241Y-60762924D01*
X97619937Y-60801476D01*
X97779559Y-60867594D01*
X97779565Y-60867595D01*
X97779568Y-60867596D01*
X97837555Y-60879130D01*
X97949013Y-60901300D01*
X97949017Y-60901300D01*
X98121783Y-60901300D01*
X98121787Y-60901300D01*
X98291241Y-60867594D01*
X98450863Y-60801476D01*
X98594519Y-60705488D01*
X98716688Y-60583319D01*
X98812676Y-60439663D01*
X98878794Y-60280041D01*
X98912500Y-60110587D01*
X98912500Y-59937813D01*
X98878794Y-59768359D01*
X98812676Y-59608737D01*
X98784470Y-59566524D01*
X98716691Y-59465084D01*
X98594515Y-59342908D01*
X98475588Y-59263445D01*
X98450863Y-59246924D01*
X98450861Y-59246923D01*
X98450862Y-59246923D01*
X98291241Y-59180806D01*
X98291231Y-59180803D01*
X98121789Y-59147100D01*
X98121787Y-59147100D01*
X97949013Y-59147100D01*
X97949010Y-59147100D01*
X97779568Y-59180803D01*
X97779558Y-59180806D01*
X97619937Y-59246923D01*
X97476284Y-59342908D01*
X97476282Y-59342911D01*
X97354111Y-59465082D01*
X97354108Y-59465084D01*
X97258123Y-59608737D01*
X97192006Y-59768358D01*
X97192003Y-59768368D01*
X97158300Y-59937810D01*
X94755070Y-59937810D01*
X94759300Y-59922025D01*
X94759300Y-59821575D01*
X94733301Y-59724546D01*
X94683076Y-59637553D01*
X94612047Y-59566524D01*
X94612046Y-59566523D01*
X94525057Y-59516301D01*
X94525054Y-59516299D01*
X94525051Y-59516298D01*
X94525049Y-59516297D01*
X94428026Y-59490300D01*
X94428025Y-59490300D01*
X94327575Y-59490300D01*
X94327573Y-59490300D01*
X94230550Y-59516297D01*
X94230542Y-59516301D01*
X94143553Y-59566523D01*
X94072523Y-59637553D01*
X94022301Y-59724542D01*
X94022297Y-59724550D01*
X93996300Y-59821573D01*
X93996300Y-59922026D01*
X94005578Y-59956652D01*
X94000603Y-59994441D01*
X93992689Y-60004755D01*
X92981401Y-61016045D01*
X92931245Y-61066200D01*
X92904100Y-61131733D01*
X92904100Y-62274070D01*
X92889514Y-62309284D01*
X92879201Y-62317198D01*
X92848152Y-62335124D01*
X92777123Y-62406153D01*
X92737195Y-62475311D01*
X92706956Y-62498514D01*
X92669167Y-62493539D01*
X92650939Y-62475310D01*
X92625677Y-62431554D01*
X92554646Y-62360523D01*
X92507400Y-62333245D01*
X92484197Y-62303006D01*
X92482500Y-62290117D01*
X92482500Y-60429482D01*
X92497086Y-60394268D01*
X93690269Y-59201086D01*
X93725483Y-59186500D01*
X95027471Y-59186500D01*
X95062685Y-59201086D01*
X95070599Y-59211400D01*
X95088524Y-59242447D01*
X95159553Y-59313476D01*
X95246546Y-59363701D01*
X95343575Y-59389700D01*
X95444025Y-59389700D01*
X95541054Y-59363701D01*
X95628047Y-59313476D01*
X95699076Y-59242447D01*
X95749301Y-59155454D01*
X95775300Y-59058425D01*
X95775300Y-58957975D01*
X95749301Y-58860946D01*
X95699076Y-58773953D01*
X95628047Y-58702924D01*
X95628046Y-58702923D01*
X95595401Y-58684076D01*
X95570721Y-58669827D01*
X95547519Y-58639590D01*
X95552494Y-58601800D01*
X95582732Y-58578597D01*
X95595622Y-58576900D01*
X103866671Y-58576900D01*
X103901885Y-58591486D01*
X103909799Y-58601800D01*
X103927724Y-58632847D01*
X103998753Y-58703876D01*
X104085746Y-58754101D01*
X104182775Y-58780100D01*
X104283225Y-58780100D01*
X104380254Y-58754101D01*
X104467247Y-58703876D01*
X104538276Y-58632847D01*
X104588501Y-58545854D01*
X104614500Y-58448825D01*
X104614500Y-58348375D01*
X104588501Y-58251346D01*
X104538276Y-58164353D01*
X104467247Y-58093324D01*
X104467246Y-58093323D01*
X104402944Y-58056199D01*
X104380254Y-58043099D01*
X104380251Y-58043098D01*
X104380249Y-58043097D01*
X104283226Y-58017100D01*
X104283225Y-58017100D01*
X104182775Y-58017100D01*
X104182773Y-58017100D01*
X104085750Y-58043097D01*
X104085742Y-58043101D01*
X103998753Y-58093323D01*
X103927723Y-58164353D01*
X103909799Y-58195400D01*
X103879560Y-58218603D01*
X103866671Y-58220300D01*
X93226065Y-58220300D01*
X93155134Y-58220300D01*
X93122367Y-58233872D01*
X93089600Y-58247445D01*
X91453045Y-59884000D01*
X91425900Y-59949533D01*
X91425900Y-62135292D01*
X91411314Y-62170506D01*
X91401001Y-62178420D01*
X91349552Y-62208124D01*
X91278523Y-62279153D01*
X91228301Y-62366142D01*
X91228296Y-62366152D01*
X91224655Y-62379742D01*
X91201451Y-62409979D01*
X91163661Y-62414952D01*
X91138844Y-62399378D01*
X91135774Y-62395820D01*
X91127076Y-62380753D01*
X91095790Y-62349467D01*
X91094591Y-62348077D01*
X91089144Y-62331590D01*
X91082500Y-62315549D01*
X91082500Y-59528282D01*
X91097086Y-59493068D01*
X92709869Y-57880286D01*
X92745083Y-57865700D01*
X98501904Y-57865700D01*
X98537118Y-57880286D01*
X98545030Y-57890598D01*
X98555624Y-57908947D01*
X98626653Y-57979976D01*
X98713646Y-58030201D01*
X98810675Y-58056200D01*
X98911125Y-58056200D01*
X99008154Y-58030201D01*
X99095147Y-57979976D01*
X99166176Y-57908947D01*
X99216401Y-57821954D01*
X99242400Y-57724925D01*
X99242400Y-57637173D01*
X102073500Y-57637173D01*
X102073500Y-57737626D01*
X102099497Y-57834649D01*
X102099498Y-57834651D01*
X102099499Y-57834654D01*
X102114150Y-57860030D01*
X102142391Y-57908947D01*
X102149724Y-57921647D01*
X102220753Y-57992676D01*
X102307746Y-58042901D01*
X102404775Y-58068900D01*
X102505225Y-58068900D01*
X102602254Y-58042901D01*
X102689247Y-57992676D01*
X102760276Y-57921647D01*
X102792865Y-57865199D01*
X102823103Y-57841997D01*
X102835993Y-57840300D01*
X105797071Y-57840300D01*
X105832285Y-57854886D01*
X105840199Y-57865200D01*
X105854863Y-57890600D01*
X105858124Y-57896247D01*
X105929153Y-57967276D01*
X106016146Y-58017501D01*
X106113175Y-58043500D01*
X106213625Y-58043500D01*
X106310654Y-58017501D01*
X106397647Y-57967276D01*
X106468676Y-57896247D01*
X106518901Y-57809254D01*
X106544900Y-57712225D01*
X106544900Y-57611775D01*
X106518901Y-57514746D01*
X106468676Y-57427753D01*
X106397647Y-57356724D01*
X106397646Y-57356723D01*
X106310657Y-57306501D01*
X106310654Y-57306499D01*
X106310651Y-57306498D01*
X106310649Y-57306497D01*
X106213626Y-57280500D01*
X106213625Y-57280500D01*
X106113175Y-57280500D01*
X106113173Y-57280500D01*
X106016150Y-57306497D01*
X106016142Y-57306501D01*
X105929153Y-57356723D01*
X105858123Y-57427753D01*
X105840199Y-57458800D01*
X105809960Y-57482003D01*
X105797071Y-57483700D01*
X102806664Y-57483700D01*
X102771450Y-57469114D01*
X102763535Y-57458798D01*
X102760276Y-57453153D01*
X102689246Y-57382123D01*
X102602257Y-57331901D01*
X102602254Y-57331899D01*
X102602251Y-57331898D01*
X102602249Y-57331897D01*
X102505226Y-57305900D01*
X102505225Y-57305900D01*
X102404775Y-57305900D01*
X102404773Y-57305900D01*
X102307750Y-57331897D01*
X102307742Y-57331901D01*
X102220753Y-57382123D01*
X102149723Y-57453153D01*
X102099501Y-57540142D01*
X102099497Y-57540150D01*
X102073500Y-57637173D01*
X99242400Y-57637173D01*
X99242400Y-57624475D01*
X99216401Y-57527446D01*
X99166176Y-57440453D01*
X99095147Y-57369424D01*
X99095146Y-57369423D01*
X99008157Y-57319201D01*
X99008154Y-57319199D01*
X99008151Y-57319198D01*
X99008149Y-57319197D01*
X98911126Y-57293200D01*
X98911125Y-57293200D01*
X98810675Y-57293200D01*
X98810673Y-57293200D01*
X98713650Y-57319197D01*
X98713642Y-57319201D01*
X98626653Y-57369423D01*
X98555623Y-57440453D01*
X98530367Y-57484200D01*
X98500129Y-57507403D01*
X98487239Y-57509100D01*
X92615134Y-57509100D01*
X92601504Y-57514746D01*
X92601503Y-57514746D01*
X92549601Y-57536243D01*
X90803201Y-59282645D01*
X90753045Y-59332800D01*
X90725900Y-59398333D01*
X90725900Y-62207525D01*
X90711314Y-62242739D01*
X90688992Y-62255627D01*
X90674553Y-62259496D01*
X90674542Y-62259501D01*
X90587553Y-62309723D01*
X90516522Y-62380754D01*
X90511291Y-62389815D01*
X90481052Y-62413017D01*
X90443263Y-62408041D01*
X90425036Y-62389814D01*
X90420784Y-62382450D01*
X90390476Y-62329953D01*
X90319447Y-62258924D01*
X90288399Y-62240998D01*
X90265197Y-62210758D01*
X90263500Y-62197870D01*
X90263500Y-59379135D01*
X90263500Y-59379134D01*
X90236355Y-59313601D01*
X90186199Y-59263445D01*
X89454310Y-58531556D01*
X89439724Y-58496342D01*
X89441421Y-58483452D01*
X89450700Y-58448825D01*
X89450700Y-58348375D01*
X89450699Y-58348373D01*
X89424702Y-58251350D01*
X89424701Y-58251346D01*
X89374476Y-58164353D01*
X89303447Y-58093324D01*
X89303446Y-58093323D01*
X89239144Y-58056199D01*
X89216454Y-58043099D01*
X89216451Y-58043098D01*
X89216449Y-58043097D01*
X89119426Y-58017100D01*
X89119425Y-58017100D01*
X89018975Y-58017100D01*
X89018973Y-58017100D01*
X88921950Y-58043097D01*
X88921942Y-58043101D01*
X88834953Y-58093323D01*
X88763923Y-58164353D01*
X88713701Y-58251342D01*
X88713697Y-58251350D01*
X88687700Y-58348373D01*
X88687700Y-58448826D01*
X88713697Y-58545849D01*
X88713698Y-58545851D01*
X88713699Y-58545854D01*
X88763924Y-58632847D01*
X88834953Y-58703876D01*
X88921946Y-58754101D01*
X89018975Y-58780100D01*
X89119425Y-58780100D01*
X89154052Y-58770821D01*
X89191841Y-58775795D01*
X89202156Y-58783710D01*
X89892314Y-59473868D01*
X89906900Y-59509082D01*
X89906900Y-62197870D01*
X89892314Y-62233084D01*
X89882001Y-62240998D01*
X89850952Y-62258924D01*
X89779923Y-62329953D01*
X89749615Y-62382450D01*
X89719376Y-62405653D01*
X89681587Y-62400678D01*
X89658384Y-62370439D01*
X89657644Y-62347834D01*
X89657909Y-62346502D01*
X89666100Y-62305325D01*
X89666100Y-61087475D01*
X89633354Y-60922852D01*
X89569121Y-60767779D01*
X89527499Y-60705488D01*
X89475872Y-60628221D01*
X89357178Y-60509527D01*
X89245835Y-60435131D01*
X89217621Y-60416279D01*
X89217619Y-60416278D01*
X89217617Y-60416277D01*
X89140084Y-60384162D01*
X89062548Y-60352046D01*
X89062544Y-60352045D01*
X89062538Y-60352043D01*
X88897927Y-60319300D01*
X88897925Y-60319300D01*
X88730075Y-60319300D01*
X88730072Y-60319300D01*
X88565461Y-60352043D01*
X88565453Y-60352045D01*
X88565452Y-60352046D01*
X88565448Y-60352047D01*
X88565447Y-60352048D01*
X88410382Y-60416277D01*
X88410380Y-60416278D01*
X88270821Y-60509527D01*
X88270819Y-60509530D01*
X88152130Y-60628219D01*
X88152127Y-60628221D01*
X88058878Y-60767780D01*
X88058877Y-60767782D01*
X87994648Y-60922847D01*
X87994643Y-60922861D01*
X87961900Y-61087472D01*
X87494900Y-61087472D01*
X87494900Y-54293895D01*
X95887300Y-54293895D01*
X95887300Y-54426104D01*
X95921515Y-54553799D01*
X95921516Y-54553801D01*
X95921517Y-54553804D01*
X95987620Y-54668297D01*
X96081103Y-54761780D01*
X96195596Y-54827883D01*
X96323297Y-54862100D01*
X96455503Y-54862100D01*
X96583204Y-54827883D01*
X96697697Y-54761780D01*
X96791180Y-54668297D01*
X96857283Y-54553804D01*
X96891500Y-54426103D01*
X96891500Y-54293897D01*
X96891499Y-54293895D01*
X101373700Y-54293895D01*
X101373700Y-54426104D01*
X101407915Y-54553799D01*
X101407916Y-54553801D01*
X101407917Y-54553804D01*
X101474020Y-54668297D01*
X101567503Y-54761780D01*
X101681996Y-54827883D01*
X101809697Y-54862100D01*
X101941903Y-54862100D01*
X102069604Y-54827883D01*
X102184097Y-54761780D01*
X102277580Y-54668297D01*
X102343683Y-54553804D01*
X102377900Y-54426103D01*
X102377900Y-54293897D01*
X102377899Y-54293895D01*
X104777300Y-54293895D01*
X104777300Y-54426104D01*
X104811515Y-54553799D01*
X104811516Y-54553801D01*
X104811517Y-54553804D01*
X104877620Y-54668297D01*
X104971103Y-54761780D01*
X105085596Y-54827883D01*
X105213297Y-54862100D01*
X105345503Y-54862100D01*
X105473204Y-54827883D01*
X105587697Y-54761780D01*
X105681180Y-54668297D01*
X105747283Y-54553804D01*
X105781500Y-54426103D01*
X105781500Y-54293897D01*
X105781499Y-54293895D01*
X108892100Y-54293895D01*
X108892100Y-54426104D01*
X108926315Y-54553799D01*
X108926316Y-54553801D01*
X108926317Y-54553804D01*
X108992420Y-54668297D01*
X109085903Y-54761780D01*
X109200396Y-54827883D01*
X109328097Y-54862100D01*
X109460303Y-54862100D01*
X109588004Y-54827883D01*
X109702497Y-54761780D01*
X109795980Y-54668297D01*
X109862083Y-54553804D01*
X109896300Y-54426103D01*
X109896300Y-54293897D01*
X109862083Y-54166196D01*
X109795980Y-54051703D01*
X109702497Y-53958220D01*
X109702496Y-53958219D01*
X109588007Y-53892119D01*
X109588004Y-53892117D01*
X109588001Y-53892116D01*
X109587999Y-53892115D01*
X109460304Y-53857900D01*
X109460303Y-53857900D01*
X109328097Y-53857900D01*
X109328095Y-53857900D01*
X109200400Y-53892115D01*
X109200392Y-53892119D01*
X109085903Y-53958219D01*
X108992419Y-54051703D01*
X108926319Y-54166192D01*
X108926315Y-54166200D01*
X108892100Y-54293895D01*
X105781499Y-54293895D01*
X105747283Y-54166196D01*
X105681180Y-54051703D01*
X105587697Y-53958220D01*
X105587696Y-53958219D01*
X105473207Y-53892119D01*
X105473204Y-53892117D01*
X105473201Y-53892116D01*
X105473199Y-53892115D01*
X105345504Y-53857900D01*
X105345503Y-53857900D01*
X105213297Y-53857900D01*
X105213295Y-53857900D01*
X105085600Y-53892115D01*
X105085592Y-53892119D01*
X104971103Y-53958219D01*
X104877619Y-54051703D01*
X104811519Y-54166192D01*
X104811515Y-54166200D01*
X104777300Y-54293895D01*
X102377899Y-54293895D01*
X102343683Y-54166196D01*
X102277580Y-54051703D01*
X102184097Y-53958220D01*
X102184096Y-53958219D01*
X102069607Y-53892119D01*
X102069604Y-53892117D01*
X102069601Y-53892116D01*
X102069599Y-53892115D01*
X101941904Y-53857900D01*
X101941903Y-53857900D01*
X101809697Y-53857900D01*
X101809695Y-53857900D01*
X101682000Y-53892115D01*
X101681992Y-53892119D01*
X101567503Y-53958219D01*
X101474019Y-54051703D01*
X101407919Y-54166192D01*
X101407915Y-54166200D01*
X101373700Y-54293895D01*
X96891499Y-54293895D01*
X96857283Y-54166196D01*
X96791180Y-54051703D01*
X96697697Y-53958220D01*
X96697696Y-53958219D01*
X96583207Y-53892119D01*
X96583204Y-53892117D01*
X96583201Y-53892116D01*
X96583199Y-53892115D01*
X96455504Y-53857900D01*
X96455503Y-53857900D01*
X96323297Y-53857900D01*
X96323295Y-53857900D01*
X96195600Y-53892115D01*
X96195592Y-53892119D01*
X96081103Y-53958219D01*
X95987619Y-54051703D01*
X95921519Y-54166192D01*
X95921515Y-54166200D01*
X95887300Y-54293895D01*
X87494900Y-54293895D01*
X87494900Y-48446223D01*
X88252300Y-48446223D01*
X88252300Y-48633776D01*
X88288885Y-48817707D01*
X88288888Y-48817717D01*
X88360659Y-48990988D01*
X88464851Y-49146924D01*
X88597475Y-49279548D01*
X88690782Y-49341892D01*
X88753411Y-49383740D01*
X88926683Y-49455512D01*
X88926689Y-49455513D01*
X88926692Y-49455514D01*
X88989638Y-49468034D01*
X89110626Y-49492100D01*
X89110630Y-49492100D01*
X89298170Y-49492100D01*
X89298174Y-49492100D01*
X89482117Y-49455512D01*
X89655389Y-49383740D01*
X89811328Y-49279545D01*
X89943945Y-49146928D01*
X90048140Y-48990989D01*
X90119912Y-48817717D01*
X90156500Y-48633774D01*
X90156500Y-48446226D01*
X90119912Y-48262283D01*
X90048140Y-48089011D01*
X89943948Y-47933075D01*
X89811324Y-47800451D01*
X89660476Y-47699659D01*
X89655389Y-47696260D01*
X89655387Y-47696259D01*
X89655388Y-47696259D01*
X89482117Y-47624488D01*
X89482107Y-47624485D01*
X89298176Y-47587900D01*
X89298174Y-47587900D01*
X89110626Y-47587900D01*
X89110623Y-47587900D01*
X88926692Y-47624485D01*
X88926682Y-47624488D01*
X88753411Y-47696259D01*
X88597475Y-47800451D01*
X88597473Y-47800454D01*
X88464854Y-47933073D01*
X88464851Y-47933075D01*
X88360659Y-48089011D01*
X88288888Y-48262282D01*
X88288885Y-48262292D01*
X88252300Y-48446223D01*
X87494900Y-48446223D01*
X87494900Y-47212533D01*
X92904100Y-47212533D01*
X92904100Y-49798066D01*
X92931245Y-49863599D01*
X93129089Y-50061443D01*
X93143675Y-50096657D01*
X93141978Y-50109545D01*
X93132700Y-50144171D01*
X93132700Y-50244626D01*
X93158697Y-50341649D01*
X93158698Y-50341651D01*
X93158699Y-50341654D01*
X93208924Y-50428647D01*
X93279953Y-50499676D01*
X93366946Y-50549901D01*
X93463975Y-50575900D01*
X93564425Y-50575900D01*
X93661454Y-50549901D01*
X93748447Y-50499676D01*
X93819476Y-50428647D01*
X93869701Y-50341654D01*
X93895700Y-50244625D01*
X93895700Y-50144175D01*
X93869701Y-50047146D01*
X93823067Y-49966373D01*
X95139300Y-49966373D01*
X95139300Y-50066826D01*
X95165297Y-50163849D01*
X95165301Y-50163857D01*
X95211931Y-50244625D01*
X95215524Y-50250847D01*
X95286553Y-50321876D01*
X95373546Y-50372101D01*
X95470575Y-50398100D01*
X95571025Y-50398100D01*
X95668054Y-50372101D01*
X95755047Y-50321876D01*
X95826076Y-50250847D01*
X95844001Y-50219800D01*
X95874240Y-50196597D01*
X95887129Y-50194900D01*
X98499718Y-50194900D01*
X98534932Y-50209486D01*
X99239514Y-50914068D01*
X99254100Y-50949282D01*
X99254100Y-51032026D01*
X99280097Y-51129049D01*
X99280098Y-51129051D01*
X99280099Y-51129054D01*
X99330324Y-51216047D01*
X99401353Y-51287076D01*
X99488346Y-51337301D01*
X99585375Y-51363300D01*
X99685825Y-51363300D01*
X99782854Y-51337301D01*
X99869847Y-51287076D01*
X99940876Y-51216047D01*
X99991101Y-51129054D01*
X100017100Y-51032025D01*
X100017100Y-50931575D01*
X99991101Y-50834546D01*
X99940876Y-50747553D01*
X99869847Y-50676524D01*
X99869846Y-50676523D01*
X99782857Y-50626301D01*
X99782854Y-50626299D01*
X99782851Y-50626298D01*
X99782849Y-50626297D01*
X99685826Y-50600300D01*
X99685825Y-50600300D01*
X99585375Y-50600300D01*
X99585374Y-50600300D01*
X99544869Y-50611153D01*
X99490649Y-50625681D01*
X99452861Y-50620707D01*
X99442547Y-50612793D01*
X98695199Y-49865445D01*
X98690742Y-49863599D01*
X98629666Y-49838300D01*
X98629665Y-49838300D01*
X95887129Y-49838300D01*
X95851915Y-49823714D01*
X95844001Y-49813400D01*
X95826076Y-49782353D01*
X95755046Y-49711323D01*
X95668057Y-49661101D01*
X95668054Y-49661099D01*
X95668051Y-49661098D01*
X95668049Y-49661097D01*
X95571026Y-49635100D01*
X95571025Y-49635100D01*
X95470575Y-49635100D01*
X95470573Y-49635100D01*
X95373550Y-49661097D01*
X95373542Y-49661101D01*
X95286553Y-49711323D01*
X95215523Y-49782353D01*
X95165301Y-49869342D01*
X95165297Y-49869350D01*
X95139300Y-49966373D01*
X93823067Y-49966373D01*
X93819476Y-49960153D01*
X93748447Y-49889124D01*
X93748446Y-49889123D01*
X93661457Y-49838901D01*
X93661454Y-49838899D01*
X93661451Y-49838898D01*
X93661449Y-49838897D01*
X93564426Y-49812900D01*
X93564425Y-49812900D01*
X93463975Y-49812900D01*
X93463971Y-49812900D01*
X93429345Y-49822178D01*
X93391556Y-49817203D01*
X93381243Y-49809289D01*
X93275286Y-49703332D01*
X93260700Y-49668118D01*
X93260700Y-48449623D01*
X93374900Y-48449623D01*
X93374900Y-48637176D01*
X93411485Y-48821107D01*
X93411488Y-48821117D01*
X93483259Y-48994388D01*
X93587451Y-49150324D01*
X93720075Y-49282948D01*
X93813382Y-49345292D01*
X93876011Y-49387140D01*
X94049283Y-49458912D01*
X94049289Y-49458913D01*
X94049292Y-49458914D01*
X94112238Y-49471434D01*
X94233226Y-49495500D01*
X94233230Y-49495500D01*
X94420770Y-49495500D01*
X94420774Y-49495500D01*
X94604717Y-49458912D01*
X94777989Y-49387140D01*
X94933928Y-49282945D01*
X95066545Y-49150328D01*
X95068818Y-49146927D01*
X95100804Y-49099055D01*
X95170740Y-48994389D01*
X95242512Y-48821117D01*
X95279100Y-48637174D01*
X95279100Y-48609410D01*
X97158300Y-48609410D01*
X97158300Y-48782189D01*
X97192003Y-48951631D01*
X97192006Y-48951641D01*
X97258123Y-49111262D01*
X97354108Y-49254915D01*
X97476284Y-49377091D01*
X97562241Y-49434524D01*
X97619937Y-49473076D01*
X97779559Y-49539194D01*
X97779565Y-49539195D01*
X97779568Y-49539196D01*
X97837555Y-49550730D01*
X97949013Y-49572900D01*
X97949017Y-49572900D01*
X98121783Y-49572900D01*
X98121787Y-49572900D01*
X98291241Y-49539194D01*
X98450863Y-49473076D01*
X98594519Y-49377088D01*
X98716688Y-49254919D01*
X98812676Y-49111263D01*
X98878794Y-48951641D01*
X98912500Y-48782187D01*
X98912500Y-48609413D01*
X98880716Y-48449623D01*
X98878796Y-48439968D01*
X98878795Y-48439965D01*
X98878794Y-48439959D01*
X98812676Y-48280337D01*
X98802891Y-48265692D01*
X98716691Y-48136684D01*
X98594515Y-48014508D01*
X98479905Y-47937929D01*
X98450863Y-47918524D01*
X98450861Y-47918523D01*
X98450862Y-47918523D01*
X98291241Y-47852406D01*
X98291231Y-47852403D01*
X98121789Y-47818700D01*
X98121787Y-47818700D01*
X97949013Y-47818700D01*
X97949010Y-47818700D01*
X97779568Y-47852403D01*
X97779558Y-47852406D01*
X97619937Y-47918523D01*
X97476284Y-48014508D01*
X97476282Y-48014511D01*
X97354111Y-48136682D01*
X97354108Y-48136684D01*
X97258123Y-48280337D01*
X97192006Y-48439958D01*
X97192003Y-48439968D01*
X97158300Y-48609410D01*
X95279100Y-48609410D01*
X95279100Y-48449626D01*
X95242512Y-48265683D01*
X95170740Y-48092411D01*
X95118687Y-48014508D01*
X95066548Y-47936475D01*
X94933924Y-47803851D01*
X94809514Y-47720724D01*
X94777989Y-47699660D01*
X94777987Y-47699659D01*
X94777988Y-47699659D01*
X94604717Y-47627888D01*
X94604707Y-47627885D01*
X94420776Y-47591300D01*
X94420774Y-47591300D01*
X94233226Y-47591300D01*
X94233223Y-47591300D01*
X94049292Y-47627885D01*
X94049282Y-47627888D01*
X93876011Y-47699659D01*
X93720075Y-47803851D01*
X93720073Y-47803854D01*
X93587454Y-47936473D01*
X93587451Y-47936475D01*
X93483259Y-48092411D01*
X93411488Y-48265682D01*
X93411485Y-48265692D01*
X93374900Y-48449623D01*
X93260700Y-48449623D01*
X93260700Y-47342481D01*
X93275285Y-47307268D01*
X93612468Y-46970084D01*
X93647682Y-46955499D01*
X95187053Y-46955499D01*
X95187054Y-46955499D01*
X95187055Y-46955498D01*
X95187063Y-46955498D01*
X95216835Y-46949577D01*
X95216837Y-46949576D01*
X95221924Y-46946177D01*
X95250610Y-46927010D01*
X95273176Y-46893237D01*
X95279100Y-46863455D01*
X95279099Y-45143346D01*
X95279099Y-45143345D01*
X95279098Y-45143336D01*
X95273177Y-45113564D01*
X95273176Y-45113562D01*
X95250611Y-45079791D01*
X95250607Y-45079788D01*
X95216837Y-45057224D01*
X95216834Y-45057223D01*
X95216836Y-45057223D01*
X95192978Y-45052478D01*
X95187055Y-45051300D01*
X95187054Y-45051300D01*
X93466946Y-45051300D01*
X93466936Y-45051301D01*
X93437164Y-45057222D01*
X93437162Y-45057223D01*
X93403391Y-45079788D01*
X93380823Y-45113564D01*
X93374900Y-45143342D01*
X93374900Y-46682717D01*
X93360314Y-46717931D01*
X92981401Y-47096845D01*
X92931245Y-47147000D01*
X92904100Y-47212533D01*
X87494900Y-47212533D01*
X87494900Y-45139942D01*
X88252300Y-45139942D01*
X88252300Y-46860053D01*
X88252301Y-46860063D01*
X88258222Y-46889835D01*
X88258223Y-46889837D01*
X88280788Y-46923608D01*
X88280789Y-46923608D01*
X88280790Y-46923610D01*
X88314563Y-46946176D01*
X88344345Y-46952100D01*
X90064454Y-46952099D01*
X90064455Y-46952098D01*
X90064463Y-46952098D01*
X90094235Y-46946177D01*
X90094237Y-46946176D01*
X90122921Y-46927010D01*
X90128010Y-46923610D01*
X90150576Y-46889837D01*
X90156500Y-46860055D01*
X90156499Y-45139946D01*
X90156499Y-45139945D01*
X90156498Y-45139936D01*
X90150577Y-45110164D01*
X90150576Y-45110162D01*
X90128011Y-45076391D01*
X90128007Y-45076388D01*
X90094237Y-45053824D01*
X90094234Y-45053823D01*
X90094236Y-45053823D01*
X90070378Y-45049078D01*
X90064455Y-45047900D01*
X90064454Y-45047900D01*
X88344346Y-45047900D01*
X88344336Y-45047901D01*
X88314564Y-45053822D01*
X88314562Y-45053823D01*
X88280791Y-45076388D01*
X88258223Y-45110164D01*
X88252300Y-45139942D01*
X87494900Y-45139942D01*
X87494900Y-44560294D01*
X87509486Y-44525080D01*
X87544700Y-44510494D01*
X96334100Y-44510494D01*
X96369314Y-44525080D01*
G37*
%TD.AperFunction*%
%TD*%
M02*
