%TF.GenerationSoftware,KiCad,Pcbnew,9.0.2*%
%TF.CreationDate,2025-09-24T14:10:19-04:00*%
%TF.ProjectId,auren-probe,61757265-6e2d-4707-926f-62652e6b6963,v2*%
%TF.SameCoordinates,Original*%
%TF.FileFunction,Copper,L1,Top*%
%TF.FilePolarity,Positive*%
%FSLAX46Y46*%
G04 Gerber Fmt 4.6, Leading zero omitted, Abs format (unit mm)*
G04 Created by KiCad (PCBNEW 9.0.2) date 2025-09-24 14:10:19*
%MOMM*%
%LPD*%
G01*
G04 APERTURE LIST*
G04 Aperture macros list*
%AMRoundRect*
0 Rectangle with rounded corners*
0 $1 Rounding radius*
0 $2 $3 $4 $5 $6 $7 $8 $9 X,Y pos of 4 corners*
0 Add a 4 corners polygon primitive as box body*
4,1,4,$2,$3,$4,$5,$6,$7,$8,$9,$2,$3,0*
0 Add four circle primitives for the rounded corners*
1,1,$1+$1,$2,$3*
1,1,$1+$1,$4,$5*
1,1,$1+$1,$6,$7*
1,1,$1+$1,$8,$9*
0 Add four rect primitives between the rounded corners*
20,1,$1+$1,$2,$3,$4,$5,0*
20,1,$1+$1,$4,$5,$6,$7,0*
20,1,$1+$1,$6,$7,$8,$9,0*
20,1,$1+$1,$8,$9,$2,$3,0*%
%AMFreePoly0*
4,1,60,-0.506007,0.985649,-0.319461,0.908379,-0.151575,0.796201,-0.008799,0.653425,0.103379,0.485539,0.180649,0.298993,0.220040,0.100958,0.220040,-0.100958,0.180649,-0.298993,0.103379,-0.485539,-0.008799,-0.653425,-0.151575,-0.796201,-0.319461,-0.908379,-0.506007,-0.985649,-0.704042,-1.025040,-0.905958,-1.025040,-1.103993,-0.985649,-1.290539,-0.908379,-1.458425,-0.796201,-1.601201,-0.653425,
-1.713379,-0.485539,-1.790649,-0.298993,-1.830040,-0.100958,-1.830040,0.076358,-1.385000,0.076358,-1.385000,-0.076358,-1.345474,-0.223872,-1.269116,-0.356128,-1.161128,-0.464116,-1.028872,-0.540474,-0.881358,-0.580000,-0.728642,-0.580000,-0.581128,-0.540474,-0.448872,-0.464116,-0.340884,-0.356128,-0.264526,-0.223872,-0.225000,-0.076358,-0.225000,0.076358,-0.264526,0.223872,-0.340884,0.356128,
-0.448872,0.464116,-0.581128,0.540474,-0.728642,0.580000,-0.881358,0.580000,-1.028872,0.540474,-1.161128,0.464116,-1.269116,0.356128,-1.345474,0.223872,-1.385000,0.076358,-1.830040,0.076358,-1.830040,0.100958,-1.790649,0.298993,-1.713379,0.485539,-1.601201,0.653425,-1.458425,0.796201,-1.290539,0.908379,-1.103993,0.985649,-0.905958,1.025040,-0.704042,1.025040,-0.506007,0.985649,
-0.506007,0.985649,$1*%
G04 Aperture macros list end*
%TA.AperFunction,SMDPad,CuDef*%
%ADD10FreePoly0,90.000000*%
%TD*%
%TA.AperFunction,SMDPad,CuDef*%
%ADD11R,0.750000X0.450000*%
%TD*%
%TA.AperFunction,SMDPad,CuDef*%
%ADD12RoundRect,0.140000X-0.140000X-0.170000X0.140000X-0.170000X0.140000X0.170000X-0.140000X0.170000X0*%
%TD*%
%TA.AperFunction,SMDPad,CuDef*%
%ADD13FreePoly0,270.000000*%
%TD*%
%TA.AperFunction,ComponentPad*%
%ADD14R,1.700000X1.700000*%
%TD*%
%TA.AperFunction,ComponentPad*%
%ADD15O,1.700000X1.700000*%
%TD*%
%TA.AperFunction,SMDPad,CuDef*%
%ADD16RoundRect,0.135000X-0.135000X-0.185000X0.135000X-0.185000X0.135000X0.185000X-0.135000X0.185000X0*%
%TD*%
%TA.AperFunction,SMDPad,CuDef*%
%ADD17R,1.000000X1.000000*%
%TD*%
%TA.AperFunction,SMDPad,CuDef*%
%ADD18RoundRect,0.140000X0.140000X0.170000X-0.140000X0.170000X-0.140000X-0.170000X0.140000X-0.170000X0*%
%TD*%
%TA.AperFunction,SMDPad,CuDef*%
%ADD19R,0.230000X0.850000*%
%TD*%
%TA.AperFunction,SMDPad,CuDef*%
%ADD20R,0.230000X1.000000*%
%TD*%
%TA.AperFunction,ComponentPad*%
%ADD21O,1.500000X2.550000*%
%TD*%
%TA.AperFunction,ViaPad*%
%ADD22C,0.558800*%
%TD*%
%TA.AperFunction,Conductor*%
%ADD23C,0.228600*%
%TD*%
%TA.AperFunction,Conductor*%
%ADD24C,0.250000*%
%TD*%
%TA.AperFunction,Conductor*%
%ADD25C,0.152400*%
%TD*%
%TA.AperFunction,Conductor*%
%ADD26C,0.381000*%
%TD*%
G04 APERTURE END LIST*
D10*
%TO.P,MIC3,5,GND*%
%TO.N,GND*%
X105279400Y-53555000D03*
D11*
%TO.P,MIC3,4,SELECT*%
%TO.N,VDD*%
X106129400Y-55840000D03*
%TO.P,MIC3,3,CLK*%
%TO.N,/CLK_2*%
X106129400Y-56540000D03*
%TO.P,MIC3,2,VDD*%
%TO.N,VDD*%
X104429400Y-55840000D03*
%TO.P,MIC3,1,DATA*%
%TO.N,Net-(MIC3-DATA)*%
X104429400Y-56540000D03*
%TD*%
D12*
%TO.P,C1,1*%
%TO.N,VDD*%
X97123600Y-51007200D03*
%TO.P,C1,2*%
%TO.N,GND*%
X98083600Y-51007200D03*
%TD*%
D13*
%TO.P,MIC1,5,GND*%
%TO.N,GND*%
X96389400Y-55165000D03*
D11*
%TO.P,MIC1,4,SELECT*%
%TO.N,VDD*%
X95539400Y-52880000D03*
%TO.P,MIC1,3,CLK*%
%TO.N,/CLK_1*%
X95539400Y-52180000D03*
%TO.P,MIC1,2,VDD*%
%TO.N,VDD*%
X97239400Y-52880000D03*
%TO.P,MIC1,1,DATA*%
%TO.N,Net-(MIC1-DATA)*%
X97239400Y-52180000D03*
%TD*%
D14*
%TO.P,J3,1,Pin_1*%
%TO.N,/SPK1+*%
X94327000Y-46003400D03*
D15*
%TO.P,J3,2,Pin_2*%
%TO.N,/SPK1-*%
X94327000Y-48543400D03*
%TD*%
D13*
%TO.P,MIC2,5,GND*%
%TO.N,GND*%
X101875800Y-55165000D03*
D11*
%TO.P,MIC2,4,SELECT*%
X101025800Y-52880000D03*
%TO.P,MIC2,3,CLK*%
%TO.N,/CLK_1*%
X101025800Y-52180000D03*
%TO.P,MIC2,2,VDD*%
%TO.N,VDD*%
X102725800Y-52880000D03*
%TO.P,MIC2,1,DATA*%
%TO.N,Net-(MIC2-DATA)*%
X102725800Y-52180000D03*
%TD*%
D12*
%TO.P,C2,1*%
%TO.N,VDD*%
X102660800Y-51083400D03*
%TO.P,C2,2*%
%TO.N,GND*%
X103620800Y-51083400D03*
%TD*%
D16*
%TO.P,R1,1*%
%TO.N,/DAT_1*%
X95366401Y-56823800D03*
%TO.P,R1,2*%
%TO.N,Net-(MIC1-DATA)*%
X96386399Y-56823800D03*
%TD*%
D17*
%TO.P,TP2,1,1*%
%TO.N,/TP_2*%
X89304200Y-52560000D03*
%TD*%
D16*
%TO.P,R3,1*%
%TO.N,/DAT_2*%
X100471800Y-56747600D03*
%TO.P,R3,2*%
%TO.N,Net-(MIC3-DATA)*%
X101491800Y-56747600D03*
%TD*%
D10*
%TO.P,MIC4,5,GND*%
%TO.N,GND*%
X109394200Y-53555000D03*
D11*
%TO.P,MIC4,4,SELECT*%
X110244200Y-55840000D03*
%TO.P,MIC4,3,CLK*%
%TO.N,/CLK_2*%
X110244200Y-56540000D03*
%TO.P,MIC4,2,VDD*%
%TO.N,VDD*%
X108544200Y-55840000D03*
%TO.P,MIC4,1,DATA*%
%TO.N,Net-(MIC4-DATA)*%
X108544200Y-56540000D03*
%TD*%
D17*
%TO.P,TP1,1,1*%
%TO.N,/TP_1*%
X89323200Y-56036400D03*
%TD*%
D16*
%TO.P,R2,2*%
%TO.N,Net-(MIC2-DATA)*%
X96386400Y-57992200D03*
%TO.P,R2,1*%
%TO.N,/DAT_1*%
X95366400Y-57992200D03*
%TD*%
D14*
%TO.P,J4,1,Pin_1*%
%TO.N,/SPK2+*%
X89204400Y-46000000D03*
D15*
%TO.P,J4,2,Pin_2*%
%TO.N,/SPK2-*%
X89204400Y-48540000D03*
%TD*%
D18*
%TO.P,C4,1*%
%TO.N,VDD*%
X109437400Y-57662000D03*
%TO.P,C4,2*%
%TO.N,GND*%
X108477400Y-57662000D03*
%TD*%
D16*
%TO.P,R4,1*%
%TO.N,/DAT_2*%
X100446401Y-57712800D03*
%TO.P,R4,2*%
%TO.N,Net-(MIC4-DATA)*%
X101466399Y-57712800D03*
%TD*%
D18*
%TO.P,C3,1*%
%TO.N,VDD*%
X104357400Y-57662000D03*
%TO.P,C3,2*%
%TO.N,GND*%
X103397400Y-57662000D03*
%TD*%
D19*
%TO.P,J1,1,Pin_1*%
%TO.N,GND*%
X93714000Y-60281400D03*
D20*
%TO.P,J1,2,Pin_2*%
%TO.N,VDD*%
X93514000Y-61506400D03*
D19*
%TO.P,J1,3,Pin_3*%
%TO.N,/SPK1+*%
X93314000Y-60281400D03*
D20*
%TO.P,J1,4,Pin_4*%
%TO.N,unconnected-(J1-Pin_4-Pad4)*%
X93114000Y-61506400D03*
D19*
%TO.P,J1,5,Pin_5*%
%TO.N,/SPK1-*%
X92914000Y-60281400D03*
D20*
%TO.P,J1,6,Pin_6*%
%TO.N,/CLK_1*%
X92714000Y-61506400D03*
D19*
%TO.P,J1,7,Pin_7*%
%TO.N,unconnected-(J1-Pin_7-Pad7)*%
X92514000Y-60281400D03*
D20*
%TO.P,J1,8,Pin_8*%
%TO.N,/DAT_1*%
X92314000Y-61506400D03*
D19*
%TO.P,J1,9,Pin_9*%
%TO.N,/SPK2+*%
X92114000Y-60281400D03*
D20*
%TO.P,J1,10,Pin_10*%
%TO.N,unconnected-(J1-Pin_10-Pad10)*%
X91914000Y-61506400D03*
D19*
%TO.P,J1,11,Pin_11*%
%TO.N,/SPK2-*%
X91714000Y-60281400D03*
D20*
%TO.P,J1,12,Pin_12*%
%TO.N,/CLK_2*%
X91514000Y-61506400D03*
D19*
%TO.P,J1,13,Pin_13*%
%TO.N,unconnected-(J1-Pin_13-Pad13)*%
X91314000Y-60281400D03*
D20*
%TO.P,J1,14,Pin_14*%
%TO.N,/DAT_2*%
X91114000Y-61506400D03*
D19*
%TO.P,J1,15,Pin_15*%
%TO.N,GND*%
X90914000Y-60281400D03*
D20*
%TO.P,J1,16,Pin_16*%
%TO.N,unconnected-(J1-Pin_16-Pad16)*%
X90714000Y-61506400D03*
D19*
%TO.P,J1,17,Pin_17*%
%TO.N,/TP_1*%
X90514000Y-60281400D03*
D20*
%TO.P,J1,18,Pin_18*%
%TO.N,/TP_2*%
X90314000Y-61506400D03*
D19*
%TO.P,J1,19,Pin_19*%
%TO.N,VDD*%
X90114000Y-60281400D03*
D21*
%TO.P,J1,SH,Pin_20*%
%TO.N,GND*%
X88814000Y-61696400D03*
X88814000Y-65056400D03*
X95014000Y-61696400D03*
X95014000Y-65056400D03*
%TD*%
D22*
%TO.N,VDD*%
X108957400Y-58449400D03*
X93895200Y-62665800D03*
X101868200Y-51083400D03*
X96384400Y-51032600D03*
X105223600Y-57839800D03*
X88510400Y-59211400D03*
%TO.N,/CLK_1*%
X94708000Y-59744800D03*
X101032600Y-50346800D03*
X93082400Y-62640400D03*
X95546200Y-50346800D03*
%TO.N,/DAT_1*%
X95749400Y-59262200D03*
X92320400Y-62665800D03*
%TO.N,/SPK1+*%
X93565000Y-50931000D03*
%TO.N,/CLK_2*%
X106129400Y-58652600D03*
X110684600Y-57662000D03*
X91583800Y-62513400D03*
%TO.N,/DAT_2*%
X90821800Y-62615000D03*
X98860900Y-57674700D03*
%TO.N,/TP_2*%
X89069200Y-58398600D03*
X90085200Y-62564200D03*
%TO.N,Net-(MIC4-DATA)*%
X102455000Y-57687400D03*
X107281000Y-57636600D03*
%TD*%
D23*
%TO.N,VDD*%
X105223600Y-57839800D02*
X105198200Y-57814400D01*
D24*
X105172800Y-55840000D02*
X104429400Y-55840000D01*
D23*
X96409800Y-51007200D02*
X96384400Y-51032600D01*
D25*
X90104200Y-59985000D02*
X90104200Y-60285000D01*
D23*
X109437400Y-57662000D02*
X109437400Y-57969400D01*
X109437400Y-57969400D02*
X108957400Y-58449400D01*
X105045800Y-57662000D02*
X105223600Y-57839800D01*
X101845400Y-52531200D02*
X102194200Y-52880000D01*
X102194200Y-52880000D02*
X102725800Y-52880000D01*
D25*
X88510400Y-59211400D02*
X88586600Y-59211400D01*
X93895200Y-62626000D02*
X93504200Y-62235000D01*
D23*
X101868200Y-51083400D02*
X101868200Y-51136800D01*
X105198200Y-55865400D02*
X105172800Y-55840000D01*
D25*
X88586600Y-59211400D02*
X89138000Y-59762800D01*
D23*
X105198200Y-57814400D02*
X105198200Y-55865400D01*
D25*
X89138000Y-59762800D02*
X89882000Y-59762800D01*
D23*
X104357400Y-57662000D02*
X105045800Y-57662000D01*
D25*
X89882000Y-59762800D02*
X90104200Y-59985000D01*
D23*
X108544200Y-55840000D02*
X109218200Y-55840000D01*
D25*
X93504200Y-62235000D02*
X93504200Y-61510000D01*
D24*
X95539400Y-52880000D02*
X96384400Y-52880000D01*
X106129400Y-55840000D02*
X105172800Y-55840000D01*
D23*
X97255400Y-52864000D02*
X97239400Y-52880000D01*
X101868200Y-51083400D02*
X102660800Y-51083400D01*
D24*
X96384400Y-51032600D02*
X96384400Y-52880000D01*
D23*
X98365600Y-52864000D02*
X97255400Y-52864000D01*
D24*
X96384400Y-52880000D02*
X97239400Y-52880000D01*
D23*
X101868200Y-51136800D02*
X101845400Y-51159600D01*
X109218200Y-55840000D02*
X109437400Y-56059200D01*
X109437400Y-56059200D02*
X109437400Y-57662000D01*
X101845400Y-51159600D02*
X101845400Y-52531200D01*
X97123600Y-51007200D02*
X96409800Y-51007200D01*
D25*
X93895200Y-62665800D02*
X93895200Y-62626000D01*
%TO.N,/CLK_1*%
X101032600Y-50346800D02*
X101032600Y-50575400D01*
X94708000Y-59744800D02*
X94631800Y-59744800D01*
X101032600Y-50575400D02*
X101025800Y-50582200D01*
X94377800Y-59490800D02*
X94377800Y-52814200D01*
X95012000Y-52180000D02*
X95539400Y-52180000D01*
X101025800Y-50582200D02*
X101025800Y-52180000D01*
X95546200Y-50346800D02*
X95546200Y-50905600D01*
X94377800Y-52814200D02*
X95012000Y-52180000D01*
X93082400Y-62638200D02*
X92704200Y-62260000D01*
X92704200Y-62260000D02*
X92704200Y-61510000D01*
X94631800Y-59744800D02*
X94377800Y-59490800D01*
X95546200Y-50905600D02*
X95539400Y-50912400D01*
X95539400Y-50912400D02*
X95539400Y-52180000D01*
X93082400Y-62640400D02*
X93082400Y-62638200D01*
X100884600Y-52180000D02*
X101025800Y-52180000D01*
%TO.N,/DAT_1*%
X95366400Y-58879200D02*
X95366400Y-57992200D01*
X95366401Y-56823800D02*
X95366401Y-57992199D01*
X95749400Y-59262200D02*
X95366400Y-58879200D01*
X95366401Y-57992199D02*
X95366400Y-57992200D01*
X95749400Y-59262200D02*
X95673200Y-59262200D01*
X92320400Y-62435315D02*
X92304200Y-62419115D01*
X92320400Y-62665800D02*
X92320400Y-62435315D01*
X92304200Y-62419115D02*
X92304200Y-61510000D01*
%TO.N,/SPK1+*%
X93565000Y-50931000D02*
X93565000Y-59236800D01*
X93311000Y-59490800D02*
X93311000Y-60278200D01*
X93311000Y-60278200D02*
X93304200Y-60285000D01*
X93565000Y-59236800D02*
X93311000Y-59490800D01*
%TO.N,/SPK1-*%
X92371200Y-57027000D02*
X92371200Y-50499200D01*
X92904200Y-57560000D02*
X92371200Y-57027000D01*
X92371200Y-50499200D02*
X94327000Y-48543400D01*
X92904200Y-60285000D02*
X92904200Y-57560000D01*
D26*
%TO.N,GND*%
X101025800Y-52880000D02*
X101025800Y-53286400D01*
X110244200Y-55840000D02*
X110244200Y-55367400D01*
X101235800Y-53496400D02*
X101362800Y-53623400D01*
X101025800Y-53286400D02*
X101235800Y-53496400D01*
X110244200Y-55367400D02*
X109922600Y-55045800D01*
D25*
%TO.N,/CLK_2*%
X91583800Y-62366000D02*
X91504200Y-62286400D01*
X110435000Y-56540000D02*
X110244200Y-56540000D01*
X91504200Y-62286400D02*
X91504200Y-61510000D01*
X110684600Y-56980400D02*
X110244200Y-56540000D01*
X106129400Y-58652600D02*
X106129400Y-56540000D01*
X110684600Y-57662000D02*
X110684600Y-56980400D01*
X91583800Y-62513400D02*
X91583800Y-62366000D01*
%TO.N,/DAT_2*%
X100471800Y-57687401D02*
X100446401Y-57712800D01*
X100421001Y-57687400D02*
X100446401Y-57712800D01*
X100471800Y-56747600D02*
X100471800Y-57687401D01*
X90821800Y-62592400D02*
X91104200Y-62310000D01*
X90821800Y-62615000D02*
X90821800Y-62592400D01*
X98873600Y-57687400D02*
X100421001Y-57687400D01*
X98860900Y-57674700D02*
X98873600Y-57687400D01*
X91104200Y-62310000D02*
X91104200Y-61510000D01*
%TO.N,/SPK2+*%
X91279000Y-48074600D02*
X89204400Y-46000000D01*
X92104200Y-60285000D02*
X92104200Y-57953800D01*
X91279000Y-57128600D02*
X91279000Y-48074600D01*
X92104200Y-57953800D02*
X91279000Y-57128600D01*
%TO.N,/SPK2-*%
X90390000Y-49725600D02*
X89204400Y-48540000D01*
X91704200Y-58823800D02*
X90390000Y-57509600D01*
X91704200Y-60285000D02*
X91704200Y-58823800D01*
X90390000Y-57509600D02*
X90390000Y-49725600D01*
%TO.N,/TP_2*%
X90085200Y-62564200D02*
X90304200Y-62345200D01*
X89304200Y-52560000D02*
X88307200Y-53557000D01*
X90304200Y-62345200D02*
X90304200Y-61510000D01*
X88332600Y-57662000D02*
X89069200Y-58398600D01*
X88307200Y-57662000D02*
X88332600Y-57662000D01*
X88307200Y-53557000D02*
X88307200Y-57662000D01*
%TO.N,/TP_1*%
X89323200Y-57585800D02*
X90504200Y-58766800D01*
X89323200Y-56036400D02*
X89323200Y-57585800D01*
X90504200Y-58766800D02*
X90504200Y-60285000D01*
%TO.N,Net-(MIC1-DATA)*%
X96386399Y-56823800D02*
X96994000Y-56823800D01*
X99026000Y-54791800D02*
X99026000Y-52531200D01*
X96994000Y-56823800D02*
X99026000Y-54791800D01*
X98674800Y-52180000D02*
X97239400Y-52180000D01*
X99026000Y-52531200D02*
X98674800Y-52180000D01*
%TO.N,Net-(MIC2-DATA)*%
X103297600Y-52180000D02*
X102725800Y-52180000D01*
X103547200Y-52429600D02*
X103297600Y-52180000D01*
X103547200Y-55045800D02*
X103547200Y-52429600D01*
X96386400Y-57992200D02*
X96386400Y-57763600D01*
X99051400Y-55909400D02*
X102683600Y-55909400D01*
X102683600Y-55909400D02*
X103547200Y-55045800D01*
X97273400Y-57687400D02*
X99051400Y-55909400D01*
X96462600Y-57687400D02*
X97273400Y-57687400D01*
X96386400Y-57763600D02*
X96462600Y-57687400D01*
%TO.N,Net-(MIC3-DATA)*%
X104298000Y-56671400D02*
X101568000Y-56671400D01*
X104408400Y-56519000D02*
X104429400Y-56540000D01*
X104429400Y-56540000D02*
X104298000Y-56671400D01*
X101568000Y-56671400D02*
X101491800Y-56747600D01*
%TO.N,Net-(MIC4-DATA)*%
X108377600Y-56540000D02*
X108544200Y-56540000D01*
X108428400Y-56540000D02*
X108544200Y-56540000D01*
X102429600Y-57712800D02*
X102455000Y-57687400D01*
X107281000Y-57636600D02*
X108377600Y-56540000D01*
X108551000Y-56546800D02*
X108544200Y-56540000D01*
X101466399Y-57712800D02*
X102429600Y-57712800D01*
%TD*%
%TA.AperFunction,Conductor*%
%TO.N,GND*%
G36*
X96369314Y-44525080D02*
G01*
X96383900Y-44560294D01*
X96383900Y-45790092D01*
X96383906Y-45790122D01*
X96383906Y-45851597D01*
X96415772Y-45991219D01*
X96425879Y-46012206D01*
X96427906Y-46016416D01*
X96429977Y-46024143D01*
X96439926Y-46041376D01*
X96440738Y-46043061D01*
X96477903Y-46120238D01*
X96477905Y-46120240D01*
X96505271Y-46154556D01*
X96513251Y-46168378D01*
X96528274Y-46183401D01*
X96530018Y-46185588D01*
X96567190Y-46232201D01*
X96567191Y-46232202D01*
X96567193Y-46232204D01*
X96615997Y-46271124D01*
X96631018Y-46286146D01*
X96644840Y-46294126D01*
X96679156Y-46321492D01*
X96758019Y-46359470D01*
X96775253Y-46369421D01*
X96782980Y-46371491D01*
X96808181Y-46383627D01*
X96947794Y-46415493D01*
X96947795Y-46415494D01*
X96947797Y-46415494D01*
X97019193Y-46415494D01*
X99573249Y-46415494D01*
X99576137Y-46415578D01*
X99582178Y-46415928D01*
X99645309Y-46419597D01*
X99651017Y-46420262D01*
X99717843Y-46432019D01*
X99723462Y-46433347D01*
X99789901Y-46453193D01*
X99792657Y-46454106D01*
X99815855Y-46462547D01*
X99816040Y-46462594D01*
X111895895Y-50848433D01*
X111924017Y-50874161D01*
X111928700Y-50895243D01*
X111928700Y-57824755D01*
X111914114Y-57859969D01*
X111895895Y-57871565D01*
X109247400Y-58833155D01*
X109209323Y-58831462D01*
X109183595Y-58803340D01*
X109185288Y-58765263D01*
X109195188Y-58751134D01*
X109262676Y-58683647D01*
X109312901Y-58596654D01*
X109338900Y-58499625D01*
X109338900Y-58399175D01*
X109338900Y-58395911D01*
X109340592Y-58395911D01*
X109349032Y-58364405D01*
X109353321Y-58359513D01*
X109620856Y-58091980D01*
X109620857Y-58091978D01*
X109623581Y-58087902D01*
X109624693Y-58088645D01*
X109647446Y-58065886D01*
X109656784Y-58063052D01*
X109671863Y-58060053D01*
X109751944Y-58006544D01*
X109805453Y-57926463D01*
X109819500Y-57855844D01*
X109819500Y-57468156D01*
X109805453Y-57397537D01*
X109804292Y-57395800D01*
X109751945Y-57317457D01*
X109751944Y-57317456D01*
X109697535Y-57281101D01*
X109675931Y-57266665D01*
X109654757Y-57234974D01*
X109653800Y-57225259D01*
X109653800Y-56304942D01*
X109767100Y-56304942D01*
X109767100Y-56775053D01*
X109767101Y-56775063D01*
X109773022Y-56804835D01*
X109773023Y-56804837D01*
X109795588Y-56838608D01*
X109795589Y-56838608D01*
X109795590Y-56838610D01*
X109829363Y-56861176D01*
X109859145Y-56867100D01*
X110298516Y-56867099D01*
X110333730Y-56881685D01*
X110491714Y-57039668D01*
X110506300Y-57074882D01*
X110506300Y-57295670D01*
X110491714Y-57330884D01*
X110481401Y-57338798D01*
X110450352Y-57356724D01*
X110379323Y-57427753D01*
X110329101Y-57514742D01*
X110329097Y-57514750D01*
X110303100Y-57611773D01*
X110303100Y-57712226D01*
X110329097Y-57809249D01*
X110329098Y-57809251D01*
X110329099Y-57809254D01*
X110346015Y-57838554D01*
X110376313Y-57891033D01*
X110379324Y-57896247D01*
X110450353Y-57967276D01*
X110537346Y-58017501D01*
X110634375Y-58043500D01*
X110734825Y-58043500D01*
X110831854Y-58017501D01*
X110918847Y-57967276D01*
X110989876Y-57896247D01*
X111040101Y-57809254D01*
X111066100Y-57712225D01*
X111066100Y-57611775D01*
X111040101Y-57514746D01*
X110989876Y-57427753D01*
X110918847Y-57356724D01*
X110887799Y-57338798D01*
X110864597Y-57308558D01*
X110862900Y-57295670D01*
X110862900Y-56944935D01*
X110862899Y-56944931D01*
X110843772Y-56898754D01*
X110843771Y-56898753D01*
X110835756Y-56879401D01*
X110735885Y-56779530D01*
X110721299Y-56744316D01*
X110721299Y-56304946D01*
X110721298Y-56304936D01*
X110715377Y-56275164D01*
X110715376Y-56275162D01*
X110692811Y-56241391D01*
X110692810Y-56241390D01*
X110677418Y-56231105D01*
X110656243Y-56199415D01*
X110663678Y-56162032D01*
X110677419Y-56148292D01*
X110692447Y-56138250D01*
X110692448Y-56138249D01*
X110714905Y-56104641D01*
X110720799Y-56075007D01*
X110720800Y-56075001D01*
X110720800Y-56030500D01*
X109767601Y-56030500D01*
X109767601Y-56075005D01*
X109773494Y-56104641D01*
X109795951Y-56138249D01*
X109810981Y-56148292D01*
X109832156Y-56179984D01*
X109824720Y-56217367D01*
X109810981Y-56231106D01*
X109795590Y-56241389D01*
X109773023Y-56275164D01*
X109767100Y-56304942D01*
X109653800Y-56304942D01*
X109653800Y-56016156D01*
X109653800Y-56016155D01*
X109640154Y-55983211D01*
X109620856Y-55936620D01*
X109401655Y-55717420D01*
X109401655Y-55717419D01*
X109340781Y-55656545D01*
X109261245Y-55623600D01*
X109261244Y-55623600D01*
X109065881Y-55623600D01*
X109030667Y-55609014D01*
X109028517Y-55604992D01*
X109767600Y-55604992D01*
X109767600Y-55649500D01*
X110053700Y-55649500D01*
X110434700Y-55649500D01*
X110720799Y-55649500D01*
X110720799Y-55604998D01*
X110720798Y-55604994D01*
X110714905Y-55575358D01*
X110692448Y-55541751D01*
X110658840Y-55519294D01*
X110658841Y-55519294D01*
X110629207Y-55513400D01*
X110434700Y-55513400D01*
X110434700Y-55649500D01*
X110053700Y-55649500D01*
X110053700Y-55513400D01*
X109859198Y-55513400D01*
X109859194Y-55513401D01*
X109829558Y-55519294D01*
X109795951Y-55541751D01*
X109773494Y-55575358D01*
X109767600Y-55604992D01*
X109028517Y-55604992D01*
X109017038Y-55583515D01*
X109015377Y-55575164D01*
X109015376Y-55575162D01*
X108992811Y-55541391D01*
X108992807Y-55541388D01*
X108959037Y-55518824D01*
X108959034Y-55518823D01*
X108959036Y-55518823D01*
X108935178Y-55514078D01*
X108929255Y-55512900D01*
X108929254Y-55512900D01*
X108159146Y-55512900D01*
X108159136Y-55512901D01*
X108129364Y-55518822D01*
X108129362Y-55518823D01*
X108095591Y-55541388D01*
X108073023Y-55575164D01*
X108067100Y-55604942D01*
X108067100Y-56075053D01*
X108067101Y-56075063D01*
X108073022Y-56104835D01*
X108073023Y-56104837D01*
X108095588Y-56138608D01*
X108095589Y-56138609D01*
X108095590Y-56138610D01*
X108110529Y-56148592D01*
X108131706Y-56180282D01*
X108124271Y-56217665D01*
X108110532Y-56231405D01*
X108095591Y-56241388D01*
X108073023Y-56275164D01*
X108067100Y-56304942D01*
X108067100Y-56577716D01*
X108052514Y-56612930D01*
X107413955Y-57251489D01*
X107378741Y-57266075D01*
X107365852Y-57264378D01*
X107331226Y-57255100D01*
X107331225Y-57255100D01*
X107230775Y-57255100D01*
X107230773Y-57255100D01*
X107133750Y-57281097D01*
X107133742Y-57281101D01*
X107046753Y-57331323D01*
X106975723Y-57402353D01*
X106925501Y-57489342D01*
X106925497Y-57489350D01*
X106899500Y-57586373D01*
X106899500Y-57686826D01*
X106925497Y-57783849D01*
X106925498Y-57783851D01*
X106925499Y-57783854D01*
X106928801Y-57789573D01*
X106972751Y-57865699D01*
X106975724Y-57870847D01*
X107046753Y-57941876D01*
X107133746Y-57992101D01*
X107230775Y-58018100D01*
X107331225Y-58018100D01*
X107428254Y-57992101D01*
X107515247Y-57941876D01*
X107586276Y-57870847D01*
X107594966Y-57855796D01*
X108095800Y-57855796D01*
X108109817Y-57926267D01*
X108109818Y-57926269D01*
X108163214Y-58006182D01*
X108163217Y-58006185D01*
X108243128Y-58059580D01*
X108243133Y-58059581D01*
X108286899Y-58068287D01*
X108286900Y-58068286D01*
X108286900Y-57852500D01*
X108095800Y-57852500D01*
X108095800Y-57855796D01*
X107594966Y-57855796D01*
X107636501Y-57783854D01*
X107662500Y-57686825D01*
X107662500Y-57586375D01*
X107662499Y-57586373D01*
X107653221Y-57551746D01*
X107658196Y-57513956D01*
X107666106Y-57503646D01*
X107701549Y-57468203D01*
X108095800Y-57468203D01*
X108095800Y-57471500D01*
X108286900Y-57471500D01*
X108667900Y-57471500D01*
X108859000Y-57471500D01*
X108859000Y-57468210D01*
X108858999Y-57468203D01*
X108844982Y-57397732D01*
X108844981Y-57397730D01*
X108791585Y-57317817D01*
X108791582Y-57317814D01*
X108711669Y-57264418D01*
X108711667Y-57264417D01*
X108667900Y-57255712D01*
X108667900Y-57471500D01*
X108286900Y-57471500D01*
X108286900Y-57255712D01*
X108243132Y-57264417D01*
X108243130Y-57264418D01*
X108163217Y-57317814D01*
X108163214Y-57317817D01*
X108109818Y-57397730D01*
X108109817Y-57397732D01*
X108095800Y-57468203D01*
X107701549Y-57468203D01*
X108288068Y-56881685D01*
X108323282Y-56867099D01*
X108929253Y-56867099D01*
X108929254Y-56867099D01*
X108929255Y-56867098D01*
X108929263Y-56867098D01*
X108959035Y-56861177D01*
X108959037Y-56861176D01*
X108979587Y-56847445D01*
X108992810Y-56838610D01*
X109015376Y-56804837D01*
X109021300Y-56775055D01*
X109021299Y-56304946D01*
X109021299Y-56304945D01*
X109021298Y-56304936D01*
X109015377Y-56275164D01*
X109015376Y-56275162D01*
X108992811Y-56241391D01*
X108992809Y-56241389D01*
X108986154Y-56236943D01*
X108977869Y-56231407D01*
X108956693Y-56199717D01*
X108964128Y-56162334D01*
X108977868Y-56148593D01*
X108992810Y-56138610D01*
X109015376Y-56104837D01*
X109017037Y-56096485D01*
X109025106Y-56084408D01*
X109030666Y-56070986D01*
X109035378Y-56069034D01*
X109038212Y-56064793D01*
X109065880Y-56056400D01*
X109107937Y-56056400D01*
X109143151Y-56070986D01*
X109206414Y-56134249D01*
X109221000Y-56169463D01*
X109221000Y-57225259D01*
X109206414Y-57260473D01*
X109198868Y-57266666D01*
X109122855Y-57317456D01*
X109122854Y-57317457D01*
X109069347Y-57397535D01*
X109069346Y-57397537D01*
X109055300Y-57468153D01*
X109055300Y-57855846D01*
X109069346Y-57926462D01*
X109069347Y-57926464D01*
X109088679Y-57955396D01*
X109091512Y-57969643D01*
X109097072Y-57983064D01*
X109095119Y-57987776D01*
X109096115Y-57992779D01*
X109082485Y-58018277D01*
X109047291Y-58053470D01*
X109012077Y-58068056D01*
X109009688Y-58067900D01*
X109007625Y-58067900D01*
X108907175Y-58067900D01*
X108907173Y-58067900D01*
X108843951Y-58084840D01*
X108806162Y-58079865D01*
X108782959Y-58049626D01*
X108787934Y-58011837D01*
X108789655Y-58009069D01*
X108844982Y-57926266D01*
X108858999Y-57855796D01*
X108859000Y-57855790D01*
X108859000Y-57852500D01*
X108667900Y-57852500D01*
X108667900Y-58068285D01*
X108670524Y-58067764D01*
X108707907Y-58075199D01*
X108729084Y-58106890D01*
X108721649Y-58144273D01*
X108715455Y-58151821D01*
X108652123Y-58215153D01*
X108601901Y-58302142D01*
X108601897Y-58302150D01*
X108575900Y-58399173D01*
X108575900Y-58499626D01*
X108601897Y-58596649D01*
X108601901Y-58596657D01*
X108641820Y-58665801D01*
X108652124Y-58683647D01*
X108723153Y-58754676D01*
X108810146Y-58804901D01*
X108907175Y-58830900D01*
X108970527Y-58830900D01*
X109005741Y-58845486D01*
X109020327Y-58880700D01*
X109005741Y-58915914D01*
X108987522Y-58927510D01*
X99792593Y-62265916D01*
X99789847Y-62266824D01*
X99723463Y-62286647D01*
X99717840Y-62287976D01*
X99651035Y-62299725D01*
X99645297Y-62300394D01*
X99575962Y-62304422D01*
X99573074Y-62304506D01*
X97040032Y-62304506D01*
X97040018Y-62304500D01*
X97019398Y-62304500D01*
X96947794Y-62304500D01*
X96947792Y-62304500D01*
X96808180Y-62336366D01*
X96808174Y-62336369D01*
X96787126Y-62346502D01*
X96787127Y-62346503D01*
X96782912Y-62348532D01*
X96775253Y-62350585D01*
X96758165Y-62360450D01*
X96756464Y-62361270D01*
X96679149Y-62398504D01*
X96647695Y-62423586D01*
X96647696Y-62423587D01*
X96644771Y-62425919D01*
X96631020Y-62433859D01*
X96616064Y-62448814D01*
X96613880Y-62450557D01*
X96613878Y-62450557D01*
X96613878Y-62450558D01*
X96567188Y-62487792D01*
X96567187Y-62487793D01*
X96529951Y-62534485D01*
X96528199Y-62536681D01*
X96513255Y-62551626D01*
X96505320Y-62565369D01*
X96502988Y-62568294D01*
X96502986Y-62568298D01*
X96477898Y-62599760D01*
X96440666Y-62677074D01*
X96440666Y-62677075D01*
X96439851Y-62678766D01*
X96429982Y-62695861D01*
X96427929Y-62703520D01*
X96425902Y-62707731D01*
X96415766Y-62728780D01*
X96415765Y-62728783D01*
X96415765Y-62728784D01*
X96396532Y-62813057D01*
X96383900Y-62868403D01*
X96383900Y-66699706D01*
X96369314Y-66734920D01*
X96334100Y-66749506D01*
X87544700Y-66749506D01*
X87509486Y-66734920D01*
X87494900Y-66699706D01*
X87494900Y-64447522D01*
X87962400Y-64447522D01*
X87962400Y-64865900D01*
X88489000Y-64865900D01*
X88489000Y-65246900D01*
X87962400Y-65246900D01*
X87962400Y-65665277D01*
X87995123Y-65829793D01*
X87995128Y-65829807D01*
X88059318Y-65984780D01*
X88059320Y-65984782D01*
X88152515Y-66124260D01*
X88271139Y-66242884D01*
X88410617Y-66336079D01*
X88410616Y-66336079D01*
X88565596Y-66400274D01*
X88623499Y-66411791D01*
X88623500Y-66411790D01*
X88623500Y-65846691D01*
X88688555Y-65884251D01*
X88771213Y-65906400D01*
X88856787Y-65906400D01*
X88939445Y-65884251D01*
X89004500Y-65846691D01*
X89004500Y-66411791D01*
X89062403Y-66400274D01*
X89217383Y-66336079D01*
X89356860Y-66242884D01*
X89356863Y-66242882D01*
X89475482Y-66124263D01*
X89475484Y-66124260D01*
X89568679Y-65984782D01*
X89568681Y-65984780D01*
X89632871Y-65829807D01*
X89632876Y-65829793D01*
X89665599Y-65665277D01*
X89665600Y-65665271D01*
X89665600Y-65246900D01*
X89139000Y-65246900D01*
X89139000Y-64865900D01*
X89665600Y-64865900D01*
X89665600Y-64447529D01*
X89665599Y-64447522D01*
X94162400Y-64447522D01*
X94162400Y-64865900D01*
X94689000Y-64865900D01*
X94689000Y-65246900D01*
X94162400Y-65246900D01*
X94162400Y-65665277D01*
X94195123Y-65829793D01*
X94195128Y-65829807D01*
X94259318Y-65984780D01*
X94259320Y-65984782D01*
X94352515Y-66124260D01*
X94471139Y-66242884D01*
X94610617Y-66336079D01*
X94610616Y-66336079D01*
X94765596Y-66400274D01*
X94823499Y-66411791D01*
X94823500Y-66411790D01*
X94823500Y-65846691D01*
X94888555Y-65884251D01*
X94971213Y-65906400D01*
X95056787Y-65906400D01*
X95139445Y-65884251D01*
X95204500Y-65846691D01*
X95204500Y-66411791D01*
X95262403Y-66400274D01*
X95417383Y-66336079D01*
X95556860Y-66242884D01*
X95556863Y-66242882D01*
X95675482Y-66124263D01*
X95675484Y-66124260D01*
X95768679Y-65984782D01*
X95768681Y-65984780D01*
X95832871Y-65829807D01*
X95832876Y-65829793D01*
X95865599Y-65665277D01*
X95865600Y-65665271D01*
X95865600Y-65246900D01*
X95339000Y-65246900D01*
X95339000Y-64865900D01*
X95865600Y-64865900D01*
X95865600Y-64447529D01*
X95865599Y-64447522D01*
X95832876Y-64283006D01*
X95832871Y-64282992D01*
X95768681Y-64128019D01*
X95768679Y-64128017D01*
X95675484Y-63988539D01*
X95556860Y-63869915D01*
X95417382Y-63776720D01*
X95417380Y-63776718D01*
X95262407Y-63712528D01*
X95262395Y-63712524D01*
X95204500Y-63701008D01*
X95204500Y-64266108D01*
X95139445Y-64228549D01*
X95056787Y-64206400D01*
X94971213Y-64206400D01*
X94888555Y-64228549D01*
X94823500Y-64266108D01*
X94823500Y-63701008D01*
X94765604Y-63712524D01*
X94765592Y-63712528D01*
X94610619Y-63776718D01*
X94610617Y-63776720D01*
X94471139Y-63869915D01*
X94471137Y-63869918D01*
X94352518Y-63988537D01*
X94352515Y-63988539D01*
X94259320Y-64128017D01*
X94259318Y-64128019D01*
X94195128Y-64282992D01*
X94195123Y-64283006D01*
X94162400Y-64447522D01*
X89665599Y-64447522D01*
X89632876Y-64283006D01*
X89632871Y-64282992D01*
X89568681Y-64128019D01*
X89568679Y-64128017D01*
X89475484Y-63988539D01*
X89356860Y-63869915D01*
X89217382Y-63776720D01*
X89217380Y-63776718D01*
X89062407Y-63712528D01*
X89062395Y-63712524D01*
X89004500Y-63701008D01*
X89004500Y-64266108D01*
X88939445Y-64228549D01*
X88856787Y-64206400D01*
X88771213Y-64206400D01*
X88688555Y-64228549D01*
X88623500Y-64266108D01*
X88623500Y-63701008D01*
X88565604Y-63712524D01*
X88565592Y-63712528D01*
X88410619Y-63776718D01*
X88410617Y-63776720D01*
X88271139Y-63869915D01*
X88271137Y-63869918D01*
X88152518Y-63988537D01*
X88152515Y-63988539D01*
X88059320Y-64128017D01*
X88059318Y-64128019D01*
X87995128Y-64282992D01*
X87995123Y-64283006D01*
X87962400Y-64447522D01*
X87494900Y-64447522D01*
X87494900Y-61087522D01*
X87962400Y-61087522D01*
X87962400Y-61505900D01*
X88489000Y-61505900D01*
X88489000Y-61886900D01*
X87962400Y-61886900D01*
X87962400Y-62305277D01*
X87995123Y-62469793D01*
X87995128Y-62469807D01*
X88059318Y-62624780D01*
X88059320Y-62624782D01*
X88152515Y-62764260D01*
X88271139Y-62882884D01*
X88410617Y-62976079D01*
X88410616Y-62976079D01*
X88565596Y-63040274D01*
X88623499Y-63051791D01*
X88623500Y-63051790D01*
X88623500Y-62486691D01*
X88688555Y-62524251D01*
X88771213Y-62546400D01*
X88856787Y-62546400D01*
X88939445Y-62524251D01*
X89004500Y-62486691D01*
X89004500Y-63051791D01*
X89062403Y-63040274D01*
X89217383Y-62976079D01*
X89356860Y-62882884D01*
X89356863Y-62882882D01*
X89475482Y-62764263D01*
X89475484Y-62764260D01*
X89568679Y-62624782D01*
X89568680Y-62624780D01*
X89607891Y-62530117D01*
X89634842Y-62503165D01*
X89672957Y-62503165D01*
X89699909Y-62530116D01*
X89703700Y-62549174D01*
X89703700Y-62614426D01*
X89729697Y-62711449D01*
X89729698Y-62711451D01*
X89729699Y-62711454D01*
X89744245Y-62736648D01*
X89774998Y-62789916D01*
X89779924Y-62798447D01*
X89850953Y-62869476D01*
X89937946Y-62919701D01*
X90034975Y-62945700D01*
X90135425Y-62945700D01*
X90232454Y-62919701D01*
X90319447Y-62869476D01*
X90390476Y-62798447D01*
X90395707Y-62789386D01*
X90425942Y-62766183D01*
X90463732Y-62771155D01*
X90481963Y-62789385D01*
X90505924Y-62830888D01*
X90516524Y-62849247D01*
X90587553Y-62920276D01*
X90674546Y-62970501D01*
X90771575Y-62996500D01*
X90872025Y-62996500D01*
X90969054Y-62970501D01*
X91056047Y-62920276D01*
X91127076Y-62849247D01*
X91177301Y-62762254D01*
X91180943Y-62748660D01*
X91204145Y-62718421D01*
X91241934Y-62713446D01*
X91272174Y-62736648D01*
X91272174Y-62736649D01*
X91277221Y-62745391D01*
X91278524Y-62747647D01*
X91349553Y-62818676D01*
X91436546Y-62868901D01*
X91533575Y-62894900D01*
X91634025Y-62894900D01*
X91731054Y-62868901D01*
X91818047Y-62818676D01*
X91874062Y-62762660D01*
X91909275Y-62748075D01*
X91944489Y-62762661D01*
X91957378Y-62784985D01*
X91964897Y-62813049D01*
X91964899Y-62813054D01*
X91975196Y-62830889D01*
X92015122Y-62900045D01*
X92015124Y-62900047D01*
X92086153Y-62971076D01*
X92173146Y-63021301D01*
X92270175Y-63047300D01*
X92370625Y-63047300D01*
X92467654Y-63021301D01*
X92554647Y-62971076D01*
X92625676Y-62900047D01*
X92665604Y-62830888D01*
X92695842Y-62807685D01*
X92733631Y-62812660D01*
X92751860Y-62830888D01*
X92774138Y-62869476D01*
X92777124Y-62874647D01*
X92848153Y-62945676D01*
X92935146Y-62995901D01*
X93032175Y-63021900D01*
X93132625Y-63021900D01*
X93229654Y-62995901D01*
X93316647Y-62945676D01*
X93387676Y-62874647D01*
X93437901Y-62787654D01*
X93437904Y-62787642D01*
X93439149Y-62784639D01*
X93440830Y-62785335D01*
X93460441Y-62759711D01*
X93498224Y-62754688D01*
X93528492Y-62777852D01*
X93533499Y-62789916D01*
X93539699Y-62813054D01*
X93549996Y-62830889D01*
X93589922Y-62900045D01*
X93589924Y-62900047D01*
X93660953Y-62971076D01*
X93747946Y-63021301D01*
X93844975Y-63047300D01*
X93945425Y-63047300D01*
X94042454Y-63021301D01*
X94129447Y-62971076D01*
X94200476Y-62900047D01*
X94250701Y-62813054D01*
X94260729Y-62775628D01*
X94283930Y-62745391D01*
X94321720Y-62740416D01*
X94350237Y-62760849D01*
X94352519Y-62764264D01*
X94471139Y-62882884D01*
X94610617Y-62976079D01*
X94610616Y-62976079D01*
X94765596Y-63040274D01*
X94823499Y-63051791D01*
X94823500Y-63051790D01*
X94823500Y-62486691D01*
X94888555Y-62524251D01*
X94971213Y-62546400D01*
X95056787Y-62546400D01*
X95139445Y-62524251D01*
X95204500Y-62486691D01*
X95204500Y-63051791D01*
X95262403Y-63040274D01*
X95417383Y-62976079D01*
X95556860Y-62882884D01*
X95556863Y-62882882D01*
X95675482Y-62764263D01*
X95675484Y-62764260D01*
X95768679Y-62624782D01*
X95768681Y-62624780D01*
X95832871Y-62469807D01*
X95832876Y-62469793D01*
X95865599Y-62305277D01*
X95865600Y-62305271D01*
X95865600Y-61886900D01*
X95339000Y-61886900D01*
X95339000Y-61505900D01*
X95865600Y-61505900D01*
X95865600Y-61087529D01*
X95865599Y-61087522D01*
X95832876Y-60923006D01*
X95832871Y-60922992D01*
X95768681Y-60768019D01*
X95768679Y-60768017D01*
X95675484Y-60628539D01*
X95556860Y-60509915D01*
X95417382Y-60416720D01*
X95417380Y-60416718D01*
X95262407Y-60352528D01*
X95262395Y-60352524D01*
X95204500Y-60341008D01*
X95204500Y-60906108D01*
X95139445Y-60868549D01*
X95056787Y-60846400D01*
X94971213Y-60846400D01*
X94888555Y-60868549D01*
X94823500Y-60906108D01*
X94823500Y-60341008D01*
X94765604Y-60352524D01*
X94765592Y-60352528D01*
X94610619Y-60416718D01*
X94610617Y-60416720D01*
X94471139Y-60509915D01*
X94471137Y-60509918D01*
X94352518Y-60628537D01*
X94352515Y-60628539D01*
X94259320Y-60768017D01*
X94259318Y-60768019D01*
X94195128Y-60922992D01*
X94195123Y-60923006D01*
X94162400Y-61087522D01*
X94162400Y-61505900D01*
X94689000Y-61505900D01*
X94689000Y-61886900D01*
X94162400Y-61886900D01*
X94162400Y-62293293D01*
X94147814Y-62328507D01*
X94112600Y-62343093D01*
X94087701Y-62336421D01*
X94042461Y-62310302D01*
X94042449Y-62310297D01*
X93945426Y-62284300D01*
X93945425Y-62284300D01*
X93844975Y-62284300D01*
X93844971Y-62284300D01*
X93841728Y-62285169D01*
X93803940Y-62280188D01*
X93793632Y-62272278D01*
X93745888Y-62224534D01*
X93697086Y-62175731D01*
X93682500Y-62140517D01*
X93682500Y-62120065D01*
X93697086Y-62084851D01*
X93700886Y-62081733D01*
X93702606Y-62080012D01*
X93702610Y-62080010D01*
X93725176Y-62046237D01*
X93731100Y-62016455D01*
X93731099Y-60996346D01*
X93731099Y-60996345D01*
X93731098Y-60996336D01*
X93725177Y-60966564D01*
X93725176Y-60966562D01*
X93702611Y-60932791D01*
X93702607Y-60932788D01*
X93668837Y-60910224D01*
X93668834Y-60910223D01*
X93668836Y-60910223D01*
X93639057Y-60904300D01*
X93463059Y-60904300D01*
X93427845Y-60889714D01*
X93413259Y-60854500D01*
X93427845Y-60819286D01*
X93448962Y-60807999D01*
X93829000Y-60807999D01*
X93839002Y-60807999D01*
X93839005Y-60807998D01*
X93868641Y-60802105D01*
X93902248Y-60779648D01*
X93924705Y-60746041D01*
X93930599Y-60716407D01*
X93930600Y-60716401D01*
X93930600Y-60396400D01*
X93829000Y-60396400D01*
X93829000Y-60807999D01*
X93448962Y-60807999D01*
X93453345Y-60805656D01*
X93468837Y-60802576D01*
X93486783Y-60790584D01*
X93524165Y-60783149D01*
X93542118Y-60790585D01*
X93559358Y-60802104D01*
X93572405Y-60804700D01*
X93599000Y-60804700D01*
X93599000Y-60166400D01*
X93829000Y-60166400D01*
X93930599Y-60166400D01*
X93930599Y-59846398D01*
X93930598Y-59846394D01*
X93924705Y-59816758D01*
X93902248Y-59783151D01*
X93868640Y-59760694D01*
X93868641Y-59760694D01*
X93839007Y-59754800D01*
X93829000Y-59754800D01*
X93829000Y-60166400D01*
X93599000Y-60166400D01*
X93599000Y-59754800D01*
X93598999Y-59754799D01*
X93589000Y-59754800D01*
X93559356Y-59760695D01*
X93558160Y-59761191D01*
X93556863Y-59761191D01*
X93554546Y-59761652D01*
X93554454Y-59761191D01*
X93520045Y-59761193D01*
X93493092Y-59734243D01*
X93489300Y-59715183D01*
X93489300Y-59585282D01*
X93503886Y-59550068D01*
X93608308Y-59445646D01*
X93716155Y-59337799D01*
X93743300Y-59272266D01*
X93743300Y-59201335D01*
X93743300Y-52778733D01*
X94199500Y-52778733D01*
X94199500Y-59526266D01*
X94226645Y-59591799D01*
X94311914Y-59677068D01*
X94326500Y-59712282D01*
X94326500Y-59795026D01*
X94352497Y-59892049D01*
X94352498Y-59892051D01*
X94352499Y-59892054D01*
X94371987Y-59925809D01*
X94389236Y-59955686D01*
X94402724Y-59979047D01*
X94473753Y-60050076D01*
X94560746Y-60100301D01*
X94657775Y-60126300D01*
X94758225Y-60126300D01*
X94855254Y-60100301D01*
X94942247Y-60050076D01*
X95013276Y-59979047D01*
X95037084Y-59937810D01*
X97158300Y-59937810D01*
X97158300Y-60110589D01*
X97192003Y-60280031D01*
X97192006Y-60280041D01*
X97258123Y-60439662D01*
X97354108Y-60583315D01*
X97476284Y-60705491D01*
X97537263Y-60746235D01*
X97619937Y-60801476D01*
X97779559Y-60867594D01*
X97779565Y-60867595D01*
X97779568Y-60867596D01*
X97824363Y-60876506D01*
X97949013Y-60901300D01*
X97949017Y-60901300D01*
X98121783Y-60901300D01*
X98121787Y-60901300D01*
X98291241Y-60867594D01*
X98450863Y-60801476D01*
X98578106Y-60716455D01*
X98594515Y-60705491D01*
X98594518Y-60705489D01*
X98716689Y-60583318D01*
X98716691Y-60583315D01*
X98765735Y-60509915D01*
X98812676Y-60439663D01*
X98878794Y-60280041D01*
X98912500Y-60110587D01*
X98912500Y-59937813D01*
X98881736Y-59783151D01*
X98878796Y-59768368D01*
X98878795Y-59768365D01*
X98878794Y-59768359D01*
X98812676Y-59608737D01*
X98797004Y-59585282D01*
X98716691Y-59465084D01*
X98594515Y-59342908D01*
X98472866Y-59261626D01*
X98450863Y-59246924D01*
X98450861Y-59246923D01*
X98450862Y-59246923D01*
X98291241Y-59180806D01*
X98291231Y-59180803D01*
X98121789Y-59147100D01*
X98121787Y-59147100D01*
X97949013Y-59147100D01*
X97949010Y-59147100D01*
X97779568Y-59180803D01*
X97779558Y-59180806D01*
X97619937Y-59246923D01*
X97476284Y-59342908D01*
X97476282Y-59342911D01*
X97354111Y-59465082D01*
X97354108Y-59465084D01*
X97258123Y-59608737D01*
X97192006Y-59768358D01*
X97192003Y-59768368D01*
X97158300Y-59937810D01*
X95037084Y-59937810D01*
X95063501Y-59892054D01*
X95089500Y-59795025D01*
X95089500Y-59694575D01*
X95063501Y-59597546D01*
X95013276Y-59510553D01*
X94942247Y-59439524D01*
X94942246Y-59439523D01*
X94855257Y-59389301D01*
X94855254Y-59389299D01*
X94855251Y-59389298D01*
X94855249Y-59389297D01*
X94758226Y-59363300D01*
X94758225Y-59363300D01*
X94657775Y-59363300D01*
X94657773Y-59363300D01*
X94618789Y-59373746D01*
X94581000Y-59368771D01*
X94557797Y-59338532D01*
X94556100Y-59325643D01*
X94556100Y-57783847D01*
X94994300Y-57783847D01*
X94994300Y-58200552D01*
X95008057Y-58269712D01*
X95008057Y-58269713D01*
X95060458Y-58348138D01*
X95060461Y-58348141D01*
X95138886Y-58400542D01*
X95138887Y-58400542D01*
X95138888Y-58400543D01*
X95148014Y-58402358D01*
X95179706Y-58423532D01*
X95188100Y-58451201D01*
X95188100Y-58914666D01*
X95215245Y-58980199D01*
X95364289Y-59129243D01*
X95378875Y-59164457D01*
X95377178Y-59177345D01*
X95367900Y-59211971D01*
X95367900Y-59312426D01*
X95393897Y-59409449D01*
X95393901Y-59409457D01*
X95426015Y-59465082D01*
X95444124Y-59496447D01*
X95515153Y-59567476D01*
X95602146Y-59617701D01*
X95699175Y-59643700D01*
X95799625Y-59643700D01*
X95896654Y-59617701D01*
X95983647Y-59567476D01*
X96054676Y-59496447D01*
X96104901Y-59409454D01*
X96130900Y-59312425D01*
X96130900Y-59211975D01*
X96104901Y-59114946D01*
X96054676Y-59027953D01*
X95983647Y-58956924D01*
X95983646Y-58956923D01*
X95930409Y-58926187D01*
X95896654Y-58906699D01*
X95896651Y-58906698D01*
X95896649Y-58906697D01*
X95799626Y-58880700D01*
X95799625Y-58880700D01*
X95699175Y-58880700D01*
X95699171Y-58880700D01*
X95664545Y-58889978D01*
X95657874Y-58889099D01*
X95651657Y-58891675D01*
X95639646Y-58886700D01*
X95626756Y-58885003D01*
X95616443Y-58877089D01*
X95559286Y-58819931D01*
X95544700Y-58784717D01*
X95544700Y-58451201D01*
X95559286Y-58415987D01*
X95584785Y-58402358D01*
X95593912Y-58400543D01*
X95672340Y-58348140D01*
X95724743Y-58269712D01*
X95738500Y-58200552D01*
X95738500Y-57783848D01*
X95738500Y-57783847D01*
X96014300Y-57783847D01*
X96014300Y-58200552D01*
X96028057Y-58269712D01*
X96028057Y-58269713D01*
X96080458Y-58348138D01*
X96080461Y-58348141D01*
X96097469Y-58359505D01*
X96158888Y-58400543D01*
X96228048Y-58414300D01*
X96228053Y-58414300D01*
X96544747Y-58414300D01*
X96544752Y-58414300D01*
X96613912Y-58400543D01*
X96692340Y-58348140D01*
X96744743Y-58269712D01*
X96758500Y-58200552D01*
X96758500Y-57915500D01*
X96773086Y-57880286D01*
X96808300Y-57865700D01*
X97308864Y-57865700D01*
X97308866Y-57865700D01*
X97374399Y-57838555D01*
X97588481Y-57624473D01*
X98479400Y-57624473D01*
X98479400Y-57724926D01*
X98505397Y-57821949D01*
X98505398Y-57821951D01*
X98505399Y-57821954D01*
X98512731Y-57834654D01*
X98555622Y-57908945D01*
X98555624Y-57908947D01*
X98626653Y-57979976D01*
X98713646Y-58030201D01*
X98810675Y-58056200D01*
X98911125Y-58056200D01*
X99008154Y-58030201D01*
X99095147Y-57979976D01*
X99166176Y-57908947D01*
X99176768Y-57890599D01*
X99207006Y-57867397D01*
X99219896Y-57865700D01*
X100024501Y-57865700D01*
X100059715Y-57880286D01*
X100074301Y-57915500D01*
X100074301Y-57921152D01*
X100088058Y-57990312D01*
X100088058Y-57990313D01*
X100140459Y-58068738D01*
X100140462Y-58068741D01*
X100157111Y-58079865D01*
X100218889Y-58121143D01*
X100288049Y-58134900D01*
X100288054Y-58134900D01*
X100604748Y-58134900D01*
X100604753Y-58134900D01*
X100673913Y-58121143D01*
X100752341Y-58068740D01*
X100804744Y-57990312D01*
X100818501Y-57921152D01*
X100818501Y-57504448D01*
X100818501Y-57504447D01*
X101094299Y-57504447D01*
X101094299Y-57921152D01*
X101108056Y-57990312D01*
X101108056Y-57990313D01*
X101160457Y-58068738D01*
X101160460Y-58068741D01*
X101177109Y-58079865D01*
X101238887Y-58121143D01*
X101308047Y-58134900D01*
X101308052Y-58134900D01*
X101624746Y-58134900D01*
X101624751Y-58134900D01*
X101693911Y-58121143D01*
X101772339Y-58068740D01*
X101824742Y-57990312D01*
X101836503Y-57931184D01*
X101857679Y-57899493D01*
X101885346Y-57891100D01*
X102103336Y-57891100D01*
X102138550Y-57905686D01*
X102146464Y-57916001D01*
X102149724Y-57921647D01*
X102220753Y-57992676D01*
X102307746Y-58042901D01*
X102404775Y-58068900D01*
X102505225Y-58068900D01*
X102602254Y-58042901D01*
X102689247Y-57992676D01*
X102760276Y-57921647D01*
X102798295Y-57855796D01*
X103015800Y-57855796D01*
X103029817Y-57926267D01*
X103029818Y-57926269D01*
X103083214Y-58006182D01*
X103083217Y-58006185D01*
X103163128Y-58059580D01*
X103163133Y-58059581D01*
X103206899Y-58068287D01*
X103587900Y-58068287D01*
X103631666Y-58059581D01*
X103631671Y-58059580D01*
X103711582Y-58006185D01*
X103711585Y-58006182D01*
X103764981Y-57926269D01*
X103764982Y-57926267D01*
X103778999Y-57855796D01*
X103779000Y-57855790D01*
X103779000Y-57852500D01*
X103587900Y-57852500D01*
X103587900Y-58068287D01*
X103206899Y-58068287D01*
X103206900Y-58068286D01*
X103206900Y-57852500D01*
X103015800Y-57852500D01*
X103015800Y-57855796D01*
X102798295Y-57855796D01*
X102810501Y-57834654D01*
X102836500Y-57737625D01*
X102836500Y-57637175D01*
X102810501Y-57540146D01*
X102810498Y-57540141D01*
X102810497Y-57540138D01*
X102781933Y-57490663D01*
X102781931Y-57490660D01*
X102768965Y-57468203D01*
X103015800Y-57468203D01*
X103015800Y-57471500D01*
X103206900Y-57471500D01*
X103587900Y-57471500D01*
X103779000Y-57471500D01*
X103779000Y-57468210D01*
X103778999Y-57468203D01*
X103764982Y-57397732D01*
X103764981Y-57397730D01*
X103711585Y-57317817D01*
X103711582Y-57317814D01*
X103631669Y-57264418D01*
X103631667Y-57264417D01*
X103587900Y-57255712D01*
X103587900Y-57471500D01*
X103206900Y-57471500D01*
X103206900Y-57255712D01*
X103163132Y-57264417D01*
X103163130Y-57264418D01*
X103083217Y-57317814D01*
X103083214Y-57317817D01*
X103029818Y-57397730D01*
X103029817Y-57397732D01*
X103015800Y-57468203D01*
X102768965Y-57468203D01*
X102760276Y-57453153D01*
X102689246Y-57382123D01*
X102636009Y-57351387D01*
X102602254Y-57331899D01*
X102602251Y-57331898D01*
X102602249Y-57331897D01*
X102505226Y-57305900D01*
X102505225Y-57305900D01*
X102404775Y-57305900D01*
X102404773Y-57305900D01*
X102307750Y-57331897D01*
X102307742Y-57331901D01*
X102220753Y-57382123D01*
X102149723Y-57453153D01*
X102122483Y-57500335D01*
X102117424Y-57509100D01*
X102117135Y-57509600D01*
X102086897Y-57532803D01*
X102074007Y-57534500D01*
X101885346Y-57534500D01*
X101850132Y-57519914D01*
X101836503Y-57494415D01*
X101833795Y-57480803D01*
X101824742Y-57435288D01*
X101824741Y-57435286D01*
X101772340Y-57356861D01*
X101772337Y-57356858D01*
X101693911Y-57304457D01*
X101624751Y-57290700D01*
X101308047Y-57290700D01*
X101308046Y-57290700D01*
X101238886Y-57304457D01*
X101238885Y-57304457D01*
X101160460Y-57356858D01*
X101160457Y-57356861D01*
X101108056Y-57435286D01*
X101108056Y-57435287D01*
X101094299Y-57504447D01*
X100818501Y-57504447D01*
X100804744Y-57435288D01*
X100801888Y-57431014D01*
X100752342Y-57356861D01*
X100752339Y-57356858D01*
X100672233Y-57303334D01*
X100669399Y-57299093D01*
X100664686Y-57297141D01*
X100659126Y-57283720D01*
X100651057Y-57271643D01*
X100650100Y-57261927D01*
X100650100Y-57206601D01*
X100664686Y-57171387D01*
X100690185Y-57157758D01*
X100699312Y-57155943D01*
X100777740Y-57103540D01*
X100830143Y-57025112D01*
X100843900Y-56955952D01*
X100843900Y-56539248D01*
X100843900Y-56539247D01*
X101119700Y-56539247D01*
X101119700Y-56955952D01*
X101133457Y-57025112D01*
X101133457Y-57025113D01*
X101185858Y-57103538D01*
X101185860Y-57103540D01*
X101264288Y-57155943D01*
X101333448Y-57169700D01*
X101333453Y-57169700D01*
X101650147Y-57169700D01*
X101650152Y-57169700D01*
X101719312Y-57155943D01*
X101797740Y-57103540D01*
X101850143Y-57025112D01*
X101863900Y-56955952D01*
X101863900Y-56899500D01*
X101878486Y-56864286D01*
X101913700Y-56849700D01*
X103982282Y-56849700D01*
X104009948Y-56858092D01*
X104014563Y-56861176D01*
X104044345Y-56867100D01*
X104814454Y-56867099D01*
X104814455Y-56867098D01*
X104814463Y-56867098D01*
X104844235Y-56861177D01*
X104844237Y-56861176D01*
X104864787Y-56847445D01*
X104878010Y-56838610D01*
X104890593Y-56819776D01*
X104922284Y-56798602D01*
X104959667Y-56806037D01*
X104980843Y-56837729D01*
X104981800Y-56847445D01*
X104981800Y-57395800D01*
X104967214Y-57431014D01*
X104932000Y-57445600D01*
X104775883Y-57445600D01*
X104740669Y-57431014D01*
X104727040Y-57405516D01*
X104725453Y-57397537D01*
X104724292Y-57395800D01*
X104671945Y-57317457D01*
X104671942Y-57317454D01*
X104591864Y-57263947D01*
X104591862Y-57263946D01*
X104521246Y-57249900D01*
X104521244Y-57249900D01*
X104193556Y-57249900D01*
X104193553Y-57249900D01*
X104122937Y-57263946D01*
X104122935Y-57263947D01*
X104042857Y-57317454D01*
X104042854Y-57317457D01*
X103989347Y-57397535D01*
X103989346Y-57397537D01*
X103975300Y-57468153D01*
X103975300Y-57855846D01*
X103989346Y-57926462D01*
X103989347Y-57926464D01*
X104042854Y-58006542D01*
X104042857Y-58006545D01*
X104122935Y-58060052D01*
X104122937Y-58060053D01*
X104193556Y-58074100D01*
X104193561Y-58074100D01*
X104521239Y-58074100D01*
X104521244Y-58074100D01*
X104591863Y-58060053D01*
X104671944Y-58006544D01*
X104725453Y-57926463D01*
X104727040Y-57918483D01*
X104735109Y-57906406D01*
X104740669Y-57892986D01*
X104745382Y-57891033D01*
X104748216Y-57886793D01*
X104775883Y-57878400D01*
X104800772Y-57878400D01*
X104835986Y-57892986D01*
X104848875Y-57915310D01*
X104868097Y-57987049D01*
X104868099Y-57987054D01*
X104879352Y-58006545D01*
X104915351Y-58068899D01*
X104918324Y-58074047D01*
X104989353Y-58145076D01*
X105076346Y-58195301D01*
X105173375Y-58221300D01*
X105273825Y-58221300D01*
X105370854Y-58195301D01*
X105457847Y-58145076D01*
X105528876Y-58074047D01*
X105579101Y-57987054D01*
X105605100Y-57890025D01*
X105605100Y-57789575D01*
X105579101Y-57692546D01*
X105528876Y-57605553D01*
X105457847Y-57534524D01*
X105457846Y-57534523D01*
X105439500Y-57523931D01*
X105416297Y-57493692D01*
X105414600Y-57480803D01*
X105414600Y-56116900D01*
X105429186Y-56081686D01*
X105464400Y-56067100D01*
X105609847Y-56067100D01*
X105645061Y-56081686D01*
X105648803Y-56085876D01*
X105656333Y-56095331D01*
X105658224Y-56104837D01*
X105680790Y-56138610D01*
X105702185Y-56152905D01*
X105707019Y-56158975D01*
X105710302Y-56170399D01*
X105716906Y-56180282D01*
X105715366Y-56188022D01*
X105717546Y-56195607D01*
X105711789Y-56206006D01*
X105709471Y-56217665D01*
X105700209Y-56226927D01*
X105699087Y-56228955D01*
X105697816Y-56229320D01*
X105695732Y-56231405D01*
X105680791Y-56241388D01*
X105658223Y-56275164D01*
X105652300Y-56304942D01*
X105652300Y-56775053D01*
X105652301Y-56775063D01*
X105658222Y-56804835D01*
X105658223Y-56804837D01*
X105680788Y-56838608D01*
X105680789Y-56838608D01*
X105680790Y-56838610D01*
X105714563Y-56861176D01*
X105744345Y-56867100D01*
X105901300Y-56867099D01*
X105936514Y-56881685D01*
X105951100Y-56916899D01*
X105951100Y-58286270D01*
X105936514Y-58321484D01*
X105926201Y-58329398D01*
X105895152Y-58347324D01*
X105824123Y-58418353D01*
X105773901Y-58505342D01*
X105773897Y-58505350D01*
X105747900Y-58602373D01*
X105747900Y-58702826D01*
X105773897Y-58799849D01*
X105773898Y-58799851D01*
X105773899Y-58799854D01*
X105824124Y-58886847D01*
X105895153Y-58957876D01*
X105982146Y-59008101D01*
X106079175Y-59034100D01*
X106179625Y-59034100D01*
X106276654Y-59008101D01*
X106363647Y-58957876D01*
X106434676Y-58886847D01*
X106484901Y-58799854D01*
X106510900Y-58702825D01*
X106510900Y-58602375D01*
X106484901Y-58505346D01*
X106434676Y-58418353D01*
X106363647Y-58347324D01*
X106332599Y-58329398D01*
X106309397Y-58299158D01*
X106307700Y-58286270D01*
X106307700Y-56916899D01*
X106322286Y-56881685D01*
X106357500Y-56867099D01*
X106514453Y-56867099D01*
X106514454Y-56867099D01*
X106514455Y-56867098D01*
X106514463Y-56867098D01*
X106544235Y-56861177D01*
X106544237Y-56861176D01*
X106564787Y-56847445D01*
X106578010Y-56838610D01*
X106600576Y-56804837D01*
X106606500Y-56775055D01*
X106606499Y-56304946D01*
X106606499Y-56304945D01*
X106606498Y-56304936D01*
X106600577Y-56275164D01*
X106600576Y-56275162D01*
X106578011Y-56241391D01*
X106578009Y-56241389D01*
X106571354Y-56236943D01*
X106563069Y-56231407D01*
X106541893Y-56199717D01*
X106549328Y-56162334D01*
X106563068Y-56148593D01*
X106578010Y-56138610D01*
X106600576Y-56104837D01*
X106606500Y-56075055D01*
X106606499Y-55604946D01*
X106606499Y-55604945D01*
X106606498Y-55604936D01*
X106600577Y-55575164D01*
X106600576Y-55575162D01*
X106578011Y-55541391D01*
X106578007Y-55541388D01*
X106544237Y-55518824D01*
X106544234Y-55518823D01*
X106544236Y-55518823D01*
X106520378Y-55514078D01*
X106514455Y-55512900D01*
X106514454Y-55512900D01*
X105744346Y-55512900D01*
X105744336Y-55512901D01*
X105714564Y-55518822D01*
X105714562Y-55518823D01*
X105680791Y-55541388D01*
X105658223Y-55575165D01*
X105656347Y-55579695D01*
X105654583Y-55578964D01*
X105637514Y-55604508D01*
X105609848Y-55612900D01*
X104948953Y-55612900D01*
X104913739Y-55598314D01*
X104903544Y-55579244D01*
X104902454Y-55579696D01*
X104900576Y-55575162D01*
X104878011Y-55541391D01*
X104878007Y-55541388D01*
X104844237Y-55518824D01*
X104844234Y-55518823D01*
X104844236Y-55518823D01*
X104820378Y-55514078D01*
X104814455Y-55512900D01*
X104814454Y-55512900D01*
X104044346Y-55512900D01*
X104044336Y-55512901D01*
X104014564Y-55518822D01*
X104014562Y-55518823D01*
X103980791Y-55541388D01*
X103958223Y-55575164D01*
X103952300Y-55604942D01*
X103952300Y-56075053D01*
X103952301Y-56075063D01*
X103958222Y-56104835D01*
X103958223Y-56104837D01*
X103980788Y-56138608D01*
X103980789Y-56138609D01*
X103980790Y-56138610D01*
X103995729Y-56148592D01*
X104016906Y-56180282D01*
X104009471Y-56217665D01*
X103995732Y-56231405D01*
X103980791Y-56241388D01*
X103958223Y-56275164D01*
X103952300Y-56304942D01*
X103952300Y-56443300D01*
X103937714Y-56478514D01*
X103902500Y-56493100D01*
X101892138Y-56493100D01*
X101856924Y-56478514D01*
X101850731Y-56470967D01*
X101797741Y-56391661D01*
X101797738Y-56391658D01*
X101719312Y-56339257D01*
X101650152Y-56325500D01*
X101333448Y-56325500D01*
X101333447Y-56325500D01*
X101264287Y-56339257D01*
X101264286Y-56339257D01*
X101185861Y-56391658D01*
X101185858Y-56391661D01*
X101133457Y-56470086D01*
X101133457Y-56470087D01*
X101119700Y-56539247D01*
X100843900Y-56539247D01*
X100830143Y-56470088D01*
X100828654Y-56467860D01*
X100777741Y-56391661D01*
X100777738Y-56391658D01*
X100699312Y-56339257D01*
X100630152Y-56325500D01*
X100313448Y-56325500D01*
X100313447Y-56325500D01*
X100244287Y-56339257D01*
X100244286Y-56339257D01*
X100165861Y-56391658D01*
X100165858Y-56391661D01*
X100113457Y-56470086D01*
X100113457Y-56470087D01*
X100099700Y-56539247D01*
X100099700Y-56955952D01*
X100113457Y-57025112D01*
X100113457Y-57025113D01*
X100165858Y-57103538D01*
X100165861Y-57103541D01*
X100244286Y-57155942D01*
X100244287Y-57155942D01*
X100244288Y-57155943D01*
X100253414Y-57157758D01*
X100265491Y-57165827D01*
X100278914Y-57171387D01*
X100280865Y-57176099D01*
X100285106Y-57178932D01*
X100293500Y-57206601D01*
X100293500Y-57248746D01*
X100278914Y-57283960D01*
X100253416Y-57297589D01*
X100218889Y-57304457D01*
X100218887Y-57304457D01*
X100140462Y-57356858D01*
X100140459Y-57356861D01*
X100088058Y-57435286D01*
X100088058Y-57435288D01*
X100081349Y-57469016D01*
X100060173Y-57500707D01*
X100032506Y-57509100D01*
X99234561Y-57509100D01*
X99199347Y-57494514D01*
X99191433Y-57484200D01*
X99185621Y-57474134D01*
X99166176Y-57440453D01*
X99095147Y-57369424D01*
X99095146Y-57369423D01*
X99029155Y-57331324D01*
X99008154Y-57319199D01*
X99008151Y-57319198D01*
X99008149Y-57319197D01*
X98911126Y-57293200D01*
X98911125Y-57293200D01*
X98810675Y-57293200D01*
X98810673Y-57293200D01*
X98713650Y-57319197D01*
X98713642Y-57319201D01*
X98626653Y-57369423D01*
X98555623Y-57440453D01*
X98505401Y-57527442D01*
X98505397Y-57527450D01*
X98479400Y-57624473D01*
X97588481Y-57624473D01*
X99110669Y-56102286D01*
X99145883Y-56087700D01*
X102719064Y-56087700D01*
X102719066Y-56087700D01*
X102784599Y-56060555D01*
X103698356Y-55146799D01*
X103725500Y-55081266D01*
X103725500Y-55010334D01*
X103725500Y-54258552D01*
X104142800Y-54258552D01*
X104142800Y-54461447D01*
X104144849Y-54482250D01*
X104184427Y-54681226D01*
X104190499Y-54701240D01*
X104268138Y-54888677D01*
X104268139Y-54888680D01*
X104277994Y-54907118D01*
X104390707Y-55075805D01*
X104390713Y-55075813D01*
X104403954Y-55091948D01*
X104403962Y-55091957D01*
X104547442Y-55235437D01*
X104547451Y-55235445D01*
X104563586Y-55248686D01*
X104563594Y-55248692D01*
X104732281Y-55361405D01*
X104750719Y-55371260D01*
X104750722Y-55371261D01*
X104938159Y-55448900D01*
X104958173Y-55454972D01*
X105157149Y-55494550D01*
X105177952Y-55496599D01*
X105177955Y-55496600D01*
X105380845Y-55496600D01*
X105380847Y-55496599D01*
X105401650Y-55494550D01*
X105600626Y-55454972D01*
X105620640Y-55448900D01*
X105808077Y-55371261D01*
X105808080Y-55371260D01*
X105826518Y-55361405D01*
X105995205Y-55248692D01*
X105995213Y-55248686D01*
X106011348Y-55235445D01*
X106011357Y-55235437D01*
X106154837Y-55091957D01*
X106154845Y-55091948D01*
X106168086Y-55075813D01*
X106168092Y-55075805D01*
X106280805Y-54907118D01*
X106290660Y-54888680D01*
X106290661Y-54888677D01*
X106368300Y-54701240D01*
X106374372Y-54681226D01*
X106413950Y-54482250D01*
X106415999Y-54461447D01*
X106416000Y-54461445D01*
X106416000Y-54258555D01*
X106415999Y-54258552D01*
X108257600Y-54258552D01*
X108257600Y-54461447D01*
X108259649Y-54482250D01*
X108299227Y-54681226D01*
X108305299Y-54701240D01*
X108382938Y-54888677D01*
X108382939Y-54888680D01*
X108392794Y-54907118D01*
X108505507Y-55075805D01*
X108505513Y-55075813D01*
X108518754Y-55091948D01*
X108518762Y-55091957D01*
X108662242Y-55235437D01*
X108662251Y-55235445D01*
X108678386Y-55248686D01*
X108678394Y-55248692D01*
X108847081Y-55361405D01*
X108865519Y-55371260D01*
X108865522Y-55371261D01*
X109052959Y-55448900D01*
X109072973Y-55454972D01*
X109271949Y-55494550D01*
X109292752Y-55496599D01*
X109292755Y-55496600D01*
X109495645Y-55496600D01*
X109495647Y-55496599D01*
X109516450Y-55494550D01*
X109715426Y-55454972D01*
X109735440Y-55448900D01*
X109922877Y-55371261D01*
X109922880Y-55371260D01*
X109941318Y-55361405D01*
X110110005Y-55248692D01*
X110110013Y-55248686D01*
X110126148Y-55235445D01*
X110126157Y-55235437D01*
X110269637Y-55091957D01*
X110269645Y-55091948D01*
X110282886Y-55075813D01*
X110282892Y-55075805D01*
X110395605Y-54907118D01*
X110405460Y-54888680D01*
X110405461Y-54888677D01*
X110483100Y-54701240D01*
X110489172Y-54681226D01*
X110528750Y-54482250D01*
X110530799Y-54461447D01*
X110530800Y-54461445D01*
X110530800Y-54258555D01*
X110530799Y-54258552D01*
X110528750Y-54237749D01*
X110489172Y-54038773D01*
X110483100Y-54018759D01*
X110405461Y-53831322D01*
X110405460Y-53831319D01*
X110395605Y-53812881D01*
X110321552Y-53702053D01*
X110321551Y-53702053D01*
X109906263Y-54117341D01*
X109871049Y-54131927D01*
X109835835Y-54117341D01*
X109827922Y-54107028D01*
X109795980Y-54051703D01*
X109702497Y-53958220D01*
X109702496Y-53958219D01*
X109647171Y-53926277D01*
X109623968Y-53896038D01*
X109628943Y-53858249D01*
X109636857Y-53847935D01*
X110052145Y-53432647D01*
X110052145Y-53432646D01*
X109941318Y-53358594D01*
X109922880Y-53348739D01*
X109922877Y-53348738D01*
X109735440Y-53271099D01*
X109715426Y-53265027D01*
X109516450Y-53225449D01*
X109495647Y-53223400D01*
X109292752Y-53223400D01*
X109271949Y-53225449D01*
X109072973Y-53265027D01*
X109052959Y-53271099D01*
X108865522Y-53348738D01*
X108865519Y-53348739D01*
X108847081Y-53358594D01*
X108736253Y-53432646D01*
X108736253Y-53432647D01*
X109151541Y-53847935D01*
X109166127Y-53883149D01*
X109151541Y-53918363D01*
X109141228Y-53926277D01*
X109085902Y-53958220D01*
X108992420Y-54051702D01*
X108960477Y-54107028D01*
X108930237Y-54130230D01*
X108892448Y-54125255D01*
X108882135Y-54117341D01*
X108466847Y-53702053D01*
X108466846Y-53702053D01*
X108392794Y-53812881D01*
X108382939Y-53831319D01*
X108382938Y-53831322D01*
X108305299Y-54018759D01*
X108299227Y-54038773D01*
X108259649Y-54237749D01*
X108257600Y-54258552D01*
X106415999Y-54258552D01*
X106413950Y-54237749D01*
X106374372Y-54038773D01*
X106368300Y-54018759D01*
X106290661Y-53831322D01*
X106290660Y-53831319D01*
X106280805Y-53812881D01*
X106206752Y-53702053D01*
X106206751Y-53702053D01*
X105791463Y-54117341D01*
X105756249Y-54131927D01*
X105721035Y-54117341D01*
X105713122Y-54107028D01*
X105681180Y-54051703D01*
X105587697Y-53958220D01*
X105587696Y-53958219D01*
X105532371Y-53926277D01*
X105509168Y-53896038D01*
X105514143Y-53858249D01*
X105522057Y-53847935D01*
X105937345Y-53432647D01*
X105937345Y-53432646D01*
X105826518Y-53358594D01*
X105808080Y-53348739D01*
X105808077Y-53348738D01*
X105620640Y-53271099D01*
X105600626Y-53265027D01*
X105401650Y-53225449D01*
X105380847Y-53223400D01*
X105177952Y-53223400D01*
X105157149Y-53225449D01*
X104958173Y-53265027D01*
X104938159Y-53271099D01*
X104750722Y-53348738D01*
X104750719Y-53348739D01*
X104732281Y-53358594D01*
X104621453Y-53432646D01*
X104621453Y-53432647D01*
X105036741Y-53847935D01*
X105051327Y-53883149D01*
X105036741Y-53918363D01*
X105026428Y-53926277D01*
X104971102Y-53958220D01*
X104877620Y-54051702D01*
X104845677Y-54107028D01*
X104815437Y-54130230D01*
X104777648Y-54125255D01*
X104767335Y-54117341D01*
X104352047Y-53702053D01*
X104352046Y-53702053D01*
X104277994Y-53812881D01*
X104268139Y-53831319D01*
X104268138Y-53831322D01*
X104190499Y-54018759D01*
X104184427Y-54038773D01*
X104144849Y-54237749D01*
X104142800Y-54258552D01*
X103725500Y-54258552D01*
X103725500Y-52394134D01*
X103710657Y-52358300D01*
X103710657Y-52358297D01*
X103698357Y-52328602D01*
X103398599Y-52028845D01*
X103377639Y-52020163D01*
X103333066Y-52001700D01*
X103333065Y-52001700D01*
X103252699Y-52001700D01*
X103217485Y-51987114D01*
X103202899Y-51951900D01*
X103202899Y-51944946D01*
X103202898Y-51944936D01*
X103196977Y-51915164D01*
X103196976Y-51915162D01*
X103174411Y-51881391D01*
X103174407Y-51881388D01*
X103140637Y-51858824D01*
X103140634Y-51858823D01*
X103140636Y-51858823D01*
X103116778Y-51854078D01*
X103110855Y-51852900D01*
X103110854Y-51852900D01*
X102340746Y-51852900D01*
X102340736Y-51852901D01*
X102310964Y-51858822D01*
X102310962Y-51858823D01*
X102277191Y-51881388D01*
X102254623Y-51915164D01*
X102248700Y-51944942D01*
X102248700Y-52415053D01*
X102248701Y-52415063D01*
X102254622Y-52444835D01*
X102254623Y-52444837D01*
X102277188Y-52478608D01*
X102277189Y-52478609D01*
X102277190Y-52478610D01*
X102292129Y-52488592D01*
X102296921Y-52495762D01*
X102304338Y-52500166D01*
X102307097Y-52510991D01*
X102313306Y-52520282D01*
X102311623Y-52528742D01*
X102313754Y-52537100D01*
X102308212Y-52545892D01*
X102305871Y-52557665D01*
X102294296Y-52569874D01*
X102293216Y-52570681D01*
X102277190Y-52581390D01*
X102275477Y-52583953D01*
X102269241Y-52588619D01*
X102253970Y-52592512D01*
X102239408Y-52598544D01*
X102235941Y-52597108D01*
X102232307Y-52598035D01*
X102218755Y-52589989D01*
X102204194Y-52583958D01*
X102076386Y-52456150D01*
X102061800Y-52420936D01*
X102061800Y-51440895D01*
X102076386Y-51405681D01*
X102086698Y-51397768D01*
X102102447Y-51388676D01*
X102173476Y-51317647D01*
X102173477Y-51317646D01*
X102175784Y-51315339D01*
X102176021Y-51315576D01*
X102176515Y-51314386D01*
X102191333Y-51308248D01*
X102205220Y-51300227D01*
X102211729Y-51299800D01*
X102242317Y-51299800D01*
X102277531Y-51314386D01*
X102291159Y-51339883D01*
X102292708Y-51347669D01*
X102292747Y-51347862D01*
X102292747Y-51347864D01*
X102346254Y-51427942D01*
X102346257Y-51427945D01*
X102426335Y-51481452D01*
X102426337Y-51481453D01*
X102496956Y-51495500D01*
X102496961Y-51495500D01*
X102824639Y-51495500D01*
X102824644Y-51495500D01*
X102895263Y-51481453D01*
X102975344Y-51427944D01*
X103028853Y-51347863D01*
X103042900Y-51277244D01*
X103042900Y-51277196D01*
X103239200Y-51277196D01*
X103253217Y-51347667D01*
X103253218Y-51347669D01*
X103306614Y-51427582D01*
X103306617Y-51427585D01*
X103386528Y-51480980D01*
X103386533Y-51480981D01*
X103430299Y-51489687D01*
X103811300Y-51489687D01*
X103855066Y-51480981D01*
X103855071Y-51480980D01*
X103934982Y-51427585D01*
X103934985Y-51427582D01*
X103988381Y-51347669D01*
X103988382Y-51347667D01*
X104002399Y-51277196D01*
X104002400Y-51277190D01*
X104002400Y-51273900D01*
X103811300Y-51273900D01*
X103811300Y-51489687D01*
X103430299Y-51489687D01*
X103430300Y-51489686D01*
X103430300Y-51273900D01*
X103239200Y-51273900D01*
X103239200Y-51277196D01*
X103042900Y-51277196D01*
X103042900Y-50889603D01*
X103239200Y-50889603D01*
X103239200Y-50892900D01*
X103430300Y-50892900D01*
X103811300Y-50892900D01*
X104002400Y-50892900D01*
X104002400Y-50889610D01*
X104002399Y-50889603D01*
X103988382Y-50819132D01*
X103988381Y-50819130D01*
X103934985Y-50739217D01*
X103934982Y-50739214D01*
X103855069Y-50685818D01*
X103855067Y-50685817D01*
X103811300Y-50677112D01*
X103811300Y-50892900D01*
X103430300Y-50892900D01*
X103430300Y-50677112D01*
X103386532Y-50685817D01*
X103386530Y-50685818D01*
X103306617Y-50739214D01*
X103306614Y-50739217D01*
X103253218Y-50819130D01*
X103253217Y-50819132D01*
X103239200Y-50889603D01*
X103042900Y-50889603D01*
X103042900Y-50889556D01*
X103028853Y-50818937D01*
X103027358Y-50816700D01*
X102975345Y-50738857D01*
X102975342Y-50738854D01*
X102895264Y-50685347D01*
X102895262Y-50685346D01*
X102824646Y-50671300D01*
X102824644Y-50671300D01*
X102496956Y-50671300D01*
X102496953Y-50671300D01*
X102426337Y-50685346D01*
X102426335Y-50685347D01*
X102346257Y-50738854D01*
X102346254Y-50738857D01*
X102292747Y-50818935D01*
X102292747Y-50818937D01*
X102291160Y-50826916D01*
X102283090Y-50838993D01*
X102277531Y-50852414D01*
X102272817Y-50854366D01*
X102269984Y-50858607D01*
X102242317Y-50867000D01*
X102211729Y-50867000D01*
X102176515Y-50852414D01*
X102174935Y-50850612D01*
X102102446Y-50778123D01*
X102041151Y-50742735D01*
X102015454Y-50727899D01*
X102015451Y-50727898D01*
X102015449Y-50727897D01*
X101918426Y-50701900D01*
X101918425Y-50701900D01*
X101817975Y-50701900D01*
X101817973Y-50701900D01*
X101720950Y-50727897D01*
X101720942Y-50727901D01*
X101633953Y-50778123D01*
X101562923Y-50849153D01*
X101512701Y-50936142D01*
X101512697Y-50936150D01*
X101486700Y-51033173D01*
X101486700Y-51133626D01*
X101512697Y-51230649D01*
X101512698Y-51230651D01*
X101512699Y-51230654D01*
X101530862Y-51262113D01*
X101562923Y-51317646D01*
X101614414Y-51369137D01*
X101629000Y-51404351D01*
X101629000Y-52574245D01*
X101661945Y-52653781D01*
X101722819Y-52714655D01*
X101722820Y-52714655D01*
X102071620Y-53063456D01*
X102093518Y-53072526D01*
X102151155Y-53096400D01*
X102151156Y-53096400D01*
X102204119Y-53096400D01*
X102239333Y-53110986D01*
X102252962Y-53136485D01*
X102254622Y-53144835D01*
X102254623Y-53144837D01*
X102277188Y-53178608D01*
X102277189Y-53178608D01*
X102277190Y-53178610D01*
X102310963Y-53201176D01*
X102340745Y-53207100D01*
X103110854Y-53207099D01*
X103110855Y-53207098D01*
X103110863Y-53207098D01*
X103140635Y-53201177D01*
X103140637Y-53201176D01*
X103141342Y-53200705D01*
X103174410Y-53178610D01*
X103196976Y-53144837D01*
X103202900Y-53115055D01*
X103202899Y-52644946D01*
X103202899Y-52644945D01*
X103202898Y-52644936D01*
X103196977Y-52615164D01*
X103196976Y-52615162D01*
X103174411Y-52581391D01*
X103174409Y-52581389D01*
X103167754Y-52576943D01*
X103159469Y-52571407D01*
X103138293Y-52539717D01*
X103145728Y-52502334D01*
X103147387Y-52500000D01*
X103152463Y-52493274D01*
X103174410Y-52478610D01*
X103196976Y-52444837D01*
X103199822Y-52430524D01*
X103206692Y-52421423D01*
X103214037Y-52417103D01*
X103218772Y-52410017D01*
X103229828Y-52407817D01*
X103239547Y-52402102D01*
X103247795Y-52404242D01*
X103256154Y-52402579D01*
X103270084Y-52410024D01*
X103276441Y-52411674D01*
X103277940Y-52414223D01*
X103281655Y-52416209D01*
X103354314Y-52488868D01*
X103368900Y-52524082D01*
X103368900Y-54951317D01*
X103354314Y-54986531D01*
X102624332Y-55716514D01*
X102589118Y-55731100D01*
X99015934Y-55731100D01*
X98996740Y-55739050D01*
X98950401Y-55758243D01*
X97214132Y-57494514D01*
X97178918Y-57509100D01*
X96498066Y-57509100D01*
X96427134Y-57509100D01*
X96413504Y-57514746D01*
X96361600Y-57536245D01*
X96342332Y-57555514D01*
X96307118Y-57570100D01*
X96228047Y-57570100D01*
X96158887Y-57583857D01*
X96158886Y-57583857D01*
X96080461Y-57636258D01*
X96080458Y-57636261D01*
X96028057Y-57714686D01*
X96028057Y-57714687D01*
X96014300Y-57783847D01*
X95738500Y-57783847D01*
X95724743Y-57714688D01*
X95723097Y-57712225D01*
X95672341Y-57636261D01*
X95672338Y-57636258D01*
X95593913Y-57583857D01*
X95584783Y-57582041D01*
X95553092Y-57560863D01*
X95544701Y-57533198D01*
X95544701Y-57282801D01*
X95559287Y-57247587D01*
X95584786Y-57233958D01*
X95593913Y-57232143D01*
X95672341Y-57179740D01*
X95724744Y-57101312D01*
X95738501Y-57032152D01*
X95738501Y-56615448D01*
X95724744Y-56546288D01*
X95720039Y-56539247D01*
X95672342Y-56467861D01*
X95672339Y-56467858D01*
X95593913Y-56415457D01*
X95524753Y-56401700D01*
X95208049Y-56401700D01*
X95208048Y-56401700D01*
X95138888Y-56415457D01*
X95138887Y-56415457D01*
X95060462Y-56467858D01*
X95060459Y-56467861D01*
X95008058Y-56546286D01*
X95008058Y-56546287D01*
X94994301Y-56615447D01*
X94994301Y-57032152D01*
X95008058Y-57101312D01*
X95008058Y-57101313D01*
X95060459Y-57179738D01*
X95060462Y-57179741D01*
X95138887Y-57232142D01*
X95138888Y-57232142D01*
X95138889Y-57232143D01*
X95148015Y-57233958D01*
X95179707Y-57255132D01*
X95188101Y-57282801D01*
X95188101Y-57533197D01*
X95173515Y-57568411D01*
X95148020Y-57582039D01*
X95138889Y-57583855D01*
X95060461Y-57636258D01*
X95060458Y-57636261D01*
X95008057Y-57714686D01*
X95008057Y-57714687D01*
X94994300Y-57783847D01*
X94556100Y-57783847D01*
X94556100Y-54258552D01*
X95252800Y-54258552D01*
X95252800Y-54461447D01*
X95254849Y-54482250D01*
X95294427Y-54681226D01*
X95300499Y-54701240D01*
X95378138Y-54888677D01*
X95378139Y-54888680D01*
X95387994Y-54907118D01*
X95462046Y-55017945D01*
X95462047Y-55017945D01*
X95877335Y-54602657D01*
X95912549Y-54588071D01*
X95947763Y-54602657D01*
X95955677Y-54612971D01*
X95987620Y-54668297D01*
X96081103Y-54761780D01*
X96136427Y-54793721D01*
X96159630Y-54823960D01*
X96154655Y-54861749D01*
X96146741Y-54872063D01*
X95731453Y-55287351D01*
X95731453Y-55287352D01*
X95842281Y-55361405D01*
X95860719Y-55371260D01*
X95860722Y-55371261D01*
X96048159Y-55448900D01*
X96068173Y-55454972D01*
X96267149Y-55494550D01*
X96287952Y-55496599D01*
X96287955Y-55496600D01*
X96490845Y-55496600D01*
X96490847Y-55496599D01*
X96511650Y-55494550D01*
X96710626Y-55454972D01*
X96730640Y-55448900D01*
X96918077Y-55371261D01*
X96918080Y-55371260D01*
X96936518Y-55361405D01*
X97047346Y-55287352D01*
X96632057Y-54872063D01*
X96617471Y-54836849D01*
X96632057Y-54801635D01*
X96642360Y-54793728D01*
X96697697Y-54761780D01*
X96791180Y-54668297D01*
X96823123Y-54612969D01*
X96853359Y-54589768D01*
X96891148Y-54594742D01*
X96901463Y-54602657D01*
X97316752Y-55017946D01*
X97390805Y-54907118D01*
X97400660Y-54888680D01*
X97400661Y-54888677D01*
X97478300Y-54701240D01*
X97484372Y-54681226D01*
X97523950Y-54482250D01*
X97525999Y-54461447D01*
X97526000Y-54461445D01*
X97526000Y-54258555D01*
X97525999Y-54258552D01*
X97523950Y-54237749D01*
X97484372Y-54038773D01*
X97478300Y-54018759D01*
X97400661Y-53831322D01*
X97400660Y-53831319D01*
X97390805Y-53812881D01*
X97278092Y-53644194D01*
X97278086Y-53644186D01*
X97264845Y-53628051D01*
X97264837Y-53628042D01*
X97121357Y-53484562D01*
X97121348Y-53484554D01*
X97105213Y-53471313D01*
X97105205Y-53471307D01*
X96936518Y-53358594D01*
X96918080Y-53348739D01*
X96918077Y-53348738D01*
X96730640Y-53271099D01*
X96710626Y-53265027D01*
X96511650Y-53225449D01*
X96490847Y-53223400D01*
X96287952Y-53223400D01*
X96267149Y-53225449D01*
X96068173Y-53265027D01*
X96048159Y-53271099D01*
X95860722Y-53348738D01*
X95860719Y-53348739D01*
X95842281Y-53358594D01*
X95673594Y-53471307D01*
X95673586Y-53471313D01*
X95657451Y-53484554D01*
X95657442Y-53484562D01*
X95513962Y-53628042D01*
X95513954Y-53628051D01*
X95500713Y-53644186D01*
X95500707Y-53644194D01*
X95387994Y-53812881D01*
X95378139Y-53831319D01*
X95378138Y-53831322D01*
X95300499Y-54018759D01*
X95294427Y-54038773D01*
X95254849Y-54237749D01*
X95252800Y-54258552D01*
X94556100Y-54258552D01*
X94556100Y-52908681D01*
X94570685Y-52873468D01*
X94997715Y-52446437D01*
X95032928Y-52431852D01*
X95068142Y-52446438D01*
X95069330Y-52447668D01*
X95072093Y-52450628D01*
X95090790Y-52478610D01*
X95110529Y-52491799D01*
X95114465Y-52496015D01*
X95119279Y-52508868D01*
X95126906Y-52520282D01*
X95125743Y-52526127D01*
X95127834Y-52531709D01*
X95122148Y-52544203D01*
X95119471Y-52557665D01*
X95113142Y-52563994D01*
X95112047Y-52566401D01*
X95109950Y-52567186D01*
X95105732Y-52571405D01*
X95090791Y-52581388D01*
X95068223Y-52615164D01*
X95062300Y-52644942D01*
X95062300Y-53115053D01*
X95062301Y-53115063D01*
X95068222Y-53144835D01*
X95068223Y-53144837D01*
X95090788Y-53178608D01*
X95090789Y-53178608D01*
X95090790Y-53178610D01*
X95124563Y-53201176D01*
X95154345Y-53207100D01*
X95924454Y-53207099D01*
X95924455Y-53207098D01*
X95924463Y-53207098D01*
X95954235Y-53201177D01*
X95954237Y-53201176D01*
X95954942Y-53200705D01*
X95988010Y-53178610D01*
X96010576Y-53144837D01*
X96010577Y-53144831D01*
X96012453Y-53140305D01*
X96014216Y-53141035D01*
X96031286Y-53115492D01*
X96058952Y-53107100D01*
X96339227Y-53107100D01*
X96719847Y-53107100D01*
X96755061Y-53121686D01*
X96765255Y-53140755D01*
X96766346Y-53140304D01*
X96768223Y-53144837D01*
X96790788Y-53178608D01*
X96790789Y-53178608D01*
X96790790Y-53178610D01*
X96824563Y-53201176D01*
X96854345Y-53207100D01*
X97624454Y-53207099D01*
X97624455Y-53207098D01*
X97624463Y-53207098D01*
X97654235Y-53201177D01*
X97654237Y-53201176D01*
X97654942Y-53200705D01*
X97688010Y-53178610D01*
X97710576Y-53144837D01*
X97715420Y-53120483D01*
X97736596Y-53088793D01*
X97764263Y-53080400D01*
X98408643Y-53080400D01*
X98408645Y-53080400D01*
X98488181Y-53047455D01*
X98549055Y-52986581D01*
X98582000Y-52907045D01*
X98582000Y-52820955D01*
X98549055Y-52741419D01*
X98488181Y-52680545D01*
X98408645Y-52647600D01*
X98408644Y-52647600D01*
X97757287Y-52647600D01*
X97722073Y-52633014D01*
X97719044Y-52629698D01*
X97711720Y-52620917D01*
X97710576Y-52615163D01*
X97688010Y-52581390D01*
X97667094Y-52567415D01*
X97662493Y-52561898D01*
X97658794Y-52550044D01*
X97651893Y-52539717D01*
X97653324Y-52532517D01*
X97651139Y-52525513D01*
X97656905Y-52514515D01*
X97659328Y-52502334D01*
X97667661Y-52494000D01*
X97668838Y-52491757D01*
X97670388Y-52491273D01*
X97673068Y-52488593D01*
X97688010Y-52478610D01*
X97710576Y-52444837D01*
X97716500Y-52415055D01*
X97716500Y-52408100D01*
X97731086Y-52372886D01*
X97766300Y-52358300D01*
X98580318Y-52358300D01*
X98615532Y-52372886D01*
X98833114Y-52590468D01*
X98847700Y-52625682D01*
X98847700Y-54697318D01*
X98833114Y-54732532D01*
X96934732Y-56630914D01*
X96899518Y-56645500D01*
X96805346Y-56645500D01*
X96770132Y-56630914D01*
X96756503Y-56605415D01*
X96750993Y-56577716D01*
X96744742Y-56546288D01*
X96744741Y-56546286D01*
X96692340Y-56467861D01*
X96692337Y-56467858D01*
X96613911Y-56415457D01*
X96544751Y-56401700D01*
X96228047Y-56401700D01*
X96228046Y-56401700D01*
X96158886Y-56415457D01*
X96158885Y-56415457D01*
X96080460Y-56467858D01*
X96080457Y-56467861D01*
X96028056Y-56546286D01*
X96028056Y-56546287D01*
X96014299Y-56615447D01*
X96014299Y-57032152D01*
X96028056Y-57101312D01*
X96028056Y-57101313D01*
X96080457Y-57179738D01*
X96080459Y-57179740D01*
X96158887Y-57232143D01*
X96228047Y-57245900D01*
X96228052Y-57245900D01*
X96544746Y-57245900D01*
X96544751Y-57245900D01*
X96613911Y-57232143D01*
X96692339Y-57179740D01*
X96744742Y-57101312D01*
X96756503Y-57042184D01*
X96777679Y-57010493D01*
X96805346Y-57002100D01*
X97029464Y-57002100D01*
X97029466Y-57002100D01*
X97094999Y-56974955D01*
X99177155Y-54892799D01*
X99204300Y-54827266D01*
X99204300Y-54756334D01*
X99204300Y-54258552D01*
X100739200Y-54258552D01*
X100739200Y-54461447D01*
X100741249Y-54482250D01*
X100780827Y-54681226D01*
X100786899Y-54701240D01*
X100864538Y-54888677D01*
X100864539Y-54888680D01*
X100874394Y-54907118D01*
X100948446Y-55017945D01*
X100948447Y-55017945D01*
X101363735Y-54602657D01*
X101398949Y-54588071D01*
X101434163Y-54602657D01*
X101442077Y-54612971D01*
X101474020Y-54668297D01*
X101567503Y-54761780D01*
X101622827Y-54793721D01*
X101646030Y-54823960D01*
X101641055Y-54861749D01*
X101633141Y-54872063D01*
X101217853Y-55287351D01*
X101217853Y-55287352D01*
X101328681Y-55361405D01*
X101347119Y-55371260D01*
X101347122Y-55371261D01*
X101534559Y-55448900D01*
X101554573Y-55454972D01*
X101753549Y-55494550D01*
X101774352Y-55496599D01*
X101774355Y-55496600D01*
X101977245Y-55496600D01*
X101977247Y-55496599D01*
X101998050Y-55494550D01*
X102197026Y-55454972D01*
X102217040Y-55448900D01*
X102404477Y-55371261D01*
X102404480Y-55371260D01*
X102422918Y-55361405D01*
X102591605Y-55248692D01*
X102591613Y-55248686D01*
X102607748Y-55235445D01*
X102607757Y-55235437D01*
X102751237Y-55091957D01*
X102751245Y-55091948D01*
X102764486Y-55075813D01*
X102764492Y-55075805D01*
X102877205Y-54907118D01*
X102887060Y-54888680D01*
X102887061Y-54888677D01*
X102964700Y-54701240D01*
X102970772Y-54681226D01*
X103010350Y-54482250D01*
X103012399Y-54461447D01*
X103012400Y-54461445D01*
X103012400Y-54258555D01*
X103012399Y-54258552D01*
X103010350Y-54237749D01*
X102970772Y-54038773D01*
X102964700Y-54018759D01*
X102887061Y-53831322D01*
X102887060Y-53831319D01*
X102877205Y-53812881D01*
X102764492Y-53644194D01*
X102764486Y-53644186D01*
X102751245Y-53628051D01*
X102751237Y-53628042D01*
X102607757Y-53484562D01*
X102607748Y-53484554D01*
X102591613Y-53471313D01*
X102591605Y-53471307D01*
X102422918Y-53358594D01*
X102404480Y-53348739D01*
X102404477Y-53348738D01*
X102217040Y-53271099D01*
X102197026Y-53265027D01*
X101998050Y-53225449D01*
X101977247Y-53223400D01*
X101774352Y-53223400D01*
X101753549Y-53225449D01*
X101554573Y-53265027D01*
X101534559Y-53271099D01*
X101347122Y-53348738D01*
X101347119Y-53348739D01*
X101328681Y-53358594D01*
X101159994Y-53471307D01*
X101159986Y-53471313D01*
X101143851Y-53484554D01*
X101143842Y-53484562D01*
X101000362Y-53628042D01*
X101000354Y-53628051D01*
X100987113Y-53644186D01*
X100987107Y-53644194D01*
X100874394Y-53812881D01*
X100864539Y-53831319D01*
X100864538Y-53831322D01*
X100786899Y-54018759D01*
X100780827Y-54038773D01*
X100741249Y-54237749D01*
X100739200Y-54258552D01*
X99204300Y-54258552D01*
X99204300Y-53115005D01*
X100549201Y-53115005D01*
X100555094Y-53144641D01*
X100577551Y-53178248D01*
X100611159Y-53200705D01*
X100611158Y-53200705D01*
X100640795Y-53206599D01*
X100835300Y-53206599D01*
X101216300Y-53206599D01*
X101410802Y-53206599D01*
X101410805Y-53206598D01*
X101440441Y-53200705D01*
X101474048Y-53178248D01*
X101496505Y-53144641D01*
X101502399Y-53115007D01*
X101502400Y-53115001D01*
X101502400Y-53070500D01*
X101216300Y-53070500D01*
X101216300Y-53206599D01*
X100835300Y-53206599D01*
X100835300Y-53070500D01*
X100549201Y-53070500D01*
X100549201Y-53115005D01*
X99204300Y-53115005D01*
X99204300Y-52495734D01*
X99183218Y-52444837D01*
X99177156Y-52430201D01*
X98775799Y-52028845D01*
X98710266Y-52001700D01*
X98710265Y-52001700D01*
X97766299Y-52001700D01*
X97731085Y-51987114D01*
X97716499Y-51951900D01*
X97716499Y-51944947D01*
X97716498Y-51944942D01*
X100548700Y-51944942D01*
X100548700Y-52415053D01*
X100548701Y-52415063D01*
X100554622Y-52444835D01*
X100554623Y-52444837D01*
X100577188Y-52478608D01*
X100577189Y-52478609D01*
X100577190Y-52478610D01*
X100592579Y-52488892D01*
X100613756Y-52520583D01*
X100606321Y-52557966D01*
X100592583Y-52571706D01*
X100577551Y-52581751D01*
X100555094Y-52615358D01*
X100549200Y-52644992D01*
X100549200Y-52689500D01*
X101502399Y-52689500D01*
X101502399Y-52644998D01*
X101502398Y-52644994D01*
X101496505Y-52615358D01*
X101474048Y-52581750D01*
X101459017Y-52571706D01*
X101437843Y-52540014D01*
X101445280Y-52502631D01*
X101459016Y-52488895D01*
X101474410Y-52478610D01*
X101496976Y-52444837D01*
X101502900Y-52415055D01*
X101502899Y-51944946D01*
X101502899Y-51944945D01*
X101502898Y-51944936D01*
X101496977Y-51915164D01*
X101496976Y-51915162D01*
X101474411Y-51881391D01*
X101474407Y-51881388D01*
X101440637Y-51858824D01*
X101440634Y-51858823D01*
X101440636Y-51858823D01*
X101410857Y-51852900D01*
X101410855Y-51852900D01*
X101253900Y-51852900D01*
X101218686Y-51838314D01*
X101204100Y-51803100D01*
X101204100Y-50717053D01*
X101218686Y-50681839D01*
X101228991Y-50673931D01*
X101266847Y-50652076D01*
X101337876Y-50581047D01*
X101388101Y-50494054D01*
X101414100Y-50397025D01*
X101414100Y-50296575D01*
X101388101Y-50199546D01*
X101337876Y-50112553D01*
X101266847Y-50041524D01*
X101266846Y-50041523D01*
X101179857Y-49991301D01*
X101179854Y-49991299D01*
X101179851Y-49991298D01*
X101179849Y-49991297D01*
X101082826Y-49965300D01*
X101082825Y-49965300D01*
X100982375Y-49965300D01*
X100982373Y-49965300D01*
X100885350Y-49991297D01*
X100885342Y-49991301D01*
X100798353Y-50041523D01*
X100727323Y-50112553D01*
X100677101Y-50199542D01*
X100677097Y-50199550D01*
X100651100Y-50296573D01*
X100651100Y-50397026D01*
X100677097Y-50494049D01*
X100677101Y-50494057D01*
X100724119Y-50575497D01*
X100727324Y-50581047D01*
X100798353Y-50652076D01*
X100822599Y-50666074D01*
X100845803Y-50696310D01*
X100847500Y-50709201D01*
X100847500Y-51803100D01*
X100832914Y-51838314D01*
X100797700Y-51852900D01*
X100640746Y-51852900D01*
X100640736Y-51852901D01*
X100610964Y-51858822D01*
X100610962Y-51858823D01*
X100577191Y-51881388D01*
X100554623Y-51915164D01*
X100548700Y-51944942D01*
X97716498Y-51944942D01*
X97716497Y-51944936D01*
X97710577Y-51915164D01*
X97710576Y-51915162D01*
X97688011Y-51881391D01*
X97688007Y-51881388D01*
X97654237Y-51858824D01*
X97654234Y-51858823D01*
X97654236Y-51858823D01*
X97630378Y-51854078D01*
X97624455Y-51852900D01*
X97624454Y-51852900D01*
X96854346Y-51852900D01*
X96854336Y-51852901D01*
X96824564Y-51858822D01*
X96824562Y-51858823D01*
X96790791Y-51881388D01*
X96768223Y-51915164D01*
X96762300Y-51944942D01*
X96762300Y-52415053D01*
X96762301Y-52415063D01*
X96768222Y-52444835D01*
X96768223Y-52444837D01*
X96790788Y-52478608D01*
X96790789Y-52478609D01*
X96790790Y-52478610D01*
X96805729Y-52488592D01*
X96826906Y-52520282D01*
X96819471Y-52557665D01*
X96817019Y-52561022D01*
X96812180Y-52567097D01*
X96790790Y-52581390D01*
X96768224Y-52615163D01*
X96766333Y-52624668D01*
X96758804Y-52634123D01*
X96751899Y-52637945D01*
X96747514Y-52644508D01*
X96730989Y-52649520D01*
X96725457Y-52652583D01*
X96723113Y-52651909D01*
X96719848Y-52652900D01*
X96661300Y-52652900D01*
X96626086Y-52638314D01*
X96611500Y-52603100D01*
X96611500Y-51365651D01*
X96626086Y-51330437D01*
X96648275Y-51308248D01*
X96684326Y-51272196D01*
X96719539Y-51257611D01*
X96754753Y-51272197D01*
X96760946Y-51279743D01*
X96809056Y-51351744D01*
X96809057Y-51351745D01*
X96889135Y-51405252D01*
X96889137Y-51405253D01*
X96959756Y-51419300D01*
X96959761Y-51419300D01*
X97287439Y-51419300D01*
X97287444Y-51419300D01*
X97358063Y-51405253D01*
X97438144Y-51351744D01*
X97491653Y-51271663D01*
X97505700Y-51201044D01*
X97505700Y-51200996D01*
X97702000Y-51200996D01*
X97716017Y-51271467D01*
X97716018Y-51271469D01*
X97769414Y-51351382D01*
X97769417Y-51351385D01*
X97849328Y-51404780D01*
X97849333Y-51404781D01*
X97893099Y-51413487D01*
X98274100Y-51413487D01*
X98317866Y-51404781D01*
X98317871Y-51404780D01*
X98397782Y-51351385D01*
X98397785Y-51351382D01*
X98451181Y-51271469D01*
X98451182Y-51271467D01*
X98465199Y-51200996D01*
X98465200Y-51200990D01*
X98465200Y-51197700D01*
X98274100Y-51197700D01*
X98274100Y-51413487D01*
X97893099Y-51413487D01*
X97893100Y-51413486D01*
X97893100Y-51197700D01*
X97702000Y-51197700D01*
X97702000Y-51200996D01*
X97505700Y-51200996D01*
X97505700Y-50813403D01*
X97702000Y-50813403D01*
X97702000Y-50816700D01*
X97893100Y-50816700D01*
X98274100Y-50816700D01*
X98465200Y-50816700D01*
X98465200Y-50813410D01*
X98465199Y-50813403D01*
X98451182Y-50742932D01*
X98451181Y-50742930D01*
X98397785Y-50663017D01*
X98397782Y-50663014D01*
X98317869Y-50609618D01*
X98317867Y-50609617D01*
X98274100Y-50600912D01*
X98274100Y-50816700D01*
X97893100Y-50816700D01*
X97893100Y-50600912D01*
X97849332Y-50609617D01*
X97849330Y-50609618D01*
X97769417Y-50663014D01*
X97769414Y-50663017D01*
X97716018Y-50742930D01*
X97716017Y-50742932D01*
X97702000Y-50813403D01*
X97505700Y-50813403D01*
X97505700Y-50813356D01*
X97491653Y-50742737D01*
X97489060Y-50738857D01*
X97438145Y-50662657D01*
X97438142Y-50662654D01*
X97358064Y-50609147D01*
X97358062Y-50609146D01*
X97287446Y-50595100D01*
X97287444Y-50595100D01*
X96959756Y-50595100D01*
X96959753Y-50595100D01*
X96889137Y-50609146D01*
X96889135Y-50609147D01*
X96809057Y-50662654D01*
X96809054Y-50662657D01*
X96755547Y-50742735D01*
X96755547Y-50742737D01*
X96753960Y-50750716D01*
X96745890Y-50762793D01*
X96740331Y-50776214D01*
X96735617Y-50778166D01*
X96732784Y-50782407D01*
X96705117Y-50790800D01*
X96702751Y-50790800D01*
X96667537Y-50776214D01*
X96618646Y-50727323D01*
X96537458Y-50680450D01*
X96531654Y-50677099D01*
X96531651Y-50677098D01*
X96531649Y-50677097D01*
X96434626Y-50651100D01*
X96434625Y-50651100D01*
X96334175Y-50651100D01*
X96334173Y-50651100D01*
X96237150Y-50677097D01*
X96237142Y-50677101D01*
X96150153Y-50727323D01*
X96079123Y-50798353D01*
X96028901Y-50885342D01*
X96028897Y-50885350D01*
X96002900Y-50982373D01*
X96002900Y-51082826D01*
X96028897Y-51179849D01*
X96028901Y-51179857D01*
X96079123Y-51266846D01*
X96142714Y-51330437D01*
X96157300Y-51365651D01*
X96157300Y-52603100D01*
X96142714Y-52638314D01*
X96107500Y-52652900D01*
X96058953Y-52652900D01*
X96023739Y-52638314D01*
X96019997Y-52634124D01*
X96012466Y-52624668D01*
X96010576Y-52615163D01*
X95988010Y-52581390D01*
X95966614Y-52567094D01*
X95961780Y-52561024D01*
X95958496Y-52549599D01*
X95951893Y-52539717D01*
X95953432Y-52531976D01*
X95951253Y-52524392D01*
X95957009Y-52513992D01*
X95959328Y-52502334D01*
X95968588Y-52493073D01*
X95969712Y-52491044D01*
X95970983Y-52490678D01*
X95973068Y-52488593D01*
X95988010Y-52478610D01*
X96010576Y-52444837D01*
X96016500Y-52415055D01*
X96016499Y-51944946D01*
X96016499Y-51944945D01*
X96016498Y-51944936D01*
X96010577Y-51915164D01*
X96010576Y-51915162D01*
X95988011Y-51881391D01*
X95988007Y-51881388D01*
X95954237Y-51858824D01*
X95954234Y-51858823D01*
X95954236Y-51858823D01*
X95924457Y-51852900D01*
X95924455Y-51852900D01*
X95767500Y-51852900D01*
X95732286Y-51838314D01*
X95717700Y-51803100D01*
X95717700Y-50967386D01*
X95721490Y-50948331D01*
X95724500Y-50941065D01*
X95724500Y-50870134D01*
X95724500Y-50713127D01*
X95739086Y-50677913D01*
X95749395Y-50670003D01*
X95780447Y-50652076D01*
X95851476Y-50581047D01*
X95901701Y-50494054D01*
X95927700Y-50397025D01*
X95927700Y-50296575D01*
X95901701Y-50199546D01*
X95851476Y-50112553D01*
X95780447Y-50041524D01*
X95780446Y-50041523D01*
X95693457Y-49991301D01*
X95693454Y-49991299D01*
X95693451Y-49991298D01*
X95693449Y-49991297D01*
X95596426Y-49965300D01*
X95596425Y-49965300D01*
X95495975Y-49965300D01*
X95495973Y-49965300D01*
X95398950Y-49991297D01*
X95398942Y-49991301D01*
X95311953Y-50041523D01*
X95240923Y-50112553D01*
X95190701Y-50199542D01*
X95190697Y-50199550D01*
X95164700Y-50296573D01*
X95164700Y-50397026D01*
X95190697Y-50494049D01*
X95190701Y-50494057D01*
X95237719Y-50575497D01*
X95240924Y-50581047D01*
X95311953Y-50652076D01*
X95342999Y-50670000D01*
X95366203Y-50700236D01*
X95367900Y-50713127D01*
X95367900Y-50850612D01*
X95364109Y-50869669D01*
X95361100Y-50876931D01*
X95361100Y-51803100D01*
X95346514Y-51838314D01*
X95311300Y-51852900D01*
X95154346Y-51852900D01*
X95154336Y-51852901D01*
X95124564Y-51858822D01*
X95124562Y-51858823D01*
X95090791Y-51881388D01*
X95068223Y-51915164D01*
X95062300Y-51944942D01*
X95062300Y-51951900D01*
X95047714Y-51987114D01*
X95012500Y-52001700D01*
X94976534Y-52001700D01*
X94943767Y-52015272D01*
X94911000Y-52028845D01*
X94226645Y-52713200D01*
X94199500Y-52778733D01*
X93743300Y-52778733D01*
X93743300Y-51297327D01*
X93757886Y-51262113D01*
X93768195Y-51254203D01*
X93799247Y-51236276D01*
X93870276Y-51165247D01*
X93920501Y-51078254D01*
X93946500Y-50981225D01*
X93946500Y-50880775D01*
X93920501Y-50783746D01*
X93870276Y-50696753D01*
X93799247Y-50625724D01*
X93799246Y-50625723D01*
X93743746Y-50593681D01*
X93712254Y-50575499D01*
X93712251Y-50575498D01*
X93712249Y-50575497D01*
X93615226Y-50549500D01*
X93615225Y-50549500D01*
X93514775Y-50549500D01*
X93514773Y-50549500D01*
X93417750Y-50575497D01*
X93417742Y-50575501D01*
X93330753Y-50625723D01*
X93259723Y-50696753D01*
X93209501Y-50783742D01*
X93209497Y-50783750D01*
X93183500Y-50880773D01*
X93183500Y-50981226D01*
X93209497Y-51078249D01*
X93209498Y-51078251D01*
X93209499Y-51078254D01*
X93259724Y-51165247D01*
X93330753Y-51236276D01*
X93361799Y-51254200D01*
X93385003Y-51284436D01*
X93386700Y-51297327D01*
X93386700Y-59142318D01*
X93372114Y-59177532D01*
X93167514Y-59382132D01*
X93132300Y-59396718D01*
X93097086Y-59382132D01*
X93082500Y-59346918D01*
X93082500Y-57524535D01*
X93082500Y-57524534D01*
X93076830Y-57510845D01*
X93055356Y-57459001D01*
X92564086Y-56967731D01*
X92549500Y-56932517D01*
X92549500Y-50593681D01*
X92564085Y-50558468D01*
X93762830Y-49359722D01*
X93798043Y-49345137D01*
X93825710Y-49353530D01*
X93834979Y-49359723D01*
X93876011Y-49387140D01*
X94049283Y-49458912D01*
X94049289Y-49458913D01*
X94049292Y-49458914D01*
X94112238Y-49471434D01*
X94233226Y-49495500D01*
X94233230Y-49495500D01*
X94420770Y-49495500D01*
X94420774Y-49495500D01*
X94604717Y-49458912D01*
X94777989Y-49387140D01*
X94933928Y-49282945D01*
X95066545Y-49150328D01*
X95068820Y-49146924D01*
X95116697Y-49075270D01*
X95170740Y-48994389D01*
X95242512Y-48821117D01*
X95279100Y-48637174D01*
X95279100Y-48609410D01*
X97158300Y-48609410D01*
X97158300Y-48782189D01*
X97192003Y-48951631D01*
X97192006Y-48951641D01*
X97258123Y-49111262D01*
X97354108Y-49254915D01*
X97476284Y-49377091D01*
X97562241Y-49434524D01*
X97619937Y-49473076D01*
X97779559Y-49539194D01*
X97779565Y-49539195D01*
X97779568Y-49539196D01*
X97837555Y-49550730D01*
X97949013Y-49572900D01*
X97949017Y-49572900D01*
X98121783Y-49572900D01*
X98121787Y-49572900D01*
X98291241Y-49539194D01*
X98450863Y-49473076D01*
X98594519Y-49377088D01*
X98716688Y-49254919D01*
X98812676Y-49111263D01*
X98878794Y-48951641D01*
X98912500Y-48782187D01*
X98912500Y-48609413D01*
X98880716Y-48449623D01*
X98878796Y-48439968D01*
X98878795Y-48439965D01*
X98878794Y-48439959D01*
X98812676Y-48280337D01*
X98802891Y-48265692D01*
X98716691Y-48136684D01*
X98594515Y-48014508D01*
X98479905Y-47937929D01*
X98450863Y-47918524D01*
X98450861Y-47918523D01*
X98450862Y-47918523D01*
X98291241Y-47852406D01*
X98291231Y-47852403D01*
X98121789Y-47818700D01*
X98121787Y-47818700D01*
X97949013Y-47818700D01*
X97949010Y-47818700D01*
X97779568Y-47852403D01*
X97779558Y-47852406D01*
X97619937Y-47918523D01*
X97476284Y-48014508D01*
X97476282Y-48014511D01*
X97354111Y-48136682D01*
X97354108Y-48136684D01*
X97258123Y-48280337D01*
X97192006Y-48439958D01*
X97192003Y-48439968D01*
X97158300Y-48609410D01*
X95279100Y-48609410D01*
X95279100Y-48449626D01*
X95242512Y-48265683D01*
X95170740Y-48092411D01*
X95135142Y-48039135D01*
X95066548Y-47936475D01*
X94933924Y-47803851D01*
X94809514Y-47720724D01*
X94777989Y-47699660D01*
X94777987Y-47699659D01*
X94777988Y-47699659D01*
X94604717Y-47627888D01*
X94604707Y-47627885D01*
X94420776Y-47591300D01*
X94420774Y-47591300D01*
X94233226Y-47591300D01*
X94233223Y-47591300D01*
X94049292Y-47627885D01*
X94049282Y-47627888D01*
X93876011Y-47699659D01*
X93720075Y-47803851D01*
X93720073Y-47803854D01*
X93587454Y-47936473D01*
X93587451Y-47936475D01*
X93483259Y-48092411D01*
X93411488Y-48265682D01*
X93411485Y-48265692D01*
X93374900Y-48449623D01*
X93374900Y-48637176D01*
X93411485Y-48821107D01*
X93411488Y-48821117D01*
X93483259Y-48994388D01*
X93516868Y-49044688D01*
X93524304Y-49082071D01*
X93510675Y-49107569D01*
X92270201Y-50348045D01*
X92220045Y-50398200D01*
X92192900Y-50463733D01*
X92192900Y-57062466D01*
X92220045Y-57127999D01*
X92711314Y-57619268D01*
X92725900Y-57654482D01*
X92725900Y-59710893D01*
X92711314Y-59746107D01*
X92676100Y-59760693D01*
X92666385Y-59759736D01*
X92650708Y-59756618D01*
X92639055Y-59754300D01*
X92639054Y-59754300D01*
X92388946Y-59754300D01*
X92388936Y-59754301D01*
X92359164Y-59760222D01*
X92354633Y-59762100D01*
X92354115Y-59760851D01*
X92322582Y-59767122D01*
X92290891Y-59745944D01*
X92282500Y-59718279D01*
X92282500Y-57918335D01*
X92282500Y-57918334D01*
X92255355Y-57852801D01*
X92205199Y-57802645D01*
X91471886Y-57069332D01*
X91457300Y-57034118D01*
X91457300Y-48039135D01*
X91457300Y-48039134D01*
X91430155Y-47973601D01*
X91379999Y-47923445D01*
X90171085Y-46714531D01*
X90156499Y-46679317D01*
X90156499Y-45143342D01*
X93374900Y-45143342D01*
X93374900Y-46863453D01*
X93374901Y-46863463D01*
X93380822Y-46893235D01*
X93380823Y-46893237D01*
X93403388Y-46927008D01*
X93403389Y-46927008D01*
X93403390Y-46927010D01*
X93437163Y-46949576D01*
X93466945Y-46955500D01*
X95187054Y-46955499D01*
X95187055Y-46955498D01*
X95187063Y-46955498D01*
X95216835Y-46949577D01*
X95216837Y-46949576D01*
X95250610Y-46927010D01*
X95273176Y-46893237D01*
X95279100Y-46863455D01*
X95279099Y-45143346D01*
X95279099Y-45143345D01*
X95279098Y-45143336D01*
X95273177Y-45113564D01*
X95273176Y-45113562D01*
X95250611Y-45079791D01*
X95250607Y-45079788D01*
X95216837Y-45057224D01*
X95216834Y-45057223D01*
X95216836Y-45057223D01*
X95192978Y-45052478D01*
X95187055Y-45051300D01*
X95187054Y-45051300D01*
X93466946Y-45051300D01*
X93466936Y-45051301D01*
X93437164Y-45057222D01*
X93437162Y-45057223D01*
X93403391Y-45079788D01*
X93380823Y-45113564D01*
X93374900Y-45143342D01*
X90156499Y-45143342D01*
X90156499Y-45139946D01*
X90156498Y-45139936D01*
X90150577Y-45110164D01*
X90150576Y-45110162D01*
X90128011Y-45076391D01*
X90128007Y-45076388D01*
X90094237Y-45053824D01*
X90094234Y-45053823D01*
X90094236Y-45053823D01*
X90070378Y-45049078D01*
X90064455Y-45047900D01*
X90064454Y-45047900D01*
X88344346Y-45047900D01*
X88344336Y-45047901D01*
X88314564Y-45053822D01*
X88314562Y-45053823D01*
X88280791Y-45076388D01*
X88258223Y-45110164D01*
X88252300Y-45139942D01*
X88252300Y-46860053D01*
X88252301Y-46860063D01*
X88258222Y-46889835D01*
X88258223Y-46889837D01*
X88280788Y-46923608D01*
X88280789Y-46923608D01*
X88280790Y-46923610D01*
X88314563Y-46946176D01*
X88344345Y-46952100D01*
X89883717Y-46952099D01*
X89918931Y-46966685D01*
X91086114Y-48133868D01*
X91100700Y-48169082D01*
X91100700Y-57164066D01*
X91127845Y-57229599D01*
X91911314Y-58013068D01*
X91925900Y-58048282D01*
X91925900Y-58673118D01*
X91911314Y-58708332D01*
X91876100Y-58722918D01*
X91840886Y-58708332D01*
X90582886Y-57450332D01*
X90568300Y-57415118D01*
X90568300Y-49690134D01*
X90560349Y-49670940D01*
X90541156Y-49624601D01*
X90020722Y-49104168D01*
X90006137Y-49068955D01*
X90014528Y-49041290D01*
X90048140Y-48990989D01*
X90119912Y-48817717D01*
X90156500Y-48633774D01*
X90156500Y-48446226D01*
X90119912Y-48262283D01*
X90048140Y-48089011D01*
X90014814Y-48039135D01*
X89943948Y-47933075D01*
X89811324Y-47800451D01*
X89660476Y-47699659D01*
X89655389Y-47696260D01*
X89655387Y-47696259D01*
X89655388Y-47696259D01*
X89482117Y-47624488D01*
X89482107Y-47624485D01*
X89298176Y-47587900D01*
X89298174Y-47587900D01*
X89110626Y-47587900D01*
X89110623Y-47587900D01*
X88926692Y-47624485D01*
X88926682Y-47624488D01*
X88753411Y-47696259D01*
X88597475Y-47800451D01*
X88597473Y-47800454D01*
X88464854Y-47933073D01*
X88464851Y-47933075D01*
X88360659Y-48089011D01*
X88288888Y-48262282D01*
X88288885Y-48262292D01*
X88252300Y-48446223D01*
X88252300Y-48633776D01*
X88288885Y-48817707D01*
X88288888Y-48817717D01*
X88360659Y-48990988D01*
X88464851Y-49146924D01*
X88597475Y-49279548D01*
X88690782Y-49341892D01*
X88753411Y-49383740D01*
X88926683Y-49455512D01*
X88926689Y-49455513D01*
X88926692Y-49455514D01*
X88989638Y-49468034D01*
X89110626Y-49492100D01*
X89110630Y-49492100D01*
X89298170Y-49492100D01*
X89298174Y-49492100D01*
X89482117Y-49455512D01*
X89655389Y-49383740D01*
X89705689Y-49350129D01*
X89743069Y-49342694D01*
X89768569Y-49356323D01*
X90197114Y-49784868D01*
X90211700Y-49820082D01*
X90211700Y-57545066D01*
X90238845Y-57610599D01*
X91511314Y-58883068D01*
X91525900Y-58918282D01*
X91525900Y-59710893D01*
X91511314Y-59746107D01*
X91476100Y-59760693D01*
X91466385Y-59759736D01*
X91450708Y-59756618D01*
X91439055Y-59754300D01*
X91439054Y-59754300D01*
X91188946Y-59754300D01*
X91188936Y-59754301D01*
X91159164Y-59760222D01*
X91159162Y-59760223D01*
X91141215Y-59772215D01*
X91103832Y-59779650D01*
X91085882Y-59772214D01*
X91068643Y-59760695D01*
X91068641Y-59760694D01*
X91039007Y-59754800D01*
X91029000Y-59754800D01*
X91029000Y-60807999D01*
X91035060Y-60814059D01*
X91050783Y-60805656D01*
X91068642Y-60802105D01*
X91085881Y-60790586D01*
X91091378Y-60789492D01*
X91095421Y-60785609D01*
X91109477Y-60785891D01*
X91123263Y-60783149D01*
X91130926Y-60786322D01*
X91133528Y-60786375D01*
X91137557Y-60788139D01*
X91159163Y-60802576D01*
X91179965Y-60806713D01*
X91184918Y-60808883D01*
X91211322Y-60836372D01*
X91210556Y-60874479D01*
X91183067Y-60900883D01*
X91164939Y-60904300D01*
X91060494Y-60904300D01*
X91032783Y-60892822D01*
X91005076Y-60904300D01*
X90988947Y-60904300D01*
X90988936Y-60904301D01*
X90959165Y-60910222D01*
X90941666Y-60921915D01*
X90904283Y-60929350D01*
X90886335Y-60921915D01*
X90868837Y-60910224D01*
X90868836Y-60910223D01*
X90839057Y-60904300D01*
X90663059Y-60904300D01*
X90627845Y-60889714D01*
X90613259Y-60854500D01*
X90627845Y-60819286D01*
X90653345Y-60805656D01*
X90668837Y-60802576D01*
X90686783Y-60790584D01*
X90724165Y-60783149D01*
X90742118Y-60790585D01*
X90759358Y-60802104D01*
X90772405Y-60804700D01*
X90799000Y-60804700D01*
X90799000Y-59754800D01*
X90798999Y-59754799D01*
X90789000Y-59754800D01*
X90759356Y-59760695D01*
X90754829Y-59762571D01*
X90754346Y-59761407D01*
X90722576Y-59767721D01*
X90690888Y-59746540D01*
X90682500Y-59718880D01*
X90682500Y-58731335D01*
X90682500Y-58731334D01*
X90655355Y-58665801D01*
X90605199Y-58615645D01*
X89516086Y-57526532D01*
X89501500Y-57491318D01*
X89501500Y-56688299D01*
X89516086Y-56653085D01*
X89551300Y-56638499D01*
X89833253Y-56638499D01*
X89833254Y-56638499D01*
X89833255Y-56638498D01*
X89833263Y-56638498D01*
X89863035Y-56632577D01*
X89863037Y-56632576D01*
X89888671Y-56615448D01*
X89896810Y-56610010D01*
X89919376Y-56576237D01*
X89925300Y-56546455D01*
X89925299Y-55526346D01*
X89925299Y-55526345D01*
X89925298Y-55526336D01*
X89919377Y-55496564D01*
X89919376Y-55496562D01*
X89896811Y-55462791D01*
X89896807Y-55462788D01*
X89863037Y-55440224D01*
X89863034Y-55440223D01*
X89863036Y-55440223D01*
X89839178Y-55435478D01*
X89833255Y-55434300D01*
X89833254Y-55434300D01*
X88813146Y-55434300D01*
X88813136Y-55434301D01*
X88783364Y-55440222D01*
X88783362Y-55440223D01*
X88749591Y-55462788D01*
X88727023Y-55496564D01*
X88721100Y-55526342D01*
X88721100Y-56546453D01*
X88721101Y-56546463D01*
X88727022Y-56576235D01*
X88727023Y-56576237D01*
X88749588Y-56610008D01*
X88749589Y-56610008D01*
X88749590Y-56610010D01*
X88783363Y-56632576D01*
X88813145Y-56638500D01*
X89095100Y-56638499D01*
X89130314Y-56653085D01*
X89144900Y-56688299D01*
X89144900Y-57621266D01*
X89172045Y-57686799D01*
X90311314Y-58826068D01*
X90325900Y-58861282D01*
X90325900Y-59710893D01*
X90311314Y-59746107D01*
X90276100Y-59760693D01*
X90266385Y-59759736D01*
X90239057Y-59754300D01*
X90239055Y-59754300D01*
X90146282Y-59754300D01*
X90111068Y-59739714D01*
X89982999Y-59611645D01*
X89917466Y-59584500D01*
X89917465Y-59584500D01*
X89232482Y-59584500D01*
X89197268Y-59569914D01*
X88906486Y-59279132D01*
X88891900Y-59243918D01*
X88891900Y-59161175D01*
X88891899Y-59161173D01*
X88888791Y-59149574D01*
X88865901Y-59064146D01*
X88815676Y-58977153D01*
X88744647Y-58906124D01*
X88744646Y-58906123D01*
X88691409Y-58875387D01*
X88657654Y-58855899D01*
X88657651Y-58855898D01*
X88657649Y-58855897D01*
X88560626Y-58829900D01*
X88560625Y-58829900D01*
X88460175Y-58829900D01*
X88460173Y-58829900D01*
X88363150Y-58855897D01*
X88363142Y-58855901D01*
X88276153Y-58906123D01*
X88205123Y-58977153D01*
X88154901Y-59064142D01*
X88154897Y-59064150D01*
X88128900Y-59161173D01*
X88128900Y-59261626D01*
X88154897Y-59358649D01*
X88154898Y-59358651D01*
X88154899Y-59358654D01*
X88205124Y-59445647D01*
X88276153Y-59516676D01*
X88363146Y-59566901D01*
X88460175Y-59592900D01*
X88560625Y-59592900D01*
X88655350Y-59567518D01*
X88693139Y-59572493D01*
X88703453Y-59580407D01*
X88986845Y-59863799D01*
X89037001Y-59913955D01*
X89102534Y-59941100D01*
X89787518Y-59941100D01*
X89822732Y-59955686D01*
X89882314Y-60015268D01*
X89896900Y-60050482D01*
X89896900Y-60716453D01*
X89896901Y-60716463D01*
X89902822Y-60746235D01*
X89902823Y-60746237D01*
X89925388Y-60780008D01*
X89925389Y-60780008D01*
X89925390Y-60780010D01*
X89959163Y-60802576D01*
X89988945Y-60808500D01*
X90164940Y-60808499D01*
X90200154Y-60823085D01*
X90214740Y-60858299D01*
X90200154Y-60893513D01*
X90174655Y-60907142D01*
X90159164Y-60910223D01*
X90159162Y-60910223D01*
X90125391Y-60932788D01*
X90102823Y-60966564D01*
X90096900Y-60996342D01*
X90096900Y-62016453D01*
X90096901Y-62016463D01*
X90102822Y-62046234D01*
X90102823Y-62046236D01*
X90102824Y-62046237D01*
X90117507Y-62068212D01*
X90125900Y-62095879D01*
X90125900Y-62132900D01*
X90111314Y-62168114D01*
X90076100Y-62182700D01*
X90034973Y-62182700D01*
X89937950Y-62208697D01*
X89937942Y-62208701D01*
X89850953Y-62258923D01*
X89779923Y-62329953D01*
X89748837Y-62383796D01*
X89718598Y-62406999D01*
X89680809Y-62402024D01*
X89657606Y-62371785D01*
X89656866Y-62349180D01*
X89665599Y-62305274D01*
X89665600Y-62305271D01*
X89665600Y-61886900D01*
X89139000Y-61886900D01*
X89139000Y-61505900D01*
X89665600Y-61505900D01*
X89665600Y-61087529D01*
X89665599Y-61087522D01*
X89632876Y-60923006D01*
X89632871Y-60922992D01*
X89568681Y-60768019D01*
X89568679Y-60768017D01*
X89475484Y-60628539D01*
X89356860Y-60509915D01*
X89217382Y-60416720D01*
X89217380Y-60416718D01*
X89062407Y-60352528D01*
X89062395Y-60352524D01*
X89004500Y-60341008D01*
X89004500Y-60906108D01*
X88939445Y-60868549D01*
X88856787Y-60846400D01*
X88771213Y-60846400D01*
X88688555Y-60868549D01*
X88623500Y-60906108D01*
X88623500Y-60341008D01*
X88565604Y-60352524D01*
X88565592Y-60352528D01*
X88410619Y-60416718D01*
X88410617Y-60416720D01*
X88271139Y-60509915D01*
X88271137Y-60509918D01*
X88152518Y-60628537D01*
X88152515Y-60628539D01*
X88059320Y-60768017D01*
X88059318Y-60768019D01*
X87995128Y-60922992D01*
X87995123Y-60923006D01*
X87962400Y-61087522D01*
X87494900Y-61087522D01*
X87494900Y-53521534D01*
X88128900Y-53521534D01*
X88128900Y-57697466D01*
X88156045Y-57762999D01*
X88206201Y-57813155D01*
X88240412Y-57827325D01*
X88256564Y-57838118D01*
X88684089Y-58265643D01*
X88698675Y-58300857D01*
X88696978Y-58313745D01*
X88687700Y-58348371D01*
X88687700Y-58448826D01*
X88713697Y-58545849D01*
X88713701Y-58545857D01*
X88753992Y-58615645D01*
X88763924Y-58632847D01*
X88834953Y-58703876D01*
X88921946Y-58754101D01*
X89018975Y-58780100D01*
X89119425Y-58780100D01*
X89216454Y-58754101D01*
X89303447Y-58703876D01*
X89374476Y-58632847D01*
X89424701Y-58545854D01*
X89450700Y-58448825D01*
X89450700Y-58348375D01*
X89424701Y-58251346D01*
X89374476Y-58164353D01*
X89303447Y-58093324D01*
X89303446Y-58093323D01*
X89225431Y-58048282D01*
X89216454Y-58043099D01*
X89216451Y-58043098D01*
X89216449Y-58043097D01*
X89119426Y-58017100D01*
X89119425Y-58017100D01*
X89018975Y-58017100D01*
X89018971Y-58017100D01*
X88984345Y-58026378D01*
X88946556Y-58021403D01*
X88936243Y-58013489D01*
X88500086Y-57577331D01*
X88485500Y-57542117D01*
X88485500Y-53651481D01*
X88500085Y-53616268D01*
X88939668Y-53176684D01*
X88974882Y-53162099D01*
X89814253Y-53162099D01*
X89814254Y-53162099D01*
X89814255Y-53162098D01*
X89814263Y-53162098D01*
X89844035Y-53156177D01*
X89844037Y-53156176D01*
X89861012Y-53144834D01*
X89877810Y-53133610D01*
X89900376Y-53099837D01*
X89906300Y-53070055D01*
X89906299Y-52049946D01*
X89906299Y-52049945D01*
X89906298Y-52049936D01*
X89900377Y-52020164D01*
X89900376Y-52020162D01*
X89877811Y-51986391D01*
X89877807Y-51986388D01*
X89844037Y-51963824D01*
X89844034Y-51963823D01*
X89844036Y-51963823D01*
X89820178Y-51959078D01*
X89814255Y-51957900D01*
X89814254Y-51957900D01*
X88794146Y-51957900D01*
X88794136Y-51957901D01*
X88764364Y-51963822D01*
X88764362Y-51963823D01*
X88730591Y-51986388D01*
X88708023Y-52020164D01*
X88702100Y-52049942D01*
X88702100Y-52889317D01*
X88687514Y-52924531D01*
X88206201Y-53405845D01*
X88156045Y-53456000D01*
X88144218Y-53484554D01*
X88128900Y-53521534D01*
X87494900Y-53521534D01*
X87494900Y-44560294D01*
X87509486Y-44525080D01*
X87544700Y-44510494D01*
X96334100Y-44510494D01*
X96369314Y-44525080D01*
G37*
%TD.AperFunction*%
%TD*%
M02*
