%TF.GenerationSoftware,KiCad,Pcbnew,9.0.2*%
%TF.CreationDate,2025-09-24T14:10:20-04:00*%
%TF.ProjectId,auren-probe,61757265-6e2d-4707-926f-62652e6b6963,v2*%
%TF.SameCoordinates,Original*%
%TF.FileFunction,Soldermask,Top*%
%TF.FilePolarity,Negative*%
%FSLAX46Y46*%
G04 Gerber Fmt 4.6, Leading zero omitted, Abs format (unit mm)*
G04 Created by KiCad (PCBNEW 9.0.2) date 2025-09-24 14:10:20*
%MOMM*%
%LPD*%
G01*
G04 APERTURE LIST*
G04 Aperture macros list*
%AMRoundRect*
0 Rectangle with rounded corners*
0 $1 Rounding radius*
0 $2 $3 $4 $5 $6 $7 $8 $9 X,Y pos of 4 corners*
0 Add a 4 corners polygon primitive as box body*
4,1,4,$2,$3,$4,$5,$6,$7,$8,$9,$2,$3,0*
0 Add four circle primitives for the rounded corners*
1,1,$1+$1,$2,$3*
1,1,$1+$1,$4,$5*
1,1,$1+$1,$6,$7*
1,1,$1+$1,$8,$9*
0 Add four rect primitives between the rounded corners*
20,1,$1+$1,$2,$3,$4,$5,0*
20,1,$1+$1,$4,$5,$6,$7,0*
20,1,$1+$1,$6,$7,$8,$9,0*
20,1,$1+$1,$8,$9,$2,$3,0*%
%AMFreePoly0*
4,1,60,-0.506007,0.985649,-0.319461,0.908379,-0.151575,0.796201,-0.008799,0.653425,0.103379,0.485539,0.180649,0.298993,0.220040,0.100958,0.220040,-0.100958,0.180649,-0.298993,0.103379,-0.485539,-0.008799,-0.653425,-0.151575,-0.796201,-0.319461,-0.908379,-0.506007,-0.985649,-0.704042,-1.025040,-0.905958,-1.025040,-1.103993,-0.985649,-1.290539,-0.908379,-1.458425,-0.796201,-1.601201,-0.653425,
-1.713379,-0.485539,-1.790649,-0.298993,-1.830040,-0.100958,-1.830040,0.076358,-1.385000,0.076358,-1.385000,-0.076358,-1.345474,-0.223872,-1.269116,-0.356128,-1.161128,-0.464116,-1.028872,-0.540474,-0.881358,-0.580000,-0.728642,-0.580000,-0.581128,-0.540474,-0.448872,-0.464116,-0.340884,-0.356128,-0.264526,-0.223872,-0.225000,-0.076358,-0.225000,0.076358,-0.264526,0.223872,-0.340884,0.356128,
-0.448872,0.464116,-0.581128,0.540474,-0.728642,0.580000,-0.881358,0.580000,-1.028872,0.540474,-1.161128,0.464116,-1.269116,0.356128,-1.345474,0.223872,-1.385000,0.076358,-1.830040,0.076358,-1.830040,0.100958,-1.790649,0.298993,-1.713379,0.485539,-1.601201,0.653425,-1.458425,0.796201,-1.290539,0.908379,-1.103993,0.985649,-0.905958,1.025040,-0.704042,1.025040,-0.506007,0.985649,
-0.506007,0.985649,$1*%
G04 Aperture macros list end*
%ADD10FreePoly0,90.000000*%
%ADD11R,0.750000X0.450000*%
%ADD12C,0.800000*%
%ADD13RoundRect,0.140000X-0.140000X-0.170000X0.140000X-0.170000X0.140000X0.170000X-0.140000X0.170000X0*%
%ADD14FreePoly0,270.000000*%
%ADD15R,1.700000X1.700000*%
%ADD16O,1.700000X1.700000*%
%ADD17RoundRect,0.135000X-0.135000X-0.185000X0.135000X-0.185000X0.135000X0.185000X-0.135000X0.185000X0*%
%ADD18R,1.000000X1.000000*%
%ADD19C,1.550000*%
%ADD20RoundRect,0.140000X0.140000X0.170000X-0.140000X0.170000X-0.140000X-0.170000X0.140000X-0.170000X0*%
%ADD21R,0.230000X0.850000*%
%ADD22R,0.230000X1.000000*%
%ADD23O,1.500000X2.550000*%
G04 APERTURE END LIST*
D10*
%TO.C,MIC3*%
X105279400Y-53555000D03*
D11*
X106129400Y-55840000D03*
X106129400Y-56540000D03*
X104429400Y-55840000D03*
X104429400Y-56540000D03*
D12*
X105279400Y-54360000D03*
%TD*%
D13*
%TO.C,C1*%
X97123600Y-51007200D03*
X98083600Y-51007200D03*
%TD*%
D14*
%TO.C,MIC1*%
X96389400Y-55165000D03*
D11*
X95539400Y-52880000D03*
X95539400Y-52180000D03*
X97239400Y-52880000D03*
X97239400Y-52180000D03*
D12*
X96389400Y-54360000D03*
%TD*%
D15*
%TO.C,J3*%
X94327000Y-46003400D03*
D16*
X94327000Y-48543400D03*
%TD*%
D14*
%TO.C,MIC2*%
X101875800Y-55165000D03*
D11*
X101025800Y-52880000D03*
X101025800Y-52180000D03*
X102725800Y-52880000D03*
X102725800Y-52180000D03*
D12*
X101875800Y-54360000D03*
%TD*%
D13*
%TO.C,C2*%
X102660800Y-51083400D03*
X103620800Y-51083400D03*
%TD*%
D17*
%TO.C,R1*%
X95366401Y-56823800D03*
X96386399Y-56823800D03*
%TD*%
D18*
%TO.C,TP2*%
X89304200Y-52560000D03*
%TD*%
D17*
%TO.C,R3*%
X100471800Y-56747600D03*
X101491800Y-56747600D03*
%TD*%
D19*
%TO.C,H1*%
X98035400Y-48695800D03*
%TD*%
D10*
%TO.C,MIC4*%
X109394200Y-53555000D03*
D11*
X110244200Y-55840000D03*
X110244200Y-56540000D03*
X108544200Y-55840000D03*
X108544200Y-56540000D03*
D12*
X109394200Y-54360000D03*
%TD*%
D18*
%TO.C,TP1*%
X89323200Y-56036400D03*
%TD*%
D19*
%TO.C,H2*%
X98035400Y-60024200D03*
%TD*%
D17*
%TO.C,R2*%
X96386400Y-57992200D03*
X95366400Y-57992200D03*
%TD*%
D15*
%TO.C,J4*%
X89204400Y-46000000D03*
D16*
X89204400Y-48540000D03*
%TD*%
D20*
%TO.C,C4*%
X109437400Y-57662000D03*
X108477400Y-57662000D03*
%TD*%
D17*
%TO.C,R4*%
X100446401Y-57712800D03*
X101466399Y-57712800D03*
%TD*%
D20*
%TO.C,C3*%
X104357400Y-57662000D03*
X103397400Y-57662000D03*
%TD*%
D21*
%TO.C,J1*%
X93714000Y-60281400D03*
D22*
X93514000Y-61506400D03*
D21*
X93314000Y-60281400D03*
D22*
X93114000Y-61506400D03*
D21*
X92914000Y-60281400D03*
D22*
X92714000Y-61506400D03*
D21*
X92514000Y-60281400D03*
D22*
X92314000Y-61506400D03*
D21*
X92114000Y-60281400D03*
D22*
X91914000Y-61506400D03*
D21*
X91714000Y-60281400D03*
D22*
X91514000Y-61506400D03*
D21*
X91314000Y-60281400D03*
D22*
X91114000Y-61506400D03*
D21*
X90914000Y-60281400D03*
D22*
X90714000Y-61506400D03*
D21*
X90514000Y-60281400D03*
D22*
X90314000Y-61506400D03*
D21*
X90114000Y-60281400D03*
D23*
X88814000Y-61696400D03*
X88814000Y-65056400D03*
X95014000Y-61696400D03*
X95014000Y-65056400D03*
%TD*%
M02*
