M48
; DRILL file {KiCad 9.0.2} date 2025-09-24T14:10:13-0400
; FORMAT={-:-/ absolute / inch / decimal}
; #@! TF.CreationDate,2025-09-24T14:10:13-04:00
; #@! TF.GenerationSoftware,Kicad,Pcbnew,9.0.2
; #@! TF.FileFunction,Plated,1,2,PTH
FMAT,2
INCH
; #@! TA.AperFunction,Plated,PTH,ViaDrill
T1C0.0100
; #@! TA.AperFunction,Plated,PTH,ComponentDrill
T2C0.0256
; #@! TA.AperFunction,Plated,PTH,ComponentDrill
T3C0.0394
%
G90
G05
T1
X3.4847Y-2.3312
X3.5067Y-2.2992
X3.5467Y-2.4632
X3.5757Y-2.4652
X3.6057Y-2.4612
X3.6347Y-2.4672
X3.6647Y-2.4662
X3.6837Y-2.0052
X3.6967Y-2.4672
X3.7287Y-2.3522
X3.7617Y-1.9822
X3.7697Y-2.3332
X3.7947Y-2.0092
X3.8922Y-2.2707
X3.9777Y-1.9822
X4.0106Y-2.0112
X4.0337Y-2.2712
X4.1427Y-2.2772
X4.1783Y-2.3092
X4.2237Y-2.2692
X4.2897Y-2.3012
X4.3577Y-2.2702
T3
X3.512Y-1.811
X3.512Y-1.911
X3.7137Y-1.8112
X3.7137Y-1.9112
T2
G00X3.4966Y-2.4083
M15
G01X3.4966Y-2.4497
M16
G05
G00X3.4966Y-2.5406
M15
G01X3.4966Y-2.5819
M16
G05
G00X3.7407Y-2.4083
M15
G01X3.7407Y-2.4497
M16
G05
G00X3.7407Y-2.5406
M15
G01X3.7407Y-2.5819
M16
G05
M30
