%TF.GenerationSoftware,KiCad,Pcbnew,9.0.2*%
%TF.CreationDate,2025-09-24T14:10:20-04:00*%
%TF.ProjectId,auren-probe,61757265-6e2d-4707-926f-62652e6b6963,v2*%
%TF.SameCoordinates,Original*%
%TF.FileFunction,Paste,Top*%
%TF.FilePolarity,Positive*%
%FSLAX46Y46*%
G04 Gerber Fmt 4.6, Leading zero omitted, Abs format (unit mm)*
G04 Created by KiCad (PCBNEW 9.0.2) date 2025-09-24 14:10:20*
%MOMM*%
%LPD*%
G01*
G04 APERTURE LIST*
G04 Aperture macros list*
%AMRoundRect*
0 Rectangle with rounded corners*
0 $1 Rounding radius*
0 $2 $3 $4 $5 $6 $7 $8 $9 X,Y pos of 4 corners*
0 Add a 4 corners polygon primitive as box body*
4,1,4,$2,$3,$4,$5,$6,$7,$8,$9,$2,$3,0*
0 Add four circle primitives for the rounded corners*
1,1,$1+$1,$2,$3*
1,1,$1+$1,$4,$5*
1,1,$1+$1,$6,$7*
1,1,$1+$1,$8,$9*
0 Add four rect primitives between the rounded corners*
20,1,$1+$1,$2,$3,$4,$5,0*
20,1,$1+$1,$4,$5,$6,$7,0*
20,1,$1+$1,$6,$7,$8,$9,0*
20,1,$1+$1,$8,$9,$2,$3,0*%
G04 Aperture macros list end*
%ADD10C,0.400000*%
%ADD11RoundRect,0.140000X-0.140000X-0.170000X0.140000X-0.170000X0.140000X0.170000X-0.140000X0.170000X0*%
%ADD12RoundRect,0.135000X-0.135000X-0.185000X0.135000X-0.185000X0.135000X0.185000X-0.135000X0.185000X0*%
%ADD13RoundRect,0.140000X0.140000X0.170000X-0.140000X0.170000X-0.140000X-0.170000X0.140000X-0.170000X0*%
%ADD14R,0.230000X0.850000*%
%ADD15R,0.230000X1.000000*%
G04 APERTURE END LIST*
D10*
%TO.C,MIC3*%
X106001270Y-54714262D02*
G75*
G02*
X105783918Y-54986145I-721880J354272D01*
G01*
X105947135Y-53911973D02*
G75*
G02*
X106073918Y-54236147I-667740J-448029D01*
G01*
X105333535Y-55162289D02*
G75*
G02*
X104989401Y-55109999I-54138J802267D01*
G01*
X105225265Y-53557711D02*
G75*
G02*
X105569399Y-53610001I54135J-802289D01*
G01*
X104611665Y-54808027D02*
G75*
G02*
X104484882Y-54483853I667735J448027D01*
G01*
X104557530Y-54005738D02*
G75*
G02*
X104774881Y-53733854I721883J-354272D01*
G01*
X106229400Y-56540000D02*
X106029400Y-56540000D01*
X106229400Y-55840000D02*
X106029400Y-55840000D01*
X104529400Y-56540000D02*
X104329400Y-56540000D01*
X104529400Y-55840000D02*
X104329400Y-55840000D01*
%TO.C,MIC1*%
X97111270Y-54714262D02*
G75*
G02*
X96893919Y-54986146I-721883J354272D01*
G01*
X97057135Y-53911973D02*
G75*
G02*
X97183918Y-54236147I-667735J-448027D01*
G01*
X96443535Y-55162289D02*
G75*
G02*
X96099401Y-55109999I-54135J802289D01*
G01*
X96335265Y-53557711D02*
G75*
G02*
X96679399Y-53610001I54138J-802267D01*
G01*
X95721665Y-54808027D02*
G75*
G02*
X95594882Y-54483853I667740J448029D01*
G01*
X95667530Y-54005738D02*
G75*
G02*
X95884882Y-53733855I721880J-354272D01*
G01*
X97139400Y-52880000D02*
X97339400Y-52880000D01*
X97139400Y-52180000D02*
X97339400Y-52180000D01*
X95439400Y-52880000D02*
X95639400Y-52880000D01*
X95439400Y-52180000D02*
X95639400Y-52180000D01*
%TO.C,MIC2*%
X102597670Y-54714262D02*
G75*
G02*
X102380319Y-54986146I-721883J354272D01*
G01*
X102543535Y-53911973D02*
G75*
G02*
X102670318Y-54236147I-667735J-448027D01*
G01*
X101929935Y-55162289D02*
G75*
G02*
X101585801Y-55109999I-54135J802289D01*
G01*
X101821665Y-53557711D02*
G75*
G02*
X102165799Y-53610001I54138J-802267D01*
G01*
X101208065Y-54808027D02*
G75*
G02*
X101081282Y-54483853I667740J448029D01*
G01*
X101153930Y-54005738D02*
G75*
G02*
X101371282Y-53733855I721880J-354272D01*
G01*
X102625800Y-52880000D02*
X102825800Y-52880000D01*
X102625800Y-52180000D02*
X102825800Y-52180000D01*
X100925800Y-52880000D02*
X101125800Y-52880000D01*
X100925800Y-52180000D02*
X101125800Y-52180000D01*
%TO.C,MIC4*%
X110116070Y-54714262D02*
G75*
G02*
X109898718Y-54986145I-721880J354272D01*
G01*
X110061935Y-53911973D02*
G75*
G02*
X110188718Y-54236147I-667740J-448029D01*
G01*
X109448335Y-55162289D02*
G75*
G02*
X109104201Y-55109999I-54138J802267D01*
G01*
X109340065Y-53557711D02*
G75*
G02*
X109684199Y-53610001I54135J-802289D01*
G01*
X108726465Y-54808027D02*
G75*
G02*
X108599682Y-54483853I667735J448027D01*
G01*
X108672330Y-54005738D02*
G75*
G02*
X108889681Y-53733854I721883J-354272D01*
G01*
X110344200Y-56540000D02*
X110144200Y-56540000D01*
X110344200Y-55840000D02*
X110144200Y-55840000D01*
X108644200Y-56540000D02*
X108444200Y-56540000D01*
X108644200Y-55840000D02*
X108444200Y-55840000D01*
%TD*%
D11*
%TO.C,C1*%
X97123600Y-51007200D03*
X98083600Y-51007200D03*
%TD*%
%TO.C,C2*%
X102660800Y-51083400D03*
X103620800Y-51083400D03*
%TD*%
D12*
%TO.C,R1*%
X95366401Y-56823800D03*
X96386399Y-56823800D03*
%TD*%
%TO.C,R3*%
X100471800Y-56747600D03*
X101491800Y-56747600D03*
%TD*%
%TO.C,R2*%
X96386400Y-57992200D03*
X95366400Y-57992200D03*
%TD*%
D13*
%TO.C,C4*%
X109437400Y-57662000D03*
X108477400Y-57662000D03*
%TD*%
D12*
%TO.C,R4*%
X100446401Y-57712800D03*
X101466399Y-57712800D03*
%TD*%
D13*
%TO.C,C3*%
X104357400Y-57662000D03*
X103397400Y-57662000D03*
%TD*%
D14*
%TO.C,J1*%
X93714000Y-60281400D03*
D15*
X93514000Y-61506400D03*
D14*
X93314000Y-60281400D03*
D15*
X93114000Y-61506400D03*
D14*
X92914000Y-60281400D03*
D15*
X92714000Y-61506400D03*
D14*
X92514000Y-60281400D03*
D15*
X92314000Y-61506400D03*
D14*
X92114000Y-60281400D03*
D15*
X91914000Y-61506400D03*
D14*
X91714000Y-60281400D03*
D15*
X91514000Y-61506400D03*
D14*
X91314000Y-60281400D03*
D15*
X91114000Y-61506400D03*
D14*
X90914000Y-60281400D03*
D15*
X90714000Y-61506400D03*
D14*
X90514000Y-60281400D03*
D15*
X90314000Y-61506400D03*
D14*
X90114000Y-60281400D03*
%TD*%
M02*
