M48
; DRILL file {KiCad 9.0.2} date 2025-09-26T11:25:51-1000
; FORMAT={-:-/ absolute / inch / decimal}
; #@! TF.CreationDate,2025-09-26T11:25:51-10:00
; #@! TF.GenerationSoftware,Kicad,Pcbnew,9.0.2
; #@! TF.FileFunction,Plated,1,2,PTH
FMAT,2
INCH
; #@! TA.AperFunction,Plated,PTH,ViaDrill
T1C0.0100
; #@! TA.AperFunction,Plated,PTH,ComponentDrill
T2C0.0256
; #@! TA.AperFunction,Plated,PTH,ComponentDrill
T3C0.0394
%
G90
G05
T1
X3.4847Y-2.3312
X3.5067Y-2.2992
X3.5467Y-2.4632
X3.5757Y-2.4652
X3.6057Y-2.4612
X3.6347Y-2.4672
X3.6647Y-2.4662
X3.6817Y-1.9762
X3.6967Y-2.4672
X3.7157Y-2.3572
X3.7557Y-2.3232
X3.7607Y-1.9692
X3.7937Y-2.0002
X3.8922Y-2.2707
X3.9227Y-2.0072
X4.0107Y-1.9752
X4.0337Y-2.2712
X4.1037Y-2.2992
X4.1797Y-2.2702
X4.1897Y-2.0022
X4.2637Y-2.0062
T3
X3.512Y-1.811
X3.512Y-1.911
X3.7137Y-1.8112
X3.7137Y-1.9112
T2
G00X3.4966Y-2.4083
M15
G01X3.4966Y-2.4497
M16
G05
G00X3.4966Y-2.5406
M15
G01X3.4966Y-2.5819
M16
G05
G00X3.7407Y-2.4083
M15
G01X3.7407Y-2.4497
M16
G05
G00X3.7407Y-2.5406
M15
G01X3.7407Y-2.5819
M16
G05
M30
