%TF.GenerationSoftware,KiCad,Pcbnew,9.0.2*%
%TF.CreationDate,2025-09-26T11:25:47-10:00*%
%TF.ProjectId,auren-probe,61757265-6e2d-4707-926f-62652e6b6963,v2*%
%TF.SameCoordinates,Original*%
%TF.FileFunction,Legend,Bot*%
%TF.FilePolarity,Positive*%
%FSLAX46Y46*%
G04 Gerber Fmt 4.6, Leading zero omitted, Abs format (unit mm)*
G04 Created by KiCad (PCBNEW 9.0.2) date 2025-09-26 11:25:47*
%MOMM*%
%LPD*%
G01*
G04 APERTURE LIST*
%ADD10C,0.127000*%
%ADD11C,0.800000*%
%ADD12R,1.700000X1.700000*%
%ADD13O,1.700000X1.700000*%
%ADD14C,1.550000*%
%ADD15O,1.500000X2.550000*%
G04 APERTURE END LIST*
D10*
X92106219Y-45514325D02*
X91525648Y-45514325D01*
X91815933Y-45804610D02*
X91815933Y-45224039D01*
X92106219Y-49194656D02*
X91525648Y-49194656D01*
X95340486Y-50794856D02*
X95267914Y-50831141D01*
X95267914Y-50831141D02*
X95146962Y-50831141D01*
X95146962Y-50831141D02*
X95098581Y-50794856D01*
X95098581Y-50794856D02*
X95074390Y-50758570D01*
X95074390Y-50758570D02*
X95050200Y-50685998D01*
X95050200Y-50685998D02*
X95050200Y-50613427D01*
X95050200Y-50613427D02*
X95074390Y-50540856D01*
X95074390Y-50540856D02*
X95098581Y-50504570D01*
X95098581Y-50504570D02*
X95146962Y-50468284D01*
X95146962Y-50468284D02*
X95243724Y-50431998D01*
X95243724Y-50431998D02*
X95292105Y-50395713D01*
X95292105Y-50395713D02*
X95316295Y-50359427D01*
X95316295Y-50359427D02*
X95340486Y-50286856D01*
X95340486Y-50286856D02*
X95340486Y-50214284D01*
X95340486Y-50214284D02*
X95316295Y-50141713D01*
X95316295Y-50141713D02*
X95292105Y-50105427D01*
X95292105Y-50105427D02*
X95243724Y-50069141D01*
X95243724Y-50069141D02*
X95122771Y-50069141D01*
X95122771Y-50069141D02*
X95050200Y-50105427D01*
X94832485Y-50831141D02*
X94832485Y-50069141D01*
X94832485Y-50069141D02*
X94638961Y-50069141D01*
X94638961Y-50069141D02*
X94590580Y-50105427D01*
X94590580Y-50105427D02*
X94566390Y-50141713D01*
X94566390Y-50141713D02*
X94542199Y-50214284D01*
X94542199Y-50214284D02*
X94542199Y-50323141D01*
X94542199Y-50323141D02*
X94566390Y-50395713D01*
X94566390Y-50395713D02*
X94590580Y-50431998D01*
X94590580Y-50431998D02*
X94638961Y-50468284D01*
X94638961Y-50468284D02*
X94832485Y-50468284D01*
X94324485Y-50831141D02*
X94324485Y-50069141D01*
X94034199Y-50831141D02*
X94251914Y-50395713D01*
X94034199Y-50069141D02*
X94324485Y-50504570D01*
X93163342Y-50831141D02*
X93453628Y-50831141D01*
X93308485Y-50831141D02*
X93308485Y-50069141D01*
X93308485Y-50069141D02*
X93356866Y-50177998D01*
X93356866Y-50177998D02*
X93405247Y-50250570D01*
X93405247Y-50250570D02*
X93453628Y-50286856D01*
X90438286Y-50921856D02*
X90365714Y-50958141D01*
X90365714Y-50958141D02*
X90244762Y-50958141D01*
X90244762Y-50958141D02*
X90196381Y-50921856D01*
X90196381Y-50921856D02*
X90172190Y-50885570D01*
X90172190Y-50885570D02*
X90148000Y-50812998D01*
X90148000Y-50812998D02*
X90148000Y-50740427D01*
X90148000Y-50740427D02*
X90172190Y-50667856D01*
X90172190Y-50667856D02*
X90196381Y-50631570D01*
X90196381Y-50631570D02*
X90244762Y-50595284D01*
X90244762Y-50595284D02*
X90341524Y-50558998D01*
X90341524Y-50558998D02*
X90389905Y-50522713D01*
X90389905Y-50522713D02*
X90414095Y-50486427D01*
X90414095Y-50486427D02*
X90438286Y-50413856D01*
X90438286Y-50413856D02*
X90438286Y-50341284D01*
X90438286Y-50341284D02*
X90414095Y-50268713D01*
X90414095Y-50268713D02*
X90389905Y-50232427D01*
X90389905Y-50232427D02*
X90341524Y-50196141D01*
X90341524Y-50196141D02*
X90220571Y-50196141D01*
X90220571Y-50196141D02*
X90148000Y-50232427D01*
X89930285Y-50958141D02*
X89930285Y-50196141D01*
X89930285Y-50196141D02*
X89736761Y-50196141D01*
X89736761Y-50196141D02*
X89688380Y-50232427D01*
X89688380Y-50232427D02*
X89664190Y-50268713D01*
X89664190Y-50268713D02*
X89639999Y-50341284D01*
X89639999Y-50341284D02*
X89639999Y-50450141D01*
X89639999Y-50450141D02*
X89664190Y-50522713D01*
X89664190Y-50522713D02*
X89688380Y-50558998D01*
X89688380Y-50558998D02*
X89736761Y-50595284D01*
X89736761Y-50595284D02*
X89930285Y-50595284D01*
X89422285Y-50958141D02*
X89422285Y-50196141D01*
X89131999Y-50958141D02*
X89349714Y-50522713D01*
X89131999Y-50196141D02*
X89422285Y-50631570D01*
X88551428Y-50268713D02*
X88527237Y-50232427D01*
X88527237Y-50232427D02*
X88478856Y-50196141D01*
X88478856Y-50196141D02*
X88357904Y-50196141D01*
X88357904Y-50196141D02*
X88309523Y-50232427D01*
X88309523Y-50232427D02*
X88285332Y-50268713D01*
X88285332Y-50268713D02*
X88261142Y-50341284D01*
X88261142Y-50341284D02*
X88261142Y-50413856D01*
X88261142Y-50413856D02*
X88285332Y-50522713D01*
X88285332Y-50522713D02*
X88575618Y-50958141D01*
X88575618Y-50958141D02*
X88261142Y-50958141D01*
%LPC*%
D11*
%TO.C,MIC3*%
X105279400Y-54360000D03*
%TD*%
%TO.C,MIC1*%
X96389400Y-54360000D03*
%TD*%
D12*
%TO.C,J3*%
X94327000Y-46003400D03*
D13*
X94327000Y-48543400D03*
%TD*%
D11*
%TO.C,MIC2*%
X101875800Y-54360000D03*
%TD*%
D14*
%TO.C,H1*%
X98035400Y-48695800D03*
%TD*%
D11*
%TO.C,MIC4*%
X109394200Y-54360000D03*
%TD*%
D14*
%TO.C,H2*%
X98035400Y-60024200D03*
%TD*%
D12*
%TO.C,J4*%
X89204400Y-46000000D03*
D13*
X89204400Y-48540000D03*
%TD*%
D15*
%TO.C,J1*%
X88814000Y-61696400D03*
X88814000Y-65056400D03*
X95014000Y-61696400D03*
X95014000Y-65056400D03*
%TD*%
%LPD*%
M02*
